<?xml version="1.0" standalone="no"?>
<!DOCTYPE svg PUBLIC "-//W3C//DTD SVG 1.1//EN" "http://www.w3.org/Graphics/SVG/1.1/DTD/svg11.dtd" >
<svg xmlns="http://www.w3.org/2000/svg" xmlns:xlink="http://www.w3.org/1999/xlink" version="1.1">
<metadata>
Created by FontForge 20201107 at Mon Apr  2 14:12:26 2018
 By Jimmy Wärting
Pangram Pangram Foundry
</metadata>
<defs>
<font id="NeueMontreal-Bold" horiz-adv-x="0" >
  <font-face 
    font-family="Neue Montreal"
    font-weight="700"
    font-stretch="normal"
    units-per-em="1000"
    panose-1="0 0 8 0 0 0 0 0 0 0"
    ascent="770"
    descent="-230"
    x-height="512"
    cap-height="715"
    bbox="-570 -263 1256 972"
    underline-thickness="50"
    underline-position="-100"
    stemh="130"
    stemv="117"
    unicode-range="U+0020-25CA"
  />
<missing-glyph horiz-adv-x="500" 
d="M410 770v-1000h-317v1000h317zM333 703h-165v-33h65v-37h-66v-33h166v33h-66v37h66v33zM267 574h-100v-104h166v34h-66v70zM233 540v-36h-33v36h33zM333 443h-166v-33h66v-37h-66v-33h100v70h66v33zM333 383h-33v-66h-133v-34h166v100zM333 261h-100v-56h34v23h33v-47
h-100v80h-33v-113h166v113zM333 88h-166v-113h166v113zM300 55v-47h-100v47h100zM333 -48h-166v-33h70l-70 -47v-33h166v33h-102l70 47h32v33z" />
    <glyph glyph-name=".notdef" horiz-adv-x="500" 
d="M410 770v-1000h-317v1000h317zM333 703h-165v-33h65v-37h-66v-33h166v33h-66v37h66v33zM267 574h-100v-104h166v34h-66v70zM233 540v-36h-33v36h33zM333 443h-166v-33h66v-37h-66v-33h100v70h66v33zM333 383h-33v-66h-133v-34h166v100zM333 261h-100v-56h34v23h33v-47
h-100v80h-33v-113h166v113zM333 88h-166v-113h166v113zM300 55v-47h-100v47h100zM333 -48h-166v-33h70l-70 -47v-33h166v33h-102l70 47h32v33z" />
    <glyph glyph-name="A" unicode="A" horiz-adv-x="697" 
d="M470 149h-245l-46 -149h-180l259 715h180l258 -715h-180zM266 286h164l-81 264h-2z" />
    <glyph glyph-name="Aacute" unicode="&#xc1;" horiz-adv-x="697" 
d="M329 923h180l-103 -140h-120zM470 149h-245l-46 -149h-180l259 715h180l258 -715h-180zM266 286h164l-81 264h-2z" />
    <glyph glyph-name="Abreve" unicode="&#x102;" horiz-adv-x="697" 
d="M348 777c-91 0 -157 57 -160 146h92c3 -29 25 -48 68 -48s65 19 68 48h92c-4 -86 -67 -146 -160 -146zM470 149h-245l-46 -149h-180l259 715h180l258 -715h-180zM266 286h164l-81 264h-2z" />
    <glyph glyph-name="Acircumflex" unicode="&#xc2;" horiz-adv-x="697" 
d="M163 783l107 140h156l107 -140h-139l-45 69h-2l-45 -69h-139zM470 149h-245l-46 -149h-180l259 715h180l258 -715h-180zM266 286h164l-81 264h-2z" />
    <glyph glyph-name="Adieresis" unicode="&#xc4;" horiz-adv-x="697" 
d="M164 853c0 41 28 76 77 76s76 -35 76 -76s-27 -76 -76 -76c-50 0 -77 35 -77 76zM379 853c0 41 28 76 77 76s76 -35 76 -76s-27 -76 -76 -76c-50 0 -77 35 -77 76zM470 149h-245l-46 -149h-180l259 715h180l258 -715h-180zM266 286h164l-81 264h-2z" />
    <glyph glyph-name="Agrave" unicode="&#xc0;" horiz-adv-x="697" 
d="M366 923l43 -140h-120l-103 140h180zM470 149h-245l-46 -149h-180l259 715h180l258 -715h-180zM266 286h164l-81 264h-2z" />
    <glyph glyph-name="Amacron" unicode="&#x100;" horiz-adv-x="697" 
d="M205 903h286v-100h-286v100zM470 149h-245l-46 -149h-180l259 715h180l258 -715h-180zM266 286h164l-81 264h-2z" />
    <glyph glyph-name="Aogonek" unicode="&#x104;" horiz-adv-x="697" 
d="M660 -83c13 0 27 3 41 7v-90c-23 -6 -53 -11 -81 -11c-75 0 -114 30 -114 84c0 47 38 78 70 93h-60l-46 149h-245l-46 -149h-180l259 715h180l258 -715h-19c-26 -22 -48 -40 -48 -61c0 -15 11 -22 31 -22zM266 286h164l-81 264h-2z" />
    <glyph glyph-name="Aring" unicode="&#xc5;" horiz-adv-x="697" 
d="M348 772c-55 0 -102 38 -102 100c0 61 47 100 102 100c56 0 102 -39 102 -100c0 -62 -46 -100 -102 -100zM348 827c25 0 42 16 42 45s-17 45 -42 45c-24 0 -41 -16 -41 -45s17 -45 41 -45zM470 149h-245l-46 -149h-180l259 715h180l258 -715h-180zM266 286h164l-81 264
h-2z" />
    <glyph glyph-name="Atilde" unicode="&#xc3;" horiz-adv-x="697" 
d="M182 797c0 97 31 135 88 135c46 0 90 -38 128 -38c27 0 33 19 33 38h83c0 -98 -31 -135 -88 -135c-46 0 -90 37 -128 37c-27 0 -33 -19 -33 -37h-83zM470 149h-245l-46 -149h-180l259 715h180l258 -715h-180zM266 286h164l-81 264h-2z" />
    <glyph glyph-name="AE" unicode="&#xc6;" horiz-adv-x="1008" 
d="M611 147h368v-147h-548v147h-206l-46 -149h-180l270 717h704v-147h-362v-127h312v-147h-312v-147zM266 284h165v284h-73z" />
    <glyph glyph-name="B" unicode="B" horiz-adv-x="671" 
d="M623 535c0 -88 -52 -132 -111 -152v-2c75 -13 139 -63 139 -170c0 -152 -97 -211 -245 -211h-357v715h347c149 0 227 -58 227 -180zM229 426h124c50 0 90 12 90 71s-40 71 -90 71h-124v-142zM229 316v-169h129c75 0 113 18 113 85s-38 84 -113 84h-129z" />
    <glyph glyph-name="C" unicode="C" horiz-adv-x="697" 
d="M503 449c-13 78 -49 135 -144 135c-119 0 -159 -92 -159 -226c0 -135 40 -227 159 -227c96 0 132 57 144 137h180c-16 -168 -120 -284 -316 -284c-226 0 -347 158 -347 374c0 215 121 373 347 373c195 0 299 -116 316 -282h-180z" />
    <glyph glyph-name="Cacute" unicode="&#x106;" horiz-adv-x="697" 
d="M353 923h180l-103 -140h-120zM503 449c-13 78 -49 135 -144 135c-119 0 -159 -92 -159 -226c0 -135 40 -227 159 -227c96 0 132 57 144 137h180c-16 -168 -120 -284 -316 -284c-226 0 -347 158 -347 374c0 215 121 373 347 373c195 0 299 -116 316 -282h-180z" />
    <glyph glyph-name="Ccaron" unicode="&#x10c;" horiz-adv-x="697" 
d="M187 923h139l45 -69h2l45 69h139l-107 -140h-156zM503 449c-13 78 -49 135 -144 135c-119 0 -159 -92 -159 -226c0 -135 40 -227 159 -227c96 0 132 57 144 137h180c-16 -168 -120 -284 -316 -284c-226 0 -347 158 -347 374c0 215 121 373 347 373
c195 0 299 -116 316 -282h-180z" />
    <glyph glyph-name="Ccedilla" unicode="&#xc7;" horiz-adv-x="697" 
d="M359 131c96 0 132 57 144 137h180c-15 -159 -109 -271 -284 -283l-34 -37v-2c57 6 112 -15 112 -67c0 -48 -60 -77 -131 -77c-47 0 -84 12 -112 29l30 35c19 -9 45 -15 69 -15c18 0 44 8 44 29c0 19 -17 27 -38 27c-13 0 -24 -3 -35 -7l-17 24l53 61
c-209 12 -320 166 -320 373c0 215 121 373 347 373c195 0 299 -116 316 -282h-180c-13 78 -49 135 -144 135c-119 0 -159 -92 -159 -226c0 -135 40 -227 159 -227z" />
    <glyph glyph-name="Cdotaccent" unicode="&#x10a;" horiz-adv-x="697" 
d="M295 853c0 41 28 76 77 76s76 -35 76 -76s-27 -76 -76 -76c-50 0 -77 35 -77 76zM503 449c-13 78 -49 135 -144 135c-119 0 -159 -92 -159 -226c0 -135 40 -227 159 -227c96 0 132 57 144 137h180c-16 -168 -120 -284 -316 -284c-226 0 -347 158 -347 374
c0 215 121 373 347 373c195 0 299 -116 316 -282h-180z" />
    <glyph glyph-name="D" unicode="D" horiz-adv-x="705" 
d="M49 0v715h317c199 0 319 -128 319 -358s-110 -357 -309 -357h-327zM229 568v-421h119c112 0 157 80 157 210s-45 211 -157 211h-119z" />
    <glyph glyph-name="Eth" unicode="&#xd0;" horiz-adv-x="714" 
d="M375 715c199 0 319 -128 319 -358s-110 -357 -309 -357h-327v325h-55v90h55v300h317zM357 147c112 0 157 80 157 210s-45 211 -157 211h-119v-153h143v-90h-143v-178h119z" />
    <glyph glyph-name="Dcaron" unicode="&#x10e;" horiz-adv-x="705" 
d="M132 923h139l45 -69h2l45 69h139l-107 -140h-156zM49 0v715h317c199 0 319 -128 319 -358s-110 -357 -309 -357h-327zM229 568v-421h119c112 0 157 80 157 210s-45 211 -157 211h-119z" />
    <glyph glyph-name="Dcroat" unicode="&#x110;" horiz-adv-x="714" 
d="M375 715c199 0 319 -128 319 -358s-110 -357 -309 -357h-327v325h-55v90h55v300h317zM357 147c112 0 157 80 157 210s-45 211 -157 211h-119v-153h143v-90h-143v-178h119z" />
    <glyph glyph-name="E" unicode="E" horiz-adv-x="628" 
d="M229 441h312v-147h-312v-147h368v-147h-548v715h542v-147h-362v-127z" />
    <glyph glyph-name="Eacute" unicode="&#xc9;" horiz-adv-x="628" 
d="M304 923h180l-103 -140h-120zM229 441h312v-147h-312v-147h368v-147h-548v715h542v-147h-362v-127z" />
    <glyph glyph-name="Ecaron" unicode="&#x11a;" horiz-adv-x="628" 
d="M138 923h139l45 -69h2l45 69h139l-107 -140h-156zM229 441h312v-147h-312v-147h368v-147h-548v715h542v-147h-362v-127z" />
    <glyph glyph-name="Ecircumflex" unicode="&#xca;" horiz-adv-x="628" 
d="M138 783l107 140h156l107 -140h-139l-45 69h-2l-45 -69h-139zM229 441h312v-147h-312v-147h368v-147h-548v715h542v-147h-362v-127z" />
    <glyph glyph-name="Edieresis" unicode="&#xcb;" horiz-adv-x="628" 
d="M139 853c0 41 28 76 77 76s76 -35 76 -76s-27 -76 -76 -76c-50 0 -77 35 -77 76zM354 853c0 41 28 76 77 76s76 -35 76 -76s-27 -76 -76 -76c-50 0 -77 35 -77 76zM229 441h312v-147h-312v-147h368v-147h-548v715h542v-147h-362v-127z" />
    <glyph glyph-name="Edotaccent" unicode="&#x116;" horiz-adv-x="628" 
d="M246 853c0 41 28 76 77 76s76 -35 76 -76s-27 -76 -76 -76c-50 0 -77 35 -77 76zM229 441h312v-147h-312v-147h368v-147h-548v715h542v-147h-362v-127z" />
    <glyph glyph-name="Egrave" unicode="&#xc8;" horiz-adv-x="628" 
d="M341 923l43 -140h-120l-103 140h180zM229 441h312v-147h-312v-147h368v-147h-548v715h542v-147h-362v-127z" />
    <glyph glyph-name="Emacron" unicode="&#x112;" horiz-adv-x="628" 
d="M180 903h286v-100h-286v100zM229 441h312v-147h-312v-147h368v-147h-548v715h542v-147h-362v-127z" />
    <glyph glyph-name="Eogonek" unicode="&#x118;" horiz-adv-x="628" 
d="M576 -83c13 0 27 3 41 7v-90c-23 -6 -53 -11 -81 -11c-75 0 -114 30 -114 84c0 47 38 78 70 93h-443v715h542v-147h-362v-127h312v-147h-312v-147h368v-147h-4c-26 -22 -48 -40 -48 -61c0 -15 11 -22 31 -22z" />
    <glyph glyph-name="F" unicode="F" horiz-adv-x="602" 
d="M229 411h287v-147h-287v-264h-180v715h532v-147h-352v-157z" />
    <glyph glyph-name="G" unicode="G" horiz-adv-x="737" 
d="M509 478c-13 49 -46 106 -145 106c-118 0 -163 -92 -163 -226c0 -135 45 -227 170 -227c83 0 141 50 143 119h-136v130h322v-380h-129l-18 91h-2c-34 -65 -101 -107 -206 -107c-203 0 -324 158 -324 374c0 215 121 373 346 373c196 0 305 -116 322 -253h-180z" />
    <glyph glyph-name="Gbreve" unicode="&#x11e;" horiz-adv-x="737" 
d="M366 777c-91 0 -157 57 -160 146h92c3 -29 25 -48 68 -48s65 19 68 48h92c-4 -86 -67 -146 -160 -146zM509 478c-13 49 -46 106 -145 106c-118 0 -163 -92 -163 -226c0 -135 45 -227 170 -227c83 0 141 50 143 119h-136v130h322v-380h-129l-18 91h-2
c-34 -65 -101 -107 -206 -107c-203 0 -324 158 -324 374c0 215 121 373 346 373c196 0 305 -116 322 -253h-180z" />
    <glyph glyph-name="Gcommaaccent" unicode="&#x122;" horiz-adv-x="737" 
d="M509 478c-13 49 -46 106 -145 106c-118 0 -163 -92 -163 -226c0 -135 45 -227 170 -227c83 0 141 50 143 119h-136v130h322v-380h-129l-18 91h-2c-34 -65 -101 -107 -206 -107c-203 0 -324 158 -324 374c0 215 121 373 346 373c196 0 305 -116 322 -253h-180zM369 -169
c-44 -10 -74 20 -74 56s30 66 69 66c48 0 71 -40 71 -89c0 -66 -40 -118 -132 -127v46c39 5 66 21 66 48z" />
    <glyph glyph-name="Gdotaccent" unicode="&#x120;" horiz-adv-x="737" 
d="M289 853c0 41 28 76 77 76s76 -35 76 -76s-27 -76 -76 -76c-50 0 -77 35 -77 76zM509 478c-13 49 -46 106 -145 106c-118 0 -163 -92 -163 -226c0 -135 45 -227 170 -227c83 0 141 50 143 119h-136v130h322v-380h-129l-18 91h-2c-34 -65 -101 -107 -206 -107
c-203 0 -324 158 -324 374c0 215 121 373 346 373c196 0 305 -116 322 -253h-180z" />
    <glyph glyph-name="H" unicode="H" horiz-adv-x="703" 
d="M49 715h180v-280h245v280h180v-715h-180v288h-245v-288h-180v715z" />
    <glyph glyph-name="Hbar" unicode="&#x126;" horiz-adv-x="714" 
d="M709 616v-90h-54v-526h-180v288h-245v-288h-180v526h-55v90h55v99h180v-99h245v99h180v-99h54zM475 435v91h-245v-91h245z" />
    <glyph glyph-name="I" unicode="I" horiz-adv-x="279" 
d="M50 715h180v-715h-180v715z" />
    <glyph glyph-name="Iacute" unicode="&#xcd;" horiz-adv-x="279" 
d="M121 923h180l-103 -140h-120zM50 715h180v-715h-180v715z" />
    <glyph glyph-name="Icircumflex" unicode="&#xce;" horiz-adv-x="279" 
d="M-45 783l107 140h156l107 -140h-139l-45 69h-2l-45 -69h-139zM50 715h180v-715h-180v715z" />
    <glyph glyph-name="Idieresis" unicode="&#xcf;" horiz-adv-x="279" 
d="M-44 853c0 41 28 76 77 76s76 -35 76 -76s-27 -76 -76 -76c-50 0 -77 35 -77 76zM171 853c0 41 28 76 77 76s76 -35 76 -76s-27 -76 -76 -76c-50 0 -77 35 -77 76zM50 715h180v-715h-180v715z" />
    <glyph glyph-name="Idotaccent" unicode="&#x130;" horiz-adv-x="279" 
d="M63 853c0 41 28 76 77 76s76 -35 76 -76s-27 -76 -76 -76c-50 0 -77 35 -77 76zM50 715h180v-715h-180v715z" />
    <glyph glyph-name="Igrave" unicode="&#xcc;" horiz-adv-x="279" 
d="M158 923l43 -140h-120l-103 140h180zM50 715h180v-715h-180v715z" />
    <glyph glyph-name="Imacron" unicode="&#x12a;" horiz-adv-x="279" 
d="M-3 903h286v-100h-286v100zM50 715h180v-715h-180v715z" />
    <glyph glyph-name="Iogonek" unicode="&#x12e;" horiz-adv-x="279" 
d="M212 -83c13 0 27 3 41 7v-90c-23 -6 -53 -11 -81 -11c-75 0 -114 30 -114 84c0 47 38 78 70 93h-78v715h180v-715h-1c-26 -22 -48 -40 -48 -61c0 -15 11 -22 31 -22z" />
    <glyph glyph-name="J" unicode="J" horiz-adv-x="545" 
d="M503 238c0 -138 -49 -254 -245 -254s-245 116 -245 254v60h160v-60c0 -68 16 -107 75 -107s75 39 75 107v477h180v-477z" />
    <glyph glyph-name="K" unicode="K" horiz-adv-x="697" 
d="M49 715h180v-290l249 290h210l-272 -315l282 -400h-210l-187 271l-72 -82v-189h-180v715z" />
    <glyph glyph-name="Kcommaaccent" unicode="&#x136;" horiz-adv-x="697" 
d="M49 715h180v-290l249 290h210l-272 -315l282 -400h-210l-187 271l-72 -82v-189h-180v715zM358 -169c-44 -10 -74 20 -74 56s30 66 69 66c48 0 71 -40 71 -89c0 -66 -40 -118 -132 -127v46c39 5 66 21 66 48z" />
    <glyph glyph-name="L" unicode="L" horiz-adv-x="565" 
d="M49 715h180v-568h318v-147h-498v715z" />
    <glyph glyph-name="Lacute" unicode="&#x139;" horiz-adv-x="565" 
d="M123 923h180l-103 -140h-120zM49 715h180v-568h318v-147h-498v715z" />
    <glyph glyph-name="Lcaron" unicode="&#x13d;" horiz-adv-x="565" 
d="M425 598c-44 -10 -74 20 -74 56s30 66 69 66c48 0 71 -40 71 -89c0 -66 -40 -118 -132 -127v46c39 5 66 21 66 48zM49 715h180v-568h318v-147h-498v715z" />
    <glyph glyph-name="Lcommaaccent" unicode="&#x13b;" horiz-adv-x="565" 
d="M49 715h180v-568h318v-147h-498v715zM302 -169c-44 -10 -74 20 -74 56s30 66 69 66c48 0 71 -40 71 -89c0 -66 -40 -118 -132 -127v46c39 5 66 21 66 48z" />
    <glyph glyph-name="Lslash" unicode="&#x141;" horiz-adv-x="565" 
d="M229 147h318v-147h-498v215l-60 -44v117l60 44v383h180v-250l180 133v-117l-180 -133v-201z" />
    <glyph glyph-name="M" unicode="M" horiz-adv-x="834" 
d="M49 0v715h220l147 -456h2l147 456h220v-715h-170v445h-2l-133 -445h-126l-133 445h-2v-445h-170z" />
    <glyph glyph-name="N" unicode="N" horiz-adv-x="710" 
d="M49 0v715h180l250 -425h2v425h180v-715h-180l-250 425h-2v-425h-180z" />
    <glyph glyph-name="Nacute" unicode="&#x143;" horiz-adv-x="710" 
d="M336 923h180l-103 -140h-120zM49 0v715h180l250 -425h2v425h180v-715h-180l-250 425h-2v-425h-180z" />
    <glyph glyph-name="Ncaron" unicode="&#x147;" horiz-adv-x="710" 
d="M170 923h139l45 -69h2l45 69h139l-107 -140h-156zM49 0v715h180l250 -425h2v425h180v-715h-180l-250 425h-2v-425h-180z" />
    <glyph glyph-name="Ncommaaccent" unicode="&#x145;" horiz-adv-x="710" 
d="M49 0v715h180l250 -425h2v425h180v-715h-180l-250 425h-2v-425h-180zM359 -169c-44 -10 -74 20 -74 56s30 66 69 66c48 0 71 -40 71 -89c0 -66 -40 -118 -132 -127v46c39 5 66 21 66 48z" />
    <glyph glyph-name="Eng" unicode="&#x14a;" horiz-adv-x="710" 
d="M49 0v715h180l250 -425h2v425h180v-669c0 -134 -55 -223 -199 -223c-34 0 -66 3 -98 10v117c80 0 100 14 117 50l-250 425h-2v-425h-180z" />
    <glyph glyph-name="Ntilde" unicode="&#xd1;" horiz-adv-x="710" 
d="M189 797c0 97 31 135 88 135c46 0 90 -38 128 -38c27 0 33 19 33 38h83c0 -98 -31 -135 -88 -135c-46 0 -90 37 -128 37c-27 0 -33 -19 -33 -37h-83zM49 0v715h180l250 -425h2v425h180v-715h-180l-250 425h-2v-425h-180z" />
    <glyph glyph-name="O" unicode="O" horiz-adv-x="748" 
d="M374 -16c-227 0 -354 158 -354 374c0 215 127 373 354 373c225 0 354 -158 354 -373c0 -216 -129 -374 -354 -374zM374 131c130 0 174 102 174 227c0 124 -44 226 -174 226c-131 0 -174 -102 -174 -226c0 -125 43 -227 174 -227z" />
    <glyph glyph-name="Oacute" unicode="&#xd3;" horiz-adv-x="748" 
d="M355 923h180l-103 -140h-120zM374 -16c-227 0 -354 158 -354 374c0 215 127 373 354 373c225 0 354 -158 354 -373c0 -216 -129 -374 -354 -374zM374 131c130 0 174 102 174 227c0 124 -44 226 -174 226c-131 0 -174 -102 -174 -226c0 -125 43 -227 174 -227z" />
    <glyph glyph-name="Ocircumflex" unicode="&#xd4;" horiz-adv-x="748" 
d="M189 783l107 140h156l107 -140h-139l-45 69h-2l-45 -69h-139zM374 -16c-227 0 -354 158 -354 374c0 215 127 373 354 373c225 0 354 -158 354 -373c0 -216 -129 -374 -354 -374zM374 131c130 0 174 102 174 227c0 124 -44 226 -174 226c-131 0 -174 -102 -174 -226
c0 -125 43 -227 174 -227z" />
    <glyph glyph-name="Odieresis" unicode="&#xd6;" horiz-adv-x="748" 
d="M190 853c0 41 28 76 77 76s76 -35 76 -76s-27 -76 -76 -76c-50 0 -77 35 -77 76zM405 853c0 41 28 76 77 76s76 -35 76 -76s-27 -76 -76 -76c-50 0 -77 35 -77 76zM374 -16c-227 0 -354 158 -354 374c0 215 127 373 354 373c225 0 354 -158 354 -373
c0 -216 -129 -374 -354 -374zM374 131c130 0 174 102 174 227c0 124 -44 226 -174 226c-131 0 -174 -102 -174 -226c0 -125 43 -227 174 -227z" />
    <glyph glyph-name="Ograve" unicode="&#xd2;" horiz-adv-x="748" 
d="M392 923l43 -140h-120l-103 140h180zM374 -16c-227 0 -354 158 -354 374c0 215 127 373 354 373c225 0 354 -158 354 -373c0 -216 -129 -374 -354 -374zM374 131c130 0 174 102 174 227c0 124 -44 226 -174 226c-131 0 -174 -102 -174 -226c0 -125 43 -227 174 -227z" />
    <glyph glyph-name="Ohungarumlaut" unicode="&#x150;" horiz-adv-x="748" 
d="M242 923h180l-103 -140h-120zM462 923h180l-103 -140h-120zM374 -16c-227 0 -354 158 -354 374c0 215 127 373 354 373c225 0 354 -158 354 -373c0 -216 -129 -374 -354 -374zM374 131c130 0 174 102 174 227c0 124 -44 226 -174 226c-131 0 -174 -102 -174 -226
c0 -125 43 -227 174 -227z" />
    <glyph glyph-name="Omacron" unicode="&#x14c;" horiz-adv-x="748" 
d="M231 903h286v-100h-286v100zM374 -16c-227 0 -354 158 -354 374c0 215 127 373 354 373c225 0 354 -158 354 -373c0 -216 -129 -374 -354 -374zM374 131c130 0 174 102 174 227c0 124 -44 226 -174 226c-131 0 -174 -102 -174 -226c0 -125 43 -227 174 -227z" />
    <glyph glyph-name="Oslash" unicode="&#xd8;" horiz-adv-x="752" 
d="M732 673l-74 -74c47 -64 72 -147 72 -241c0 -216 -129 -374 -354 -374c-102 0 -185 32 -244 87l-70 -70l-42 43l72 73c-46 63 -70 147 -70 241c0 215 127 373 354 373c101 0 183 -32 242 -87l71 71zM202 358c0 -42 5 -81 16 -115l285 286c-27 34 -68 55 -127 55
c-131 0 -174 -102 -174 -226zM550 358c0 42 -5 82 -17 116l-286 -287c28 -35 69 -56 129 -56c130 0 174 102 174 227z" />
    <glyph glyph-name="Otilde" unicode="&#xd5;" horiz-adv-x="748" 
d="M208 797c0 97 31 135 88 135c46 0 90 -38 128 -38c27 0 33 19 33 38h83c0 -98 -31 -135 -88 -135c-46 0 -90 37 -128 37c-27 0 -33 -19 -33 -37h-83zM374 -16c-227 0 -354 158 -354 374c0 215 127 373 354 373c225 0 354 -158 354 -373c0 -216 -129 -374 -354 -374z
M374 131c130 0 174 102 174 227c0 124 -44 226 -174 226c-131 0 -174 -102 -174 -226c0 -125 43 -227 174 -227z" />
    <glyph glyph-name="OE" unicode="&#x152;" horiz-adv-x="1097" 
d="M698 147h368v-147h-548v47c-43 -38 -99 -63 -174 -63c-197 0 -324 158 -324 374c0 215 127 373 324 373c75 0 131 -25 174 -63v47h542v-147h-362v-127h312v-147h-312v-147zM374 131c66 0 115 36 144 92v269c-29 56 -78 92 -144 92c-131 0 -174 -102 -174 -226
c0 -125 43 -227 174 -227z" />
    <glyph glyph-name="P" unicode="P" horiz-adv-x="652" 
d="M49 0v715h347c149 0 242 -78 242 -228s-93 -228 -242 -228h-167v-259h-180zM229 568v-162h129c62 0 100 21 100 81s-38 81 -100 81h-129z" />
    <glyph glyph-name="Thorn" unicode="&#xde;" horiz-adv-x="650" 
d="M49 0v715h180v-100h167c149 0 242 -78 242 -228s-93 -228 -242 -228h-167v-159h-180zM229 468v-162h129c62 0 100 21 100 81s-38 81 -100 81h-129z" />
    <glyph glyph-name="Q" unicode="Q" horiz-adv-x="748" 
d="M728 358c0 -96 -26 -181 -74 -246l73 -73l-97 -97l-81 81c-49 -25 -108 -39 -175 -39c-227 0 -354 158 -354 374c0 215 127 373 354 373c225 0 354 -158 354 -373zM374 131c22 0 42 3 59 9l-88 88l97 97l88 -88c12 35 18 77 18 121c0 124 -44 226 -174 226
c-131 0 -174 -102 -174 -226c0 -125 43 -227 174 -227z" />
    <glyph glyph-name="R" unicode="R" horiz-adv-x="671" 
d="M49 0v715h337c159 0 255 -73 255 -208c0 -95 -56 -155 -145 -175v-2c179 -31 114 -308 155 -320v-10h-187c-35 30 30 249 -123 249h-112v-249h-180zM229 568v-172h122c72 0 110 26 110 86s-38 86 -110 86h-122z" />
    <glyph glyph-name="Racute" unicode="&#x154;" horiz-adv-x="671" 
d="M301 923h180l-103 -140h-120zM49 0v715h337c159 0 255 -73 255 -208c0 -95 -56 -155 -145 -175v-2c179 -31 114 -308 155 -320v-10h-187c-35 30 30 249 -123 249h-112v-249h-180zM229 568v-172h122c72 0 110 26 110 86s-38 86 -110 86h-122z" />
    <glyph glyph-name="Rcaron" unicode="&#x158;" horiz-adv-x="671" 
d="M135 923h139l45 -69h2l45 69h139l-107 -140h-156zM49 0v715h337c159 0 255 -73 255 -208c0 -95 -56 -155 -145 -175v-2c179 -31 114 -308 155 -320v-10h-187c-35 30 30 249 -123 249h-112v-249h-180zM229 568v-172h122c72 0 110 26 110 86s-38 86 -110 86h-122z" />
    <glyph glyph-name="Rcommaaccent" unicode="&#x156;" horiz-adv-x="671" 
d="M49 0v715h337c159 0 255 -73 255 -208c0 -95 -56 -155 -145 -175v-2c179 -31 114 -308 155 -320v-10h-187c-35 30 30 249 -123 249h-112v-249h-180zM229 568v-172h122c72 0 110 26 110 86s-38 86 -110 86h-122zM354 -169c-44 -10 -74 20 -74 56s30 66 69 66
c48 0 71 -40 71 -89c0 -66 -40 -118 -132 -127v46c39 5 66 21 66 48z" />
    <glyph glyph-name="S" unicode="S" horiz-adv-x="647" 
d="M350 444c135 -37 274 -81 274 -234c0 -137 -104 -226 -283 -226c-186 0 -326 92 -326 251h180c0 -76 66 -104 146 -104c67 0 103 26 103 62c0 57 -77 70 -178 100c-123 36 -231 89 -231 221c0 156 122 217 276 217c167 0 298 -88 303 -233h-180c-8 54 -54 86 -123 86
c-54 0 -96 -17 -96 -57c0 -44 45 -58 135 -83z" />
    <glyph glyph-name="Sacute" unicode="&#x15a;" horiz-adv-x="647" 
d="M301 923h180l-103 -140h-120zM350 444c135 -37 274 -81 274 -234c0 -137 -104 -226 -283 -226c-186 0 -326 92 -326 251h180c0 -76 66 -104 146 -104c67 0 103 26 103 62c0 57 -77 70 -178 100c-123 36 -231 89 -231 221c0 156 122 217 276 217c167 0 298 -88 303 -233
h-180c-8 54 -54 86 -123 86c-54 0 -96 -17 -96 -57c0 -44 45 -58 135 -83z" />
    <glyph glyph-name="Scaron" unicode="&#x160;" horiz-adv-x="647" 
d="M135 923h139l45 -69h2l45 69h139l-107 -140h-156zM350 444c135 -37 274 -81 274 -234c0 -137 -104 -226 -283 -226c-186 0 -326 92 -326 251h180c0 -76 66 -104 146 -104c67 0 103 26 103 62c0 57 -77 70 -178 100c-123 36 -231 89 -231 221c0 156 122 217 276 217
c167 0 298 -88 303 -233h-180c-8 54 -54 86 -123 86c-54 0 -96 -17 -96 -57c0 -44 45 -58 135 -83z" />
    <glyph glyph-name="Scedilla" unicode="&#x15e;" horiz-adv-x="647" 
d="M366 -15l-33 -37v-2c57 6 112 -15 112 -67c0 -48 -60 -77 -131 -77c-47 0 -84 12 -112 29l30 35c19 -9 45 -15 69 -15c18 0 44 8 44 29c0 19 -17 27 -38 27c-13 0 -24 -3 -35 -7l-17 24l53 61c-169 10 -293 101 -293 250h180c0 -76 66 -104 146 -104c67 0 103 26 103 62
c0 57 -77 70 -178 100c-123 36 -231 89 -231 221c0 156 122 217 276 217c167 0 298 -88 303 -233h-180c-8 54 -54 86 -123 86c-54 0 -96 -17 -96 -57c0 -44 45 -58 135 -83c135 -37 274 -81 274 -234c0 -130 -94 -217 -258 -225z" />
    <glyph glyph-name="Scommaaccent" unicode="&#x218;" horiz-adv-x="647" 
d="M350 444c135 -37 274 -81 274 -234c0 -137 -104 -226 -283 -226c-186 0 -326 92 -326 251h180c0 -76 66 -104 146 -104c67 0 103 26 103 62c0 57 -77 70 -178 100c-123 36 -231 89 -231 221c0 156 122 217 276 217c167 0 298 -88 303 -233h-180c-8 54 -54 86 -123 86
c-54 0 -96 -17 -96 -57c0 -44 45 -58 135 -83zM344 -169c-44 -10 -74 20 -74 56s30 66 69 66c48 0 71 -40 71 -89c0 -66 -40 -118 -132 -127v46c39 5 66 21 66 48z" />
    <glyph glyph-name="T" unicode="T" horiz-adv-x="629" 
d="M225 0v568h-208v147h595v-147h-207v-568h-180z" />
    <glyph glyph-name="Tbar" unicode="&#x166;" horiz-adv-x="629" 
d="M612 568h-207v-153h134v-90h-134v-325h-180v325h-134v90h134v153h-208v147h595v-147z" />
    <glyph glyph-name="Tcaron" unicode="&#x164;" horiz-adv-x="629" 
d="M130 923h139l45 -69h2l45 69h139l-107 -140h-156zM225 0v568h-208v147h595v-147h-207v-568h-180z" />
    <glyph glyph-name="uni0162" unicode="&#x162;" horiz-adv-x="629" 
d="M346 0l-38 -42v-2c57 6 112 -15 112 -67c0 -48 -60 -77 -131 -77c-47 0 -84 12 -112 29l30 35c19 -9 45 -15 69 -15c18 0 44 8 44 29c0 19 -17 27 -38 27c-13 0 -24 -3 -35 -7l-17 24l57 66h-62v568h-208v147h595v-147h-207v-568h-59z" />
    <glyph glyph-name="uni021A" unicode="&#x21a;" horiz-adv-x="629" 
d="M225 0v568h-208v147h595v-147h-207v-568h-180zM319 -159c-44 -10 -74 20 -74 56s30 66 69 66c48 0 71 -40 71 -89c0 -66 -40 -118 -132 -127v46c39 5 66 21 66 48z" />
    <glyph glyph-name="U" unicode="U" horiz-adv-x="686" 
d="M642 258c0 -178 -83 -274 -299 -274s-299 96 -299 274v457h180v-457c0 -93 40 -127 119 -127s119 34 119 127v457h180v-457z" />
    <glyph glyph-name="Uacute" unicode="&#xda;" horiz-adv-x="686" 
d="M324 923h180l-103 -140h-120zM642 258c0 -178 -83 -274 -299 -274s-299 96 -299 274v457h180v-457c0 -93 40 -127 119 -127s119 34 119 127v457h180v-457z" />
    <glyph glyph-name="Ucircumflex" unicode="&#xdb;" horiz-adv-x="686" 
d="M158 783l107 140h156l107 -140h-139l-45 69h-2l-45 -69h-139zM642 258c0 -178 -83 -274 -299 -274s-299 96 -299 274v457h180v-457c0 -93 40 -127 119 -127s119 34 119 127v457h180v-457z" />
    <glyph glyph-name="Udieresis" unicode="&#xdc;" horiz-adv-x="686" 
d="M159 853c0 41 28 76 77 76s76 -35 76 -76s-27 -76 -76 -76c-50 0 -77 35 -77 76zM374 853c0 41 28 76 77 76s76 -35 76 -76s-27 -76 -76 -76c-50 0 -77 35 -77 76zM642 258c0 -178 -83 -274 -299 -274s-299 96 -299 274v457h180v-457c0 -93 40 -127 119 -127
s119 34 119 127v457h180v-457z" />
    <glyph glyph-name="Ugrave" unicode="&#xd9;" horiz-adv-x="686" 
d="M361 923l43 -140h-120l-103 140h180zM642 258c0 -178 -83 -274 -299 -274s-299 96 -299 274v457h180v-457c0 -93 40 -127 119 -127s119 34 119 127v457h180v-457z" />
    <glyph glyph-name="Uhungarumlaut" unicode="&#x170;" horiz-adv-x="686" 
d="M211 923h180l-103 -140h-120zM431 923h180l-103 -140h-120zM642 258c0 -178 -83 -274 -299 -274s-299 96 -299 274v457h180v-457c0 -93 40 -127 119 -127s119 34 119 127v457h180v-457z" />
    <glyph glyph-name="Umacron" unicode="&#x16a;" horiz-adv-x="686" 
d="M200 903h286v-100h-286v100zM642 258c0 -178 -83 -274 -299 -274s-299 96 -299 274v457h180v-457c0 -93 40 -127 119 -127s119 34 119 127v457h180v-457z" />
    <glyph glyph-name="Uogonek" unicode="&#x172;" horiz-adv-x="686" 
d="M462 715h180v-457c0 -136 -48 -224 -167 -258c-26 -22 -48 -40 -48 -61c0 -15 11 -22 31 -22c13 0 27 3 41 7v-90c-23 -6 -53 -11 -81 -11c-75 0 -114 30 -114 84c0 34 20 60 43 77h-4c-216 0 -299 96 -299 274v457h180v-457c0 -93 40 -127 119 -127s119 34 119 127v457z
" />
    <glyph glyph-name="Uring" unicode="&#x16e;" horiz-adv-x="686" 
d="M343 772c-55 0 -102 38 -102 100c0 61 47 100 102 100c56 0 102 -39 102 -100c0 -62 -46 -100 -102 -100zM343 827c25 0 42 16 42 45s-17 45 -42 45c-24 0 -41 -16 -41 -45s17 -45 41 -45zM642 258c0 -178 -83 -274 -299 -274s-299 96 -299 274v457h180v-457
c0 -93 40 -127 119 -127s119 34 119 127v457h180v-457z" />
    <glyph glyph-name="V" unicode="V" horiz-adv-x="651" 
d="M-2 715h191l135 -501h2l136 501h190l-232 -715h-190z" />
    <glyph glyph-name="W" unicode="W" horiz-adv-x="940" 
d="M0 715h180l92 -485h2l111 485h170l111 -485h2l92 485h180l-182 -715h-180l-107 446h-2l-107 -446h-180z" />
    <glyph glyph-name="Wacute" unicode="&#x1e82;" horiz-adv-x="940" 
d="M451 923h180l-103 -140h-120zM0 715h180l92 -485h2l111 485h170l111 -485h2l92 485h180l-182 -715h-180l-107 446h-2l-107 -446h-180z" />
    <glyph glyph-name="Wcircumflex" unicode="&#x174;" horiz-adv-x="940" 
d="M285 783l107 140h156l107 -140h-139l-45 69h-2l-45 -69h-139zM0 715h180l92 -485h2l111 485h170l111 -485h2l92 485h180l-182 -715h-180l-107 446h-2l-107 -446h-180z" />
    <glyph glyph-name="Wdieresis" unicode="&#x1e84;" horiz-adv-x="940" 
d="M286 853c0 41 28 76 77 76s76 -35 76 -76s-27 -76 -76 -76c-50 0 -77 35 -77 76zM501 853c0 41 28 76 77 76s76 -35 76 -76s-27 -76 -76 -76c-50 0 -77 35 -77 76zM0 715h180l92 -485h2l111 485h170l111 -485h2l92 485h180l-182 -715h-180l-107 446h-2l-107 -446h-180z
" />
    <glyph glyph-name="Wgrave" unicode="&#x1e80;" horiz-adv-x="940" 
d="M488 923l43 -140h-120l-103 140h180zM0 715h180l92 -485h2l111 485h170l111 -485h2l92 485h180l-182 -715h-180l-107 446h-2l-107 -446h-180z" />
    <glyph glyph-name="X" unicode="X" horiz-adv-x="691" 
d="M240 365l-217 350h190l131 -218h2l132 218h190l-217 -348l237 -367h-200l-142 232h-2l-141 -232h-200z" />
    <glyph glyph-name="Y" unicode="Y" horiz-adv-x="663" 
d="M1 715h190l139 -294h2l140 294h190l-241 -451v-264h-180v264z" />
    <glyph glyph-name="Yacute" unicode="&#xdd;" horiz-adv-x="663" 
d="M313 923h180l-103 -140h-120zM1 715h190l139 -294h2l140 294h190l-241 -451v-264h-180v264z" />
    <glyph glyph-name="Ycircumflex" unicode="&#x176;" horiz-adv-x="663" 
d="M147 783l107 140h156l107 -140h-139l-45 69h-2l-45 -69h-139zM1 715h190l139 -294h2l140 294h190l-241 -451v-264h-180v264z" />
    <glyph glyph-name="Ydieresis" unicode="&#x178;" horiz-adv-x="663" 
d="M148 853c0 41 28 76 77 76s76 -35 76 -76s-27 -76 -76 -76c-50 0 -77 35 -77 76zM363 853c0 41 28 76 77 76s76 -35 76 -76s-27 -76 -76 -76c-50 0 -77 35 -77 76zM1 715h190l139 -294h2l140 294h190l-241 -451v-264h-180v264z" />
    <glyph glyph-name="Ygrave" unicode="&#x1ef2;" horiz-adv-x="663" 
d="M350 923l43 -140h-120l-103 140h180zM1 715h190l139 -294h2l140 294h190l-241 -451v-264h-180v264z" />
    <glyph glyph-name="Z" unicode="Z" horiz-adv-x="610" 
d="M46 715h527v-147l-327 -419v-2h337v-147h-557v147l327 419v2h-307v147z" />
    <glyph glyph-name="Zacute" unicode="&#x179;" horiz-adv-x="610" 
d="M296 923h180l-103 -140h-120zM46 715h527v-147l-327 -419v-2h337v-147h-557v147l327 419v2h-307v147z" />
    <glyph glyph-name="Zcaron" unicode="&#x17d;" horiz-adv-x="610" 
d="M130 923h139l45 -69h2l45 69h139l-107 -140h-156zM46 715h527v-147l-327 -419v-2h337v-147h-557v147l327 419v2h-307v147z" />
    <glyph glyph-name="Zdotaccent" unicode="&#x17b;" horiz-adv-x="610" 
d="M238 853c0 41 28 76 77 76s76 -35 76 -76s-27 -76 -76 -76c-50 0 -77 35 -77 76zM46 715h527v-147l-327 -419v-2h337v-147h-557v147l327 419v2h-307v147z" />
    <glyph glyph-name="a" unicode="a" horiz-adv-x="553" 
d="M341 370c0 30 -21 48 -65 48c-58 0 -86 -22 -91 -71h-150c5 98 75 181 242 181c144 0 224 -56 224 -217v-235c0 -27 10 -38 30 -38v-38c-32 -12 -61 -16 -93 -16c-72 0 -92 34 -92 70h-2c-33 -38 -93 -70 -161 -70c-108 0 -168 61 -168 147c0 102 75 149 195 173
c66 13 131 23 131 66zM239 94c69 0 102 44 102 93v62c-20 -8 -45 -15 -82 -23c-63 -14 -84 -40 -84 -72c0 -42 25 -60 64 -60z" />
    <glyph glyph-name="aacute" unicode="&#xe1;" horiz-adv-x="553" 
d="M258 720h180l-103 -140h-120zM341 370c0 30 -21 48 -65 48c-58 0 -86 -22 -91 -71h-150c5 98 75 181 242 181c144 0 224 -56 224 -217v-235c0 -27 10 -38 30 -38v-38c-32 -12 -61 -16 -93 -16c-72 0 -92 34 -92 70h-2c-33 -38 -93 -70 -161 -70c-108 0 -168 61 -168 147
c0 102 75 149 195 173c66 13 131 23 131 66zM239 94c69 0 102 44 102 93v62c-20 -8 -45 -15 -82 -23c-63 -14 -84 -40 -84 -72c0 -42 25 -60 64 -60z" />
    <glyph glyph-name="abreve" unicode="&#x103;" horiz-adv-x="553" 
d="M277 574c-91 0 -157 57 -160 146h92c3 -29 25 -48 68 -48s65 19 68 48h92c-4 -86 -67 -146 -160 -146zM341 370c0 30 -21 48 -65 48c-58 0 -86 -22 -91 -71h-150c5 98 75 181 242 181c144 0 224 -56 224 -217v-235c0 -27 10 -38 30 -38v-38c-32 -12 -61 -16 -93 -16
c-72 0 -92 34 -92 70h-2c-33 -38 -93 -70 -161 -70c-108 0 -168 61 -168 147c0 102 75 149 195 173c66 13 131 23 131 66zM239 94c69 0 102 44 102 93v62c-20 -8 -45 -15 -82 -23c-63 -14 -84 -40 -84 -72c0 -42 25 -60 64 -60z" />
    <glyph glyph-name="acircumflex" unicode="&#xe2;" horiz-adv-x="553" 
d="M92 580l107 140h156l107 -140h-139l-45 69h-2l-45 -69h-139zM341 370c0 30 -21 48 -65 48c-58 0 -86 -22 -91 -71h-150c5 98 75 181 242 181c144 0 224 -56 224 -217v-235c0 -27 10 -38 30 -38v-38c-32 -12 -61 -16 -93 -16c-72 0 -92 34 -92 70h-2
c-33 -38 -93 -70 -161 -70c-108 0 -168 61 -168 147c0 102 75 149 195 173c66 13 131 23 131 66zM239 94c69 0 102 44 102 93v62c-20 -8 -45 -15 -82 -23c-63 -14 -84 -40 -84 -72c0 -42 25 -60 64 -60z" />
    <glyph glyph-name="adieresis" unicode="&#xe4;" horiz-adv-x="553" 
d="M93 650c0 41 28 76 77 76s76 -35 76 -76s-27 -76 -76 -76c-50 0 -77 35 -77 76zM308 650c0 41 28 76 77 76s76 -35 76 -76s-27 -76 -76 -76c-50 0 -77 35 -77 76zM341 370c0 30 -21 48 -65 48c-58 0 -86 -22 -91 -71h-150c5 98 75 181 242 181c144 0 224 -56 224 -217
v-235c0 -27 10 -38 30 -38v-38c-32 -12 -61 -16 -93 -16c-72 0 -92 34 -92 70h-2c-33 -38 -93 -70 -161 -70c-108 0 -168 61 -168 147c0 102 75 149 195 173c66 13 131 23 131 66zM239 94c69 0 102 44 102 93v62c-20 -8 -45 -15 -82 -23c-63 -14 -84 -40 -84 -72
c0 -42 25 -60 64 -60z" />
    <glyph glyph-name="agrave" unicode="&#xe0;" horiz-adv-x="553" 
d="M295 720l43 -140h-120l-103 140h180zM341 370c0 30 -21 48 -65 48c-58 0 -86 -22 -91 -71h-150c5 98 75 181 242 181c144 0 224 -56 224 -217v-235c0 -27 10 -38 30 -38v-38c-32 -12 -61 -16 -93 -16c-72 0 -92 34 -92 70h-2c-33 -38 -93 -70 -161 -70
c-108 0 -168 61 -168 147c0 102 75 149 195 173c66 13 131 23 131 66zM239 94c69 0 102 44 102 93v62c-20 -8 -45 -15 -82 -23c-63 -14 -84 -40 -84 -72c0 -42 25 -60 64 -60z" />
    <glyph glyph-name="amacron" unicode="&#x101;" horiz-adv-x="553" 
d="M134 700h286v-100h-286v100zM341 370c0 30 -21 48 -65 48c-58 0 -86 -22 -91 -71h-150c5 98 75 181 242 181c144 0 224 -56 224 -217v-235c0 -27 10 -38 30 -38v-38c-32 -12 -61 -16 -93 -16c-72 0 -92 34 -92 70h-2c-33 -38 -93 -70 -161 -70c-108 0 -168 61 -168 147
c0 102 75 149 195 173c66 13 131 23 131 66zM239 94c69 0 102 44 102 93v62c-20 -8 -45 -15 -82 -23c-63 -14 -84 -40 -84 -72c0 -42 25 -60 64 -60z" />
    <glyph glyph-name="aogonek" unicode="&#x105;" horiz-adv-x="553" 
d="M514 -83c13 0 27 3 41 7v-90c-23 -6 -53 -11 -81 -11c-75 0 -114 30 -114 84c0 36 22 62 47 80c-47 8 -61 37 -61 67h-2c-33 -38 -93 -70 -161 -70c-108 0 -168 61 -168 147c0 102 75 149 195 173c66 13 131 23 131 66c0 30 -21 48 -65 48c-58 0 -86 -22 -91 -71h-150
c5 98 75 181 242 181c144 0 224 -56 224 -217v-235c0 -27 10 -38 30 -38v-38c-26 -22 -48 -40 -48 -61c0 -15 11 -22 31 -22zM341 187v62c-20 -8 -45 -15 -82 -23c-63 -14 -84 -40 -84 -72c0 -42 25 -60 64 -60c69 0 102 44 102 93z" />
    <glyph glyph-name="aring" unicode="&#xe5;" horiz-adv-x="553" 
d="M277 569c-55 0 -102 38 -102 100c0 61 47 100 102 100c56 0 102 -39 102 -100c0 -62 -46 -100 -102 -100zM277 624c25 0 42 16 42 45s-17 45 -42 45c-24 0 -41 -16 -41 -45s17 -45 41 -45zM341 370c0 30 -21 48 -65 48c-58 0 -86 -22 -91 -71h-150c5 98 75 181 242 181
c144 0 224 -56 224 -217v-235c0 -27 10 -38 30 -38v-38c-32 -12 -61 -16 -93 -16c-72 0 -92 34 -92 70h-2c-33 -38 -93 -70 -161 -70c-108 0 -168 61 -168 147c0 102 75 149 195 173c66 13 131 23 131 66zM239 94c69 0 102 44 102 93v62c-20 -8 -45 -15 -82 -23
c-63 -14 -84 -40 -84 -72c0 -42 25 -60 64 -60z" />
    <glyph glyph-name="atilde" unicode="&#xe3;" horiz-adv-x="553" 
d="M111 594c0 97 31 135 88 135c46 0 90 -38 128 -38c27 0 33 19 33 38h83c0 -98 -31 -135 -88 -135c-46 0 -90 37 -128 37c-27 0 -33 -19 -33 -37h-83zM341 370c0 30 -21 48 -65 48c-58 0 -86 -22 -91 -71h-150c5 98 75 181 242 181c144 0 224 -56 224 -217v-235
c0 -27 10 -38 30 -38v-38c-32 -12 -61 -16 -93 -16c-72 0 -92 34 -92 70h-2c-33 -38 -93 -70 -161 -70c-108 0 -168 61 -168 147c0 102 75 149 195 173c66 13 131 23 131 66zM239 94c69 0 102 44 102 93v62c-20 -8 -45 -15 -82 -23c-63 -14 -84 -40 -84 -72
c0 -42 25 -60 64 -60z" />
    <glyph glyph-name="ae" unicode="&#xe6;" horiz-adv-x="886" 
d="M611 104c55 0 81 26 91 51h159c-28 -103 -108 -171 -247 -171c-82 0 -148 26 -195 70c-79 -70 -174 -70 -216 -70c-128 0 -188 61 -188 147c0 102 75 149 195 173c66 13 131 23 131 66c0 30 -21 48 -65 48c-58 0 -86 -22 -91 -71h-150c5 98 75 181 242 181
c73 0 129 -14 167 -49c43 31 97 49 161 49c175 0 264 -128 264 -314h-368c0 -72 53 -110 110 -110zM605 418c-61 0 -104 -36 -104 -107h208c0 71 -43 107 -104 107zM341 187v62c-20 -8 -45 -15 -82 -23c-63 -14 -84 -40 -84 -72c0 -42 25 -60 64 -60c69 0 102 44 102 93z
" />
    <glyph glyph-name="b" unicode="b" horiz-adv-x="588" 
d="M349 528c136 0 223 -104 223 -272s-87 -272 -223 -272c-74 0 -128 40 -148 67h-2v-51h-160v715h160v-254h2c20 27 74 67 148 67zM307 104c65 0 105 52 105 152s-40 152 -105 152s-105 -52 -105 -152s40 -152 105 -152z" />
    <glyph glyph-name="c" unicode="c" horiz-adv-x="540" 
d="M370 321c-5 41 -27 87 -91 87c-66 0 -103 -56 -103 -152s36 -152 103 -152c64 0 86 43 91 89h157c-8 -121 -100 -209 -247 -209c-162 0 -264 112 -264 272c0 159 102 272 260 272c149 0 238 -88 251 -207h-157z" />
    <glyph glyph-name="cacute" unicode="&#x107;" horiz-adv-x="540" 
d="M257 720h180l-103 -140h-120zM370 321c-5 41 -27 87 -91 87c-66 0 -103 -56 -103 -152s36 -152 103 -152c64 0 86 43 91 89h157c-8 -121 -100 -209 -247 -209c-162 0 -264 112 -264 272c0 159 102 272 260 272c149 0 238 -88 251 -207h-157z" />
    <glyph glyph-name="ccaron" unicode="&#x10d;" horiz-adv-x="540" 
d="M91 720h139l45 -69h2l45 69h139l-107 -140h-156zM370 321c-5 41 -27 87 -91 87c-66 0 -103 -56 -103 -152s36 -152 103 -152c64 0 86 43 91 89h157c-8 -121 -100 -209 -247 -209c-162 0 -264 112 -264 272c0 159 102 272 260 272c149 0 238 -88 251 -207h-157z" />
    <glyph glyph-name="ccedilla" unicode="&#xe7;" horiz-adv-x="540" 
d="M279 104c64 0 86 43 91 89h157c-7 -113 -89 -198 -219 -208l-34 -37v-2c57 6 112 -15 112 -67c0 -48 -60 -77 -131 -77c-47 0 -84 12 -112 29l30 35c19 -9 45 -15 69 -15c18 0 44 8 44 29c0 19 -17 27 -38 27c-13 0 -24 -3 -35 -7l-17 24l53 61
c-144 14 -233 121 -233 271c0 159 102 272 260 272c149 0 238 -88 251 -207h-157c-5 41 -27 87 -91 87c-66 0 -103 -56 -103 -152s36 -152 103 -152z" />
    <glyph glyph-name="cdotaccent" unicode="&#x10b;" horiz-adv-x="540" 
d="M199 650c0 41 28 76 77 76s76 -35 76 -76s-27 -76 -76 -76c-50 0 -77 35 -77 76zM370 321c-5 41 -27 87 -91 87c-66 0 -103 -56 -103 -152s36 -152 103 -152c64 0 86 43 91 89h157c-8 -121 -100 -209 -247 -209c-162 0 -264 112 -264 272c0 159 102 272 260 272
c149 0 238 -88 251 -207h-157z" />
    <glyph glyph-name="d" unicode="d" horiz-adv-x="588" 
d="M389 715h160v-715h-160v51h-2c-20 -27 -74 -67 -148 -67c-136 0 -223 104 -223 272s87 272 223 272c74 0 128 -40 148 -67h2v254zM281 104c65 0 105 52 105 152s-40 152 -105 152s-105 -52 -105 -152s40 -152 105 -152z" />
    <glyph glyph-name="eth" unicode="&#xf0;" horiz-adv-x="579" 
d="M442 630c62 -69 118 -175 118 -314c0 -170 -74 -332 -277 -332c-171 0 -267 109 -267 273c0 171 106 271 229 271c59 0 98 -18 125 -43v2c-13 40 -36 75 -66 107l-129 -35l-16 58l92 25c-34 27 -73 51 -113 73h200c16 -8 34 -20 53 -36l105 28l16 -58zM283 112
c65 0 107 49 107 145s-42 144 -107 144s-107 -48 -107 -144s42 -145 107 -145z" />
    <glyph glyph-name="dcaron" unicode="&#x10f;" horiz-adv-x="588" 
d="M670 720c48 0 71 -40 71 -89c0 -66 -40 -118 -132 -127v46c39 5 66 21 66 48c-44 -10 -74 20 -74 56s30 66 69 66zM389 461v254h160v-715h-160v51h-2c-20 -27 -74 -67 -148 -67c-136 0 -223 104 -223 272s87 272 223 272c74 0 128 -40 148 -67h2zM281 104
c65 0 105 52 105 152s-40 152 -105 152s-105 -52 -105 -152s40 -152 105 -152z" />
    <glyph glyph-name="dcroat" unicode="&#x111;" horiz-adv-x="587" 
d="M599 665v-90h-50v-575h-160v51h-2c-20 -27 -74 -67 -148 -67c-136 0 -223 104 -223 272s87 272 223 272c74 0 128 -40 148 -67h2v114h-138v90h138v50h160v-50h50zM281 104c65 0 105 52 105 152s-40 152 -105 152s-105 -52 -105 -152s40 -152 105 -152z" />
    <glyph glyph-name="e" unicode="e" horiz-adv-x="560" 
d="M286 104c55 0 81 26 91 51h159c-28 -103 -108 -171 -247 -171c-170 0 -273 112 -273 272c0 156 101 272 264 272c175 0 264 -128 264 -314h-368c0 -72 53 -110 110 -110zM280 418c-61 0 -104 -36 -104 -107h208c0 71 -43 107 -104 107z" />
    <glyph glyph-name="eacute" unicode="&#xe9;" horiz-adv-x="560" 
d="M441 720l-103 -140h-120l43 140h180zM286 104c55 0 81 26 91 51h159c-28 -103 -108 -171 -247 -171c-170 0 -273 112 -273 272c0 156 101 272 264 272c175 0 264 -128 264 -314h-368c0 -72 53 -110 110 -110zM280 418c-61 0 -104 -36 -104 -107h208
c0 71 -43 107 -104 107z" />
    <glyph glyph-name="ecaron" unicode="&#x11b;" horiz-adv-x="560" 
d="M358 580h-156l-107 140h139l45 -69h2l45 69h139zM286 104c55 0 81 26 91 51h159c-28 -103 -108 -171 -247 -171c-170 0 -273 112 -273 272c0 156 101 272 264 272c175 0 264 -128 264 -314h-368c0 -72 53 -110 110 -110zM280 418c-61 0 -104 -36 -104 -107h208
c0 71 -43 107 -104 107z" />
    <glyph glyph-name="ecircumflex" unicode="&#xea;" horiz-adv-x="560" 
d="M279 649l-45 -69h-139l107 140h156l107 -140h-139l-45 69h-2zM286 104c55 0 81 26 91 51h159c-28 -103 -108 -171 -247 -171c-170 0 -273 112 -273 272c0 156 101 272 264 272c175 0 264 -128 264 -314h-368c0 -72 53 -110 110 -110zM280 418c-61 0 -104 -36 -104 -107
h208c0 71 -43 107 -104 107z" />
    <glyph glyph-name="edieresis" unicode="&#xeb;" horiz-adv-x="560" 
d="M173 574c-50 0 -77 35 -77 76s28 76 77 76s76 -35 76 -76s-27 -76 -76 -76zM388 574c-50 0 -77 35 -77 76s28 76 77 76s76 -35 76 -76s-27 -76 -76 -76zM286 104c55 0 81 26 91 51h159c-28 -103 -108 -171 -247 -171c-170 0 -273 112 -273 272c0 156 101 272 264 272
c175 0 264 -128 264 -314h-368c0 -72 53 -110 110 -110zM280 418c-61 0 -104 -36 -104 -107h208c0 71 -43 107 -104 107z" />
    <glyph glyph-name="edotaccent" unicode="&#x117;" horiz-adv-x="560" 
d="M280 574c-50 0 -77 35 -77 76s28 76 77 76s76 -35 76 -76s-27 -76 -76 -76zM286 104c55 0 81 26 91 51h159c-28 -103 -108 -171 -247 -171c-170 0 -273 112 -273 272c0 156 101 272 264 272c175 0 264 -128 264 -314h-368c0 -72 53 -110 110 -110zM280 418
c-61 0 -104 -36 -104 -107h208c0 71 -43 107 -104 107z" />
    <glyph glyph-name="egrave" unicode="&#xe8;" horiz-adv-x="560" 
d="M341 580h-120l-103 140h180zM286 104c55 0 81 26 91 51h159c-28 -103 -108 -171 -247 -171c-170 0 -273 112 -273 272c0 156 101 272 264 272c175 0 264 -128 264 -314h-368c0 -72 53 -110 110 -110zM280 418c-61 0 -104 -36 -104 -107h208c0 71 -43 107 -104 107z" />
    <glyph glyph-name="emacron" unicode="&#x113;" horiz-adv-x="560" 
d="M423 700v-100h-286v100h286zM286 104c55 0 81 26 91 51h159c-28 -103 -108 -171 -247 -171c-170 0 -273 112 -273 272c0 156 101 272 264 272c175 0 264 -128 264 -314h-368c0 -72 53 -110 110 -110zM280 418c-61 0 -104 -36 -104 -107h208c0 71 -43 107 -104 107z" />
    <glyph glyph-name="eogonek" unicode="&#x119;" horiz-adv-x="560" 
d="M286 104c55 0 81 26 91 51h159c-21 -77 -70 -134 -152 -158c-24 -21 -44 -38 -44 -58c0 -15 11 -22 31 -22c13 0 27 3 41 7v-90c-23 -6 -53 -11 -81 -11c-75 0 -114 30 -114 84c0 35 21 61 45 78c-154 11 -246 120 -246 271c0 156 101 272 264 272
c175 0 264 -128 264 -314h-368c0 -72 53 -110 110 -110zM280 418c-61 0 -104 -36 -104 -107h208c0 71 -43 107 -104 107z" />
    <glyph glyph-name="f" unicode="f" horiz-adv-x="349" 
d="M336 594c-68 0 -89 0 -89 -60v-22h89v-120h-89v-392h-160v392h-76v120h76v35c0 115 33 177 150 177c45 0 70 -4 99 -10v-120z" />
    <glyph glyph-name="g" unicode="g" horiz-adv-x="572" 
d="M373 512h160v-462c0 -169 -97 -227 -252 -227c-162 0 -237 84 -255 166h160c10 -28 35 -51 91 -51c72 0 96 38 96 123v30h-2c-20 -27 -65 -67 -140 -67c-131 0 -215 104 -215 252s84 252 215 252c75 0 120 -40 140 -67h2v51zM273 144c65 0 97 49 97 132s-32 132 -97 132
s-97 -49 -97 -132s32 -132 97 -132z" />
    <glyph glyph-name="gbreve" unicode="&#x11f;" horiz-adv-x="572" 
d="M265 574c-91 0 -157 57 -160 146h92c3 -29 25 -48 68 -48s65 19 68 48h92c-4 -86 -67 -146 -160 -146zM373 512h160v-462c0 -169 -97 -227 -252 -227c-162 0 -237 84 -255 166h160c10 -28 35 -51 91 -51c72 0 96 38 96 123v30h-2c-20 -27 -65 -67 -140 -67
c-131 0 -215 104 -215 252s84 252 215 252c75 0 120 -40 140 -67h2v51zM273 144c65 0 97 49 97 132s-32 132 -97 132s-97 -49 -97 -132s32 -132 97 -132z" />
    <glyph glyph-name="gcommaaccent" unicode="&#x123;" horiz-adv-x="572" 
d="M264 569c-51 0 -79 40 -79 89c0 66 40 118 132 127v-46c-39 -5 -66 -21 -66 -48c44 10 74 -20 74 -58s-22 -64 -61 -64zM373 512h160v-462c0 -169 -97 -227 -252 -227c-162 0 -237 84 -255 166h160c10 -28 35 -51 91 -51c72 0 96 38 96 123v30h-2
c-20 -27 -65 -67 -140 -67c-131 0 -215 104 -215 252s84 252 215 252c75 0 120 -40 140 -67h2v51zM273 144c65 0 97 49 97 132s-32 132 -97 132s-97 -49 -97 -132s32 -132 97 -132z" />
    <glyph glyph-name="gdotaccent" unicode="&#x121;" horiz-adv-x="572" 
d="M265 574c-50 0 -77 35 -77 76s28 76 77 76s76 -35 76 -76s-27 -76 -76 -76zM373 512h160v-462c0 -169 -97 -227 -252 -227c-162 0 -237 84 -255 166h160c10 -28 35 -51 91 -51c72 0 96 38 96 123v30h-2c-20 -27 -65 -67 -140 -67c-131 0 -215 104 -215 252
s84 252 215 252c75 0 120 -40 140 -67h2v51zM273 144c65 0 97 49 97 132s-32 132 -97 132s-97 -49 -97 -132s32 -132 97 -132z" />
    <glyph glyph-name="h" unicode="h" horiz-adv-x="570" 
d="M360 528c108 0 175 -65 175 -182v-346h-160v295c0 77 -25 103 -83 103c-51 0 -93 -31 -93 -102v-296h-160v715h160v-277h2c27 47 77 90 159 90z" />
    <glyph glyph-name="hbar" unicode="&#x127;" horiz-adv-x="569" 
d="M359 528c108 0 175 -65 175 -182v-346h-160v295c0 77 -25 103 -83 103c-51 0 -93 -31 -93 -102v-296h-160v575h-50v90h50v50h160v-50h146v-90h-146v-137h2c27 47 77 90 159 90z" />
    <glyph glyph-name="i" unicode="i" horiz-adv-x="238" 
d="M119 573c-45 0 -80 24 -80 71c0 46 35 71 80 71s80 -25 80 -71c0 -47 -35 -71 -80 -71zM39 512h160v-512h-160v512z" />
    <glyph glyph-name="dotlessi" unicode="&#x131;" horiz-adv-x="220" 
d="M30 512h160v-512h-160v512z" />
    <glyph glyph-name="iacute" unicode="&#xed;" horiz-adv-x="220" 
d="M91 720h180l-103 -140h-120zM30 512h160v-512h-160v512z" />
    <glyph glyph-name="icircumflex" unicode="&#xee;" horiz-adv-x="220" 
d="M-75 580l107 140h156l107 -140h-139l-45 69h-2l-45 -69h-139zM30 512h160v-512h-160v512z" />
    <glyph glyph-name="idieresis" unicode="&#xef;" horiz-adv-x="220" 
d="M-74 650c0 41 28 76 77 76s76 -35 76 -76s-27 -76 -76 -76c-50 0 -77 35 -77 76zM141 650c0 41 28 76 77 76s76 -35 76 -76s-27 -76 -76 -76c-50 0 -77 35 -77 76zM30 512h160v-512h-160v512z" />
    <glyph glyph-name="i.loclTRK" horiz-adv-x="220" 
d="M33 650c0 41 28 76 77 76s76 -35 76 -76s-27 -76 -76 -76c-50 0 -77 35 -77 76zM30 512h160v-512h-160v512z" />
    <glyph glyph-name="igrave" unicode="&#xec;" horiz-adv-x="220" 
d="M128 720l43 -140h-120l-103 140h180zM30 512h160v-512h-160v512z" />
    <glyph glyph-name="imacron" unicode="&#x12b;" horiz-adv-x="220" 
d="M-33 700h286v-100h-286v100zM30 512h160v-512h-160v512z" />
    <glyph glyph-name="iogonek" unicode="&#x12f;" horiz-adv-x="220" 
d="M110 574c-50 0 -77 35 -77 76s28 76 77 76s76 -35 76 -76s-27 -76 -76 -76zM173 -83c13 0 27 3 41 7v-90c-23 -6 -53 -11 -81 -11c-75 0 -114 30 -114 84c0 47 38 78 70 93h-59v512h160v-512c-26 -22 -48 -40 -48 -61c0 -15 11 -22 31 -22z" />
    <glyph glyph-name="j" unicode="j" horiz-adv-x="241" 
d="M122 573c-45 0 -80 24 -80 71c0 46 35 71 80 71s80 -25 80 -71c0 -47 -35 -71 -80 -71zM42 512h160v-512c0 -115 -33 -177 -150 -177c-45 0 -70 5 -99 11v120c68 0 89 0 89 58v500z" />
    <glyph glyph-name="k" unicode="k" horiz-adv-x="560" 
d="M39 715h160v-376l150 173h191l-181 -192l202 -320h-190l-121 204l-51 -53v-151h-160v715z" />
    <glyph glyph-name="kcommaaccent" unicode="&#x137;" horiz-adv-x="560" 
d="M39 715h160v-376l150 173h191l-181 -192l202 -320h-190l-121 204l-51 -53v-151h-160v715zM284 -169c-44 -10 -74 20 -74 56s30 66 69 66c48 0 71 -40 71 -89c0 -66 -40 -118 -132 -127v46c39 5 66 21 66 48z" />
    <glyph glyph-name="l" unicode="l" horiz-adv-x="240" 
d="M40 715h160v-715h-160v715z" />
    <glyph glyph-name="lacute" unicode="&#x13a;" horiz-adv-x="240" 
d="M106 910h180l-103 -140h-120zM40 715h160v-715h-160v715z" />
    <glyph glyph-name="lcaron" unicode="&#x13e;" horiz-adv-x="240" 
d="M326 598c-44 -10 -74 20 -74 56s30 66 69 66c48 0 71 -40 71 -89c0 -66 -40 -118 -132 -127v46c39 5 66 21 66 48zM40 715h160v-715h-160v715z" />
    <glyph glyph-name="lcommaaccent" unicode="&#x13c;" horiz-adv-x="240" 
d="M40 715h160v-715h-160v715zM124 -169c-44 -10 -74 20 -74 56s30 66 69 66c48 0 71 -40 71 -89c0 -66 -40 -118 -132 -127v46c39 5 66 21 66 48z" />
    <glyph glyph-name="lslash" unicode="&#x142;" horiz-adv-x="276" 
d="M280 543v-117l-59 -44v-382h-160v265l-59 -44v117l59 44v333h160v-216z" />
    <glyph glyph-name="m" unicode="m" horiz-adv-x="868" 
d="M669 528c103 0 164 -65 164 -182v-346h-162v295c0 77 -16 103 -73 103c-51 0 -83 -31 -83 -102v-296h-160v295c0 77 -16 103 -73 103c-50 0 -83 -31 -83 -102v-296h-160v512h160v-74h2c27 47 83 90 160 90c67 0 114 -37 134 -90h2c44 51 89 90 172 90z" />
    <glyph glyph-name="n" unicode="n" horiz-adv-x="570" 
d="M369 528c99 0 166 -65 166 -182v-346h-160v295c0 77 -27 103 -80 103c-61 0 -96 -31 -96 -102v-296h-160v512h160v-74h2c27 47 77 90 168 90z" />
    <glyph glyph-name="nacute" unicode="&#x144;" horiz-adv-x="570" 
d="M478 720l-103 -140h-120l43 140h180zM369 528c99 0 166 -65 166 -182v-346h-160v295c0 77 -27 103 -80 103c-61 0 -96 -31 -96 -102v-296h-160v512h160v-74h2c27 47 77 90 168 90z" />
    <glyph glyph-name="ncaron" unicode="&#x148;" horiz-adv-x="570" 
d="M395 580h-156l-107 140h139l45 -69h2l45 69h139zM369 528c99 0 166 -65 166 -182v-346h-160v295c0 77 -27 103 -80 103c-61 0 -96 -31 -96 -102v-296h-160v512h160v-74h2c27 47 77 90 168 90z" />
    <glyph glyph-name="ncommaaccent" unicode="&#x146;" horiz-adv-x="570" 
d="M369 528c99 0 166 -65 166 -182v-346h-160v295c0 77 -27 103 -80 103c-61 0 -96 -31 -96 -102v-296h-160v512h160v-74h2c27 47 77 90 168 90zM286 -47c48 0 71 -40 71 -89c0 -66 -40 -118 -132 -127v46c39 5 66 21 66 48c-44 -10 -74 20 -74 56s30 66 69 66z" />
    <glyph glyph-name="eng" unicode="&#x14b;" horiz-adv-x="570" 
d="M369 528c99 0 166 -65 166 -182v-358c0 -115 -33 -177 -150 -177c-45 0 -70 5 -99 11v120c68 0 89 0 89 58v295c0 77 -27 103 -80 103c-61 0 -96 -31 -96 -102v-296h-160v512h160v-74h2c27 47 77 90 168 90z" />
    <glyph glyph-name="ntilde" unicode="&#xf1;" horiz-adv-x="570" 
d="M267 631c-27 0 -33 -19 -33 -37h-83c0 97 31 135 88 135c46 0 90 -38 128 -38c27 0 33 19 33 38h83c0 -98 -31 -135 -88 -135c-46 0 -90 37 -128 37zM369 528c99 0 166 -65 166 -182v-346h-160v295c0 77 -27 103 -80 103c-61 0 -96 -31 -96 -102v-296h-160v512h160v-74h2
c27 47 77 90 168 90z" />
    <glyph glyph-name="o" unicode="o" horiz-adv-x="579" 
d="M290 -16c170 0 273 113 273 272s-103 272 -273 272c-171 0 -274 -113 -274 -272s103 -272 274 -272zM290 104c-71 0 -114 53 -114 152s43 152 114 152c70 0 113 -53 113 -152s-43 -152 -113 -152z" />
    <glyph glyph-name="oacute" unicode="&#xf3;" horiz-adv-x="579" 
d="M271 720h180l-103 -140h-120zM290 -16c170 0 273 113 273 272s-103 272 -273 272c-171 0 -274 -113 -274 -272s103 -272 274 -272zM290 104c-71 0 -114 53 -114 152s43 152 114 152c70 0 113 -53 113 -152s-43 -152 -113 -152z" />
    <glyph glyph-name="ocircumflex" unicode="&#xf4;" horiz-adv-x="579" 
d="M105 580l107 140h156l107 -140h-139l-45 69h-2l-45 -69h-139zM290 -16c170 0 273 113 273 272s-103 272 -273 272c-171 0 -274 -113 -274 -272s103 -272 274 -272zM290 104c-71 0 -114 53 -114 152s43 152 114 152c70 0 113 -53 113 -152s-43 -152 -113 -152z" />
    <glyph glyph-name="odieresis" unicode="&#xf6;" horiz-adv-x="579" 
d="M106 650c0 41 28 76 77 76s76 -35 76 -76s-27 -76 -76 -76c-50 0 -77 35 -77 76zM321 650c0 41 28 76 77 76s76 -35 76 -76s-27 -76 -76 -76c-50 0 -77 35 -77 76zM290 -16c170 0 273 113 273 272s-103 272 -273 272c-171 0 -274 -113 -274 -272s103 -272 274 -272z
M290 104c-71 0 -114 53 -114 152s43 152 114 152c70 0 113 -53 113 -152s-43 -152 -113 -152z" />
    <glyph glyph-name="ograve" unicode="&#xf2;" horiz-adv-x="579" 
d="M308 720l43 -140h-120l-103 140h180zM290 -16c170 0 273 113 273 272s-103 272 -273 272c-171 0 -274 -113 -274 -272s103 -272 274 -272zM290 104c-71 0 -114 53 -114 152s43 152 114 152c70 0 113 -53 113 -152s-43 -152 -113 -152z" />
    <glyph glyph-name="ohungarumlaut" unicode="&#x151;" horiz-adv-x="579" 
d="M158 720h180l-103 -140h-120zM378 720h180l-103 -140h-120zM290 -16c170 0 273 113 273 272s-103 272 -273 272c-171 0 -274 -113 -274 -272s103 -272 274 -272zM290 104c-71 0 -114 53 -114 152s43 152 114 152c70 0 113 -53 113 -152s-43 -152 -113 -152z" />
    <glyph glyph-name="omacron" unicode="&#x14d;" horiz-adv-x="579" 
d="M147 700h286v-100h-286v100zM290 -16c170 0 273 113 273 272s-103 272 -273 272c-171 0 -274 -113 -274 -272s103 -272 274 -272zM290 104c-71 0 -114 53 -114 152s43 152 114 152c70 0 113 -53 113 -152s-43 -152 -113 -152z" />
    <glyph glyph-name="oslash" unicode="&#xf8;" horiz-adv-x="579" 
d="M508 431c36 -46 55 -106 55 -175c0 -159 -103 -272 -273 -272c-71 0 -130 19 -175 53l-50 -50l-42 43l49 49c-36 47 -56 107 -56 177c0 159 103 272 274 272c71 0 131 -20 176 -54l50 50l43 -42zM176 256c0 -25 3 -46 8 -65l184 184c-20 22 -46 33 -78 33
c-71 0 -114 -53 -114 -152zM290 104c70 0 113 53 113 152c0 23 -2 44 -7 63l-183 -184c19 -20 45 -31 77 -31z" />
    <glyph glyph-name="otilde" unicode="&#xf5;" horiz-adv-x="579" 
d="M124 594c0 97 31 135 88 135c46 0 90 -38 128 -38c27 0 33 19 33 38h83c0 -98 -31 -135 -88 -135c-46 0 -90 37 -128 37c-27 0 -33 -19 -33 -37h-83zM290 -16c170 0 273 113 273 272s-103 272 -273 272c-171 0 -274 -113 -274 -272s103 -272 274 -272zM290 104
c-71 0 -114 53 -114 152s43 152 114 152c70 0 113 -53 113 -152s-43 -152 -113 -152z" />
    <glyph glyph-name="oe" unicode="&#x153;" horiz-adv-x="975" 
d="M700 104c55 0 81 26 91 51h159c-28 -103 -108 -171 -247 -171c-89 0 -160 31 -207 83c-47 -52 -117 -83 -206 -83c-171 0 -274 113 -274 272s103 272 274 272c89 0 159 -31 206 -83c46 52 114 83 198 83c175 0 264 -128 264 -314h-368c0 -72 53 -110 110 -110zM694 418
c-61 0 -104 -36 -104 -107h208c0 71 -43 107 -104 107zM290 104c70 0 113 53 113 152s-43 152 -113 152c-71 0 -114 -53 -114 -152s43 -152 114 -152z" />
    <glyph glyph-name="p" unicode="p" horiz-adv-x="592" 
d="M349 528c136 0 223 -104 223 -272s-87 -272 -223 -272c-74 0 -128 40 -148 67h-2v-228h-160v689h160v-51h2c20 27 74 67 148 67zM307 104c65 0 105 52 105 152s-40 152 -105 152s-105 -52 -105 -152s40 -152 105 -152z" />
    <glyph glyph-name="thorn" unicode="&#xfe;" horiz-adv-x="588" 
d="M349 528c136 0 223 -104 223 -272s-87 -272 -223 -272c-84 0 -128 40 -148 87h-2v-248h-160v892h160v-274h2c20 47 64 87 148 87zM307 104c65 0 105 52 105 152s-40 152 -105 152s-105 -52 -105 -152s40 -152 105 -152z" />
    <glyph glyph-name="q" unicode="q" horiz-adv-x="592" 
d="M393 512h160v-689h-160v228h-2c-20 -27 -74 -67 -148 -67c-136 0 -223 104 -223 272s87 272 223 272c74 0 128 -40 148 -67h2v51zM285 104c65 0 105 52 105 152s-40 152 -105 152s-105 -52 -105 -152s40 -152 105 -152z" />
    <glyph glyph-name="r" unicode="r" horiz-adv-x="383" 
d="M326 521c14 0 26 0 44 -4v-140h-2c-82 15 -169 -30 -169 -139v-238h-160v512h160v-84h2c25 57 69 93 125 93z" />
    <glyph glyph-name="racute" unicode="&#x155;" horiz-adv-x="383" 
d="M366 720l-103 -140h-120l43 140h180zM326 521c14 0 26 0 44 -4v-140h-2c-82 15 -169 -30 -169 -139v-238h-160v512h160v-84h2c25 57 69 93 125 93z" />
    <glyph glyph-name="rcaron" unicode="&#x159;" horiz-adv-x="383" 
d="M283 580h-156l-107 140h139l45 -69h2l45 69h139zM201 428c25 57 69 93 125 93c14 0 26 0 44 -4v-140h-2c-82 15 -169 -30 -169 -139v-238h-160v512h160v-84h2z" />
    <glyph glyph-name="rcommaaccent" unicode="&#x157;" horiz-adv-x="383" 
d="M326 521c14 0 26 0 44 -4v-140h-2c-82 15 -169 -30 -169 -139v-238h-160v512h160v-84h2c25 57 69 93 125 93zM124 -47c48 0 71 -40 71 -89c0 -66 -40 -118 -132 -127v46c39 5 66 21 66 48c-44 -10 -74 20 -74 56s30 66 69 66z" />
    <glyph glyph-name="s" unicode="s" horiz-adv-x="504" 
d="M289 323c101 -22 201 -56 201 -172c0 -108 -82 -167 -224 -167c-183 0 -253 82 -258 186h150c5 -51 39 -76 102 -76c45 0 70 15 70 44c0 44 -48 50 -129 68c-87 19 -183 51 -183 158c0 93 80 164 224 164c164 0 228 -83 233 -173h-150c-5 41 -27 63 -79 63
c-45 0 -68 -16 -68 -41c0 -36 32 -37 111 -54z" />
    <glyph glyph-name="sacute" unicode="&#x15b;" horiz-adv-x="504" 
d="M230 720h180l-103 -140h-120zM289 323c101 -22 201 -56 201 -172c0 -108 -82 -167 -224 -167c-183 0 -253 82 -258 186h150c5 -51 39 -76 102 -76c45 0 70 15 70 44c0 44 -48 50 -129 68c-87 19 -183 51 -183 158c0 93 80 164 224 164c164 0 228 -83 233 -173h-150
c-5 41 -27 63 -79 63c-45 0 -68 -16 -68 -41c0 -36 32 -37 111 -54z" />
    <glyph glyph-name="scaron" unicode="&#x161;" horiz-adv-x="504" 
d="M64 720h139l45 -69h2l45 69h139l-107 -140h-156zM289 323c101 -22 201 -56 201 -172c0 -108 -82 -167 -224 -167c-183 0 -253 82 -258 186h150c5 -51 39 -76 102 -76c45 0 70 15 70 44c0 44 -48 50 -129 68c-87 19 -183 51 -183 158c0 93 80 164 224 164
c164 0 228 -83 233 -173h-150c-5 41 -27 63 -79 63c-45 0 -68 -16 -68 -41c0 -36 32 -37 111 -54z" />
    <glyph glyph-name="scedilla" unicode="&#x15f;" horiz-adv-x="504" 
d="M292 -15l-33 -37v-2c57 6 112 -15 112 -67c0 -48 -60 -77 -131 -77c-47 0 -84 12 -112 29l30 35c19 -9 45 -15 69 -15c18 0 44 8 44 29c0 19 -17 27 -38 27c-13 0 -24 -3 -35 -7l-17 24l53 61c-159 9 -221 87 -226 185h150c5 -51 39 -76 102 -76c45 0 70 15 70 44
c0 44 -48 50 -129 68c-87 19 -183 51 -183 158c0 93 80 164 224 164c164 0 228 -83 233 -173h-150c-5 41 -27 63 -79 63c-45 0 -68 -16 -68 -41c0 -36 32 -37 111 -54c101 -22 201 -56 201 -172c0 -101 -72 -159 -198 -166z" />
    <glyph glyph-name="scommaaccent" unicode="&#x219;" horiz-adv-x="504" 
d="M289 323c101 -22 201 -56 201 -172c0 -108 -82 -167 -224 -167c-183 0 -253 82 -258 186h150c5 -51 39 -76 102 -76c45 0 70 15 70 44c0 44 -48 50 -129 68c-87 19 -183 51 -183 158c0 93 80 164 224 164c164 0 228 -83 233 -173h-150c-5 41 -27 63 -79 63
c-45 0 -68 -16 -68 -41c0 -36 32 -37 111 -54zM270 -169c-44 -10 -74 20 -74 56s30 66 69 66c48 0 71 -40 71 -89c0 -66 -40 -118 -132 -127v46c39 5 66 21 66 48z" />
    <glyph glyph-name="germandbls" unicode="&#xdf;" horiz-adv-x="576" 
d="M199 509v-509h-160v469c0 152 77 262 244 262c139 0 237 -92 237 -194c0 -85 -44 -122 -90 -141v-2c85 -27 130 -115 130 -200c0 -136 -100 -210 -213 -210c-40 0 -67 5 -98 16v120c125 -23 151 39 151 104c0 67 -36 119 -126 119h-25v100h21c54 0 90 34 90 86
c0 51 -29 82 -77 82c-51 0 -84 -27 -84 -102z" />
    <glyph glyph-name="t" unicode="t" horiz-adv-x="351" 
d="M331 392h-89v-212c0 -58 21 -58 89 -58v-120c-29 -6 -54 -11 -99 -11c-117 0 -150 62 -150 177v224h-71v120h71v143h160v-143h89v-120z" />
    <glyph glyph-name="tbar" unicode="&#x167;" horiz-adv-x="351" 
d="M331 392h-89v-68h89v-90h-89v-54c0 -58 21 -58 89 -58v-120c-29 -6 -54 -11 -99 -11c-117 0 -150 62 -150 177v66h-71v90h71v68h-71v120h71v143h160v-143h89v-120z" />
    <glyph glyph-name="tcaron" unicode="&#x165;" horiz-adv-x="351" 
d="M346 770c48 0 71 -40 71 -89c0 -66 -40 -118 -132 -127v46c39 5 66 21 66 48c-44 -10 -74 20 -74 56s30 66 69 66zM242 655v-143h89v-120h-89v-212c0 -58 21 -58 89 -58v-120c-29 -6 -54 -11 -99 -11c-117 0 -150 62 -150 177v224h-71v120h71v143h160z" />
    <glyph glyph-name="uni0163" unicode="&#x163;" horiz-adv-x="351" 
d="M224 -44c57 6 112 -15 112 -67c0 -48 -60 -77 -131 -77c-47 0 -84 12 -112 29l30 35c19 -9 45 -15 69 -15c18 0 44 8 44 29c0 19 -17 27 -38 27c-13 0 -24 -3 -35 -7l-17 24l51 59c-89 12 -115 72 -115 175v224h-71v120h71v143h160v-143h89v-120h-89v-212
c0 -58 21 -58 89 -58v-120c-24 -5 -45 -9 -77 -11l-30 -33v-2z" />
    <glyph glyph-name="uni021B" unicode="&#x21b;" horiz-adv-x="351" 
d="M331 392h-89v-212c0 -58 21 -58 89 -58v-120c-29 -6 -54 -11 -99 -11c-117 0 -150 62 -150 177v224h-71v120h71v143h160v-143h89v-120zM230 -37c48 0 71 -40 71 -89c0 -66 -40 -118 -132 -127v46c39 5 66 21 66 48c-44 -10 -74 20 -74 56s30 66 69 66z" />
    <glyph glyph-name="u" unicode="u" horiz-adv-x="570" 
d="M371 512h160v-512h-160v74h-2c-27 -47 -77 -90 -168 -90c-99 0 -166 65 -166 182v346h160v-295c0 -77 27 -103 80 -103c61 0 96 31 96 102v296z" />
    <glyph glyph-name="uacute" unicode="&#xfa;" horiz-adv-x="570" 
d="M444 720l-103 -140h-120l43 140h180zM371 512h160v-512h-160v74h-2c-27 -47 -77 -90 -168 -90c-99 0 -166 65 -166 182v346h160v-295c0 -77 27 -103 80 -103c61 0 96 31 96 102v296z" />
    <glyph glyph-name="ucircumflex" unicode="&#xfb;" horiz-adv-x="570" 
d="M282 649l-45 -69h-139l107 140h156l107 -140h-139l-45 69h-2zM371 512h160v-512h-160v74h-2c-27 -47 -77 -90 -168 -90c-99 0 -166 65 -166 182v346h160v-295c0 -77 27 -103 80 -103c61 0 96 31 96 102v296z" />
    <glyph glyph-name="udieresis" unicode="&#xfc;" horiz-adv-x="570" 
d="M176 574c-50 0 -77 35 -77 76s28 76 77 76s76 -35 76 -76s-27 -76 -76 -76zM391 574c-50 0 -77 35 -77 76s28 76 77 76s76 -35 76 -76s-27 -76 -76 -76zM371 512h160v-512h-160v74h-2c-27 -47 -77 -90 -168 -90c-99 0 -166 65 -166 182v346h160v-295
c0 -77 27 -103 80 -103c61 0 96 31 96 102v296z" />
    <glyph glyph-name="ugrave" unicode="&#xf9;" horiz-adv-x="570" 
d="M344 580h-120l-103 140h180zM371 512h160v-512h-160v74h-2c-27 -47 -77 -90 -168 -90c-99 0 -166 65 -166 182v346h160v-295c0 -77 27 -103 80 -103c61 0 96 31 96 102v296z" />
    <glyph glyph-name="uhungarumlaut" unicode="&#x171;" horiz-adv-x="570" 
d="M331 720l-103 -140h-120l43 140h180zM448 580h-120l43 140h180zM371 216v296h160v-512h-160v74h-2c-27 -47 -77 -90 -168 -90c-99 0 -166 65 -166 182v346h160v-295c0 -77 27 -103 80 -103c61 0 96 31 96 102z" />
    <glyph glyph-name="umacron" unicode="&#x16b;" horiz-adv-x="570" 
d="M426 700v-100h-286v100h286zM371 512h160v-512h-160v74h-2c-27 -47 -77 -90 -168 -90c-99 0 -166 65 -166 182v346h160v-295c0 -77 27 -103 80 -103c61 0 96 31 96 102v296z" />
    <glyph glyph-name="uogonek" unicode="&#x173;" horiz-adv-x="570" 
d="M514 -83c13 0 27 3 41 7v-90c-23 -6 -53 -11 -81 -11c-75 0 -114 30 -114 84c0 47 38 78 70 93h-59v74h-2c-27 -47 -77 -90 -168 -90c-99 0 -166 65 -166 182v346h160v-295c0 -77 27 -103 80 -103c61 0 96 31 96 102v296h160v-512c-26 -22 -48 -40 -48 -61
c0 -15 11 -22 31 -22z" />
    <glyph glyph-name="uring" unicode="&#x16f;" horiz-adv-x="570" 
d="M283 569c-55 0 -102 38 -102 100c0 61 47 100 102 100c56 0 102 -39 102 -100c0 -62 -46 -100 -102 -100zM283 714c-24 0 -41 -16 -41 -45s17 -45 41 -45c25 0 42 16 42 45s-17 45 -42 45zM371 512h160v-512h-160v74h-2c-27 -47 -77 -90 -168 -90c-99 0 -166 65 -166 182
v346h160v-295c0 -77 27 -103 80 -103c61 0 96 31 96 102v296z" />
    <glyph glyph-name="v" unicode="v" horiz-adv-x="524" 
d="M-3 512h160l104 -334h2l104 334h160l-177 -512h-176z" />
    <glyph glyph-name="w" unicode="w" horiz-adv-x="783" 
d="M-2 512h160l77 -312h2l84 312h140l84 -312h2l77 312h160l-143 -512h-150l-99 324h-2l-99 -324h-150z" />
    <glyph glyph-name="wacute" unicode="&#x1e83;" horiz-adv-x="783" 
d="M372 720h180l-103 -140h-120zM-2 512h160l77 -312h2l84 312h140l84 -312h2l77 312h160l-143 -512h-150l-99 324h-2l-99 -324h-150z" />
    <glyph glyph-name="wcircumflex" unicode="&#x175;" horiz-adv-x="783" 
d="M206 580l107 140h156l107 -140h-139l-45 69h-2l-45 -69h-139zM-2 512h160l77 -312h2l84 312h140l84 -312h2l77 312h160l-143 -512h-150l-99 324h-2l-99 -324h-150z" />
    <glyph glyph-name="wdieresis" unicode="&#x1e85;" horiz-adv-x="783" 
d="M207 650c0 41 28 76 77 76s76 -35 76 -76s-27 -76 -76 -76c-50 0 -77 35 -77 76zM422 650c0 41 28 76 77 76s76 -35 76 -76s-27 -76 -76 -76c-50 0 -77 35 -77 76zM-2 512h160l77 -312h2l84 312h140l84 -312h2l77 312h160l-143 -512h-150l-99 324h-2l-99 -324h-150z" />
    <glyph glyph-name="wgrave" unicode="&#x1e81;" horiz-adv-x="783" 
d="M409 720l43 -140h-120l-103 140h180zM-2 512h160l77 -312h2l84 312h140l84 -312h2l77 312h160l-143 -512h-150l-99 324h-2l-99 -324h-150z" />
    <glyph glyph-name="x" unicode="x" horiz-adv-x="560" 
d="M27 512h170l82 -148h2l82 148h170l-156 -251l176 -261h-180l-92 158h-2l-92 -158h-180l176 261z" />
    <glyph glyph-name="y" unicode="y" horiz-adv-x="529" 
d="M532 512l-174 -522c-44 -131 -92 -167 -200 -167c-27 0 -56 3 -89 10v120h2c44 -10 80 -5 97 21c15 23 12 55 -4 100l-167 438h160l116 -336h2l97 336h160z" />
    <glyph glyph-name="yacute" unicode="&#xfd;" horiz-adv-x="529" 
d="M246 720h180l-103 -140h-120zM532 512l-174 -522c-44 -131 -92 -167 -200 -167c-27 0 -56 3 -89 10v120h2c44 -10 80 -5 97 21c15 23 12 55 -4 100l-167 438h160l116 -336h2l97 336h160z" />
    <glyph glyph-name="ycircumflex" unicode="&#x177;" horiz-adv-x="529" 
d="M80 580l107 140h156l107 -140h-139l-45 69h-2l-45 -69h-139zM532 512l-174 -522c-44 -131 -92 -167 -200 -167c-27 0 -56 3 -89 10v120h2c44 -10 80 -5 97 21c15 23 12 55 -4 100l-167 438h160l116 -336h2l97 336h160z" />
    <glyph glyph-name="ydieresis" unicode="&#xff;" horiz-adv-x="529" 
d="M81 650c0 41 28 76 77 76s76 -35 76 -76s-27 -76 -76 -76c-50 0 -77 35 -77 76zM296 650c0 41 28 76 77 76s76 -35 76 -76s-27 -76 -76 -76c-50 0 -77 35 -77 76zM532 512l-174 -522c-44 -131 -92 -167 -200 -167c-27 0 -56 3 -89 10v120h2c44 -10 80 -5 97 21
c15 23 12 55 -4 100l-167 438h160l116 -336h2l97 336h160z" />
    <glyph glyph-name="ygrave" unicode="&#x1ef3;" horiz-adv-x="529" 
d="M283 720l43 -140h-120l-103 140h180zM532 512l-174 -522c-44 -131 -92 -167 -200 -167c-27 0 -56 3 -89 10v120h2c44 -10 80 -5 97 21c15 23 12 55 -4 100l-167 438h160l116 -336h2l97 336h160z" />
    <glyph glyph-name="z" unicode="z" horiz-adv-x="505" 
d="M24 115l249 275v2h-229v120h429v-115l-249 -275v-2h259v-120h-459v115z" />
    <glyph glyph-name="zacute" unicode="&#x17a;" horiz-adv-x="505" 
d="M240 720h180l-103 -140h-120zM24 115l249 275v2h-229v120h429v-115l-249 -275v-2h259v-120h-459v115z" />
    <glyph glyph-name="zcaron" unicode="&#x17e;" horiz-adv-x="505" 
d="M74 720h139l45 -69h2l45 69h139l-107 -140h-156zM24 115l249 275v2h-229v120h429v-115l-249 -275v-2h259v-120h-459v115z" />
    <glyph glyph-name="zdotaccent" unicode="&#x17c;" horiz-adv-x="505" 
d="M182 650c0 41 28 76 77 76s76 -35 76 -76s-27 -76 -76 -76c-50 0 -77 35 -77 76zM24 115l249 275v2h-229v120h429v-115l-249 -275v-2h259v-120h-459v115z" />
    <glyph glyph-name="zero" unicode="0" horiz-adv-x="654" 
d="M328 -16c-207 0 -304 165 -304 361s97 362 304 362s303 -166 303 -362s-96 -361 -303 -361zM328 121c101 0 133 87 133 224s-32 225 -133 225s-134 -88 -134 -225s33 -224 134 -224z" />
    <glyph glyph-name="one" unicode="1" horiz-adv-x="406" 
d="M202 691h140v-691h-170v467c-39 -40 -97 -40 -146 -40v120c131 0 176 69 176 144z" />
    <glyph glyph-name="two" unicode="2" horiz-adv-x="581" 
d="M192 439h-160c0 162 86 268 273 268c149 0 249 -78 249 -210c0 -182 -204 -270 -293 -358v-2h293v-137h-532c0 115 60 186 121 237c124 103 241 157 241 248c0 53 -30 85 -84 85c-65 0 -108 -36 -108 -131z" />
    <glyph glyph-name="three" unicode="3" horiz-adv-x="598" 
d="M194 479h-160c0 132 98 228 275 228c129 0 247 -68 247 -190c0 -75 -44 -122 -100 -151v-2c85 -27 120 -85 120 -170c0 -136 -111 -210 -264 -210c-195 0 -298 94 -298 260h160c0 -80 37 -123 126 -123c72 0 106 31 106 83c0 67 -47 92 -127 92h-35v117h31
c74 0 111 24 111 76c0 59 -34 81 -90 81c-53 0 -102 -25 -102 -91z" />
    <glyph glyph-name="four" unicode="4" horiz-adv-x="623" 
d="M504 0h-170v146h-313v167l313 378h170v-408h102v-137h-102v-146zM334 506l-188 -223h188v223z" />
    <glyph glyph-name="five" unicode="5" horiz-adv-x="603" 
d="M351 469c137 0 229 -87 229 -235c0 -166 -116 -250 -269 -250c-193 0 -293 94 -298 230h170c5 -50 46 -93 118 -93c64 0 109 39 109 115c0 73 -39 116 -112 116c-37 0 -77 -15 -105 -50h-160l80 389h437v-137h-321l-26 -132v-2c38 30 85 49 148 49z" />
    <glyph glyph-name="six" unicode="6" horiz-adv-x="618" 
d="M195 408c37 35 86 63 165 63c143 0 238 -102 238 -234c0 -153 -105 -253 -271 -253c-228 0 -302 172 -302 352c0 250 119 371 296 371c134 0 235 -80 257 -191h-170c-5 24 -27 64 -90 64c-86 0 -121 -71 -123 -170v-2zM317 111c74 0 121 50 121 117
c0 66 -47 116 -121 116c-75 0 -122 -50 -122 -116c0 -67 47 -117 122 -117z" />
    <glyph glyph-name="seven" unicode="7" horiz-adv-x="545" 
d="M17 691h507v-127c-157 -127 -217 -351 -217 -564h-180c0 221 94 447 217 552v2h-327v137z" />
    <glyph glyph-name="eight" unicode="8" horiz-adv-x="609" 
d="M19 198c0 93 64 145 130 174v2c-49 26 -100 68 -100 146c0 119 114 187 256 187s256 -68 256 -187c0 -78 -52 -120 -100 -146v-2c65 -29 130 -81 130 -174c0 -142 -128 -214 -286 -214s-286 72 -286 214zM305 419c70 0 106 39 106 86c0 45 -36 85 -106 85
s-106 -40 -106 -85c0 -47 36 -86 106 -86zM305 111c73 0 116 47 116 103c0 54 -43 101 -116 101s-116 -47 -116 -101c0 -56 43 -103 116 -103z" />
    <glyph glyph-name="nine" unicode="9" horiz-adv-x="618" 
d="M424 283c-37 -35 -86 -63 -165 -63c-143 0 -238 102 -238 234c0 153 105 253 271 253c228 0 302 -172 302 -352c0 -250 -119 -371 -296 -371c-134 0 -235 80 -257 191h170c5 -24 27 -64 90 -64c86 0 121 71 123 170v2zM302 580c-74 0 -121 -50 -121 -117
c0 -66 47 -116 121 -116c75 0 122 50 122 116c0 67 -47 117 -122 117z" />
    <glyph glyph-name="fraction" unicode="&#x2044;" horiz-adv-x="281" 
d="M352 715h110l-533 -715h-110z" />
    <glyph glyph-name="asterisk" unicode="*" horiz-adv-x="436" 
d="M406 542l-112 -29l71 -96l-81 -59l-66 101l-66 -101l-81 59l71 96l-111 29l31 95l107 -44v122h100v-122l106 44z" />
    <glyph glyph-name="backslash" unicode="\" horiz-adv-x="437" 
d="M12 715h130l277 -715h-130z" />
    <glyph glyph-name="periodcentered" unicode="&#xb7;" horiz-adv-x="234" 
d="M117 225c-48 0 -85 33 -85 85c0 51 37 85 85 85c47 0 85 -34 85 -85c0 -52 -38 -85 -85 -85z" />
    <glyph glyph-name="bullet" unicode="&#x2022;" horiz-adv-x="374" 
d="M187 170c-92 0 -150 68 -150 150s58 150 150 150s150 -68 150 -150s-58 -150 -150 -150z" />
    <glyph glyph-name="colon" unicode=":" horiz-adv-x="240" 
d="M120 301c-48 0 -85 33 -85 85c0 51 37 85 85 85c47 0 85 -34 85 -85c0 -52 -38 -85 -85 -85zM120 -9c-48 0 -85 33 -85 85c0 51 37 85 85 85c47 0 85 -34 85 -85c0 -52 -38 -85 -85 -85z" />
    <glyph glyph-name="comma" unicode="," horiz-adv-x="244" 
d="M127 -9c-56 0 -95 31 -95 85s39 85 89 85c61 0 91 -46 91 -120c0 -116 -64 -194 -170 -208v70c50 7 85 47 85 88z" />
    <glyph glyph-name="ellipsis" unicode="&#x2026;" horiz-adv-x="654" 
d="M117 -9c-48 0 -85 33 -85 85c0 51 37 85 85 85c47 0 85 -34 85 -85c0 -52 -38 -85 -85 -85zM327 -9c-48 0 -85 33 -85 85c0 51 37 85 85 85c47 0 85 -34 85 -85c0 -52 -38 -85 -85 -85zM537 -9c-48 0 -85 33 -85 85c0 51 37 85 85 85c47 0 85 -34 85 -85
c0 -52 -38 -85 -85 -85z" />
    <glyph glyph-name="exclam" unicode="!" horiz-adv-x="264" 
d="M47 715h170v-156l-45 -325h-80l-45 325v156zM132 -9c-48 0 -85 33 -85 85c0 51 37 85 85 85c47 0 85 -34 85 -85c0 -52 -38 -85 -85 -85z" />
    <glyph glyph-name="exclamdown" unicode="&#xa1;" horiz-adv-x="264" 
d="M132 594c47 0 85 -33 85 -85c0 -51 -38 -85 -85 -85c-48 0 -85 34 -85 85c0 52 37 85 85 85zM47 -130v156l45 325h80l45 -325v-156h-170z" />
    <glyph glyph-name="numbersign" unicode="#" horiz-adv-x="600" 
d="M554 392h-71l-26 -123h71l-25 -120h-72l-32 -149h-120l32 149h-92l-32 -149h-120l32 149h-75l25 120h76l26 123h-76l26 120h76l38 179h120l-38 -179h92l38 179h120l-38 -179h71zM337 269l26 123h-92l-26 -123h92z" />
    <glyph glyph-name="period" unicode="." horiz-adv-x="234" 
d="M117 -9c-48 0 -85 33 -85 85c0 51 37 85 85 85c47 0 85 -34 85 -85c0 -52 -38 -85 -85 -85z" />
    <glyph glyph-name="question" unicode="?" horiz-adv-x="553" 
d="M184 493h-170c0 132 92 238 279 238c139 0 239 -78 239 -194c0 -80 -39 -129 -109 -168s-96 -62 -96 -135h-130c0 86 -11 131 56 183c53 41 109 55 109 112c0 33 -25 65 -79 65c-65 0 -99 -36 -99 -101zM263 -9c-48 0 -85 33 -85 85c0 51 37 85 85 85c47 0 85 -34 85 -85
c0 -52 -38 -85 -85 -85z" />
    <glyph glyph-name="questiondown" unicode="&#xbf;" horiz-adv-x="547" 
d="M286 596c48 0 85 -33 85 -85c0 -51 -37 -85 -85 -85c-47 0 -85 34 -85 85c0 52 38 85 85 85zM365 94h170c0 -132 -92 -238 -279 -238c-139 0 -239 78 -239 194c0 80 39 129 109 168s96 62 96 135h130c0 -86 11 -131 -56 -183c-53 -41 -109 -55 -109 -112
c0 -33 25 -65 79 -65c65 0 99 36 99 101z" />
    <glyph glyph-name="quotedbl" unicode="&#x22;" horiz-adv-x="422" 
d="M41 715h140l-20 -269h-100zM241 715h140l-20 -269h-100z" />
    <glyph glyph-name="quotesingle" unicode="'" horiz-adv-x="222" 
d="M41 715h140l-20 -269h-100z" />
    <glyph glyph-name="semicolon" unicode=";" horiz-adv-x="250" 
d="M125 301c-48 0 -85 33 -85 85c0 51 37 85 85 85c47 0 85 -34 85 -85c0 -52 -38 -85 -85 -85zM130 -9c-56 0 -95 31 -95 85s39 85 89 85c61 0 91 -46 91 -120c0 -116 -64 -194 -170 -208v70c50 7 85 47 85 88z" />
    <glyph glyph-name="slash" unicode="/" horiz-adv-x="419" 
d="M419 715l-277 -715h-130l277 715h130z" />
    <glyph glyph-name="underscore" unicode="_" horiz-adv-x="430" 
d="M-3 -55h436v-137h-436v137z" />
    <glyph glyph-name="braceleft" unicode="{" horiz-adv-x="398" 
d="M25 388c55 -1 68 14 68 65v123c0 168 87 194 245 194h27v-137h-27c-39 0 -75 -20 -75 -93v-113c0 -57 -21 -87 -70 -107v-2c49 -20 70 -50 70 -108v-113c0 -77 36 -97 75 -97h27v-137h-27c-158 0 -245 30 -245 198v123c0 51 -13 66 -68 66v138z" />
    <glyph glyph-name="braceright" unicode="}" horiz-adv-x="399" 
d="M374 388v-138c-55 0 -68 -15 -68 -66v-123c0 -168 -87 -198 -245 -198h-27v137h27c39 0 75 20 75 97v113c0 58 21 88 70 108v2c-49 20 -70 50 -70 107v113c0 73 -36 93 -75 93h-27v137h27c158 0 245 -26 245 -194v-123c0 -51 13 -66 68 -65z" />
    <glyph glyph-name="bracketleft" unicode="[" horiz-adv-x="398" 
d="M58 770h307v-137h-137v-633h137v-137h-307v907z" />
    <glyph glyph-name="bracketright" unicode="]" horiz-adv-x="398" 
d="M341 770v-907h-307v137h137v633h-137v137h307z" />
    <glyph glyph-name="parenleft" unicode="(" horiz-adv-x="341" 
d="M184 770h140c-53 -121 -97 -268 -97 -453c0 -181 44 -333 97 -454h-140c-63 101 -127 273 -127 454c0 187 64 352 127 453z" />
    <glyph glyph-name="parenright" unicode=")" horiz-adv-x="341" 
d="M157 770c63 -101 127 -266 127 -453c0 -181 -64 -353 -127 -454h-140c53 121 97 273 97 454c0 185 -44 332 -97 453h140z" />
    <glyph glyph-name="emdash" unicode="&#x2014;" horiz-adv-x="1000" 
d="M100 321h800v-137h-800v137z" />
    <glyph glyph-name="endash" unicode="&#x2013;" horiz-adv-x="500" 
d="M0 321h500v-137h-500v137z" />
    <glyph glyph-name="hyphen" unicode="-" horiz-adv-x="335" 
d="M32 321h272v-137h-272v137z" />
    <glyph glyph-name="guillemotleft" unicode="&#xab;" horiz-adv-x="405" 
d="M30 177v150l154 144v-150l-78 -68v-2l78 -68v-150zM221 177v150l154 144v-150l-78 -68v-2l78 -68v-150z" />
    <glyph glyph-name="guillemotright" unicode="&#xbb;" horiz-adv-x="405" 
d="M184 177l-154 -144v150l78 68v2l-78 68v150l154 -144v-150zM375 177l-154 -144v150l78 68v2l-78 68v150l154 -144v-150z" />
    <glyph glyph-name="guilsinglleft" unicode="&#x2039;" horiz-adv-x="265" 
d="M44 177v150l170 144v-150l-85 -68v-2l85 -68v-150z" />
    <glyph glyph-name="guilsinglright" unicode="&#x203a;" horiz-adv-x="265" 
d="M221 177l-170 -144v150l85 68v2l-85 68v150l170 -144v-150z" />
    <glyph glyph-name="quotedblbase" unicode="&#x201e;" horiz-adv-x="466" 
d="M127 -9c-56 0 -95 31 -95 85s39 85 89 85c61 0 91 -46 91 -120c0 -116 -64 -194 -170 -208v70c50 7 85 47 85 88zM347 -9c-56 0 -95 31 -95 85s39 85 89 85c61 0 91 -46 91 -120c0 -116 -64 -194 -170 -208v70c50 7 85 47 85 88z" />
    <glyph glyph-name="quotedblleft" unicode="&#x201c;" horiz-adv-x="466" 
d="M119 560c56 0 95 -31 95 -85s-39 -85 -89 -85c-61 0 -91 46 -91 120c0 116 64 194 170 208v-70c-50 -7 -85 -47 -85 -88zM339 560c56 0 95 -31 95 -85s-39 -85 -89 -85c-61 0 -91 46 -91 120c0 116 64 194 170 208v-70c-50 -7 -85 -47 -85 -88z" />
    <glyph glyph-name="quotedblright" unicode="&#x201d;" horiz-adv-x="466" 
d="M127 554c-56 0 -95 31 -95 85s39 85 89 85c61 0 91 -46 91 -120c0 -116 -64 -194 -170 -208v70c50 7 85 47 85 88zM347 554c-56 0 -95 31 -95 85s39 85 89 85c61 0 91 -46 91 -120c0 -116 -64 -194 -170 -208v70c50 7 85 47 85 88z" />
    <glyph glyph-name="quoteleft" unicode="&#x2018;" horiz-adv-x="251" 
d="M119 560c56 0 95 -31 95 -85s-39 -85 -89 -85c-61 0 -91 46 -91 120c0 116 64 194 170 208v-70c-50 -7 -85 -47 -85 -88z" />
    <glyph glyph-name="quoteright" unicode="&#x2019;" horiz-adv-x="246" 
d="M127 554c-56 0 -95 31 -95 85s39 85 89 85c61 0 91 -46 91 -120c0 -116 -64 -194 -170 -208v70c50 7 85 47 85 88z" />
    <glyph glyph-name="quotesinglbase" unicode="&#x201a;" horiz-adv-x="246" 
d="M127 -9c-56 0 -95 31 -95 85s39 85 89 85c61 0 91 -46 91 -120c0 -116 -64 -194 -170 -208v70c50 7 85 47 85 88z" />
    <glyph glyph-name="space" unicode=" " horiz-adv-x="170" 
 />
    <glyph glyph-name="cent" unicode="&#xa2;" horiz-adv-x="544" 
d="M308 107c42 12 58 48 62 86h157c-7 -113 -88 -197 -219 -208v-92h-60v93c-143 13 -232 121 -232 270s90 258 232 271v67h60v-67c130 -12 207 -96 219 -206h-157c-4 34 -20 72 -62 83v-297zM176 256c0 -80 25 -132 72 -147v294c-46 -15 -72 -67 -72 -147z" />
    <glyph glyph-name="currency" unicode="&#xa4;" horiz-adv-x="512" 
d="M460 349c0 -36 -8 -69 -22 -97l60 -60l-85 -85l-59 59c-29 -13 -61 -21 -97 -21c-37 0 -70 8 -98 22l-60 -60l-85 85l60 60c-13 29 -21 61 -21 97s8 68 21 97l-60 60l85 85l60 -60c28 14 61 22 98 22c36 0 69 -7 97 -21l59 59l85 -85l-59 -59c14 -29 21 -62 21 -98z
M257 235c60 0 83 50 83 114s-23 114 -83 114c-61 0 -84 -50 -84 -114s23 -114 84 -114z" />
    <glyph glyph-name="dollar" unicode="$" horiz-adv-x="625" 
d="M595 190c0 -114 -94 -201 -254 -206v-87h-60v89c-160 12 -265 93 -265 239h170c0 -65 46 -91 95 -100v150c-9 2 -19 5 -29 8c-123 36 -216 79 -216 211c0 122 100 201 245 207v59h60v-61c143 -14 239 -98 244 -221h-170c-6 40 -35 68 -74 80v-135
c133 -37 254 -82 254 -233zM206 507c0 -34 23 -50 75 -67v123c-45 -3 -75 -20 -75 -56zM341 121c53 3 84 23 84 62c0 38 -32 57 -84 74v-136z" />
    <glyph glyph-name="Euro" unicode="&#x20ac;" horiz-adv-x="686" 
d="M375 121c80 0 107 52 111 132h170c-6 -158 -91 -269 -277 -269c-189 0 -273 114 -296 265h-53v60h47c-1 11 -1 23 -1 34v24h-46v60h51c21 156 105 274 298 274c185 0 270 -111 277 -267h-170c-5 78 -32 130 -111 130c-77 0 -112 -52 -124 -137h159v-60h-164v-24
c0 -12 0 -23 1 -34h163v-60h-158c14 -80 49 -128 123 -128z" />
    <glyph glyph-name="sterling" unicode="&#xa3;" horiz-adv-x="586" 
d="M404 121c50 0 79 25 105 46l59 -121c-51 -39 -86 -62 -155 -62c-101 0 -115 63 -182 63c-42 0 -75 -14 -127 -47l-81 123c54 35 91 93 91 153c0 4 0 9 -1 13h-85v90h48c-19 33 -38 69 -38 119c0 92 55 203 261 203c195 0 274 -104 274 -257h-170c0 77 -32 120 -101 120
c-70 0 -94 -37 -94 -83c0 -39 18 -71 36 -102h149v-90h-110c1 -6 1 -12 1 -18c0 -64 -30 -95 -79 -130l1 -2c23 11 47 20 73 20c60 0 71 -38 125 -38z" />
    <glyph glyph-name="yen" unicode="&#xa5;" horiz-adv-x="646" 
d="M641 686l-212 -380h142v-60h-165v-58h165v-60h-165v-128h-170v128h-165v60h165v58h-165v60h142l-212 380h190l129 -271h2l129 271h190z" />
    <glyph glyph-name="plus" unicode="+" horiz-adv-x="566" 
d="M214 260h-174v138h174v181h138v-181h174v-138h-174v-181h-138v181z" />
    <glyph glyph-name="minus" unicode="&#x2212;" horiz-adv-x="566" 
d="M40 395h486v-137h-486v137z" />
    <glyph glyph-name="multiply" unicode="&#xd7;" horiz-adv-x="566" 
d="M521 472l-144 -143l144 -144l-97 -97l-144 144l-144 -144l-97 97l144 144l-144 143l97 97l144 -144l144 144z" />
    <glyph glyph-name="divide" unicode="&#xf7;" horiz-adv-x="566" 
d="M283 451c-48 0 -80 26 -80 73c0 46 32 73 80 73c47 0 80 -27 80 -73c0 -47 -33 -73 -80 -73zM40 258v137h486v-137h-486zM283 56c-48 0 -80 26 -80 73c0 46 32 73 80 73c47 0 80 -27 80 -73c0 -47 -33 -73 -80 -73z" />
    <glyph glyph-name="equal" unicode="=" horiz-adv-x="563" 
d="M51 484h468v-137h-468v137zM51 272h468v-137h-468v137z" />
    <glyph glyph-name="notequal" unicode="&#x2260;" horiz-adv-x="563" 
d="M519 347h-166l-36 -75h202v-137h-267l-36 -77h-100l36 77h-101v137h166l36 75h-202v137h267l37 79h100l-37 -79h101v-137z" />
    <glyph glyph-name="greater" unicode="&#x3e;" horiz-adv-x="502" 
d="M47 62v137l277 109v2l-277 109v137l412 -172v-150z" />
    <glyph glyph-name="less" unicode="&#x3c;" horiz-adv-x="519" 
d="M455 62l-412 172v150l412 172v-137l-277 -109v-2l277 -109v-137z" />
    <glyph glyph-name="greaterequal" unicode="&#x2265;" horiz-adv-x="502" 
d="M47 130v137l277 75v2l-277 75v137l412 -138v-150zM47 113h412v-120h-412v120z" />
    <glyph glyph-name="lessequal" unicode="&#x2264;" horiz-adv-x="519" 
d="M455 130l-412 138v150l412 138v-137l-277 -75v-2l277 -75v-137zM455 113v-120h-412v120h412z" />
    <glyph glyph-name="plusminus" unicode="&#xb1;" horiz-adv-x="566" 
d="M40 305v137h174v137h138v-137h174v-137h-174v-137h-138v137h-174zM40 120h486v-120h-486v120z" />
    <glyph glyph-name="approxequal" unicode="&#x2248;" horiz-adv-x="546" 
d="M401 327c-68 0 -180 45 -226 45c-33 0 -41 -23 -41 -45h-100c0 118 38 175 119 175c68 0 180 -45 226 -45c33 0 41 23 41 45h100c0 -118 -38 -175 -119 -175zM401 112c-68 0 -180 45 -226 45c-33 0 -41 -23 -41 -45h-100c0 118 38 175 119 175c68 0 180 -45 226 -45
c33 0 41 23 41 45h100c0 -118 -38 -175 -119 -175z" />
    <glyph glyph-name="asciitilde" unicode="~" horiz-adv-x="443" 
d="M24 239c0 118 38 175 119 175c68 0 96 -45 142 -45c33 0 41 23 41 45h100c0 -118 -38 -175 -119 -175c-68 0 -96 45 -142 45c-33 0 -41 -23 -41 -45h-100z" />
    <glyph glyph-name="logicalnot" unicode="&#xac;" horiz-adv-x="524" 
d="M309 293h-269v137h429v-296h-160v159z" />
    <glyph glyph-name="emptyset" unicode="&#x2205;" horiz-adv-x="797" 
d="M684 581c52 -62 83 -142 83 -236c0 -214 -162 -361 -368 -361c-90 0 -171 28 -235 77l-65 -65l-50 50l64 64c-52 61 -83 142 -83 235c0 214 163 362 369 362c90 0 171 -28 234 -77l65 65l50 -50zM100 345c0 -73 24 -136 63 -185l419 419c-50 37 -114 58 -183 58
c-166 0 -299 -118 -299 -292zM399 54c165 0 298 118 298 291c0 73 -24 137 -63 186l-419 -419c50 -37 114 -58 184 -58z" />
    <glyph glyph-name="infinity" unicode="&#x221e;" horiz-adv-x="725" 
d="M22 305c0 128 84 186 171 186c74 0 129 -37 169 -85h2c40 48 94 85 168 85c87 0 171 -58 171 -186c0 -126 -84 -186 -171 -186c-74 0 -128 49 -168 97h-2c-40 -48 -95 -97 -169 -97c-87 0 -171 60 -171 186zM200 229c48 0 78 38 108 76c-30 38 -60 76 -108 76
s-68 -38 -68 -76s20 -76 68 -76zM525 229c48 0 68 38 68 76s-20 76 -68 76s-78 -38 -108 -76c30 -38 60 -76 108 -76z" />
    <glyph glyph-name="integral" unicode="&#x222b;" horiz-adv-x="366" 
d="M269 0c0 -115 -43 -177 -160 -177c-45 0 -85 4 -114 10v120c68 0 104 0 104 80v531c0 115 43 177 160 177c45 0 85 -4 114 -10v-120c-68 0 -104 0 -104 -80v-531z" />
    <glyph glyph-name="product" unicode="&#x220f;" horiz-adv-x="719" 
d="M53 715h613v-815h-170v678h-273v-678h-170v815z" />
    <glyph glyph-name="summation" unicode="&#x2211;" horiz-adv-x="611" 
d="M32 40l252 275v2l-252 259v139h540v-137h-341v-2l223 -222v-70l-230 -245v-2h358v-137h-550v140z" />
    <glyph glyph-name="radical" unicode="&#x221a;" horiz-adv-x="652" 
d="M14 364h187l96 -262h2l176 613h170l-267 -815h-160l-127 327h-77v137z" />
    <glyph glyph-name="partialdiff" unicode="&#x2202;" horiz-adv-x="580" 
d="M386 408v2c-22 99 -95 168 -226 168v137c282 0 396 -179 396 -399c0 -160 -74 -332 -287 -332c-151 0 -249 90 -249 233c0 132 98 254 221 254c79 0 118 -28 145 -63zM273 111c75 0 113 60 113 127c0 56 -28 106 -93 106c-74 0 -113 -60 -113 -126c0 -57 29 -107 93 -107
z" />
    <glyph glyph-name="percent" unicode="%" horiz-adv-x="868" 
d="M204 306c-125 0 -184 92 -184 200c0 109 59 201 184 201c126 0 183 -92 183 -201c0 -108 -57 -200 -183 -200zM666 691l-363 -691h-100l363 691h100zM204 396c41 0 53 34 53 110s-12 111 -53 111s-54 -35 -54 -111s13 -110 54 -110zM666 -16c-125 0 -184 92 -184 200
c0 109 59 201 184 201c126 0 183 -92 183 -201c0 -108 -57 -200 -183 -200zM666 74c41 0 53 34 53 110s-12 111 -53 111s-54 -35 -54 -111s13 -110 54 -110z" />
    <glyph glyph-name="perthousand" unicode="&#x2030;" horiz-adv-x="1275" 
d="M204 306c-125 0 -184 92 -184 200c0 109 59 201 184 201c126 0 183 -92 183 -201c0 -108 -57 -200 -183 -200zM666 691l-363 -691h-100l363 691h100zM204 396c41 0 53 34 53 110s-12 111 -53 111s-54 -35 -54 -111s13 -110 54 -110zM666 -16c-125 0 -184 92 -184 200
c0 109 59 201 184 201c126 0 183 -92 183 -201c0 -108 -57 -200 -183 -200zM1073 -16c-125 0 -184 92 -184 200c0 109 59 201 184 201c126 0 183 -92 183 -201c0 -108 -57 -200 -183 -200zM666 74c41 0 53 34 53 110s-12 111 -53 111s-54 -35 -54 -111s13 -110 54 -110z
M1073 74c41 0 53 34 53 110s-12 111 -53 111s-54 -35 -54 -111s13 -110 54 -110z" />
    <glyph glyph-name="arrowup" unicode="&#x2191;" horiz-adv-x="680" 
d="M650 404l-79 -77l-171 160v-487h-120v487l-171 -160l-79 77l310 287z" />
    <glyph glyph-name="uni2197" unicode="&#x2197;" horiz-adv-x="608" 
d="M578 179l-111 1l-8 234l-344 -344l-85 85l345 344l-234 8l-2 110l422 -16z" />
    <glyph glyph-name="arrowright" unicode="&#x2192;" horiz-adv-x="751" 
d="M434 10l-77 79l160 171h-487v120h487l-160 171l77 79l287 -310z" />
    <glyph glyph-name="uni2198" unicode="&#x2198;" horiz-adv-x="584" 
d="M578 465l-17 -422l-422 -16l2 110l234 8l-345 344l85 85l344 -344l8 234z" />
    <glyph glyph-name="arrowdown" unicode="&#x2193;" horiz-adv-x="680" 
d="M650 247l-310 -287l-310 287l79 77l171 -160v487h120v-487l171 160z" />
    <glyph glyph-name="uni2199" unicode="&#x2199;" horiz-adv-x="584" 
d="M6 465l111 -1l8 -234l344 344l85 -85l-345 -344l234 -8l2 -110l-422 16z" />
    <glyph glyph-name="arrowleft" unicode="&#x2190;" horiz-adv-x="751" 
d="M317 10l-287 310l287 310l77 -79l-160 -171h487v-120h-487l160 -171z" />
    <glyph glyph-name="uni2196" unicode="&#x2196;" horiz-adv-x="584" 
d="M6 179l17 422l422 16l-2 -110l-234 -8l345 -344l-85 -85l-344 344l-8 -234z" />
    <glyph glyph-name="arrowboth" unicode="&#x2194;" horiz-adv-x="1140" 
d="M823 630l287 -310l-286 -310l-77 79l160 171h-673l160 -171l-77 -80l-287 310l287 311l77 -79l-160 -171h672l-159 171z" />
    <glyph glyph-name="arrowupdn" unicode="&#x2195;" horiz-adv-x="680" 
d="M400 27l171 160l79 -77l-310 -287l-310 287l79 77l171 -160v555l-171 -160l-79 77l310 287l310 -287l-79 -77l-171 160v-555z" />
    <glyph glyph-name="lozenge" unicode="&#x25ca;" horiz-adv-x="596" 
d="M16 357l201 358h161l202 -358l-201 -357h-161zM300 137l110 220l-112 221h-2l-110 -221l112 -220h2z" />
    <glyph glyph-name="at" unicode="@" horiz-adv-x="909" 
d="M676 79c-66 0 -139 30 -166 81h-2c-20 -47 -54 -77 -118 -77c-86 0 -158 74 -158 212s82 222 178 222c64 0 90 -30 108 -67h2l7 60h137l-32 -251c-9 -68 16 -90 54 -90c58 0 93 47 93 151c0 160 -106 305 -312 305c-187 0 -322 -145 -322 -322c0 -197 115 -321 312 -321
c63 0 118 8 179 32l32 -79c-67 -36 -137 -43 -211 -43c-263 0 -422 164 -422 411c0 227 179 412 432 412c272 0 412 -185 412 -392c0 -180 -85 -244 -203 -244zM425 193c65 0 82 52 82 122c0 60 -17 92 -62 92s-78 -42 -78 -122c0 -50 13 -92 58 -92z" />
    <glyph glyph-name="ampersand" unicode="&#x26;" horiz-adv-x="697" 
d="M695 0h-200l-33 40c-53 -35 -117 -56 -193 -56c-165 0 -247 83 -247 192c0 111 79 160 160 201c-49 58 -84 102 -84 172c0 91 76 181 215 182c131 1 214 -91 215 -182c1 -82 -54 -130 -150 -180l98 -113c16 34 28 69 34 102h140c-8 -69 -35 -146 -80 -212zM313 594
c-44 0 -65 -26 -65 -55c0 -32 25 -56 61 -92c45 30 69 58 69 92c0 29 -19 55 -65 55zM289 121c33 0 62 8 87 22l-129 157c-46 -33 -55 -64 -55 -92c0 -47 31 -87 97 -87z" />
    <glyph glyph-name="paragraph" unicode="&#xb6;" horiz-adv-x="603" 
d="M278 335h-42c-135 0 -209 67 -209 187s74 193 209 193h313v-715h-100v625h-71v-625h-100v335z" />
    <glyph glyph-name="section" unicode="&#xa7;" horiz-adv-x="625" 
d="M600 268c0 -68 -36 -121 -101 -149c31 -29 52 -67 52 -122c0 -103 -80 -174 -224 -174c-167 0 -233 83 -238 181h160c5 -49 24 -71 82 -71c37 0 60 16 60 48c0 49 -57 75 -121 104c-130 59 -241 89 -241 201c0 68 36 121 101 149c-31 29 -52 67 -52 122
c0 103 80 174 224 174c167 0 233 -83 238 -181h-160c-5 49 -24 71 -82 71c-37 0 -60 -16 -60 -48c0 -49 57 -75 121 -104c130 -59 241 -89 241 -201zM358 202l30 -15c34 3 52 18 52 42c0 52 -68 73 -169 123l-30 15c-34 -3 -52 -18 -52 -42c0 -52 68 -73 169 -123z" />
    <glyph glyph-name="copyright" unicode="&#xa9;" horiz-adv-x="817" 
d="M409 -16c-226 0 -369 159 -369 373s143 374 369 374s368 -160 368 -374s-142 -373 -368 -373zM409 34c195 0 308 140 308 323c0 184 -113 324 -308 324c-196 0 -309 -140 -309 -324c0 -183 113 -323 309 -323zM481 411c-4 34 -18 72 -71 72c-55 0 -81 -46 -81 -126
c0 -79 26 -125 81 -125c53 0 67 35 71 73h129c-6 -99 -74 -172 -195 -172c-134 0 -218 92 -218 224c0 131 80 225 210 225c123 0 193 -73 203 -171h-129z" />
    <glyph glyph-name="registered" unicode="&#xae;" horiz-adv-x="531" 
d="M266 247c-134 0 -240 103 -240 242s106 242 240 242s239 -103 239 -242s-105 -242 -239 -242zM266 297c111 0 179 76 179 193c0 116 -68 192 -179 192s-180 -76 -180 -192c0 -117 69 -193 180 -193zM161 360v260h123c57 0 92 -26 92 -75c0 -35 -20 -57 -52 -64v-1
c65 -11 41 -112 56 -116v-4h-68c-13 11 11 91 -45 91h-41v-91h-65zM226 567v-63h45c26 0 40 10 40 31c0 22 -14 32 -40 32h-45z" />
    <glyph glyph-name="trademark" unicode="&#x2122;" horiz-adv-x="719" 
d="M109 625h-78v90h246v-90h-78v-185h-90v185zM314 715h121l53 -145h2l54 145h122v-275h-92v175h-2l-51 -175h-65l-50 175h-2v-175h-90v275z" />
    <glyph glyph-name="degree" unicode="&#xb0;" horiz-adv-x="375" 
d="M188 424c-97 0 -156 72 -156 154s59 153 156 153c96 0 156 -71 156 -153s-60 -154 -156 -154zM188 504c31 0 66 21 66 74s-35 73 -66 73s-66 -20 -66 -73s35 -74 66 -74z" />
    <glyph glyph-name="bar" unicode="|" horiz-adv-x="225" 
d="M58 754h110v-892h-110v892z" />
    <glyph glyph-name="brokenbar" unicode="&#xa6;" horiz-adv-x="225" 
d="M58 754h110v-370h-110v370zM58 245h110v-383h-110v383z" />
    <glyph glyph-name="dagger" unicode="&#x2020;" horiz-adv-x="589" 
d="M210 375h-176v137h176v203h170v-203h175v-137h-175v-552h-170v552z" />
    <glyph glyph-name="daggerdbl" unicode="&#x2021;" horiz-adv-x="590" 
d="M210 55h-176v137h176v183h-176v137h176v203h170v-203h175v-137h-175v-183h175v-137h-175v-232h-170v232z" />
    <glyph glyph-name="asciicircum" unicode="^" horiz-adv-x="466" 
d="M173 715h120l167 -275h-150l-77 135h-1l-76 -135h-150z" />
    <glyph glyph-name="uni0308" unicode="&#x308;" 
d="M-398 650c0 41 28 76 77 76s76 -35 76 -76s-27 -76 -76 -76c-50 0 -77 35 -77 76zM-183 650c0 41 28 76 77 76s76 -35 76 -76s-27 -76 -76 -76c-50 0 -77 35 -77 76z" />
    <glyph glyph-name="uni0307" unicode="&#x307;" 
d="M-183 650c0 41 28 76 77 76s76 -35 76 -76s-27 -76 -76 -76c-50 0 -77 35 -77 76z" />
    <glyph glyph-name="gravecomb" unicode="&#x300;" 
d="M-73 720l43 -140h-120l-103 140h180z" />
    <glyph glyph-name="acutecomb" unicode="&#x301;" 
d="M-210 720h180l-103 -140h-120z" />
    <glyph glyph-name="uni030B" unicode="&#x30b;" 
d="M-430 720h180l-103 -140h-120zM-210 720h180l-103 -140h-120z" />
    <glyph glyph-name="uni0302" unicode="&#x302;" 
d="M-400 580l107 140h156l107 -140h-139l-45 69h-2l-45 -69h-139z" />
    <glyph glyph-name="uni030C" unicode="&#x30c;" 
d="M-400 720h139l45 -69h2l45 69h139l-107 -140h-156z" />
    <glyph glyph-name="uni0306" unicode="&#x306;" 
d="M-190 574c-91 0 -157 57 -160 146h92c3 -29 25 -48 68 -48s65 19 68 48h92c-4 -86 -67 -146 -160 -146z" />
    <glyph glyph-name="uni030A" unicode="&#x30a;" 
d="M-132 569c-55 0 -102 38 -102 100c0 61 47 100 102 100c56 0 102 -39 102 -100c0 -62 -46 -100 -102 -100zM-132 624c25 0 42 16 42 45s-17 45 -42 45c-24 0 -41 -16 -41 -45s17 -45 41 -45z" />
    <glyph glyph-name="tildecomb" unicode="&#x303;" 
d="M-362 594c0 97 31 135 88 135c46 0 90 -38 128 -38c27 0 33 19 33 38h83c0 -98 -31 -135 -88 -135c-46 0 -90 37 -128 37c-27 0 -33 -19 -33 -37h-83z" />
    <glyph glyph-name="uni0304" unicode="&#x304;" 
d="M-316 700h286v-100h-286v100z" />
    <glyph glyph-name="uni0312" unicode="&#x312;" 
d="M-104 691c44 10 74 -20 74 -58s-22 -64 -61 -64c-51 0 -79 40 -79 89c0 66 40 118 132 127v-46c-39 -5 -66 -21 -66 -48z" />
    <glyph glyph-name="uni0326" unicode="&#x326;" 
d="M-96 -169c-44 -10 -74 20 -74 56s30 66 69 66c48 0 71 -40 71 -89c0 -66 -40 -118 -132 -127v46c39 5 66 21 66 48z" />
    <glyph glyph-name="uni0327" unicode="&#x327;" 
d="M-98 -10l-38 -42v-2c57 6 112 -15 112 -67c0 -48 -60 -77 -131 -77c-47 0 -84 12 -112 29l30 35c19 -9 45 -15 69 -15c18 0 44 8 44 29c0 19 -17 27 -38 27c-13 0 -24 -3 -35 -7l-17 24l57 66h59z" />
    <glyph glyph-name="uni0328" unicode="&#x328;" 
d="M-111 -177c-75 0 -114 30 -114 84c0 47 38 78 70 93h101c-26 -22 -48 -40 -48 -61c0 -15 11 -22 31 -22c13 0 27 3 41 7v-90c-23 -6 -53 -11 -81 -11z" />
    <glyph glyph-name="uni0335" unicode="&#x335;" 
d="M-30 415v-90h-448v90h448z" />
    <glyph glyph-name="uni0336" unicode="&#x336;" 
d="M-30 433v-147h-540v147h540z" />
    <glyph glyph-name="uni0337" unicode="&#x337;" 
d="M-566 30l42 -43l494 495l-43 42z" />
    <glyph glyph-name="uni0338" unicode="&#x338;" 
d="M-566 30l42 -43l494 495l-43 42z" />
    <glyph glyph-name="acute" unicode="&#xb4;" horiz-adv-x="478" 
d="M214 720h180l-103 -140h-120z" />
    <glyph glyph-name="breve" unicode="&#x2d8;" horiz-adv-x="497" 
d="M268 574c-91 0 -157 57 -160 146h92c3 -29 25 -48 68 -48s65 19 68 48h92c-4 -86 -67 -146 -160 -146z" />
    <glyph glyph-name="caron" unicode="&#x2c7;" horiz-adv-x="501" 
d="M66 720h139l45 -69h2l45 69h139l-107 -140h-156z" />
    <glyph glyph-name="cedilla" unicode="&#xb8;" horiz-adv-x="506" 
d="M284 -10l-38 -42v-2c57 6 112 -15 112 -67c0 -48 -60 -77 -131 -77c-47 0 -84 12 -112 29l30 35c19 -9 45 -15 69 -15c18 0 44 8 44 29c0 19 -17 27 -38 27c-13 0 -24 -3 -35 -7l-17 24l57 66h59z" />
    <glyph glyph-name="circumflex" unicode="&#x2c6;" horiz-adv-x="464" 
d="M65 580l107 140h156l107 -140h-139l-45 69h-2l-45 -69h-139z" />
    <glyph glyph-name="dieresis" unicode="&#xa8;" horiz-adv-x="490" 
d="M61 650c0 41 28 76 77 76s76 -35 76 -76s-27 -76 -76 -76c-50 0 -77 35 -77 76zM276 650c0 41 28 76 77 76s76 -35 76 -76s-27 -76 -76 -76c-50 0 -77 35 -77 76z" />
    <glyph glyph-name="dotaccent" unicode="&#x2d9;" horiz-adv-x="491" 
d="M169 650c0 41 28 76 77 76s76 -35 76 -76s-27 -76 -76 -76c-50 0 -77 35 -77 76z" />
    <glyph glyph-name="grave" unicode="`" horiz-adv-x="619" 
d="M264 720l43 -140h-120l-103 140h180z" />
    <glyph glyph-name="hungarumlaut" unicode="&#x2dd;" horiz-adv-x="541" 
d="M139 720h180l-103 -140h-120zM359 720h180l-103 -140h-120z" />
    <glyph glyph-name="macron" unicode="&#xaf;" horiz-adv-x="500" 
d="M110 700h286v-100h-286v100z" />
    <glyph glyph-name="ogonek" unicode="&#x2db;" horiz-adv-x="510" 
d="M235 -177c-75 0 -114 30 -114 84c0 47 38 78 70 93h101c-26 -22 -48 -40 -48 -61c0 -15 11 -22 31 -22c13 0 27 3 41 7v-90c-23 -6 -53 -11 -81 -11z" />
    <glyph glyph-name="ring" unicode="&#x2da;" horiz-adv-x="500" 
d="M250 569c-55 0 -102 38 -102 100c0 61 47 100 102 100c56 0 102 -39 102 -100c0 -62 -46 -100 -102 -100zM250 624c25 0 42 16 42 45s-17 45 -42 45c-24 0 -41 -16 -41 -45s17 -45 41 -45z" />
    <glyph glyph-name="tilde" unicode="&#x2dc;" horiz-adv-x="500" 
d="M84 594c0 97 31 135 88 135c46 0 90 -38 128 -38c27 0 33 19 33 38h83c0 -98 -31 -135 -88 -135c-46 0 -90 37 -128 37c-27 0 -33 -19 -33 -37h-83z" />
    <glyph glyph-name="logo" horiz-adv-x="938" 
d="M793 344c60 0 115 -55 115 -134c0 -94 -71 -137 -124 -137c-31 0 -49 10 -63 19c9 -13 19 -32 19 -63c0 -53 -43 -124 -137 -124c-79 0 -134 55 -134 115c0 -60 -55 -115 -134 -115c-94 0 -137 71 -137 124c0 31 10 50 19 63c-14 -9 -32 -19 -63 -19
c-53 0 -124 43 -124 137c0 79 55 134 115 134c-60 0 -115 55 -115 134c0 94 71 137 124 137c31 0 49 -10 63 -19c-9 13 -19 32 -19 63c0 53 43 124 137 124c79 0 134 -55 134 -115c0 60 55 115 134 115c94 0 137 -71 137 -124c0 -31 -10 -50 -19 -63c14 9 32 19 63 19
c53 0 124 -43 124 -137c0 -79 -55 -134 -115 -134zM120 473c0 -41 23 -74 101 -74h123c52 0 70 18 70 70v123c0 78 -33 101 -74 101c-36 0 -62 -18 -62 -61c0 -24 6 -39 16 -52h8c39 0 71 -31 71 -69c0 -39 -32 -71 -71 -71c-38 0 -69 29 -69 71v8c-13 10 -28 16 -52 16
c-36 0 -61 -26 -61 -62zM524 592v-123c0 -52 18 -70 70 -70h123c78 0 101 33 101 74c0 36 -25 62 -61 62c-24 0 -39 -6 -52 -16v-8c0 -42 -31 -71 -69 -71c-39 0 -71 32 -71 71c0 38 32 69 71 69h8c10 13 16 28 16 52c0 43 -26 61 -62 61c-41 0 -74 -23 -74 -101zM414 96
v123c0 52 -18 70 -70 70h-123c-78 0 -101 -33 -101 -74c0 -36 25 -62 61 -62c24 0 39 6 52 16v8c0 42 31 71 69 71c39 0 71 -32 71 -71c0 -38 -32 -69 -71 -69h-8c-10 -13 -16 -28 -16 -52c0 -43 26 -61 62 -61c41 0 74 23 74 101zM757 153c36 0 61 26 61 62
c0 41 -23 74 -101 74h-123c-52 0 -70 -18 -70 -70v-123c0 -78 33 -101 74 -101c36 0 62 18 62 61c0 24 -6 39 -16 52h-8c-39 0 -71 31 -71 69c0 39 32 71 71 71c38 0 69 -29 69 -71v-8c13 -10 28 -16 52 -16z" />
    <glyph glyph-name="logo_petal" horiz-adv-x="474" 
d="M320 563c53 0 124 -43 124 -137c0 -79 -55 -134 -115 -134h-324v324c0 60 55 115 134 115c94 0 137 -71 137 -124c0 -31 -10 -50 -19 -63c14 9 32 19 63 19zM253 347c78 0 101 33 101 74c0 36 -25 62 -61 62c-24 0 -39 -6 -52 -16v-8c0 -42 -31 -71 -69 -71
c-39 0 -71 32 -71 71c0 38 32 69 71 69h8c10 13 16 28 16 52c0 43 -26 61 -62 61c-41 0 -74 -23 -74 -101v-123c0 -52 18 -70 70 -70h123z" />
    </font>
</defs>
</svg>
