<?xml version="1.0" standalone="no"?>
<!DOCTYPE svg PUBLIC "-//W3C//DTD SVG 1.1//EN" "http://www.w3.org/Graphics/SVG/1.1/DTD/svg11.dtd" >
<svg xmlns="http://www.w3.org/2000/svg" xmlns:xlink="http://www.w3.org/1999/xlink" version="1.1">
<metadata>
Created by FontForge 20201107 at Mon Apr  2 14:12:33 2018
 By Jimmy Wärting
Pangram Pangram Foundry
</metadata>
<defs>
<font id="NeueMontreal-BoldItalic" horiz-adv-x="0" >
  <font-face 
    font-family="Neue Montreal Bold"
    font-weight="700"
    font-style="italic"
    font-stretch="normal"
    units-per-em="1000"
    panose-1="0 0 8 0 0 0 0 0 0 0"
    ascent="770"
    descent="-230"
    x-height="512"
    cap-height="715"
    bbox="-610 -263 1238.48 972"
    underline-thickness="50"
    underline-position="-100"
    slope="-11"
    stemh="130"
    stemv="117"
    unicode-range="U+0020-25CA"
  />
<missing-glyph horiz-adv-x="500" 
d="M410 770v-1000h-317v1000h317zM333 703h-165v-33h65v-37h-66v-33h166v33h-66v37h66v33zM267 574h-100v-104h166v34h-66v70zM233 540v-36h-33v36h33zM333 443h-166v-33h66v-37h-66v-33h100v70h66v33zM333 383h-33v-66h-133v-34h166v100zM333 261h-100v-56h34v23h33v-47
h-100v80h-33v-113h166v113zM333 88h-166v-113h166v113zM300 55v-47h-100v47h100zM333 -48h-166v-33h70l-70 -47v-33h166v33h-102l70 47h32v33z" />
    <glyph glyph-name=".notdef" horiz-adv-x="500" 
d="M410 770v-1000h-317v1000h317zM333 703h-165v-33h65v-37h-66v-33h166v33h-66v37h66v33zM267 574h-100v-104h166v34h-66v70zM233 540v-36h-33v36h33zM333 443h-166v-33h66v-37h-66v-33h100v70h66v33zM333 383h-33v-66h-133v-34h166v100zM333 261h-100v-56h34v23h33v-47
h-100v80h-33v-113h166v113zM333 88h-166v-113h166v113zM300 55v-47h-100v47h100zM333 -48h-166v-33h70l-70 -47v-33h166v33h-102l70 47h32v33z" />
    <glyph glyph-name="A" unicode="A" horiz-adv-x="692" 
d="M450 149h-245l-75 -149h-183l398 715h180l119 -715h-177zM272 286h164l-30 264h-2z" />
    <glyph glyph-name="Aacute" unicode="&#xc1;" horiz-adv-x="692" 
d="M453 923h184l-131 -140h-123zM450 149h-245l-75 -149h-183l398 715h180l119 -715h-177zM272 286h164l-30 264h-2z" />
    <glyph glyph-name="Abreve" unicode="&#x102;" horiz-adv-x="692" 
d="M452 777c-96 0 -155 61 -140 150l89 -8c-2 -29 12 -44 50 -44c48 0 79 23 88 52l91 -8c-21 -86 -90 -142 -178 -142zM450 149h-245l-75 -149h-183l398 715h180l119 -715h-177zM272 286h164l-30 264h-2z" />
    <glyph glyph-name="Acircumflex" unicode="&#xc2;" horiz-adv-x="692" 
d="M258 783l134 140h156l80 -140h-136l-31 69h-2l-59 -69h-142zM450 149h-245l-75 -149h-183l398 715h180l119 -715h-177zM272 286h164l-30 264h-2z" />
    <glyph glyph-name="Adieresis" unicode="&#xc4;" horiz-adv-x="692" 
d="M279 862c7 36 36 67 80 67c54 0 78 -39 69 -85c-7 -36 -35 -67 -79 -67c-55 0 -79 39 -70 85zM494 862c7 36 36 67 80 67c54 0 78 -39 69 -85c-7 -36 -35 -67 -79 -67c-55 0 -79 39 -70 85zM450 149h-245l-75 -149h-183l398 715h180l119 -715h-177zM272 286h164l-30 264
h-2z" />
    <glyph glyph-name="Agrave" unicode="&#xc0;" horiz-adv-x="692" 
d="M489 923l16 -140h-117l-75 140h176zM450 149h-245l-75 -149h-183l398 715h180l119 -715h-177zM272 286h164l-30 264h-2z" />
    <glyph glyph-name="Amacron" unicode="&#x100;" horiz-adv-x="692" 
d="M328 903h286l-20 -100h-286zM450 149h-245l-75 -149h-183l398 715h180l119 -715h-177zM272 286h164l-30 264h-2z" />
    <glyph glyph-name="Aogonek" unicode="&#x104;" horiz-adv-x="692" 
d="M613 -83c18 0 33 4 48 8l-8 -92c-25 -6 -55 -10 -78 -10c-80 0 -117 34 -106 93c8 42 47 71 82 86l-84 -2l-17 149h-245l-75 -149h-183l398 715h180l117 -715l5 -3c-30 -22 -47 -41 -52 -67c-2 -10 3 -13 18 -13zM272 286h164l-30 264h-2z" />
    <glyph glyph-name="Aring" unicode="&#xc5;" horiz-adv-x="692" 
d="M445 772c-60 0 -104 42 -91 109c11 56 60 91 110 91c61 0 105 -43 91 -109c-12 -57 -59 -91 -110 -91zM446 827c30 0 47 20 51 44c6 34 -14 46 -34 46c-29 0 -46 -20 -50 -44c-6 -34 14 -46 33 -46zM450 149h-245l-75 -149h-183l398 715h180l119 -715h-177zM272 286h164
l-30 264h-2z" />
    <glyph glyph-name="Atilde" unicode="&#xc3;" horiz-adv-x="692" 
d="M288 801c19 97 51 131 103 131c51 0 88 -38 121 -38c32 0 48 23 51 42l82 -8c-20 -98 -52 -131 -104 -131c-51 0 -88 37 -121 37c-32 0 -47 -23 -51 -41zM450 149h-245l-75 -149h-183l398 715h180l119 -715h-177zM272 286h164l-30 264h-2z" />
    <glyph glyph-name="AE" unicode="&#xc6;" horiz-adv-x="1007" 
d="M590 147h366l-29 -147h-548l29 147h-203l-75 -149h-183l410 717h703l-28 -147h-360l-25 -127h310l-29 -147h-310zM273 284h161l56 284h-70z" />
    <glyph glyph-name="B" unicode="B" horiz-adv-x="662" 
d="M673 526c-16 -83 -71 -124 -133 -144l-11 -2c73 -13 131 -66 110 -178c-29 -147 -132 -202 -280 -202h-362l139 715h342c149 0 220 -62 195 -189zM260 426h119c50 0 98 16 111 80c10 54 -23 62 -73 62h-129zM239 316l-33 -169h124c75 0 122 22 136 94
c12 62 -18 75 -93 75h-134z" />
    <glyph glyph-name="C" unicode="C" horiz-adv-x="689" 
d="M537 445c2 86 -19 139 -109 139c-124 0 -188 -96 -215 -235c-25 -130 -7 -218 107 -218c101 0 153 61 180 133h180c-49 -168 -170 -280 -361 -280c-231 0 -325 162 -282 383c40 210 186 364 407 364c200 0 285 -120 270 -286h-177z" />
    <glyph glyph-name="Cacute" unicode="&#x106;" horiz-adv-x="689" 
d="M473 923h184l-131 -140h-123zM537 445c2 86 -19 139 -109 139c-124 0 -188 -96 -215 -235c-25 -130 -7 -218 107 -218c101 0 153 61 180 133h180c-49 -168 -170 -280 -361 -280c-231 0 -325 162 -282 383c40 210 186 364 407 364c200 0 285 -120 270 -286h-177z" />
    <glyph glyph-name="Ccaron" unicode="&#x10c;" horiz-adv-x="689" 
d="M310 923h135l31 -69h2l59 69h143l-135 -140h-156zM537 445c2 86 -19 139 -109 139c-124 0 -188 -96 -215 -235c-25 -130 -7 -218 107 -218c101 0 153 61 180 133h180c-49 -168 -170 -280 -361 -280c-231 0 -325 162 -282 383c40 210 186 364 407 364
c200 0 285 -120 270 -286h-177z" />
    <glyph glyph-name="Ccedilla" unicode="&#xc7;" horiz-adv-x="689" 
d="M714 445h-177c2 86 -19 139 -109 139c-124 0 -188 -96 -215 -235c-25 -130 -7 -218 107 -218c101 0 153 61 180 133h180c-46 -158 -156 -267 -329 -279l-44 -37l-8 -2c58 6 113 -19 102 -76c-8 -43 -68 -68 -134 -68c-52 0 -87 14 -114 31l29 31c18 -9 42 -13 61 -13
c23 0 57 12 62 38c2 14 -9 18 -25 18c-18 0 -30 -5 -40 -9l-18 26l68 61c-210 13 -294 171 -253 382c40 210 186 364 407 364c200 0 285 -120 270 -286z" />
    <glyph glyph-name="Cdotaccent" unicode="&#x10a;" horiz-adv-x="689" 
d="M404 862c7 36 36 67 80 67c54 0 78 -39 69 -85c-7 -36 -35 -67 -79 -67c-55 0 -79 39 -70 85zM537 445c2 86 -19 139 -109 139c-124 0 -188 -96 -215 -235c-25 -130 -7 -218 107 -218c101 0 153 61 180 133h180c-49 -168 -170 -280 -361 -280c-231 0 -325 162 -282 383
c40 210 186 364 407 364c200 0 285 -120 270 -286h-177z" />
    <glyph glyph-name="D" unicode="D" horiz-adv-x="697" 
d="M-3 0l139 715h312c199 0 298 -132 253 -367c-44 -225 -173 -348 -372 -348h-332zM288 568l-82 -421h114c112 0 178 84 204 219c25 125 0 202 -112 202h-124z" />
    <glyph glyph-name="Eth" unicode="&#xd0;" horiz-adv-x="707" 
d="M458 715c199 0 298 -132 253 -367c-44 -225 -173 -348 -372 -348h-332l63 325h-53l18 90h53l58 300h312zM330 147c112 0 178 84 204 219c25 125 0 202 -112 202h-124l-30 -153h145l-18 -90h-145l-34 -178h114z" />
    <glyph glyph-name="Dcaron" unicode="&#x10e;" horiz-adv-x="697" 
d="M258 923h135l31 -69h2l59 69h143l-135 -140h-156zM-3 0l139 715h312c199 0 298 -132 253 -367c-44 -225 -173 -348 -372 -348h-332zM288 568l-82 -421h114c112 0 178 84 204 219c25 125 0 202 -112 202h-124z" />
    <glyph glyph-name="Dcroat" unicode="&#x110;" horiz-adv-x="707" 
d="M458 715c199 0 298 -132 253 -367c-44 -225 -173 -348 -372 -348h-332l63 325h-53l18 90h53l58 300h312zM330 147c112 0 178 84 204 219c25 125 0 202 -112 202h-124l-30 -153h145l-18 -90h-145l-34 -178h114z" />
    <glyph glyph-name="E" unicode="E" horiz-adv-x="625" 
d="M263 441h312l-29 -147h-312l-28 -147h368l-29 -147h-548l139 715h542l-28 -147h-362z" />
    <glyph glyph-name="Eacute" unicode="&#xc9;" horiz-adv-x="625" 
d="M427 923h184l-131 -140h-123zM263 441h312l-29 -147h-312l-28 -147h368l-29 -147h-548l139 715h542l-28 -147h-362z" />
    <glyph glyph-name="Ecaron" unicode="&#x11a;" horiz-adv-x="625" 
d="M264 923h135l31 -69h2l59 69h143l-135 -140h-156zM263 441h312l-29 -147h-312l-28 -147h368l-29 -147h-548l139 715h542l-28 -147h-362z" />
    <glyph glyph-name="Ecircumflex" unicode="&#xca;" horiz-adv-x="625" 
d="M232 783l134 140h156l80 -140h-136l-31 69h-2l-59 -69h-142zM263 441h312l-29 -147h-312l-28 -147h368l-29 -147h-548l139 715h542l-28 -147h-362z" />
    <glyph glyph-name="Edieresis" unicode="&#xcb;" horiz-adv-x="625" 
d="M253 862c7 36 36 67 80 67c54 0 78 -39 69 -85c-7 -36 -35 -67 -79 -67c-55 0 -79 39 -70 85zM468 862c7 36 36 67 80 67c54 0 78 -39 69 -85c-7 -36 -35 -67 -79 -67c-55 0 -79 39 -70 85zM263 441h312l-29 -147h-312l-28 -147h368l-29 -147h-548l139 715h542l-28 -147
h-362z" />
    <glyph glyph-name="Edotaccent" unicode="&#x116;" horiz-adv-x="625" 
d="M358 862c7 36 36 67 80 67c54 0 78 -39 69 -85c-7 -36 -35 -67 -79 -67c-55 0 -79 39 -70 85zM263 441h312l-29 -147h-312l-28 -147h368l-29 -147h-548l139 715h542l-28 -147h-362z" />
    <glyph glyph-name="Egrave" unicode="&#xc8;" horiz-adv-x="625" 
d="M463 923l16 -140h-117l-75 140h176zM263 441h312l-29 -147h-312l-28 -147h368l-29 -147h-548l139 715h542l-28 -147h-362z" />
    <glyph glyph-name="Emacron" unicode="&#x112;" horiz-adv-x="625" 
d="M302 903h286l-20 -100h-286zM263 441h312l-29 -147h-312l-28 -147h368l-29 -147h-548l139 715h542l-28 -147h-362z" />
    <glyph glyph-name="Eogonek" unicode="&#x118;" horiz-adv-x="625" 
d="M528 -83c18 0 33 4 48 8l-8 -92c-25 -6 -55 -10 -78 -10c-80 0 -117 34 -106 93c8 42 47 71 82 86l-469 -2l139 715h542l-28 -147h-362l-25 -127h312l-29 -147h-312l-28 -147h368l-29 -147h-2c-30 -22 -47 -44 -47 -62s17 -21 32 -21z" />
    <glyph glyph-name="F" unicode="F" horiz-adv-x="600" 
d="M257 411h287l-28 -147h-287l-52 -264h-180l139 715h532l-28 -147h-352z" />
    <glyph glyph-name="G" unicode="G" horiz-adv-x="727" 
d="M548 482c-3 49 -22 102 -116 102c-123 0 -192 -96 -219 -235c-25 -130 -2 -218 118 -218c88 0 161 54 177 123l-137 -4l25 130h322l-74 -380h-128v91l-2 -4c-46 -65 -118 -103 -218 -103c-208 0 -302 162 -259 383c40 210 186 364 406 364c201 0 291 -120 282 -257z" />
    <glyph glyph-name="Gbreve" unicode="&#x11e;" horiz-adv-x="727" 
d="M465 777c-96 0 -155 61 -140 150l89 -8c-2 -29 12 -44 50 -44c48 0 79 23 88 52l91 -8c-21 -86 -90 -142 -178 -142zM548 482c-3 49 -22 102 -116 102c-123 0 -192 -96 -219 -235c-25 -130 -2 -218 118 -218c88 0 161 54 177 123l-137 -4l25 130h322l-74 -380h-128v91
l-2 -4c-46 -65 -118 -103 -218 -103c-208 0 -302 162 -259 383c40 210 186 364 406 364c201 0 291 -120 282 -257z" />
    <glyph glyph-name="Gcommaaccent" unicode="&#x122;" horiz-adv-x="727" 
d="M548 482c-3 49 -22 102 -116 102c-123 0 -192 -96 -219 -235c-25 -130 -2 -218 118 -218c88 0 161 54 177 123l-137 -4l25 130h322l-74 -380h-128v91l-2 -4c-46 -65 -118 -103 -218 -103c-208 0 -302 162 -259 383c40 210 186 364 406 364c201 0 291 -120 282 -257z
M285 -166c-46 -14 -74 21 -66 62c6 31 36 57 70 57c53 0 72 -44 62 -98c-12 -61 -56 -109 -149 -118l-2 47c40 5 75 24 85 50z" />
    <glyph glyph-name="Gdotaccent" unicode="&#x120;" horiz-adv-x="727" 
d="M397 862c7 36 36 67 80 67c54 0 78 -39 69 -85c-7 -36 -35 -67 -79 -67c-55 0 -79 39 -70 85zM548 482c-3 49 -22 102 -116 102c-123 0 -192 -96 -219 -235c-25 -130 -2 -218 118 -218c88 0 161 54 177 123l-137 -4l25 130h322l-74 -380h-128v91l-2 -4
c-46 -65 -118 -103 -218 -103c-208 0 -302 162 -259 383c40 210 186 364 406 364c201 0 291 -120 282 -257z" />
    <glyph glyph-name="H" unicode="H" horiz-adv-x="700" 
d="M136 715h180l-54 -280h245l54 280h180l-139 -715h-180l56 288h-245l-56 -288h-180z" />
    <glyph glyph-name="Hbar" unicode="&#x126;" horiz-adv-x="703" 
d="M778 616l-18 -90h-56l-102 -526h-180l56 288h-245l-56 -288h-180l102 526h-53l18 90h53l19 99h180l-19 -99h245l19 99h180l-19 -99h56zM507 435l17 91h-245l-17 -91h245z" />
    <glyph glyph-name="I" unicode="I" horiz-adv-x="277" 
d="M137 715h180l-139 -715h-180z" />
    <glyph glyph-name="Iacute" unicode="&#xcd;" horiz-adv-x="277" 
d="M244 923h184l-131 -140h-123zM137 715h180l-139 -715h-180z" />
    <glyph glyph-name="Icircumflex" unicode="&#xce;" horiz-adv-x="279" 
d="M45 783l134 140h156l80 -140h-136l-31 69h-2l-59 -69h-142zM133 715h180l-139 -715h-180z" />
    <glyph glyph-name="Idieresis" unicode="&#xcf;" horiz-adv-x="277" 
d="M70 862c7 36 36 67 80 67c54 0 78 -39 69 -85c-7 -36 -35 -67 -79 -67c-55 0 -79 39 -70 85zM285 862c7 36 36 67 80 67c54 0 78 -39 69 -85c-7 -36 -35 -67 -79 -67c-55 0 -79 39 -70 85zM137 715h180l-139 -715h-180z" />
    <glyph glyph-name="Idotaccent" unicode="&#x130;" horiz-adv-x="277" 
d="M175 862c7 36 36 67 80 67c54 0 78 -39 69 -85c-7 -36 -35 -67 -79 -67c-55 0 -79 39 -70 85zM137 715h180l-139 -715h-180z" />
    <glyph glyph-name="Igrave" unicode="&#xcc;" horiz-adv-x="277" 
d="M280 923l16 -140h-117l-75 140h176zM137 715h180l-139 -715h-180z" />
    <glyph glyph-name="Imacron" unicode="&#x12a;" horiz-adv-x="276" 
d="M115 903h286l-20 -100h-286zM133 715h180l-139 -715h-180z" />
    <glyph glyph-name="Iogonek" unicode="&#x12e;" horiz-adv-x="320" 
d="M155 -83c18 0 33 4 48 8l-8 -92c-25 -6 -55 -10 -78 -10c-80 0 -117 34 -106 93c8 42 47 71 82 86l-104 -2l139 715h180l-139 -715h-2c-30 -27 -37 -43 -37 -60c0 -16 10 -23 25 -23z" />
    <glyph glyph-name="J" unicode="J" horiz-adv-x="541" 
d="M495 234c-27 -138 -93 -250 -284 -250c-201 0 -231 120 -205 258l11 56h160l-12 -64c-14 -68 -9 -103 45 -103c64 0 93 43 106 111l92 473h180z" />
    <glyph glyph-name="K" unicode="K" horiz-adv-x="689" 
d="M136 715h180l-58 -290l305 290h214l-335 -315l202 -400h-206l-132 271l-90 -82l-39 -189h-180z" />
    <glyph glyph-name="Kcommaaccent" unicode="&#x136;" horiz-adv-x="689" 
d="M136 715h180l-58 -290l305 290h214l-335 -315l202 -400h-206l-132 271l-90 -82l-39 -189h-180zM278 -166c-46 -14 -74 21 -66 62c6 31 36 57 70 57c53 0 72 -44 62 -98c-12 -61 -56 -109 -149 -118l-2 47c40 5 75 24 85 50z" />
    <glyph glyph-name="L" unicode="L" horiz-adv-x="560" 
d="M136 715h180l-110 -568h318l-29 -147h-498z" />
    <glyph glyph-name="Lacute" unicode="&#x139;" horiz-adv-x="560" 
d="M246 923h184l-131 -140h-123zM136 715h180l-110 -568h318l-29 -147h-498z" />
    <glyph glyph-name="Lcaron" unicode="&#x13d;" horiz-adv-x="558" 
d="M494 601c-46 -14 -74 21 -66 62c6 31 36 57 70 57c53 0 73 -44 62 -98c-12 -61 -56 -109 -149 -118l-2 47c40 5 75 24 85 50zM134 715h180l-110 -568h318l-29 -147h-498z" />
    <glyph glyph-name="Lcommaaccent" unicode="&#x13b;" horiz-adv-x="560" 
d="M136 715h180l-110 -568h318l-29 -147h-498zM222 -166c-46 -14 -74 21 -66 62c6 31 36 57 70 57c53 0 72 -44 62 -98c-12 -61 -56 -109 -149 -118l-2 47c40 5 75 24 85 50z" />
    <glyph glyph-name="Lslash" unicode="&#x141;" horiz-adv-x="569" 
d="M212 147h318l-29 -147h-498l43 214l-66 -43l20 117l66 43l76 384h180l-50 -251l208 134l-20 -117l-208 -134z" />
    <glyph glyph-name="M" unicode="M" horiz-adv-x="834" 
d="M-3 0l139 715h219l58 -456h2l236 456h221l-139 -715h-170l87 445h-1l-219 -445h-126l-47 445h-3l-87 -445h-170z" />
    <glyph glyph-name="N" unicode="N" horiz-adv-x="707" 
d="M-3 0l139 715h178l168 -425h4l82 425h180l-139 -715h-178l-167 425h-4l-83 -425h-180z" />
    <glyph glyph-name="Nacute" unicode="&#x143;" horiz-adv-x="707" 
d="M459 923h184l-131 -140h-123zM-3 0l139 715h178l168 -425h4l82 425h180l-139 -715h-178l-167 425h-4l-83 -425h-180z" />
    <glyph glyph-name="Ncaron" unicode="&#x147;" horiz-adv-x="707" 
d="M296 923h135l31 -69h2l59 69h143l-135 -140h-156zM-3 0l139 715h178l168 -425h4l82 425h180l-139 -715h-178l-167 425h-4l-83 -425h-180z" />
    <glyph glyph-name="Ncommaaccent" unicode="&#x145;" horiz-adv-x="707" 
d="M-3 0l139 715h178l168 -425h4l82 425h180l-139 -715h-178l-167 425h-4l-83 -425h-180zM279 -166c-46 -14 -74 21 -66 62c6 31 36 57 70 57c53 0 72 -44 62 -98c-12 -61 -56 -109 -149 -118l-2 47c40 5 75 24 85 50z" />
    <glyph glyph-name="Eng" unicode="&#x14a;" horiz-adv-x="707" 
d="M-3 0l139 715h178l168 -425h4l82 425h180l-131 -673c-26 -134 -92 -219 -231 -219c-39 0 -71 4 -101 11l13 116c80 0 106 18 132 54l-166 421h-4l-83 -425h-180z" />
    <glyph glyph-name="Ntilde" unicode="&#xd1;" horiz-adv-x="707" 
d="M294 801c19 97 51 131 103 131c51 0 88 -38 121 -38c32 0 48 23 51 42l82 -8c-20 -98 -52 -131 -104 -131c-51 0 -88 37 -121 37c-32 0 -47 -23 -51 -41zM-3 0l139 715h178l168 -425h4l82 425h180l-139 -715h-178l-167 425h-4l-83 -425h-180z" />
    <glyph glyph-name="O" unicode="O" horiz-adv-x="737" 
d="M326 -16c-232 0 -332 162 -289 383c40 210 192 364 414 364c230 0 333 -162 290 -382c-41 -211 -195 -365 -415 -365zM335 131c135 0 204 106 230 236c23 119 3 217 -122 217c-136 0 -205 -106 -230 -235c-23 -120 -4 -218 122 -218z" />
    <glyph glyph-name="Oacute" unicode="&#xd3;" horiz-adv-x="737" 
d="M475 923h184l-131 -140h-123zM326 -16c-232 0 -332 162 -289 383c40 210 192 364 414 364c230 0 333 -162 290 -382c-41 -211 -195 -365 -415 -365zM335 131c135 0 204 106 230 236c23 119 3 217 -122 217c-136 0 -205 -106 -230 -235c-23 -120 -4 -218 122 -218z" />
    <glyph glyph-name="Ocircumflex" unicode="&#xd4;" horiz-adv-x="737" 
d="M280 783l134 140h156l80 -140h-136l-31 69h-2l-59 -69h-142zM326 -16c-232 0 -332 162 -289 383c40 210 192 364 414 364c230 0 333 -162 290 -382c-41 -211 -195 -365 -415 -365zM335 131c135 0 204 106 230 236c23 119 3 217 -122 217c-136 0 -205 -106 -230 -235
c-23 -120 -4 -218 122 -218z" />
    <glyph glyph-name="Odieresis" unicode="&#xd6;" horiz-adv-x="737" 
d="M301 862c7 36 36 67 80 67c54 0 78 -39 69 -85c-7 -36 -35 -67 -79 -67c-55 0 -79 39 -70 85zM516 862c7 36 36 67 80 67c54 0 78 -39 69 -85c-7 -36 -35 -67 -79 -67c-55 0 -79 39 -70 85zM326 -16c-232 0 -332 162 -289 383c40 210 192 364 414 364
c230 0 333 -162 290 -382c-41 -211 -195 -365 -415 -365zM335 131c135 0 204 106 230 236c23 119 3 217 -122 217c-136 0 -205 -106 -230 -235c-23 -120 -4 -218 122 -218z" />
    <glyph glyph-name="Ograve" unicode="&#xd2;" horiz-adv-x="737" 
d="M511 923l16 -140h-117l-75 140h176zM326 -16c-232 0 -332 162 -289 383c40 210 192 364 414 364c230 0 333 -162 290 -382c-41 -211 -195 -365 -415 -365zM335 131c135 0 204 106 230 236c23 119 3 217 -122 217c-136 0 -205 -106 -230 -235c-23 -120 -4 -218 122 -218z
" />
    <glyph glyph-name="Ohungarumlaut" unicode="&#x150;" horiz-adv-x="737" 
d="M360 923h184l-131 -140h-123zM580 923h184l-131 -140h-123zM326 -16c-232 0 -332 162 -289 383c40 210 192 364 414 364c230 0 333 -162 290 -382c-41 -211 -195 -365 -415 -365zM335 131c135 0 204 106 230 236c23 119 3 217 -122 217c-136 0 -205 -106 -230 -235
c-23 -120 -4 -218 122 -218z" />
    <glyph glyph-name="Omacron" unicode="&#x14c;" horiz-adv-x="737" 
d="M350 903h286l-20 -100h-286zM326 -16c-232 0 -332 162 -289 383c40 210 192 364 414 364c230 0 333 -162 290 -382c-41 -211 -195 -365 -415 -365zM335 131c135 0 204 106 230 236c23 119 3 217 -122 217c-136 0 -205 -106 -230 -235c-23 -120 -4 -218 122 -218z" />
    <glyph glyph-name="Oslash" unicode="&#xd8;" horiz-adv-x="741" 
d="M808 673l-95 -81c33 -63 44 -145 25 -243c-41 -211 -195 -365 -415 -365c-106 0 -182 34 -228 88l-84 -71l-37 43l86 74c-35 64 -46 148 -26 249c40 210 192 364 414 364c108 0 185 -36 232 -92l90 76zM210 349c-8 -39 -12 -79 -7 -114l349 295c-21 36 -57 54 -112 54
c-136 0 -205 -106 -230 -235zM562 367c7 36 10 74 8 107l-348 -293c21 -33 57 -50 110 -50c135 0 204 106 230 236z" />
    <glyph glyph-name="Otilde" unicode="&#xd5;" horiz-adv-x="737" 
d="M310 801c19 97 51 131 103 131c51 0 88 -38 121 -38c32 0 48 23 51 42l82 -8c-20 -98 -52 -131 -104 -131c-51 0 -88 37 -121 37c-32 0 -47 -23 -51 -41zM326 -16c-232 0 -332 162 -289 383c40 210 192 364 414 364c230 0 333 -162 290 -382
c-41 -211 -195 -365 -415 -365zM335 131c135 0 204 106 230 236c23 119 3 217 -122 217c-136 0 -205 -106 -230 -235c-23 -120 -4 -218 122 -218z" />
    <glyph glyph-name="OE" unicode="&#x152;" horiz-adv-x="1089" 
d="M670 147h368l-29 -147h-548l12 42c-49 -37 -109 -58 -177 -58c-202 0 -302 162 -259 383c40 210 192 364 384 364c78 0 131 -27 166 -64l13 48h542l-28 -147h-362l-25 -127h312l-29 -147h-312zM335 131c69 0 128 39 167 93l59 276c-19 53 -59 84 -118 84
c-136 0 -205 -106 -230 -235c-23 -120 -4 -218 122 -218z" />
    <glyph glyph-name="P" unicode="P" horiz-adv-x="650" 
d="M-3 0l139 715h342c149 0 231 -82 201 -237c-28 -145 -130 -219 -279 -219h-172l-51 -259h-180zM288 568l-32 -162h124c62 0 110 25 123 90c10 55 -19 72 -81 72h-134z" />
    <glyph glyph-name="Thorn" unicode="&#xde;" horiz-adv-x="649" 
d="M-3 0l139 715h180l-19 -100h162c149 0 231 -82 201 -237c-29 -145 -131 -219 -280 -219h-172l-31 -159h-180zM268 468l-31 -162h124c62 0 110 25 122 90c11 55 -19 72 -81 72h-134z" />
    <glyph glyph-name="Q" unicode="Q" horiz-adv-x="719" 
d="M680 39l-112 -97l-67 81c-55 -26 -116 -39 -180 -39c-232 0 -332 162 -289 383c40 210 192 364 414 364c230 0 333 -162 290 -382c-18 -90 -56 -174 -117 -238zM330 131c29 0 51 4 72 11l-67 86l112 97l70 -80c19 34 33 74 43 122c23 119 3 217 -122 217
c-136 0 -205 -106 -230 -235c-23 -120 -4 -218 122 -218z" />
    <glyph glyph-name="R" unicode="R" horiz-adv-x="648" 
d="M-3 0l139 715h332c159 0 245 -77 218 -217c-18 -90 -80 -147 -171 -167l-12 -2c173 -31 54 -308 93 -320l3 -9l-182 3c-30 30 79 246 -74 246h-117l-49 -249h-180zM288 568l-34 -172h117c72 0 121 30 134 95c10 55 -18 77 -90 77h-127z" />
    <glyph glyph-name="Racute" unicode="&#x154;" horiz-adv-x="648" 
d="M424 923h184l-131 -140h-123zM-3 0l139 715h332c159 0 245 -77 218 -217c-18 -90 -80 -147 -171 -167l-12 -2c173 -31 54 -308 93 -320l3 -9l-182 3c-30 30 79 246 -74 246h-117l-49 -249h-180zM288 568l-34 -172h117c72 0 121 30 134 95c10 55 -18 77 -90 77h-127z" />
    <glyph glyph-name="Rcaron" unicode="&#x158;" horiz-adv-x="648" 
d="M261 923h135l31 -69h2l59 69h143l-135 -140h-156zM-3 0l139 715h332c159 0 245 -77 218 -217c-18 -90 -80 -147 -171 -167l-12 -2c173 -31 54 -308 93 -320l3 -9l-182 3c-30 30 79 246 -74 246h-117l-49 -249h-180zM288 568l-34 -172h117c72 0 121 30 134 95
c10 55 -18 77 -90 77h-127z" />
    <glyph glyph-name="Rcommaaccent" unicode="&#x156;" horiz-adv-x="648" 
d="M-3 0l139 715h332c159 0 245 -77 218 -217c-18 -90 -80 -147 -171 -167l-12 -2c173 -31 54 -308 93 -320l3 -9l-182 3c-30 30 79 246 -74 246h-117l-49 -249h-180zM288 568l-34 -172h117c72 0 121 30 134 95c10 55 -18 77 -90 77h-127zM274 -166c-46 -14 -74 21 -66 62
c6 31 36 57 70 57c53 0 72 -44 62 -98c-12 -61 -56 -109 -149 -118l-2 47c40 5 75 24 85 50z" />
    <glyph glyph-name="S" unicode="S" horiz-adv-x="629" 
d="M364 441c143 -55 248 -92 237 -250c-9 -134 -121 -207 -295 -207c-191 0 -306 96 -306 247h178c0 -76 68 -100 138 -100c62 0 101 19 106 66c6 60 -61 66 -151 99c-121 44 -214 100 -195 237c20 141 146 198 295 198c172 0 277 -92 277 -229h-177c2 54 -44 82 -108 82
c-59 0 -104 -17 -109 -56c-5 -40 31 -57 110 -87z" />
    <glyph glyph-name="Sacute" unicode="&#x15a;" horiz-adv-x="629" 
d="M414 923h184l-131 -140h-123zM364 441c143 -55 248 -92 237 -250c-9 -134 -121 -207 -295 -207c-191 0 -306 96 -306 247h178c0 -76 68 -100 138 -100c62 0 101 19 106 66c6 60 -61 66 -151 99c-121 44 -214 100 -195 237c20 141 146 198 295 198c172 0 277 -92 277 -229
h-177c2 54 -44 82 -108 82c-59 0 -104 -17 -109 -56c-5 -40 31 -57 110 -87z" />
    <glyph glyph-name="Scaron" unicode="&#x160;" horiz-adv-x="629" 
d="M251 923h135l31 -69h2l59 69h143l-135 -140h-156zM364 441c143 -55 248 -92 237 -250c-9 -134 -121 -207 -295 -207c-191 0 -306 96 -306 247h178c0 -76 68 -100 138 -100c62 0 101 19 106 66c6 60 -61 66 -151 99c-121 44 -214 100 -195 237c20 141 146 198 295 198
c172 0 277 -92 277 -229h-177c2 54 -44 82 -108 82c-59 0 -104 -17 -109 -56c-5 -40 31 -57 110 -87z" />
    <glyph glyph-name="Scedilla" unicode="&#x15e;" horiz-adv-x="629" 
d="M364 441c143 -55 248 -92 237 -250c-9 -133 -119 -206 -290 -207l-43 -36l-8 -2c58 6 113 -19 102 -76c-8 -43 -68 -68 -134 -68c-52 0 -87 14 -114 31l29 31c18 -9 42 -13 61 -13c23 0 57 12 62 38c2 14 -9 18 -25 18c-18 0 -30 -5 -40 -9l-18 26l69 63
c-159 17 -252 108 -252 244h178c0 -76 68 -100 138 -100c62 0 101 19 106 66c6 60 -61 66 -151 99c-121 44 -214 100 -195 237c20 141 146 198 295 198c172 0 277 -92 277 -229h-177c2 54 -44 82 -108 82c-59 0 -104 -17 -109 -56c-5 -40 31 -57 110 -87z" />
    <glyph glyph-name="Scommaaccent" unicode="&#x218;" horiz-adv-x="629" 
d="M364 441c143 -55 248 -92 237 -250c-9 -134 -121 -207 -295 -207c-191 0 -306 96 -306 247h178c0 -76 68 -100 138 -100c62 0 101 19 106 66c6 60 -61 66 -151 99c-121 44 -214 100 -195 237c20 141 146 198 295 198c172 0 277 -92 277 -229h-177c2 54 -44 82 -108 82
c-59 0 -104 -17 -109 -56c-5 -40 31 -57 110 -87zM254 -166c-46 -14 -74 21 -66 62c6 31 36 57 70 57c53 0 72 -44 62 -98c-12 -61 -56 -109 -149 -118l-2 47c40 5 75 24 85 50z" />
    <glyph glyph-name="T" unicode="T" horiz-adv-x="624" 
d="M172 0l111 568h-208l28 147h595l-28 -147h-207l-111 -568h-180z" />
    <glyph glyph-name="Tbar" unicode="&#x166;" horiz-adv-x="621" 
d="M670 568h-207l-30 -153h134l-18 -90h-134l-63 -325h-180l63 325h-134l18 90h134l30 153h-208l28 147h595z" />
    <glyph glyph-name="Tcaron" unicode="&#x164;" horiz-adv-x="624" 
d="M255 923h135l31 -69h2l59 69h143l-135 -140h-156zM172 0l111 568h-208l28 147h595l-28 -147h-207l-111 -568h-180z" />
    <glyph glyph-name="uni0162" unicode="&#x162;" horiz-adv-x="629" 
d="M302 0l-45 -42l-8 -2c58 6 113 -19 102 -76c-9 -43 -68 -68 -134 -68c-52 0 -87 14 -114 31l29 31c18 -9 42 -13 61 -13c23 0 57 12 62 38c2 14 -9 18 -25 18c-18 0 -30 -5 -40 -9l-19 26l68 66h-64l111 568h-208l28 147h595l-28 -147h-207l-111 -568h-53z" />
    <glyph glyph-name="uni021A" unicode="&#x21a;" horiz-adv-x="624" 
d="M172 0l111 568h-208l28 147h595l-28 -147h-207l-111 -568h-180zM240 -156c-46 -14 -74 21 -66 62c6 31 36 57 70 57c53 0 72 -44 62 -98c-12 -61 -56 -109 -150 -118l-1 47c40 5 75 24 85 50z" />
    <glyph glyph-name="U" unicode="U" horiz-adv-x="684" 
d="M640 254c-35 -178 -131 -270 -342 -270c-221 0 -289 100 -255 278l88 453h180l-89 -461c-19 -93 11 -123 85 -123c84 0 136 38 154 131l88 453h180z" />
    <glyph glyph-name="Uacute" unicode="&#xda;" horiz-adv-x="684" 
d="M447 923h184l-131 -140h-123zM640 254c-35 -178 -131 -270 -342 -270c-221 0 -289 100 -255 278l88 453h180l-89 -461c-19 -93 11 -123 85 -123c84 0 136 38 154 131l88 453h180z" />
    <glyph glyph-name="Ucircumflex" unicode="&#xdb;" horiz-adv-x="684" 
d="M252 783l134 140h156l80 -140h-136l-31 69h-2l-59 -69h-142zM640 254c-35 -178 -131 -270 -342 -270c-221 0 -289 100 -255 278l88 453h180l-89 -461c-19 -93 11 -123 85 -123c84 0 136 38 154 131l88 453h180z" />
    <glyph glyph-name="Udieresis" unicode="&#xdc;" horiz-adv-x="684" 
d="M273 862c7 36 36 67 80 67c54 0 78 -39 69 -85c-7 -36 -35 -67 -79 -67c-55 0 -79 39 -70 85zM488 862c7 36 36 67 80 67c54 0 78 -39 69 -85c-7 -36 -35 -67 -79 -67c-55 0 -79 39 -70 85zM640 254c-35 -178 -131 -270 -342 -270c-221 0 -289 100 -255 278l88 453h180
l-89 -461c-19 -93 11 -123 85 -123c84 0 136 38 154 131l88 453h180z" />
    <glyph glyph-name="Ugrave" unicode="&#xd9;" horiz-adv-x="684" 
d="M483 923l16 -140h-117l-75 140h176zM640 254c-35 -178 -131 -270 -342 -270c-221 0 -289 100 -255 278l88 453h180l-89 -461c-19 -93 11 -123 85 -123c84 0 136 38 154 131l88 453h180z" />
    <glyph glyph-name="Uhungarumlaut" unicode="&#x170;" horiz-adv-x="684" 
d="M332 923h184l-131 -140h-123zM552 923h184l-131 -140h-123zM640 254c-35 -178 -131 -270 -342 -270c-221 0 -289 100 -255 278l88 453h180l-89 -461c-19 -93 11 -123 85 -123c84 0 136 38 154 131l88 453h180z" />
    <glyph glyph-name="Umacron" unicode="&#x16a;" horiz-adv-x="684" 
d="M322 903h286l-20 -100h-286zM640 254c-35 -178 -131 -270 -342 -270c-221 0 -289 100 -255 278l88 453h180l-89 -461c-19 -93 11 -123 85 -123c84 0 136 38 154 131l88 453h180z" />
    <glyph glyph-name="Uogonek" unicode="&#x172;" horiz-adv-x="684" 
d="M549 715h180l-89 -461c-27 -136 -87 -221 -201 -254c-37 -9 -47 -41 -49 -54c-4 -19 5 -29 20 -29c18 0 33 4 48 8l-8 -92c-25 -6 -55 -10 -78 -10c-80 0 -117 34 -106 93c6 30 27 54 58 71c-7 -3 -19 -3 -26 -3c-221 0 -289 100 -255 278l88 453h180l-89 -461
c-19 -93 11 -123 85 -123c84 0 136 38 154 131z" />
    <glyph glyph-name="Uring" unicode="&#x16e;" horiz-adv-x="684" 
d="M445 772c-60 0 -104 42 -91 109c11 56 60 91 110 91c61 0 105 -43 91 -109c-12 -57 -59 -91 -110 -91zM446 827c30 0 47 20 51 44c6 34 -14 46 -34 46c-29 0 -46 -20 -50 -44c-6 -34 14 -46 33 -46zM640 254c-35 -178 -131 -270 -342 -270c-221 0 -289 100 -255 278
l88 453h180l-89 -461c-19 -93 11 -123 85 -123c84 0 136 38 154 131l88 453h180z" />
    <glyph glyph-name="V" unicode="V" horiz-adv-x="650" 
d="M87 715h188l38 -501h2l233 501h193l-371 -715h-190z" />
    <glyph glyph-name="W" unicode="W" horiz-adv-x="943" 
d="M88 715h178l-2 -485h2l205 485h170l17 -485h2l186 485h182l-321 -715h-180l-20 446h-2l-194 -446h-180z" />
    <glyph glyph-name="Wacute" unicode="&#x1e82;" horiz-adv-x="943" 
d="M574 923h184l-131 -140h-123zM88 715h178l-2 -485h2l205 485h170l17 -485h2l186 485h182l-321 -715h-180l-20 446h-2l-194 -446h-180z" />
    <glyph glyph-name="Wcircumflex" unicode="&#x174;" horiz-adv-x="943" 
d="M379 783l134 140h156l80 -140h-136l-31 69h-2l-59 -69h-142zM88 715h178l-2 -485h2l205 485h170l17 -485h2l186 485h182l-321 -715h-180l-20 446h-2l-194 -446h-180z" />
    <glyph glyph-name="Wdieresis" unicode="&#x1e84;" horiz-adv-x="943" 
d="M400 862c7 36 36 67 80 67c54 0 78 -39 69 -85c-7 -36 -35 -67 -79 -67c-55 0 -79 39 -70 85zM615 862c7 36 36 67 80 67c54 0 78 -39 69 -85c-7 -36 -35 -67 -79 -67c-55 0 -79 39 -70 85zM88 715h178l-2 -485h2l205 485h170l17 -485h2l186 485h182l-321 -715h-180
l-20 446h-2l-194 -446h-180z" />
    <glyph glyph-name="Wgrave" unicode="&#x1e80;" horiz-adv-x="943" 
d="M610 923l16 -140h-117l-75 140h176zM88 715h178l-2 -485h2l205 485h170l17 -485h2l186 485h182l-321 -715h-180l-20 446h-2l-194 -446h-180z" />
    <glyph glyph-name="X" unicode="X" horiz-adv-x="683" 
d="M257 365l-147 350h186l89 -218l176 218h194l-286 -348l163 -367h-196l-97 232l-188 -232h-204z" />
    <glyph glyph-name="Y" unicode="Y" horiz-adv-x="657" 
d="M88 715h186l82 -294h1l198 294h194l-329 -451l-53 -264h-180l53 264z" />
    <glyph glyph-name="Yacute" unicode="&#xdd;" horiz-adv-x="657" 
d="M434 923h184l-131 -140h-123zM88 715h186l82 -294h1l198 294h194l-329 -451l-53 -264h-180l53 264z" />
    <glyph glyph-name="Ycircumflex" unicode="&#x176;" horiz-adv-x="657" 
d="M239 783l134 140h156l80 -140h-136l-31 69h-2l-59 -69h-142zM88 715h186l82 -294h1l198 294h194l-329 -451l-53 -264h-180l53 264z" />
    <glyph glyph-name="Ydieresis" unicode="&#x178;" horiz-adv-x="657" 
d="M260 862c7 36 36 67 80 67c54 0 78 -39 69 -85c-7 -36 -35 -67 -79 -67c-55 0 -79 39 -70 85zM475 862c7 36 36 67 80 67c54 0 78 -39 69 -85c-7 -36 -35 -67 -79 -67c-55 0 -79 39 -70 85zM88 715h186l82 -294h1l198 294h194l-329 -451l-53 -264h-180l53 264z" />
    <glyph glyph-name="Ygrave" unicode="&#x1ef2;" horiz-adv-x="657" 
d="M470 923l16 -140h-117l-75 140h176zM88 715h186l82 -294h1l198 294h194l-329 -451l-53 -264h-180l53 264z" />
    <glyph glyph-name="Z" unicode="Z" horiz-adv-x="605" 
d="M132 715h527l-27 -147l-408 -419l-2 -2h337l-29 -147h-557l27 147l408 419l3 2h-307z" />
    <glyph glyph-name="Zacute" unicode="&#x179;" horiz-adv-x="605" 
d="M418 923h184l-131 -140h-123zM132 715h527l-27 -147l-408 -419l-2 -2h337l-29 -147h-557l27 147l408 419l3 2h-307z" />
    <glyph glyph-name="Zcaron" unicode="&#x17d;" horiz-adv-x="605" 
d="M255 923h135l31 -69h2l59 69h143l-135 -140h-156zM132 715h527l-27 -147l-408 -419l-2 -2h337l-29 -147h-557l27 147l408 419l3 2h-307z" />
    <glyph glyph-name="Zdotaccent" unicode="&#x17b;" horiz-adv-x="605" 
d="M349 862c7 36 36 67 80 67c54 0 78 -39 69 -85c-7 -36 -35 -67 -79 -67c-55 0 -79 39 -70 85zM132 715h527l-27 -147l-408 -419l-2 -2h337l-29 -147h-557l27 147l408 419l3 2h-307z" />
    <glyph glyph-name="a" unicode="a" horiz-adv-x="548" 
d="M509 307l-46 -235c-5 -27 -1 -34 18 -34l-8 -40c-24 -12 -53 -14 -80 -14c-71 0 -91 32 -90 65c-40 -37 -103 -65 -165 -65c-113 0 -165 65 -146 164c17 89 95 130 216 158c73 17 146 30 155 73c5 25 -12 39 -51 39c-63 0 -97 -26 -112 -75h-149c24 106 102 185 264 185
c149 0 225 -60 194 -221zM327 191l15 61c-22 -13 -48 -19 -82 -26c-70 -15 -102 -37 -108 -73c-6 -37 18 -59 52 -59c74 0 110 49 123 97z" />
    <glyph glyph-name="aacute" unicode="&#xe1;" horiz-adv-x="548" 
d="M525 720l-130 -140h-123l70 140h183zM315 528c149 0 225 -60 194 -221l-46 -235c-5 -27 -1 -34 18 -34l-8 -40c-24 -12 -53 -14 -80 -14c-71 0 -91 32 -90 65c-40 -37 -103 -65 -165 -65c-113 0 -165 65 -146 164c17 89 95 130 216 158c73 17 146 30 155 73
c5 25 -12 39 -51 39c-63 0 -97 -26 -112 -75h-149c24 106 102 185 264 185zM327 191l15 61c-22 -13 -48 -19 -82 -26c-70 -15 -102 -37 -108 -73c-6 -37 18 -59 52 -59c74 0 110 49 123 97z" />
    <glyph glyph-name="abreve" unicode="&#x103;" horiz-adv-x="548" 
d="M341 574c-96 0 -155 61 -141 150l90 -8c-3 -29 12 -44 50 -44c48 0 79 23 88 52l91 -8c-21 -86 -90 -142 -178 -142zM315 528c149 0 225 -60 194 -221l-46 -235c-5 -27 -1 -34 18 -34l-8 -40c-24 -12 -53 -14 -80 -14c-71 0 -91 32 -90 65c-40 -37 -103 -65 -165 -65
c-113 0 -165 65 -146 164c17 89 95 130 216 158c73 17 146 30 155 73c5 25 -12 39 -51 39c-63 0 -97 -26 -112 -75h-149c24 106 102 185 264 185zM327 191l15 61c-22 -13 -48 -19 -82 -26c-70 -15 -102 -37 -108 -73c-6 -37 18 -59 52 -59c74 0 110 49 123 97z" />
    <glyph glyph-name="acircumflex" unicode="&#xe2;" horiz-adv-x="548" 
d="M350 648l-61 -68h-143l134 140h156l80 -140h-135zM315 528c149 0 225 -60 194 -221l-46 -235c-5 -27 -1 -34 18 -34l-8 -40c-24 -12 -53 -14 -80 -14c-71 0 -91 32 -90 65c-40 -37 -103 -65 -165 -65c-113 0 -165 65 -146 164c17 89 95 130 216 158c73 17 146 30 155 73
c5 25 -12 39 -51 39c-63 0 -97 -26 -112 -75h-149c24 106 102 185 264 185zM327 191l15 61c-22 -13 -48 -19 -82 -26c-70 -15 -102 -37 -108 -73c-6 -37 18 -59 52 -59c74 0 110 49 123 97z" />
    <glyph glyph-name="adieresis" unicode="&#xe4;" horiz-adv-x="548" 
d="M238 574c-55 0 -80 39 -71 85c7 36 36 67 80 67c54 0 79 -39 70 -85c-7 -36 -35 -67 -79 -67zM462 726c54 0 79 -39 70 -85c-7 -36 -35 -67 -79 -67c-55 0 -80 39 -71 85c7 36 36 67 80 67zM315 528c149 0 225 -60 194 -221l-46 -235c-5 -27 -1 -34 18 -34l-8 -40
c-24 -12 -53 -14 -80 -14c-71 0 -91 32 -90 65c-40 -37 -103 -65 -165 -65c-113 0 -165 65 -146 164c17 89 95 130 216 158c73 17 146 30 155 73c5 25 -12 39 -51 39c-63 0 -97 -26 -112 -75h-149c24 106 102 185 264 185zM327 191l15 61c-22 -13 -48 -19 -82 -26
c-70 -15 -102 -37 -108 -73c-6 -37 18 -59 52 -59c74 0 110 49 123 97z" />
    <glyph glyph-name="agrave" unicode="&#xe0;" horiz-adv-x="548" 
d="M394 580h-117l-76 140h177zM509 307l-46 -235c-5 -27 -1 -34 18 -34l-8 -40c-24 -12 -53 -14 -80 -14c-71 0 -91 32 -90 65c-40 -37 -103 -65 -165 -65c-113 0 -165 65 -146 164c17 89 95 130 216 158c73 17 146 30 155 73c5 25 -12 39 -51 39c-63 0 -97 -26 -112 -75
h-149c24 106 102 185 264 185c149 0 225 -60 194 -221zM327 191l15 61c-22 -13 -48 -19 -82 -26c-70 -15 -102 -37 -108 -73c-6 -37 18 -59 52 -59c74 0 110 49 123 97z" />
    <glyph glyph-name="amacron" unicode="&#x101;" horiz-adv-x="548" 
d="M502 700l-19 -100h-286l19 100h286zM509 307l-46 -235c-5 -27 -1 -34 18 -34l-8 -40c-24 -12 -53 -14 -80 -14c-71 0 -91 32 -90 65c-40 -37 -103 -65 -165 -65c-113 0 -165 65 -146 164c17 89 95 130 216 158c73 17 146 30 155 73c5 25 -12 39 -51 39
c-63 0 -97 -26 -112 -75h-149c24 106 102 185 264 185c149 0 225 -60 194 -221zM327 191l15 61c-22 -13 -48 -19 -82 -26c-70 -15 -102 -37 -108 -73c-6 -37 18 -59 52 -59c74 0 110 49 123 97z" />
    <glyph glyph-name="aogonek" unicode="&#x105;" horiz-adv-x="548" 
d="M434 -57c0 -20 14 -24 29 -24c18 0 33 4 48 8l-8 -92c-25 -6 -55 -10 -78 -10c-80 0 -118 34 -106 93c6 27 24 50 52 67c-53 6 -69 35 -68 64c-40 -37 -103 -65 -165 -65c-113 0 -165 65 -146 164c17 89 95 130 216 158c73 17 146 30 155 73c5 25 -12 39 -51 39
c-63 0 -97 -26 -112 -75h-149c24 106 102 185 264 185c149 0 225 -60 194 -221l-46 -235c-5 -27 -1 -34 18 -34l-8 -40c-25 -21 -39 -38 -39 -55zM327 191l15 61c-22 -13 -48 -19 -82 -26c-70 -15 -102 -37 -108 -73c-6 -37 18 -59 52 -59c74 0 110 49 123 97z" />
    <glyph glyph-name="aring" unicode="&#xe5;" horiz-adv-x="548" 
d="M340 569c-60 0 -104 42 -91 109c11 56 60 91 110 91c61 0 103 -43 91 -109c-12 -57 -59 -91 -110 -91zM308 670c-6 -34 14 -46 33 -46c30 0 46 20 51 44c6 34 -14 46 -34 46c-29 0 -45 -20 -50 -44zM509 307l-46 -235c-5 -27 -1 -34 18 -34l-8 -40
c-24 -12 -53 -14 -80 -14c-71 0 -91 32 -90 65c-40 -37 -103 -65 -165 -65c-113 0 -165 65 -146 164c17 89 95 130 216 158c73 17 146 30 155 73c5 25 -12 39 -51 39c-63 0 -97 -26 -112 -75h-149c24 106 102 185 264 185c149 0 225 -60 194 -221zM327 191l15 61
c-22 -13 -48 -19 -82 -26c-70 -15 -102 -37 -108 -73c-6 -37 18 -59 52 -59c74 0 110 49 123 97z" />
    <glyph glyph-name="atilde" unicode="&#xe3;" horiz-adv-x="548" 
d="M309 631c-32 0 -48 -23 -51 -41l-81 8c18 97 51 131 103 131c51 0 88 -38 121 -38c32 0 47 23 51 42l81 -8c-19 -98 -51 -131 -103 -131c-51 0 -88 37 -121 37zM315 528c149 0 225 -60 194 -221l-46 -235c-5 -27 -1 -34 18 -34l-8 -40c-24 -12 -53 -14 -80 -14
c-71 0 -91 32 -90 65c-40 -37 -103 -65 -165 -65c-113 0 -165 65 -146 164c17 89 95 130 216 158c73 17 146 30 155 73c5 25 -12 39 -51 39c-63 0 -97 -26 -112 -75h-149c24 106 102 185 264 185zM327 191l15 61c-22 -13 -48 -19 -82 -26c-70 -15 -102 -37 -108 -73
c-6 -37 18 -59 52 -59c74 0 110 49 123 97z" />
    <glyph glyph-name="ae" unicode="&#xe6;" horiz-adv-x="883" 
d="M863 216h-368c-14 -78 37 -112 89 -112c60 0 95 30 100 55h161c-48 -111 -137 -175 -271 -175c-90 0 -157 33 -196 89c-58 -70 -148 -89 -223 -89c-120 0 -182 65 -163 164c17 89 95 130 216 158c73 17 146 30 155 73c5 25 -12 39 -51 39c-63 0 -97 -26 -112 -75h-149
c24 106 102 185 264 185c72 0 128 -14 162 -47c47 30 106 47 172 47c180 0 250 -132 214 -312zM643 418c-66 0 -115 -40 -129 -112h210c13 80 -25 112 -81 112zM204 94c74 0 110 49 123 97l15 61c-22 -13 -48 -19 -82 -26c-70 -15 -102 -37 -108 -73c-6 -37 18 -59 52 -59z
" />
    <glyph glyph-name="b" unicode="b" horiz-adv-x="587" 
d="M391 528c141 0 212 -108 178 -281c-32 -163 -133 -263 -264 -263c-79 0 -126 44 -141 71l-6 -4l-10 -51h-160l139 715h160l-47 -248c26 27 84 61 151 61zM413 265c18 95 -7 143 -67 143c-70 0 -126 -56 -147 -161c-18 -95 7 -143 67 -143c70 0 126 56 147 161z" />
    <glyph glyph-name="c" unicode="c" horiz-adv-x="533" 
d="M383 317c3 49 -11 91 -70 91c-71 0 -120 -60 -140 -161c-18 -91 8 -143 70 -143c69 0 100 47 114 85h156c-31 -121 -135 -205 -277 -205c-167 0 -251 116 -219 281c30 154 148 263 301 263c154 0 229 -92 219 -211h-154z" />
    <glyph glyph-name="cacute" unicode="&#x107;" horiz-adv-x="533" 
d="M342 720h183l-130 -140h-123zM383 317c3 49 -11 91 -70 91c-71 0 -120 -60 -140 -161c-18 -91 8 -143 70 -143c69 0 100 47 114 85h156c-31 -121 -135 -205 -277 -205c-167 0 -251 116 -219 281c30 154 148 263 301 263c154 0 229 -92 219 -211h-154z" />
    <glyph glyph-name="ccaron" unicode="&#x10d;" horiz-adv-x="533" 
d="M178 720h135l32 -69h2l58 69h143l-134 -140h-156zM383 317c3 49 -11 91 -70 91c-71 0 -120 -60 -140 -161c-18 -91 8 -143 70 -143c69 0 100 47 114 85h156c-31 -121 -135 -205 -277 -205c-167 0 -251 116 -219 281c30 154 148 263 301 263c154 0 229 -92 219 -211h-154z
" />
    <glyph glyph-name="ccedilla" unicode="&#xe7;" horiz-adv-x="533" 
d="M537 317h-154c3 49 -11 91 -70 91c-71 0 -120 -60 -140 -161c-18 -91 8 -143 70 -143c69 0 100 47 114 85h156c-29 -113 -121 -194 -249 -204l-44 -37l-8 -2c58 6 113 -19 102 -76c-8 -43 -68 -68 -134 -68c-52 0 -87 14 -114 31l29 31c18 -9 42 -13 61 -13
c23 0 57 12 62 38c2 14 -9 18 -25 18c-18 0 -30 -5 -40 -9l-18 26l68 62c-145 14 -216 125 -186 279s148 263 301 263c154 0 229 -92 219 -211z" />
    <glyph glyph-name="cdotaccent" unicode="&#x10b;" horiz-adv-x="533" 
d="M272 659c7 36 36 67 80 67c54 0 79 -39 70 -85c-7 -36 -35 -67 -79 -67c-55 0 -80 39 -71 85zM383 317c3 49 -11 91 -70 91c-71 0 -120 -60 -140 -161c-18 -91 8 -143 70 -143c69 0 100 47 114 85h156c-31 -121 -135 -205 -277 -205c-167 0 -251 116 -219 281
c30 154 148 263 301 263c154 0 229 -92 219 -211h-154z" />
    <glyph glyph-name="d" unicode="d" horiz-adv-x="587" 
d="M478 715h160l-139 -715h-160l8 45c-26 -27 -84 -61 -151 -61c-141 0 -212 108 -178 281c32 163 133 263 264 263c79 0 126 -44 141 -71l6 4zM388 265c18 95 -7 143 -67 143c-70 0 -126 -56 -147 -161c-18 -95 7 -143 67 -143c70 0 126 56 147 161z" />
    <glyph glyph-name="eth" unicode="&#xf0;" horiz-adv-x="578" 
d="M508 627c48 -69 87 -176 59 -320c-32 -165 -132 -323 -330 -323c-176 0 -255 113 -222 282c32 166 152 262 270 262c64 0 100 -21 121 -46l8 9c-5 40 -19 74 -43 106l-139 -38l-5 58l100 28c-28 27 -62 50 -98 72l190 -4c15 -8 31 -21 47 -37l113 31l5 -58zM242 112
c70 0 127 53 147 154c18 91 -11 135 -71 135c-70 0 -127 -52 -147 -153c-17 -91 11 -136 71 -136z" />
    <glyph glyph-name="dcaron" unicode="&#x10f;" horiz-adv-x="621" 
d="M750 720c53 0 73 -44 62 -98c-12 -61 -56 -109 -149 -118l-2 47c40 5 75 24 85 50c-46 -14 -74 21 -66 62c6 31 36 57 70 57zM427 461l51 254h160l-139 -715h-160l8 45c-26 -27 -84 -61 -151 -61c-141 0 -212 108 -178 281c32 163 133 263 264 263c79 0 126 -44 141 -71z
M388 265c18 95 -7 143 -67 143c-70 0 -126 -56 -147 -161c-18 -95 7 -143 67 -143c70 0 126 56 147 161z" />
    <glyph glyph-name="dcroat" unicode="&#x111;" horiz-adv-x="586" 
d="M629 665h50l-18 -90h-50l-112 -575h-160l8 45c-26 -27 -84 -61 -151 -61c-141 0 -212 108 -178 281c32 163 133 263 264 263c79 0 126 -44 141 -71l6 4l22 114h-138l18 90h138l9 50h160zM388 265c18 95 -7 143 -67 143c-70 0 -126 -56 -147 -161c-18 -95 7 -143 67 -143
c70 0 126 56 147 161z" />
    <glyph glyph-name="e" unicode="e" horiz-adv-x="554" 
d="M253 104c60 0 95 30 100 55h161c-48 -111 -137 -175 -271 -175c-175 0 -262 124 -226 299c31 151 143 245 301 245c180 0 250 -132 214 -312h-368c-14 -78 37 -112 89 -112zM312 418c-66 0 -115 -40 -129 -112h210c13 80 -25 112 -81 112z" />
    <glyph glyph-name="eacute" unicode="&#xe9;" horiz-adv-x="554" 
d="M527 720l-130 -140h-123l70 140h183zM253 104c60 0 95 30 100 55h161c-48 -111 -137 -175 -271 -175c-175 0 -262 124 -226 299c31 151 143 245 301 245c180 0 250 -132 214 -312h-368c-14 -78 37 -112 89 -112zM312 418c-66 0 -115 -40 -129 -112h210
c13 80 -25 112 -81 112z" />
    <glyph glyph-name="ecaron" unicode="&#x11b;" horiz-adv-x="554" 
d="M416 580h-156l-80 140h135l32 -69h2l58 69h143zM253 104c60 0 95 30 100 55h161c-48 -111 -137 -175 -271 -175c-175 0 -262 124 -226 299c31 151 143 245 301 245c180 0 250 -132 214 -312h-368c-14 -78 37 -112 89 -112zM312 418c-66 0 -115 -40 -129 -112h210
c13 80 -25 112 -81 112z" />
    <glyph glyph-name="ecircumflex" unicode="&#xea;" horiz-adv-x="554" 
d="M349 649l-58 -69h-143l134 140h156l80 -140h-135l-32 69h-2zM253 104c60 0 95 30 100 55h161c-48 -111 -137 -175 -271 -175c-175 0 -262 124 -226 299c31 151 143 245 301 245c180 0 250 -132 214 -312h-368c-14 -78 37 -112 89 -112zM312 418c-66 0 -115 -40 -129 -112
h210c13 80 -25 112 -81 112z" />
    <glyph glyph-name="edieresis" unicode="&#xeb;" horiz-adv-x="554" 
d="M240 574c-55 0 -80 39 -71 85c7 36 36 67 80 67c54 0 79 -39 70 -85c-7 -36 -35 -67 -79 -67zM455 574c-55 0 -80 39 -71 85c7 36 36 67 80 67c54 0 79 -39 70 -85c-7 -36 -35 -67 -79 -67zM253 104c60 0 95 30 100 55h161c-48 -111 -137 -175 -271 -175
c-175 0 -262 124 -226 299c31 151 143 245 301 245c180 0 250 -132 214 -312h-368c-14 -78 37 -112 89 -112zM312 418c-66 0 -115 -40 -129 -112h210c13 80 -25 112 -81 112z" />
    <glyph glyph-name="edotaccent" unicode="&#x117;" horiz-adv-x="554" 
d="M345 574c-55 0 -80 39 -71 85c7 36 36 67 80 67c54 0 79 -39 70 -85c-7 -36 -35 -67 -79 -67zM253 104c60 0 95 30 100 55h161c-48 -111 -137 -175 -271 -175c-175 0 -262 124 -226 299c31 151 143 245 301 245c180 0 250 -132 214 -312h-368c-14 -78 37 -112 89 -112z
M312 418c-66 0 -115 -40 -129 -112h210c13 80 -25 112 -81 112z" />
    <glyph glyph-name="egrave" unicode="&#xe8;" horiz-adv-x="554" 
d="M396 580h-117l-76 140h177zM253 104c60 0 95 30 100 55h161c-48 -111 -137 -175 -271 -175c-175 0 -262 124 -226 299c31 151 143 245 301 245c180 0 250 -132 214 -312h-368c-14 -78 37 -112 89 -112zM312 418c-66 0 -115 -40 -129 -112h210c13 80 -25 112 -81 112z" />
    <glyph glyph-name="emacron" unicode="&#x113;" horiz-adv-x="554" 
d="M504 700l-19 -100h-286l19 100h286zM253 104c60 0 95 30 100 55h161c-48 -111 -137 -175 -271 -175c-175 0 -262 124 -226 299c31 151 143 245 301 245c180 0 250 -132 214 -312h-368c-14 -78 37 -112 89 -112zM312 418c-66 0 -115 -40 -129 -112h210
c13 80 -25 112 -81 112z" />
    <glyph glyph-name="eogonek" unicode="&#x119;" horiz-adv-x="551" 
d="M17 283c31 151 143 245 301 245c180 0 250 -132 214 -312h-368c-14 -78 37 -112 89 -112c60 0 95 30 100 55h161c-34 -80 -90 -135 -168 -160c-29 -11 -53 -28 -53 -56c0 -21 14 -26 29 -26c18 0 33 4 48 8l-8 -92c-25 -6 -55 -10 -78 -10c-80 0 -117 34 -106 93
c6 28 25 51 54 68c-168 5 -250 128 -215 299zM183 306h210c13 80 -25 112 -81 112c-66 0 -115 -40 -129 -112z" />
    <glyph glyph-name="f" unicode="f" horiz-adv-x="348" 
d="M405 594c-68 0 -95 -4 -107 -64l-3 -18h89l-24 -120h-89l-76 -392h-160l76 392h-76l24 120h76l7 39c23 115 62 173 174 173c50 0 74 -5 102 -11z" />
    <glyph glyph-name="g" unicode="g" horiz-adv-x="568" 
d="M420 512h160l-91 -466c-33 -169 -125 -223 -275 -223c-167 0 -229 88 -241 162h156c12 -28 32 -47 83 -47c77 0 104 42 121 127l3 20c-26 -27 -75 -61 -143 -61c-136 0 -204 108 -174 261c28 143 126 243 252 243c80 0 118 -44 133 -71l6 4zM373 285
c15 78 -3 123 -63 123c-70 0 -118 -43 -135 -131c-15 -78 3 -133 63 -133c70 0 118 53 135 141z" />
    <glyph glyph-name="gbreve" unicode="&#x11f;" horiz-adv-x="568" 
d="M328 574c-96 0 -155 61 -141 150l90 -8c-3 -29 12 -44 50 -44c48 0 79 23 88 52l91 -8c-21 -86 -90 -142 -178 -142zM420 512h160l-91 -466c-33 -169 -125 -223 -275 -223c-167 0 -229 88 -241 162h156c12 -28 32 -47 83 -47c77 0 104 42 121 127l3 20
c-26 -27 -75 -61 -143 -61c-136 0 -204 108 -174 261c28 143 126 243 252 243c80 0 118 -44 133 -71l6 4zM373 285c15 78 -3 123 -63 123c-70 0 -118 -43 -135 -131c-15 -78 3 -133 63 -133c70 0 118 53 135 141z" />
    <glyph glyph-name="gcommaaccent" unicode="&#x123;" horiz-adv-x="568" 
d="M332 569c-56 0 -81 44 -70 98c12 61 56 109 149 118l2 -47c-40 -5 -75 -24 -85 -50c46 14 74 -21 66 -64c-7 -33 -28 -55 -62 -55zM420 512h160l-91 -466c-33 -169 -125 -223 -275 -223c-167 0 -229 88 -241 162h156c12 -28 32 -47 83 -47c77 0 104 42 121 127l3 20
c-26 -27 -75 -61 -143 -61c-136 0 -204 108 -174 261c28 143 126 243 252 243c80 0 118 -44 133 -71l6 4zM373 285c15 78 -3 123 -63 123c-70 0 -118 -43 -135 -131c-15 -78 3 -133 63 -133c70 0 118 53 135 141z" />
    <glyph glyph-name="gdotaccent" unicode="&#x121;" horiz-adv-x="568" 
d="M330 574c-55 0 -80 39 -71 85c7 36 36 67 80 67c54 0 79 -39 70 -85c-7 -36 -35 -67 -79 -67zM420 512h160l-91 -466c-33 -169 -125 -223 -275 -223c-167 0 -229 88 -241 162h156c12 -28 32 -47 83 -47c77 0 104 42 121 127l3 20c-26 -27 -75 -61 -143 -61
c-136 0 -204 108 -174 261c28 143 126 243 252 243c80 0 118 -44 133 -71l6 4zM373 285c15 78 -3 123 -63 123c-70 0 -118 -43 -135 -131c-15 -78 3 -133 63 -133c70 0 118 53 135 141z" />
    <glyph glyph-name="h" unicode="h" horiz-adv-x="568" 
d="M401 528c113 0 171 -69 149 -186l-67 -342h-160l58 299c15 77 0 99 -53 99c-56 0 -110 -35 -124 -106l-57 -292h-160l139 715h160l-54 -277l1 4c36 47 91 86 168 86z" />
    <glyph glyph-name="hbar" unicode="&#x127;" horiz-adv-x="567" 
d="M400 528c113 0 171 -69 149 -186l-67 -342h-160l58 299c15 77 0 99 -53 99c-56 0 -110 -35 -124 -106l-57 -292h-160l112 575h-48l18 90h48l9 50h160l-9 -50h148l-18 -90h-148l-27 -137l1 4c36 47 91 86 168 86z" />
    <glyph glyph-name="i" unicode="i" horiz-adv-x="236" 
d="M189 573c-50 0 -85 28 -75 80c8 41 42 62 82 62c50 0 84 -29 75 -80c-9 -42 -42 -62 -82 -62zM87 512h160l-100 -512h-160z" />
    <glyph glyph-name="dotlessi" unicode="&#x131;" horiz-adv-x="220" 
d="M80 512h160l-100 -512h-160z" />
    <glyph glyph-name="iacute" unicode="&#xed;" horiz-adv-x="229" 
d="M184 720h183l-130 -140h-123zM87 512h160l-100 -512h-160z" />
    <glyph glyph-name="icircumflex" unicode="&#xee;" horiz-adv-x="269" 
d="M3 580l134 140h156l80 -140h-135l-32 69h-2l-58 -69h-143zM102 512h160l-100 -512h-160z" />
    <glyph glyph-name="idieresis" unicode="&#xef;" horiz-adv-x="321" 
d="M53 659c7 36 36 67 80 67c54 0 79 -39 70 -85c-7 -36 -35 -67 -79 -67c-55 0 -80 39 -71 85zM268 659c7 36 36 67 80 67c54 0 79 -39 70 -85c-7 -36 -35 -67 -79 -67c-55 0 -80 39 -71 85zM131 512h160l-100 -512h-160z" />
    <glyph glyph-name="i.loclTRK" horiz-adv-x="237" 
d="M115 659c7 36 36 67 80 67c54 0 79 -39 70 -85c-7 -36 -35 -67 -79 -67c-55 0 -80 39 -71 85zM88 512h160l-100 -512h-160z" />
    <glyph glyph-name="igrave" unicode="&#xec;" horiz-adv-x="223" 
d="M207 720l16 -140h-117l-76 140h177zM74 512h160l-100 -512h-160z" />
    <glyph glyph-name="imacron" unicode="&#x12b;" horiz-adv-x="265" 
d="M75 700h286l-19 -100h-286zM104 512h160l-100 -512h-160z" />
    <glyph glyph-name="iogonek" unicode="&#x12f;" horiz-adv-x="267" 
d="M165 574c-55 0 -80 39 -71 85c7 36 36 67 80 67c54 0 79 -39 70 -85c-7 -36 -35 -67 -79 -67zM123 -83c15 0 26 3 39 8l-8 -92c-25 -6 -55 -10 -78 -10c-80 0 -117 34 -106 93c8 42 47 71 82 86l-85 -2l100 512h160l-100 -512h-2c-28 -22 -35 -40 -35 -56s9 -27 33 -27z
" />
    <glyph glyph-name="j" unicode="j" horiz-adv-x="244" 
d="M197 573c-50 0 -85 28 -75 80c8 41 42 62 82 62c50 0 84 -29 75 -80c-9 -42 -42 -62 -82 -62zM95 512h160l-101 -516c-22 -115 -61 -173 -173 -173c-50 0 -74 6 -102 12l13 119c68 0 95 4 106 62z" />
    <glyph glyph-name="k" unicode="k" horiz-adv-x="552" 
d="M126 715h160l-75 -376l184 173h195l-221 -192l138 -320h-186l-79 204l-64 -53l-31 -151h-160z" />
    <glyph glyph-name="kcommaaccent" unicode="&#x137;" horiz-adv-x="552" 
d="M126 715h160l-75 -376l184 173h195l-221 -192l138 -320h-186l-79 204l-64 -53l-31 -151h-160zM204 -166c-46 -14 -74 21 -66 62c6 31 36 57 70 57c53 0 72 -44 62 -98c-12 -61 -56 -109 -149 -118l-2 47c40 5 75 24 85 50z" />
    <glyph glyph-name="l" unicode="l" horiz-adv-x="237" 
d="M127 715h160l-139 -715h-160z" />
    <glyph glyph-name="lacute" unicode="&#x13a;" horiz-adv-x="253" 
d="M227 910h183l-130 -140h-123zM127 715h160l-139 -715h-160z" />
    <glyph glyph-name="lcaron" unicode="&#x13e;" horiz-adv-x="271" 
d="M395 601c-46 -14 -74 21 -66 62c6 31 36 57 70 57c53 0 73 -44 62 -98c-12 -61 -56 -109 -149 -118l-2 47c40 5 75 24 85 50zM125 715h160l-139 -715h-160z" />
    <glyph glyph-name="lcommaaccent" unicode="&#x13c;" horiz-adv-x="237" 
d="M127 715h160l-139 -715h-160zM44 -166c-46 -14 -74 21 -66 62c6 31 36 57 70 57c53 0 72 -44 62 -98c-12 -61 -56 -109 -149 -118l-2 47c40 5 75 24 85 50z" />
    <glyph glyph-name="lslash" unicode="&#x142;" horiz-adv-x="280" 
d="M334 543l-20 -117l-69 -45l-76 -381h-160l53 263l-65 -42l20 117l65 42l66 335h160l-43 -217z" />
    <glyph glyph-name="m" unicode="m" horiz-adv-x="866" 
d="M710 528c108 0 160 -69 138 -186l-67 -342h-162l58 299c15 77 9 99 -43 99c-56 0 -100 -35 -114 -106l-57 -292h-160l58 299c15 77 9 99 -43 99c-55 0 -100 -35 -114 -106l-57 -292h-160l100 512h160l-15 -74l1 4c36 47 97 86 169 86s114 -41 125 -94l1 7
c54 51 104 87 182 87z" />
    <glyph glyph-name="n" unicode="n" horiz-adv-x="568" 
d="M410 528c104 0 162 -69 140 -186l-67 -342h-160l58 299c15 77 -2 99 -50 99c-66 0 -113 -35 -127 -106l-57 -292h-160l100 512h160l-15 -74l1 4c36 47 91 86 177 86z" />
    <glyph glyph-name="nacute" unicode="&#x144;" horiz-adv-x="568" 
d="M565 720l-130 -140h-123l70 140h183zM410 528c104 0 162 -69 140 -186l-67 -342h-160l58 299c15 77 -2 99 -50 99c-66 0 -113 -35 -127 -106l-57 -292h-160l100 512h160l-15 -74l1 4c36 47 91 86 177 86z" />
    <glyph glyph-name="ncaron" unicode="&#x148;" horiz-adv-x="568" 
d="M454 580h-156l-80 140h135l32 -69l60 69h143zM410 528c104 0 162 -69 140 -186l-67 -342h-160l58 299c15 77 -2 99 -50 99c-66 0 -113 -35 -127 -106l-57 -292h-160l100 512h160l-15 -74l1 4c36 47 91 86 177 86z" />
    <glyph glyph-name="ncommaaccent" unicode="&#x146;" horiz-adv-x="568" 
d="M410 528c104 0 162 -69 140 -186l-67 -342h-160l58 299c15 77 -2 99 -50 99c-66 0 -113 -35 -127 -106l-57 -292h-160l100 512h160l-15 -74l1 4c36 47 91 86 177 86zM215 -47c53 0 72 -44 62 -98c-12 -61 -56 -109 -149 -118l-2 47c40 5 75 24 85 50
c-46 -14 -74 21 -66 62c6 31 36 57 70 57z" />
    <glyph glyph-name="eng" unicode="&#x14b;" horiz-adv-x="568" 
d="M478 -16c-28 -115 -62 -173 -174 -173c-50 0 -73 6 -101 12l13 119c68 0 95 4 106 62l57 295c15 77 -2 99 -50 99c-66 0 -113 -35 -127 -106l-57 -292h-160l100 512h160l-15 -74l1 4c36 47 91 86 177 86c104 0 162 -69 140 -186z" />
    <glyph glyph-name="ntilde" unicode="&#xf1;" horiz-adv-x="568" 
d="M349 631c-32 0 -48 -23 -51 -41l-81 8c18 97 51 131 103 131c51 0 88 -38 121 -38c32 0 47 23 51 42l81 -8c-19 -98 -51 -131 -103 -131c-51 0 -88 37 -121 37zM410 528c104 0 162 -69 140 -186l-67 -342h-160l58 299c15 77 -2 99 -50 99c-66 0 -113 -35 -127 -106
l-57 -292h-160l100 512h160l-15 -74l1 4c36 47 91 86 177 86z" />
    <glyph glyph-name="o" unicode="o" horiz-adv-x="574" 
d="M224 -16c-166 0 -243 109 -213 263c32 164 163 281 339 281c165 0 242 -109 212 -263c-32 -164 -163 -281 -338 -281zM254 104c65 0 117 49 143 143c30 104 -2 161 -77 161c-66 0 -118 -49 -144 -143c-30 -104 2 -161 78 -161z" />
    <glyph glyph-name="oacute" unicode="&#xf3;" horiz-adv-x="574" 
d="M354 720h183l-130 -140h-123zM224 -16c-166 0 -243 109 -213 263c32 164 163 281 339 281c165 0 242 -109 212 -263c-32 -164 -163 -281 -338 -281zM254 104c65 0 117 49 143 143c30 104 -2 161 -77 161c-66 0 -118 -49 -144 -143c-30 -104 2 -161 78 -161z" />
    <glyph glyph-name="ocircumflex" unicode="&#xf4;" horiz-adv-x="574" 
d="M158 580l134 140h156l80 -140h-135l-32 69h-2l-58 -69h-143zM224 -16c-166 0 -243 109 -213 263c32 164 163 281 339 281c165 0 242 -109 212 -263c-32 -164 -163 -281 -338 -281zM254 104c65 0 117 49 143 143c30 104 -2 161 -77 161c-66 0 -118 -49 -144 -143
c-30 -104 2 -161 78 -161z" />
    <glyph glyph-name="odieresis" unicode="&#xf6;" horiz-adv-x="574" 
d="M179 659c7 36 36 67 80 67c54 0 79 -39 70 -85c-7 -36 -35 -67 -79 -67c-55 0 -80 39 -71 85zM394 659c7 36 36 67 80 67c54 0 79 -39 70 -85c-7 -36 -35 -67 -79 -67c-55 0 -80 39 -71 85zM224 -16c-166 0 -243 109 -213 263c32 164 163 281 339 281
c165 0 242 -109 212 -263c-32 -164 -163 -281 -338 -281zM254 104c65 0 117 49 143 143c30 104 -2 161 -77 161c-66 0 -118 -49 -144 -143c-30 -104 2 -161 78 -161z" />
    <glyph glyph-name="ograve" unicode="&#xf2;" horiz-adv-x="574" 
d="M390 720l16 -140h-117l-76 140h177zM224 -16c-166 0 -243 109 -213 263c32 164 163 281 339 281c165 0 242 -109 212 -263c-32 -164 -163 -281 -338 -281zM254 104c65 0 117 49 143 143c30 104 -2 161 -77 161c-66 0 -118 -49 -144 -143c-30 -104 2 -161 78 -161z" />
    <glyph glyph-name="ohungarumlaut" unicode="&#x151;" horiz-adv-x="574" 
d="M239 720h183l-130 -140h-123zM459 720h183l-130 -140h-123zM224 -16c-166 0 -243 109 -213 263c32 164 163 281 339 281c165 0 242 -109 212 -263c-32 -164 -163 -281 -338 -281zM254 104c65 0 117 49 143 143c30 104 -2 161 -77 161c-66 0 -118 -49 -144 -143
c-30 -104 2 -161 78 -161z" />
    <glyph glyph-name="omacron" unicode="&#x14d;" horiz-adv-x="574" 
d="M228 700h286l-19 -100h-286zM224 -16c-166 0 -243 109 -213 263c32 164 163 281 339 281c165 0 242 -109 212 -263c-32 -164 -163 -281 -338 -281zM254 104c65 0 117 49 143 143c30 104 -2 161 -77 161c-66 0 -118 -49 -144 -143c-30 -104 2 -161 78 -161z" />
    <glyph glyph-name="oslash" unicode="&#xf8;" horiz-adv-x="572" 
d="M601 482l-58 -49c25 -44 32 -102 19 -168c-32 -164 -163 -281 -338 -281c-67 0 -119 18 -156 49l-54 -46l-37 43l55 46c-27 45 -34 104 -21 171c32 164 163 281 339 281c68 0 121 -18 158 -51l55 47zM176 265c-8 -29 -12 -55 -11 -77l225 190c-15 20 -38 30 -70 30
c-66 0 -118 -49 -144 -143zM397 247c8 27 12 52 11 72l-223 -188c15 -18 38 -27 69 -27c65 0 117 49 143 143z" />
    <glyph glyph-name="otilde" unicode="&#xf5;" horiz-adv-x="574" 
d="M189 598c18 97 51 131 103 131c51 0 88 -38 121 -38c32 0 47 23 51 42l81 -8c-19 -98 -51 -131 -103 -131c-51 0 -88 37 -121 37c-32 0 -48 -23 -51 -41zM224 -16c-166 0 -243 109 -213 263c32 164 163 281 339 281c165 0 242 -109 212 -263
c-32 -164 -163 -281 -338 -281zM254 104c65 0 117 49 143 143c30 104 -2 161 -77 161c-66 0 -118 -49 -144 -143c-30 -104 2 -161 78 -161z" />
    <glyph glyph-name="oe" unicode="&#x153;" horiz-adv-x="949" 
d="M928 216h-368c-14 -78 37 -112 89 -112c60 0 95 30 100 55h161c-48 -111 -137 -175 -271 -175c-86 0 -150 30 -190 81c-58 -51 -136 -81 -224 -81c-166 0 -243 109 -213 263c32 164 163 281 339 281c75 0 133 -23 169 -62c51 40 117 62 194 62c180 0 250 -132 214 -312z
M708 418c-66 0 -115 -40 -129 -112h210c13 80 -25 112 -81 112zM255 104c65 0 117 49 143 143c30 104 -2 161 -77 161c-66 0 -118 -49 -144 -143c-30 -104 2 -161 78 -161z" />
    <glyph glyph-name="p" unicode="p" horiz-adv-x="587" 
d="M391 528c141 0 212 -108 178 -281c-32 -163 -133 -263 -264 -263c-79 0 -126 44 -141 71l-6 -4l-44 -228h-160l134 689h160l-8 -45c26 27 84 61 151 61zM413 265c18 95 -7 143 -67 143c-70 0 -126 -56 -147 -161c-18 -95 7 -143 67 -143c70 0 126 56 147 161z" />
    <glyph glyph-name="thorn" unicode="&#xfe;" horiz-adv-x="584" 
d="M390 528c141 0 212 -108 178 -281c-32 -163 -133 -263 -264 -263c-89 0 -127 44 -138 91l-5 -4l-48 -248h-160l173 892h160l-53 -274l1 4c29 47 77 83 156 83zM265 104c70 0 126 56 147 161c18 95 -7 143 -67 143c-70 0 -126 -56 -147 -161c-18 -95 7 -143 67 -143z" />
    <glyph glyph-name="q" unicode="q" horiz-adv-x="587" 
d="M439 512h160l-134 -689h-160l42 222c-26 -27 -84 -61 -151 -61c-141 0 -212 108 -178 281c32 163 133 263 264 263c79 0 126 -44 141 -71l6 4zM388 265c18 95 -7 143 -67 143c-70 0 -126 -56 -147 -161c-18 -95 7 -143 67 -143c70 0 126 56 147 161z" />
    <glyph glyph-name="r" unicode="r" horiz-adv-x="384" 
d="M366 521c19 0 30 -1 48 -5l-23 -137c-78 12 -177 -38 -198 -145l-46 -234h-160l100 512h160l-17 -84l1 4c36 57 84 89 135 89z" />
    <glyph glyph-name="racute" unicode="&#x155;" horiz-adv-x="384" 
d="M453 720l-130 -140h-123l70 140h183zM366 521c19 0 30 -1 48 -5l-23 -137c-78 12 -177 -38 -198 -145l-46 -234h-160l100 512h160l-17 -84l1 4c36 57 84 89 135 89z" />
    <glyph glyph-name="rcaron" unicode="&#x159;" horiz-adv-x="382" 
d="M345 580h-156l-80 140h135l32 -69h2l58 69h143zM369 521c19 0 30 -1 48 -5l-23 -137c-78 12 -177 -38 -198 -145l-46 -234h-160l100 512h160l-17 -84l1 4c36 57 84 89 135 89z" />
    <glyph glyph-name="rcommaaccent" unicode="&#x157;" horiz-adv-x="384" 
d="M366 521c19 0 30 -1 48 -5l-23 -137c-78 12 -177 -38 -198 -145l-46 -234h-160l100 512h160l-17 -84l1 4c36 57 84 89 135 89zM53 -47c53 0 72 -44 62 -98c-12 -61 -56 -109 -149 -118l-2 47c40 5 75 24 85 50c-46 -14 -74 21 -66 62c6 31 36 57 70 57z" />
    <glyph glyph-name="s" unicode="s" horiz-adv-x="504" 
d="M291 321c92 -29 176 -68 176 -159c0 -125 -98 -178 -235 -178c-188 0 -241 86 -241 182h148c-5 -51 31 -72 89 -72c50 0 80 18 80 53c0 36 -36 38 -108 61c-88 28 -160 63 -160 145c0 110 97 175 226 175c179 0 226 -87 226 -169h-147c3 41 -32 59 -79 59
c-40 0 -67 -12 -67 -40c0 -31 24 -36 92 -57z" />
    <glyph glyph-name="sacute" unicode="&#x15b;" horiz-adv-x="504" 
d="M315 720h183l-130 -140h-123zM291 321c92 -29 176 -68 176 -159c0 -125 -98 -178 -235 -178c-188 0 -241 86 -241 182h148c-5 -51 31 -72 89 -72c50 0 80 18 80 53c0 36 -36 38 -108 61c-88 28 -160 63 -160 145c0 110 97 175 226 175c179 0 226 -87 226 -169h-147
c3 41 -32 59 -79 59c-40 0 -67 -12 -67 -40c0 -31 24 -36 92 -57z" />
    <glyph glyph-name="scaron" unicode="&#x161;" horiz-adv-x="504" 
d="M151 720h135l32 -69h2l58 69h143l-134 -140h-156zM291 321c92 -29 176 -68 176 -159c0 -125 -98 -178 -235 -178c-188 0 -241 86 -241 182h148c-5 -51 31 -72 89 -72c50 0 80 18 80 53c0 36 -36 38 -108 61c-88 28 -160 63 -160 145c0 110 97 175 226 175
c179 0 226 -87 226 -169h-147c3 41 -32 59 -79 59c-40 0 -67 -12 -67 -40c0 -31 24 -36 92 -57z" />
    <glyph glyph-name="scedilla" unicode="&#x15f;" horiz-adv-x="504" 
d="M291 321c92 -29 176 -68 176 -159c0 -120 -91 -174 -220 -178l-42 -36l-8 -2c58 6 113 -19 102 -76c-8 -43 -68 -68 -134 -68c-52 0 -87 14 -114 31l29 31c18 -9 42 -13 61 -13c23 0 57 12 62 38c2 14 -9 18 -25 18c-18 0 -30 -5 -40 -9l-18 26l67 62
c-152 13 -196 92 -196 180h148c-5 -51 31 -72 89 -72c50 0 80 18 80 53c0 36 -36 38 -108 61c-88 28 -160 63 -160 145c0 110 97 175 226 175c179 0 226 -87 226 -169h-147c3 41 -32 59 -79 59c-40 0 -67 -12 -67 -40c0 -31 24 -36 92 -57z" />
    <glyph glyph-name="scommaaccent" unicode="&#x219;" horiz-adv-x="504" 
d="M291 321c92 -29 176 -68 176 -159c0 -125 -98 -178 -235 -178c-188 0 -241 86 -241 182h148c-5 -51 31 -72 89 -72c50 0 80 18 80 53c0 36 -36 38 -108 61c-88 28 -160 63 -160 145c0 110 97 175 226 175c179 0 226 -87 226 -169h-147c3 41 -32 59 -79 59
c-40 0 -67 -12 -67 -40c0 -31 24 -36 92 -57zM191 -166c-46 -14 -74 21 -66 62c6 31 36 57 70 57c53 0 72 -44 62 -98c-12 -61 -56 -109 -149 -118l-2 47c40 5 75 24 85 50z" />
    <glyph glyph-name="germandbls" unicode="&#xdf;" horiz-adv-x="570" 
d="M245 505l-98 -505h-160l92 473c30 152 122 258 284 258c144 0 229 -96 208 -203c-16 -80 -62 -115 -110 -134l-11 -1c80 -27 112 -118 94 -208c-25 -131 -134 -201 -242 -201c-45 0 -71 7 -100 18l13 117c121 -23 165 44 179 114c12 62 -10 110 -100 110h-30l19 100h16
c54 0 103 38 114 95c9 46 -10 73 -53 73c-56 0 -100 -31 -115 -106z" />
    <glyph glyph-name="t" unicode="t" horiz-adv-x="350" 
d="M356 392h-89l-42 -216c-11 -58 6 -54 74 -54l-14 -121c-30 -6 -56 -10 -96 -10c-122 0 -147 66 -124 181l42 220h-71l24 120h71l28 143h160l-28 -143h89z" />
    <glyph glyph-name="tbar" unicode="&#x167;" horiz-adv-x="349" 
d="M325 234h-90l-12 -58c-11 -58 6 -54 74 -54l-14 -121c-30 -6 -56 -10 -96 -10c-122 0 -147 66 -124 181l12 62h-70l17 90h70l13 68h-71l24 120h71l28 143h160l-28 -143h89l-24 -120h-89l-13 -68h90z" />
    <glyph glyph-name="tcaron" unicode="&#x165;" horiz-adv-x="369" 
d="M435 770c53 0 72 -44 62 -98c-12 -61 -56 -109 -150 -118l-1 47c40 5 75 24 85 50c-46 -14 -74 21 -66 62c6 31 36 57 70 57zM318 655l-28 -143h89l-24 -120h-89l-42 -216c-11 -58 6 -54 74 -54l-14 -121c-30 -6 -56 -10 -96 -10c-122 0 -147 66 -124 181l42 220h-71
l24 120h71l28 143h160z" />
    <glyph glyph-name="uni0163" unicode="&#x163;" horiz-adv-x="350" 
d="M164 -44c58 6 113 -19 102 -76c-9 -43 -68 -68 -134 -68c-52 0 -87 14 -114 31l29 31c18 -9 42 -13 61 -13c23 0 57 12 62 38c2 14 -9 18 -25 18c-18 0 -30 -5 -40 -9l-18 26l67 59c-90 10 -109 75 -89 179l42 220h-71l24 120h71l28 143h160l-28 -143h89l-24 -120h-89
l-42 -216c-11 -58 6 -54 74 -54l-14 -121c-24 -5 -44 -8 -72 -9l-42 -34z" />
    <glyph glyph-name="uni021B" unicode="&#x21b;" horiz-adv-x="350" 
d="M356 392h-89l-42 -216c-11 -58 6 -54 74 -54l-14 -121c-30 -6 -56 -10 -96 -10c-122 0 -147 66 -124 181l42 220h-71l24 120h71l28 143h160l-28 -143h89zM162 -37c53 0 72 -44 62 -98c-12 -61 -56 -109 -150 -118l-1 47c40 5 75 24 85 50c-46 -14 -74 21 -66 62
c6 31 36 57 70 57z" />
    <glyph glyph-name="u" unicode="u" horiz-adv-x="566" 
d="M417 512h160l-100 -512h-160l15 74l-1 -4c-36 -47 -91 -86 -177 -86c-104 0 -162 69 -140 186l67 342h160l-58 -299c-15 -77 2 -99 50 -99c66 0 113 35 127 106z" />
    <glyph glyph-name="uacute" unicode="&#xfa;" horiz-adv-x="566" 
d="M525 720l-130 -140h-123l70 140h183zM417 512h160l-100 -512h-160l15 74l-1 -4c-36 -47 -91 -86 -177 -86c-104 0 -162 69 -140 186l67 342h160l-58 -299c-15 -77 2 -99 50 -99c66 0 113 35 127 106z" />
    <glyph glyph-name="ucircumflex" unicode="&#xfb;" horiz-adv-x="566" 
d="M347 649l-58 -69h-143l134 140h156l80 -140h-135l-32 69h-2zM417 512h160l-100 -512h-160l15 74l-1 -4c-36 -47 -91 -86 -177 -86c-104 0 -162 69 -140 186l67 342h160l-58 -299c-15 -77 2 -99 50 -99c66 0 113 35 127 106z" />
    <glyph glyph-name="udieresis" unicode="&#xfc;" horiz-adv-x="566" 
d="M238 574c-55 0 -80 39 -71 85c7 36 36 67 80 67c54 0 79 -39 70 -85c-7 -36 -35 -67 -79 -67zM453 574c-55 0 -80 39 -71 85c7 36 36 67 80 67c54 0 79 -39 70 -85c-7 -36 -35 -67 -79 -67zM417 512h160l-100 -512h-160l15 74l-1 -4c-36 -47 -91 -86 -177 -86
c-104 0 -162 69 -140 186l67 342h160l-58 -299c-15 -77 2 -99 50 -99c66 0 113 35 127 106z" />
    <glyph glyph-name="ugrave" unicode="&#xf9;" horiz-adv-x="566" 
d="M394 580h-117l-76 140h177zM417 512h160l-100 -512h-160l15 74l-1 -4c-36 -47 -91 -86 -177 -86c-104 0 -162 69 -140 186l67 342h160l-58 -299c-15 -77 2 -99 50 -99c66 0 113 35 127 106z" />
    <glyph glyph-name="uhungarumlaut" unicode="&#x171;" horiz-adv-x="566" 
d="M410 720l-130 -140h-123l70 140h183zM630 720l-130 -140h-123l70 140h183zM360 220l57 292h160l-100 -512h-160l15 74l-1 -4c-36 -47 -91 -86 -177 -86c-104 0 -162 69 -140 186l67 342h160l-58 -299c-15 -77 2 -99 50 -99c66 0 113 35 127 106z" />
    <glyph glyph-name="umacron" unicode="&#x16b;" horiz-adv-x="566" 
d="M502 700l-19 -100h-286l19 100h286zM417 512h160l-100 -512h-160l15 74l-1 -4c-36 -47 -91 -86 -177 -86c-104 0 -162 69 -140 186l67 342h160l-58 -299c-15 -77 2 -99 50 -99c66 0 113 35 127 106z" />
    <glyph glyph-name="uogonek" unicode="&#x173;" horiz-adv-x="566" 
d="M467 -83c11 0 26 4 41 8l-8 -92c-25 -6 -55 -10 -78 -10c-80 0 -117 34 -106 93c8 42 47 71 82 86l-81 -2l15 74l-1 -4c-36 -47 -91 -86 -177 -86c-104 0 -162 69 -140 186l67 342h160l-58 -299c-15 -77 2 -99 50 -99c66 0 113 35 127 106l57 292h160l-100 -512h-2
c-30 -22 -39 -40 -39 -57c0 -14 9 -26 31 -26z" />
    <glyph glyph-name="uring" unicode="&#x16f;" horiz-adv-x="566" 
d="M340 569c-60 0 -104 42 -91 109c11 56 60 91 110 91c61 0 103 -43 91 -109c-12 -57 -59 -91 -110 -91zM341 624c30 0 46 20 51 44c6 34 -14 46 -34 46c-29 0 -45 -20 -50 -44c-6 -34 14 -46 33 -46zM417 512h160l-100 -512h-160l15 74l-1 -4c-36 -47 -91 -86 -177 -86
c-104 0 -162 69 -140 186l67 342h160l-58 -299c-15 -77 2 -99 50 -99c66 0 113 35 127 106z" />
    <glyph glyph-name="v" unicode="v" horiz-adv-x="528" 
d="M49 512h157l39 -334h2l169 334h163l-276 -512h-176z" />
    <glyph glyph-name="w" unicode="w" horiz-adv-x="788" 
d="M50 512h158l16 -312h2l145 312h140l23 -312h2l138 312h162l-243 -512h-149l-36 324h-2l-162 -324h-151z" />
    <glyph glyph-name="wacute" unicode="&#x1e83;" horiz-adv-x="788" 
d="M459 720h183l-130 -140h-123zM50 512h158l16 -312h2l145 312h140l23 -312h2l138 312h162l-243 -512h-149l-36 324h-2l-162 -324h-151z" />
    <glyph glyph-name="wcircumflex" unicode="&#x175;" horiz-adv-x="788" 
d="M263 580l134 140h156l80 -140h-135l-32 69h-2l-58 -69h-143zM50 512h158l16 -312h2l145 312h140l23 -312h2l138 312h162l-243 -512h-149l-36 324h-2l-162 -324h-151z" />
    <glyph glyph-name="wdieresis" unicode="&#x1e85;" horiz-adv-x="788" 
d="M284 659c7 36 36 67 80 67c54 0 79 -39 70 -85c-7 -36 -35 -67 -79 -67c-55 0 -80 39 -71 85zM499 659c7 36 36 67 80 67c54 0 79 -39 70 -85c-7 -36 -35 -67 -79 -67c-55 0 -80 39 -71 85zM50 512h158l16 -312h2l145 312h140l23 -312h2l138 312h162l-243 -512h-149
l-36 324h-2l-162 -324h-151z" />
    <glyph glyph-name="wgrave" unicode="&#x1e81;" horiz-adv-x="788" 
d="M495 720l16 -140h-117l-76 140h177zM50 512h158l16 -312h2l145 312h140l23 -312h2l138 312h162l-243 -512h-149l-36 324h-2l-162 -324h-151z" />
    <glyph glyph-name="x" unicode="x" horiz-adv-x="550" 
d="M72 512h166l53 -148l113 148h174l-207 -251l123 -261h-176l-61 158l-125 -158h-184l229 261z" />
    <glyph glyph-name="y" unicode="y" horiz-adv-x="535" 
d="M584 512l-276 -526c-69 -131 -120 -163 -223 -163c-32 0 -61 4 -92 11l19 117c40 -8 80 2 99 31c21 19 28 51 22 96l-84 434h157l51 -336h2l162 336h163z" />
    <glyph glyph-name="yacute" unicode="&#xfd;" horiz-adv-x="535" 
d="M333 720h183l-130 -140h-123zM584 512l-276 -526c-69 -131 -120 -163 -223 -163c-32 0 -61 4 -92 11l19 117c40 -8 80 2 99 31c21 19 28 51 22 96l-84 434h157l51 -336h2l162 336h163z" />
    <glyph glyph-name="ycircumflex" unicode="&#x177;" horiz-adv-x="535" 
d="M137 580l134 140h156l80 -140h-135l-32 69h-2l-58 -69h-143zM584 512l-276 -526c-69 -131 -120 -163 -223 -163c-32 0 -61 4 -92 11l19 117c40 -8 80 2 99 31c21 19 28 51 22 96l-84 434h157l51 -336h2l162 336h163z" />
    <glyph glyph-name="ydieresis" unicode="&#xff;" horiz-adv-x="535" 
d="M158 659c7 36 36 67 80 67c54 0 79 -39 70 -85c-7 -36 -35 -67 -79 -67c-55 0 -80 39 -71 85zM373 659c7 36 36 67 80 67c54 0 79 -39 70 -85c-7 -36 -35 -67 -79 -67c-55 0 -80 39 -71 85zM584 512l-276 -526c-69 -131 -120 -163 -223 -163c-32 0 -61 4 -92 11l19 117
c40 -8 80 2 99 31c21 19 28 51 22 96l-84 434h157l51 -336h2l162 336h163z" />
    <glyph glyph-name="ygrave" unicode="&#x1ef3;" horiz-adv-x="535" 
d="M369 720l16 -140h-117l-76 140h177zM584 512l-276 -526c-69 -131 -120 -163 -223 -163c-32 0 -61 4 -92 11l19 117c40 -8 80 2 99 31c21 19 28 51 22 96l-84 434h157l51 -336h2l162 336h163z" />
    <glyph glyph-name="z" unicode="z" horiz-adv-x="497" 
d="M-9 115l302 275l2 2h-229l24 120h429l-21 -115l-302 -275l-2 -2h259l-24 -120h-459z" />
    <glyph glyph-name="zacute" unicode="&#x17a;" horiz-adv-x="497" 
d="M322 720h183l-130 -140h-123zM-9 115l302 275l2 2h-229l24 120h429l-21 -115l-302 -275l-2 -2h259l-24 -120h-459z" />
    <glyph glyph-name="zcaron" unicode="&#x17e;" horiz-adv-x="497" 
d="M158 720h135l32 -69h2l58 69h143l-134 -140h-156zM-9 115l302 275l2 2h-229l24 120h429l-21 -115l-302 -275l-2 -2h259l-24 -120h-459z" />
    <glyph glyph-name="zdotaccent" unicode="&#x17c;" horiz-adv-x="497" 
d="M252 659c7 36 36 67 80 67c54 0 79 -39 70 -85c-7 -36 -35 -67 -79 -67c-55 0 -80 39 -71 85zM-9 115l302 275l2 2h-229l24 120h429l-21 -115l-302 -275l-2 -2h259l-24 -120h-459z" />
    <glyph glyph-name="zero" unicode="0" horiz-adv-x="646" 
d="M280 -16c-212 0 -281 169 -242 370c37 191 161 353 363 353c212 0 280 -170 241 -371c-38 -191 -160 -352 -362 -352zM287 121c106 0 161 91 188 233c26 132 15 216 -81 216c-106 0 -162 -92 -189 -234c-26 -132 -14 -215 82 -215z" />
    <glyph glyph-name="one" unicode="1" horiz-adv-x="395" 
d="M277 695h140l-135 -695h-170l94 464c-47 -40 -103 -37 -152 -37l14 120c131 0 195 73 209 148z" />
    <glyph glyph-name="two" unicode="2" horiz-adv-x="584" 
d="M598 488c-34 -176 -250 -263 -357 -351h289l-27 -137l-531 4c22 115 92 185 160 239c147 100 279 155 297 251c10 48 -20 76 -69 76c-70 0 -116 -40 -134 -127h-159c32 162 133 264 315 264c154 0 243 -82 216 -219z" />
    <glyph glyph-name="three" unicode="3" horiz-adv-x="595" 
d="M238 483h-158c26 132 137 224 299 224c144 0 253 -72 228 -199c-14 -70 -62 -115 -122 -144l-11 -1c80 -27 108 -88 90 -178c-25 -131 -145 -201 -293 -201c-200 0 -289 98 -256 256h158c-16 -80 19 -119 103 -119c77 0 114 35 122 82c11 63 -24 93 -104 93h-40l23 117
h26c74 0 120 28 132 85c10 46 -25 72 -76 72c-58 0 -108 -29 -121 -87z" />
    <glyph glyph-name="four" unicode="4" horiz-adv-x="622" 
d="M452 0h-170l29 146h-313l30 167l387 378h172l-80 -408h102l-26 -137h-102zM382 498l-221 -215h176z" />
    <glyph glyph-name="five" unicode="5" horiz-adv-x="597" 
d="M606 554h-320l-50 -127c42 27 89 42 144 42c142 0 222 -101 192 -254c-31 -161 -158 -231 -306 -231c-198 0 -284 98 -262 226h167c-4 -50 32 -89 99 -89c66 0 120 33 136 117c13 65 -13 114 -91 114c-42 0 -88 -19 -113 -54h-163l156 393h438z" />
    <glyph glyph-name="six" unicode="6" horiz-adv-x="608" 
d="M387 471c148 0 227 -106 201 -243c-29 -148 -148 -244 -309 -244c-233 0 -278 176 -242 361c48 245 185 362 357 362c139 0 227 -84 228 -187h-167c0 24 -11 60 -69 60c-89 0 -143 -71 -165 -166c42 33 94 57 166 57zM429 227c12 61 -21 117 -100 117
c-70 0 -132 -44 -146 -115c-12 -62 21 -118 101 -118c69 0 131 44 145 116z" />
    <glyph glyph-name="seven" unicode="7" horiz-adv-x="544" 
d="M102 691h506l-21 -130c-181 -127 -289 -352 -331 -561h-178c43 224 176 449 319 554h-322z" />
    <glyph glyph-name="eight" unicode="8" horiz-adv-x="603" 
d="M7 207c18 88 87 138 157 167l11 2c-44 26 -91 70 -75 153c22 114 144 178 281 178c147 0 252 -72 228 -196c-15 -73 -70 -113 -122 -139l-10 -2c59 -29 118 -83 99 -181c-27 -137 -163 -205 -316 -205c-163 0 -281 76 -253 223zM335 419c75 0 114 43 122 85
c10 50 -24 86 -89 86c-75 0 -115 -44 -123 -83c-10 -53 25 -88 90 -88zM275 111c78 0 126 51 136 102c11 59 -29 102 -97 102c-78 0 -126 -51 -135 -100c-12 -61 28 -104 96 -104z" />
    <glyph glyph-name="nine" unicode="9" horiz-adv-x="614" 
d="M369 707c233 0 278 -176 242 -361c-48 -245 -185 -362 -357 -362c-139 0 -227 84 -228 187h167c0 -24 11 -60 69 -60c89 0 143 71 165 166c-42 -33 -94 -57 -166 -57c-148 0 -227 106 -201 243c29 148 148 244 309 244zM465 462c12 62 -21 118 -101 118
c-69 0 -131 -44 -145 -116c-12 -61 21 -117 100 -117c70 0 132 44 146 115z" />
    <glyph glyph-name="fraction" unicode="&#x2044;" horiz-adv-x="329" 
d="M462 715h114l-672 -715h-114z" />
    <glyph glyph-name="asterisk" unicode="*" horiz-adv-x="428" 
d="M455 542l-118 -29l54 -96l-89 -59l-46 101l-86 -101l-73 59l88 96l-104 29l48 95l100 -44l24 122h100l-24 -122l113 44z" />
    <glyph glyph-name="backslash" unicode="\" horiz-adv-x="406" 
d="M88 715h127l138 -715h-127z" />
    <glyph glyph-name="periodcentered" unicode="&#xb7;" horiz-adv-x="232" 
d="M119 225c-53 0 -88 37 -77 94c9 46 47 76 90 76c52 0 88 -38 77 -94c-9 -47 -48 -76 -90 -76z" />
    <glyph glyph-name="bullet" unicode="&#x2022;" horiz-adv-x="363" 
d="M173 170c-97 0 -146 72 -129 159c15 77 81 141 168 141c97 0 146 -72 129 -159c-15 -77 -81 -141 -168 -141z" />
    <glyph glyph-name="colon" unicode=":" horiz-adv-x="238" 
d="M137 301c-53 0 -88 37 -77 94c9 46 47 76 90 76c52 0 87 -38 77 -94c-10 -47 -48 -76 -90 -76zM76 -9c-53 0 -87 37 -76 94c9 46 47 76 90 76c52 0 87 -38 76 -94c-9 -47 -48 -76 -90 -76z" />
    <glyph glyph-name="comma" unicode="," horiz-adv-x="243" 
d="M80 -5c-57 -4 -94 31 -82 90c9 49 49 76 94 76c66 0 91 -50 75 -129c-21 -111 -95 -186 -203 -200l4 72c51 7 99 50 112 91z" />
    <glyph glyph-name="ellipsis" unicode="&#x2026;" horiz-adv-x="651" 
d="M73 -9c-53 0 -87 37 -76 94c9 46 47 76 90 76c52 0 87 -38 76 -94c-9 -47 -48 -76 -90 -76zM283 -9c-53 0 -87 37 -76 94c9 46 47 76 90 76c52 0 87 -38 76 -94c-9 -47 -48 -76 -90 -76zM493 -9c-53 0 -87 37 -76 94c9 46 47 76 90 76c52 0 87 -38 76 -94
c-9 -47 -48 -76 -90 -76z" />
    <glyph glyph-name="exclam" unicode="!" horiz-adv-x="262" 
d="M135 715h170l-29 -156l-109 -325h-80l19 325zM88 -9c-53 0 -87 37 -76 94c9 46 47 76 90 76c52 0 87 -38 76 -94c-9 -47 -48 -76 -90 -76z" />
    <glyph glyph-name="exclamdown" unicode="&#xa1;" horiz-adv-x="261" 
d="M182 594c52 0 87 -37 76 -94c-9 -46 -47 -76 -89 -76c-53 0 -88 38 -77 94c9 47 47 76 90 76zM-33 -130l30 156l108 325h80l-18 -325l-30 -156h-170z" />
    <glyph glyph-name="numbersign" unicode="#" horiz-adv-x="615" 
d="M587 392h-71l-49 -123h70l-48 -120h-72l-61 -149h-122l61 149h-90l-61 -149h-122l61 149h-75l49 120h76l49 123h-76l50 120h76l73 179h122l-73 -179h90l73 179h122l-73 -179h71zM345 269l49 123h-90l-49 -123h90z" />
    <glyph glyph-name="period" unicode="." horiz-adv-x="233" 
d="M74 -9c-53 0 -87 37 -76 94c9 46 47 76 90 76c52 0 87 -38 76 -94c-9 -47 -48 -76 -90 -76z" />
    <glyph glyph-name="question" unicode="?" horiz-adv-x="546" 
d="M224 497h-168c10 138 122 234 304 234c144 0 236 -93 220 -213c-10 -76 -64 -113 -142 -144c-91 -36 -107 -71 -121 -136h-128c0 79 -1 130 84 185c62 40 127 53 137 105c7 38 -27 66 -76 66c-60 0 -100 -34 -110 -97zM235 -9c-53 0 -87 37 -76 94c9 46 47 76 90 76
c52 0 87 -38 76 -94c-9 -47 -48 -76 -90 -76z" />
    <glyph glyph-name="questiondown" unicode="&#xbf;" horiz-adv-x="549" 
d="M326 596c53 0 87 -37 76 -94c-9 -46 -47 -76 -90 -76c-52 0 -87 38 -76 94c9 47 48 76 90 76zM337 90h168c-10 -138 -122 -234 -304 -234c-144 0 -236 93 -220 213c10 76 64 113 142 144c91 36 107 71 121 136h128c0 -79 1 -130 -84 -185c-62 -40 -127 -53 -137 -105
c-7 -38 27 -66 76 -66c60 0 100 34 110 97z" />
    <glyph glyph-name="quotedbl" unicode="&#x22;" horiz-adv-x="419" 
d="M127 715h140l-73 -269h-100zM327 715h140l-73 -269h-100z" />
    <glyph glyph-name="quotesingle" unicode="'" horiz-adv-x="219" 
d="M129 715h140l-73 -269h-100z" />
    <glyph glyph-name="semicolon" unicode=";" horiz-adv-x="248" 
d="M142 301c-53 0 -88 37 -77 94c9 46 47 76 90 76c52 0 87 -38 77 -94c-10 -47 -48 -76 -90 -76zM82 -5c-57 -4 -94 31 -82 90c9 49 49 76 94 76c66 0 91 -50 75 -129c-21 -111 -95 -186 -203 -200l4 72c51 7 99 50 112 91z" />
    <glyph glyph-name="slash" unicode="/" horiz-adv-x="436" 
d="M524 715l-416 -715h-133l416 715h133z" />
    <glyph glyph-name="underscore" unicode="_" horiz-adv-x="430" 
d="M-63 -55h436l-27 -137h-436z" />
    <glyph glyph-name="braceleft" unicode="{" horiz-adv-x="394" 
d="M45 388c54 -1 76 18 86 69l24 123c33 168 119 190 277 190h32l-27 -137h-22c-39 0 -84 -24 -99 -97l-22 -113c-11 -57 -32 -85 -84 -105l-11 -2c45 -20 64 -52 53 -110l-22 -113c-15 -77 13 -93 52 -93h32l-26 -137h-22c-158 0 -244 34 -211 202l24 123
c10 51 4 62 -51 62z" />
    <glyph glyph-name="braceright" unicode="}" horiz-adv-x="395" 
d="M391 388l-17 -138c-55 0 -77 -19 -87 -70l-24 -123c-32 -168 -119 -194 -277 -194h-32l26 137h22c39 0 85 24 100 101l22 113c11 58 33 86 84 106l11 2c-45 20 -64 52 -53 109l22 113c14 73 -14 89 -53 89h-32l27 137h22c158 0 244 -30 211 -198l-24 -123
c-9 -51 -4 -62 52 -61z" />
    <glyph glyph-name="bracketleft" unicode="[" horiz-adv-x="393" 
d="M156 770h307l-27 -137h-137l-123 -633h137l-26 -137h-307z" />
    <glyph glyph-name="bracketright" unicode="]" horiz-adv-x="394" 
d="M438 770l-176 -907h-307l26 137h137l123 633h-137l27 137h307z" />
    <glyph glyph-name="parenleft" unicode="(" horiz-adv-x="326" 
d="M276 774l143 -8c-76 -121 -151 -268 -188 -458c-34 -176 -22 -328 8 -449l-134 8c-43 101 -76 273 -40 459c35 182 128 347 211 448z" />
    <glyph glyph-name="parenright" unicode=")" horiz-adv-x="333" 
d="M250 766c43 -101 77 -266 40 -458c-34 -176 -129 -348 -211 -449l-144 8c77 121 153 273 189 459c35 180 21 327 -8 448z" />
    <glyph glyph-name="emdash" unicode="&#x2014;" horiz-adv-x="999" 
d="M112 321h800l-27 -137h-800z" />
    <glyph glyph-name="endash" unicode="&#x2013;" horiz-adv-x="585" 
d="M55 321h500l-27 -137h-500z" />
    <glyph glyph-name="hyphen" unicode="-" horiz-adv-x="334" 
d="M43 321h272l-27 -137h-272z" />
    <glyph glyph-name="guillemotleft" unicode="&#xab;" horiz-adv-x="405" 
d="M16 177l26 150l182 144l-26 -150l-91 -68l-2 -2l63 -68l-26 -150zM207 177l26 150l182 144l-26 -150l-91 -68l-2 -2l63 -68l-26 -150z" />
    <glyph glyph-name="guillemotright" unicode="&#xbb;" horiz-adv-x="405" 
d="M170 177l-182 -144l26 150l91 68l2 2l-63 68l26 150l126 -144zM361 177l-182 -144l26 150l91 68l2 2l-63 68l26 150l126 -144z" />
    <glyph glyph-name="guilsinglleft" unicode="&#x2039;" horiz-adv-x="262" 
d="M28 177l26 150l198 144l-26 -150l-98 -68l-2 -2l70 -68l-26 -150z" />
    <glyph glyph-name="guilsinglright" unicode="&#x203a;" horiz-adv-x="263" 
d="M206 177l-198 -144l26 150l99 68l1 2l-70 68l26 150l142 -144z" />
    <glyph glyph-name="quotedblbase" unicode="&#x201e;" horiz-adv-x="464" 
d="M79 -5c-57 -4 -94 31 -82 90c9 49 49 76 94 76c66 0 91 -50 75 -129c-21 -111 -95 -186 -203 -200l4 72c51 7 99 50 112 91zM299 -5c-57 -4 -94 31 -82 90c9 49 49 76 94 76c66 0 91 -50 75 -129c-21 -111 -95 -186 -203 -200l4 72c51 7 99 50 112 91z" />
    <glyph glyph-name="quotedblleft" unicode="&#x201c;" horiz-adv-x="466" 
d="M174 556c56 4 93 -31 82 -90c-10 -49 -49 -76 -94 -76c-66 0 -91 50 -76 129c22 111 95 186 204 200l-4 -72c-51 -7 -99 -50 -112 -91zM394 556c56 4 93 -31 82 -90c-10 -49 -49 -76 -94 -76c-66 0 -91 50 -76 129c22 111 95 186 204 200l-4 -72c-51 -7 -99 -50 -112 -91
z" />
    <glyph glyph-name="quotedblright" unicode="&#x201d;" horiz-adv-x="463" 
d="M187 558c-56 -4 -93 31 -82 90c10 49 49 76 94 76c66 0 91 -50 76 -129c-22 -111 -95 -186 -204 -200l4 72c51 7 99 50 112 91zM407 558c-56 -4 -93 31 -82 90c10 49 49 76 94 76c66 0 91 -50 76 -129c-22 -111 -95 -186 -204 -200l4 72c51 7 99 50 112 91z" />
    <glyph glyph-name="quoteleft" unicode="&#x2018;" horiz-adv-x="245" 
d="M173 556c56 4 93 -31 82 -90c-10 -49 -49 -76 -94 -76c-66 0 -91 50 -76 129c22 111 95 186 204 200l-4 -72c-51 -7 -99 -50 -112 -91z" />
    <glyph glyph-name="quoteright" unicode="&#x2019;" horiz-adv-x="244" 
d="M188 558c-56 -4 -93 31 -82 90c10 49 49 76 94 76c66 0 91 -50 76 -129c-22 -111 -95 -186 -204 -200l4 72c51 7 99 50 112 91z" />
    <glyph glyph-name="quotesinglbase" unicode="&#x201a;" horiz-adv-x="244" 
d="M79 -5c-57 -4 -94 31 -82 90c9 49 49 76 94 76c66 0 91 -50 75 -129c-21 -111 -95 -186 -203 -200l4 72c51 7 99 50 112 91z" />
    <glyph glyph-name="space" unicode=" " horiz-adv-x="170" 
 />
    <glyph glyph-name="cent" unicode="&#xa2;" horiz-adv-x="534" 
d="M536 317h-154c3 41 -7 78 -46 88l-58 -296c44 13 67 49 78 80h156c-30 -116 -126 -197 -258 -204l-18 -92h-60l18 93c-139 18 -207 128 -178 279c29 148 139 255 284 263l13 66h60l-13 -69c125 -15 185 -101 176 -208zM172 247c-15 -78 2 -127 46 -140l58 295
c-52 -17 -88 -72 -104 -155z" />
    <glyph glyph-name="currency" unicode="&#xa4;" horiz-adv-x="446" 
d="M441 340c-6 -31 -18 -64 -39 -92l49 -56l-98 -85l-47 57c-32 -13 -65 -19 -96 -19c-42 0 -73 10 -97 24l-74 -62l-72 85l74 64c-7 29 -11 61 -3 102c6 31 18 63 38 92l-48 56l98 85l47 -58c31 14 65 20 97 20c41 0 73 -9 96 -23l74 61l72 -85l-74 -63
c9 -29 11 -62 3 -103zM156 350c-13 -69 -4 -115 62 -115c55 0 94 54 105 113c13 69 4 115 -61 115c-56 0 -94 -54 -106 -113z" />
    <glyph glyph-name="dollar" unicode="$" horiz-adv-x="609" 
d="M572 171c-15 -120 -136 -182 -287 -187l-15 -87h-60l16 89c-138 12 -213 107 -223 235h168c7 -75 40 -88 77 -97l31 152c-151 39 -228 119 -203 246c23 117 132 173 279 179l16 59h60l-17 -61c140 -14 205 -96 205 -217h-167c2 40 -23 65 -59 77l-30 -137
c136 -47 227 -104 209 -251zM245 508c-6 -32 13 -52 62 -69l27 124c-46 -3 -81 -17 -89 -55zM308 121c53 3 88 22 95 56c8 43 -19 64 -68 81z" />
    <glyph glyph-name="Euro" unicode="&#x20ac;" horiz-adv-x="686" 
d="M349 121c85 0 117 56 137 128h169c-37 -158 -138 -265 -319 -265c-194 0 -259 118 -253 259h-54l11 70h49c1 11 2 20 4 29s3 14 5 21h-46l11 70h51c52 154 154 268 342 268c190 0 257 -115 234 -263h-168c10 78 -13 126 -87 126c-82 0 -122 -56 -151 -131h159l-11 -70
h-165c-3 -8 -6 -16 -8 -27c-2 -9 -3 -17 -3 -23h164l-11 -70h-160c-2 -78 31 -122 100 -122z" />
    <glyph glyph-name="sterling" unicode="&#xa3;" horiz-adv-x="580" 
d="M617 448h-169c15 77 -4 116 -78 116c-65 0 -102 -41 -112 -92c-7 -34 3 -66 15 -79h152l-10 -110h-121c0 -4 1 -10 -1 -21c-10 -51 -35 -81 -78 -111c15 5 30 8 43 8c65 0 79 -38 138 -38c35 0 70 28 99 49l44 -127c-59 -39 -97 -59 -161 -59c-96 0 -108 63 -170 63
c-47 0 -84 -16 -140 -49l-67 127c71 25 117 67 130 97c11 25 12 40 8 61h-97l18 110h51c-12 23 -27 59 -16 114c17 87 85 194 286 194c200 0 265 -108 236 -253z" />
    <glyph glyph-name="yen" unicode="&#xa5;" horiz-adv-x="645" 
d="M723 686l-285 -380h140l-12 -60h-165l-11 -58h165l-12 -60h-165l-25 -128h-170l25 128h-165l12 60h165l11 58h-165l12 60h144l-139 380h187l76 -271h2l182 271h193z" />
    <glyph glyph-name="plus" unicode="+" horiz-adv-x="564" 
d="M213 260h-174l27 138h174l35 181h138l-35 -181h174l-27 -138h-174l-35 -181h-138z" />
    <glyph glyph-name="minus" unicode="&#x2212;" horiz-adv-x="564" 
d="M65 395h486l-27 -137h-486z" />
    <glyph glyph-name="multiply" unicode="&#xd7;" horiz-adv-x="557" 
d="M558 472l-172 -143l116 -144l-112 -97l-116 144l-172 -144l-82 97l172 144l-116 143l112 97l116 -144l172 144z" />
    <glyph glyph-name="divide" unicode="&#xf7;" horiz-adv-x="564" 
d="M330 451c-53 0 -84 30 -74 82c8 41 39 64 82 64c52 0 84 -31 74 -82c-8 -42 -40 -64 -82 -64zM39 258l27 137h486l-27 -137h-486zM253 56c-53 0 -84 30 -74 82c8 41 40 64 83 64c52 0 83 -31 74 -82c-9 -42 -41 -64 -83 -64z" />
    <glyph glyph-name="equal" unicode="=" horiz-adv-x="560" 
d="M90 484h468l-26 -137h-468zM49 272h468l-27 -137h-468z" />
    <glyph glyph-name="notequal" unicode="&#x2260;" horiz-adv-x="555" 
d="M527 347h-170l-50 -75h205l-27 -137h-270l-51 -77h-103l51 77h-95l27 137h159l51 75h-195l26 137h261l52 79h103l-52 -79h104z" />
    <glyph glyph-name="greater" unicode="&#x3e;" horiz-adv-x="500" 
d="M8 62l25 137l300 109l-2 2l-254 109l26 137l378 -172l-28 -150z" />
    <glyph glyph-name="less" unicode="&#x3c;" horiz-adv-x="500" 
d="M419 62l-379 172l28 150l446 172l-26 -137l-300 -109l2 -2l254 -109z" />
    <glyph glyph-name="greaterequal" unicode="&#x2265;" horiz-adv-x="499" 
d="M21 130l26 137l291 75l1 2l-262 75l26 137l385 -138l-28 -150zM17 113h412l-23 -120h-412z" />
    <glyph glyph-name="lessequal" unicode="&#x2264;" horiz-adv-x="499" 
d="M431 130l-385 138l28 150l439 138l-26 -137l-292 -75l-1 -2l263 -75zM427 113l-23 -120h-412l23 120h412z" />
    <glyph glyph-name="plusminus" unicode="&#xb1;" horiz-adv-x="564" 
d="M49 305l26 137h174l27 137h138l-27 -137h174l-26 -137h-174l-27 -137h-138l27 137h-174zM13 120h486l-24 -120h-486z" />
    <glyph glyph-name="approxequal" unicode="&#x2248;" horiz-adv-x="550" 
d="M424 327c-73 0 -176 45 -217 45c-38 0 -57 -27 -61 -49l-98 8c23 118 66 171 142 171c73 0 176 -45 217 -45c38 0 56 27 61 49l98 -8c-23 -118 -66 -171 -142 -171zM382 112c-73 0 -176 45 -217 45c-38 0 -57 -27 -61 -49l-98 8c23 118 66 171 142 171
c73 0 176 -45 217 -45c38 0 57 27 61 49l98 -8c-23 -118 -66 -171 -142 -171z" />
    <glyph glyph-name="asciitilde" unicode="~" horiz-adv-x="452" 
d="M25 243c23 118 66 171 142 171c73 0 92 -45 133 -45c38 0 56 27 61 49l98 -8c-23 -118 -66 -171 -142 -171c-73 0 -93 45 -134 45c-38 0 -56 -27 -60 -49z" />
    <glyph glyph-name="logicalnot" unicode="&#xac;" horiz-adv-x="522" 
d="M314 293h-269l27 137h429l-58 -296h-160z" />
    <glyph glyph-name="emptyset" unicode="&#x2205;" horiz-adv-x="797" 
d="M743 578c40 -62 59 -143 40 -242c-41 -209 -226 -352 -427 -352c-95 0 -171 31 -224 80l-80 -68l-44 50l81 67c-41 61 -59 143 -40 241c41 209 227 353 428 353c95 0 171 -31 222 -80l81 68l44 -50zM116 336c-14 -68 -5 -131 23 -180l510 426c-42 37 -102 55 -166 55
c-171 0 -333 -122 -367 -301zM350 54c170 0 332 122 366 300c13 68 5 132 -23 181l-511 -426c43 -37 103 -55 168 -55z" />
    <glyph glyph-name="infinity" unicode="&#x221e;" horiz-adv-x="716" 
d="M24 314c24 123 114 177 196 177c79 0 128 -40 160 -88l2 6c49 48 108 82 177 82c92 0 169 -62 143 -195c-24 -121 -114 -177 -196 -177c-79 0 -124 52 -156 100l-2 -6c-50 -48 -112 -94 -181 -94c-92 0 -168 64 -143 195zM176 229c53 0 93 42 134 83
c-20 35 -42 69 -85 69c-53 0 -86 -42 -94 -85c-7 -33 2 -67 45 -67zM501 229c53 0 86 42 94 85c7 33 -2 67 -45 67c-53 0 -93 -42 -134 -83c20 -35 42 -69 85 -69z" />
    <glyph glyph-name="integral" unicode="&#x222b;" horiz-adv-x="455" 
d="M264 -4c-22 -115 -71 -173 -183 -173c-50 0 -89 5 -117 11l13 119c68 0 110 4 126 84l103 531c22 115 71 173 183 173c50 0 89 -5 117 -11l-13 -119c-68 0 -110 -4 -125 -84z" />
    <glyph glyph-name="product" unicode="&#x220f;" horiz-adv-x="591" 
d="M87 715h613l-158 -815h-170l132 678h-273l-132 -678h-170z" />
    <glyph glyph-name="summation" unicode="&#x2211;" horiz-adv-x="507" 
d="M-57 40l306 275l2 2l-200 259l25 139h540l-26 -137h-341l-1 -2l178 -222l-10 -70l-277 -245l-3 -2h358l-26 -137h-550z" />
    <glyph glyph-name="radical" unicode="&#x221a;" horiz-adv-x="695" 
d="M30 364h185l46 -262h2l295 613h173l-426 -815h-160l-63 327h-79z" />
    <glyph glyph-name="partialdiff" unicode="&#x2202;" horiz-adv-x="582" 
d="M416 404l7 10c-3 99 -59 164 -190 164l16 137c282 0 366 -183 322 -408c-30 -155 -132 -323 -340 -323c-156 0 -241 94 -212 242c25 127 141 245 259 245c84 0 119 -32 138 -67zM240 111c80 0 135 64 149 136c10 51 -4 97 -64 97c-79 0 -135 -64 -149 -135
c-10 -52 5 -98 64 -98z" />
    <glyph glyph-name="percent" unicode="%" horiz-adv-x="857" 
d="M217 306c-130 0 -176 96 -154 209c21 104 92 192 212 192c131 0 174 -96 152 -210c-20 -103 -89 -191 -210 -191zM745 691l-497 -691h-104l498 691h103zM224 396c46 0 61 38 75 109c15 81 4 112 -32 112c-46 0 -62 -39 -76 -110c-15 -81 -3 -111 33 -111zM616 -16
c-130 0 -175 96 -153 209c20 104 91 192 211 192c131 0 174 -96 152 -210c-20 -103 -89 -191 -210 -191zM624 74c46 0 60 38 74 109c16 81 5 112 -31 112c-46 0 -62 -39 -76 -110c-16 -81 -3 -111 33 -111z" />
    <glyph glyph-name="perthousand" unicode="&#x2030;" horiz-adv-x="1265" 
d="M210 306c-130 0 -176 96 -154 209c21 104 92 192 212 192c131 0 174 -96 152 -210c-20 -103 -89 -191 -210 -191zM738 691l-497 -691h-104l498 691h103zM217 396c46 0 61 38 75 109c15 81 4 112 -32 112c-46 0 -62 -39 -76 -110c-15 -81 -3 -111 33 -111zM609 -16
c-130 0 -175 96 -153 209c20 104 91 192 211 192c131 0 174 -96 152 -210c-20 -103 -89 -191 -210 -191zM1023 -16c-130 0 -175 96 -153 209c20 104 91 192 211 192c131 0 174 -96 152 -210c-20 -103 -89 -191 -210 -191zM617 74c46 0 60 38 74 109c16 81 5 112 -31 112
c-46 0 -62 -39 -76 -110c-16 -81 -3 -111 33 -111zM1031 74c46 0 60 38 74 109c16 81 5 112 -31 112c-46 0 -62 -39 -76 -110c-16 -81 -3 -111 33 -111z" />
    <glyph glyph-name="arrowup" unicode="&#x2191;" horiz-adv-x="680" 
d="M679 404l-91 -77l-141 160l-97 -487h-120l97 487l-201 -160l-67 77l362 287z" />
    <glyph glyph-name="uni2197" unicode="&#x2197;" horiz-adv-x="608" 
d="M563 179l-111 1l40 234l-410 -344l-72 85l410 344l-230 8l19 110l419 -16z" />
    <glyph glyph-name="arrowright" unicode="&#x2192;" horiz-adv-x="751" 
d="M390 10l-66 79l192 171h-485l23 120h489l-129 171l89 79l230 -310z" />
    <glyph glyph-name="uni2198" unicode="&#x2198;" horiz-adv-x="584" 
d="M619 465l-99 -422l-426 -16l24 110l237 8l-280 344l98 85l279 -344l55 234z" />
    <glyph glyph-name="arrowdown" unicode="&#x2193;" horiz-adv-x="680" 
d="M648 247l-362 -287l-258 287l91 77l141 -160l97 487h120l-97 -487l201 160z" />
    <glyph glyph-name="uni2199" unicode="&#x2199;" horiz-adv-x="584" 
d="M47 465l110 -1l-39 -234l409 344l72 -85l-410 -344l231 -8l-20 -110l-418 16z" />
    <glyph glyph-name="arrowleft" unicode="&#x2190;" horiz-adv-x="751" 
d="M273 10l-231 310l344 310l65 -79l-191 -171h485l-23 -120h-489l129 -171z" />
    <glyph glyph-name="uni2196" unicode="&#x2196;" horiz-adv-x="584" 
d="M-9 179l99 422l425 16l-23 -110l-238 -8l280 -344l-98 -85l-278 344l-56 -234z" />
    <glyph glyph-name="arrowboth" unicode="&#x2194;" horiz-adv-x="1140" 
d="M892 630l230 -310l-342 -310l-66 79l192 171h-673l129 -171l-89 -80l-231 310l344 311l65 -79l-191 -171h672l-128 171z" />
    <glyph glyph-name="arrowupdn" unicode="&#x2195;" horiz-adv-x="680" 
d="M354 27l200 160l68 -77l-363 -287l-257 287l90 77l142 -160l111 555l-200 -160l-68 77l363 287l257 -287l-90 -77l-142 160z" />
    <glyph glyph-name="lozenge" unicode="&#x25ca;" horiz-adv-x="596" 
d="M34 357l268 358h161l135 -358l-269 -357h-161zM273 137l155 220l-68 221l-156 -221l67 -220h2z" />
    <glyph glyph-name="at" unicode="@" horiz-adv-x="898" 
d="M644 79c-71 0 -140 34 -158 85l-4 -8c-29 -47 -65 -73 -124 -73c-91 0 -152 78 -125 221c26 133 119 213 210 213c69 0 91 -34 102 -71l4 4l19 60h138l-82 -255c-22 -68 -6 -86 27 -86c63 0 113 51 134 160c30 155 -43 296 -244 296c-192 0 -361 -149 -397 -331
c-37 -192 50 -312 242 -312c68 0 125 10 189 34l27 -83c-74 -36 -145 -41 -214 -41c-268 0 -399 168 -350 420c43 222 252 403 500 403c277 0 385 -189 344 -401c-34 -175 -125 -235 -238 -235zM395 193c70 0 103 56 117 131c11 55 4 83 -36 83c-50 0 -97 -46 -113 -131
c-9 -45 -8 -83 32 -83z" />
    <glyph glyph-name="ampersand" unicode="&#x26;" horiz-adv-x="689" 
d="M640 0h-196l-23 38c-60 -35 -127 -54 -198 -54c-170 0 -240 87 -218 201c21 106 105 153 197 198c-33 55 -63 100 -48 175c17 86 104 172 238 173c137 1 206 -95 188 -191c-14 -77 -73 -123 -181 -173l73 -107c27 30 43 64 53 94h142c-22 -79 -61 -146 -121 -212z
M386 594c-49 0 -81 -30 -88 -64c-5 -27 12 -50 37 -84c55 33 89 63 97 102c5 24 -5 46 -46 46zM250 121c38 0 69 10 99 24l-93 152c-52 -33 -72 -65 -78 -98c-8 -42 11 -78 72 -78z" />
    <glyph glyph-name="paragraph" unicode="&#xb6;" horiz-adv-x="595" 
d="M287 335h-37c-135 0 -200 71 -176 196c23 115 105 184 240 184h318l-139 -715h-100l122 625h-71l-122 -625h-100z" />
    <glyph glyph-name="section" unicode="&#xa7;" horiz-adv-x="624" 
d="M600 259c-13 -63 -54 -114 -129 -145c21 -27 38 -66 27 -126c-19 -98 -107 -165 -246 -165c-172 0 -226 87 -212 185l158 -8c-5 -49 6 -67 59 -67c42 0 74 20 81 57c9 44 -39 68 -93 99c-123 57 -232 89 -209 206c12 63 53 114 128 145c-21 27 -38 66 -27 126
c19 98 107 165 246 165c172 0 226 -87 212 -185l-157 8c4 49 -7 67 -60 67c-42 0 -74 -20 -81 -57c-9 -44 39 -68 93 -99c123 -57 232 -89 210 -206zM364 188c38 14 68 31 75 66c13 67 -140 103 -168 113c-48 -14 -77 -29 -84 -65c-13 -65 152 -108 177 -114z" />
    <glyph glyph-name="copyright" unicode="&#xa9;" horiz-adv-x="796" 
d="M375 -16c-231 0 -367 173 -321 412c37 189 185 335 406 335c231 0 366 -174 320 -413c-37 -189 -184 -334 -405 -334zM375 34c200 0 316 134 349 302c38 199 -73 345 -263 345c-201 0 -317 -134 -350 -303c-39 -198 73 -344 264 -344zM502 415c2 34 -11 68 -59 68
c-60 0 -91 -50 -107 -135c-15 -74 8 -116 58 -116c58 0 74 39 86 69h128c-25 -99 -102 -168 -218 -168c-139 0 -209 96 -183 233c25 126 117 216 242 216c128 0 188 -77 179 -167h-126z" />
    <glyph glyph-name="registered" unicode="&#xae;" horiz-adv-x="513" 
d="M275 247c-139 0 -239 117 -211 261c26 134 136 223 265 223c139 0 238 -117 211 -261c-27 -134 -136 -223 -265 -223zM275 297c116 0 185 70 208 192c22 111 -47 193 -153 193c-116 0 -186 -70 -209 -191c-22 -112 48 -194 154 -194zM177 360l51 260h118
c57 0 91 -30 80 -84c-6 -30 -24 -49 -57 -56l-11 -1c63 -11 20 -112 34 -116l4 -3l-63 3c-11 11 29 88 -27 88h-46l-18 -91h-65zM282 567l-12 -63h40c26 0 48 14 53 40c3 17 -5 23 -31 23h-50z" />
    <glyph glyph-name="trademark" unicode="&#x2122;" horiz-adv-x="719" 
d="M180 625h-78l17 90h246l-17 -90h-78l-36 -185h-90zM402 715h120l25 -145h2l82 145h123l-53 -275h-92l34 175h-1l-85 -175h-65l-16 175h-3l-34 -175h-90z" />
    <glyph glyph-name="degree" unicode="&#xb0;" horiz-adv-x="363" 
d="M222 424c-102 0 -151 76 -135 163c15 77 82 144 174 144c101 0 152 -75 135 -162c-15 -77 -83 -145 -174 -145zM227 504c36 0 71 25 81 73c11 58 -16 74 -52 74s-71 -24 -81 -72c-11 -58 16 -75 52 -75z" />
    <glyph glyph-name="bar" unicode="|" horiz-adv-x="78" 
d="M91 754h110l-174 -892h-110z" />
    <glyph glyph-name="brokenbar" unicode="&#xa6;" horiz-adv-x="51" 
d="M58 754h110l-72 -370h-110zM-41 245h110l-75 -383h-110z" />
    <glyph glyph-name="dagger" unicode="&#x2020;" horiz-adv-x="588" 
d="M232 375h-176l27 137h176l39 203h170l-39 -203h175l-27 -137h-175l-107 -552h-170z" />
    <glyph glyph-name="daggerdbl" unicode="&#x2021;" horiz-adv-x="586" 
d="M169 55h-176l27 137h176l35 183h-176l27 137h176l39 203h170l-39 -203h175l-27 -137h-175l-35 -183h175l-27 -137h-175l-45 -232h-170z" />
    <glyph glyph-name="asciicircum" unicode="^" horiz-adv-x="465" 
d="M260 715h120l114 -275h-146l-51 135h-1l-102 -135h-154z" />
    <glyph glyph-name="uni0308" unicode="&#x308;" 
d="M-320 659c7 36 36 67 80 67c54 0 79 -39 70 -85c-7 -36 -35 -67 -79 -67c-55 0 -80 39 -71 85zM-105 659c7 36 36 67 80 67c54 0 79 -39 70 -85c-7 -36 -35 -67 -79 -67c-55 0 -80 39 -71 85z" />
    <glyph glyph-name="uni0307" unicode="&#x307;" 
d="M-105 659c7 36 36 67 80 67c54 0 79 -39 70 -85c-7 -36 -35 -67 -79 -67c-55 0 -80 39 -71 85z" />
    <glyph glyph-name="gravecomb" unicode="&#x300;" 
d="M16 720l16 -140h-117l-76 140h177z" />
    <glyph glyph-name="acutecomb" unicode="&#x301;" 
d="M-121 720h183l-130 -140h-123z" />
    <glyph glyph-name="uni030B" unicode="&#x30b;" 
d="M-341 720h183l-130 -140h-123zM-121 720h183l-130 -140h-123z" />
    <glyph glyph-name="uni0302" unicode="&#x302;" 
d="M-339 580l134 140h156l80 -140h-135l-32 69h-2l-58 -69h-143z" />
    <glyph glyph-name="uni030C" unicode="&#x30c;" 
d="M-308 720h135l32 -69h2l58 69h143l-134 -140h-156z" />
    <glyph glyph-name="uni0306" unicode="&#x306;" 
d="M-118 574c-96 0 -155 61 -141 150l90 -8c-3 -29 12 -44 50 -44c48 0 79 23 88 52l91 -8c-21 -86 -90 -142 -178 -142z" />
    <glyph glyph-name="uni030A" unicode="&#x30a;" 
d="M-61 569c-60 0 -104 42 -91 109c11 56 60 91 110 91c61 0 105 -43 91 -109c-12 -57 -59 -91 -110 -91zM-60 624c30 0 47 20 51 44c6 34 -14 46 -34 46c-29 0 -46 -20 -50 -44c-6 -34 14 -46 33 -46z" />
    <glyph glyph-name="tildecomb" unicode="&#x303;" 
d="M-295 598c18 97 51 131 103 131c51 0 88 -38 121 -38c32 0 47 23 51 42l81 -8c-19 -98 -51 -131 -103 -131c-51 0 -88 37 -121 37c-32 0 -48 -23 -51 -41z" />
    <glyph glyph-name="uni0304" unicode="&#x304;" 
d="M-230 700h286l-19 -100h-286z" />
    <glyph glyph-name="uni0312" unicode="&#x312;" 
d="M-24 688c46 14 74 -21 66 -64c-7 -33 -28 -55 -62 -55c-56 0 -81 44 -70 98c12 61 56 109 149 118l2 -47c-40 -5 -75 -24 -85 -50z" />
    <glyph glyph-name="uni0326" unicode="&#x326;" 
d="M-174 -166c-46 -14 -74 21 -66 62c6 31 36 57 70 57c53 0 72 -44 62 -98c-12 -61 -56 -109 -149 -118l-2 47c40 5 75 24 85 50z" />
    <glyph glyph-name="uni0327" unicode="&#x327;" 
d="M-148 -10l-45 -42l-8 -2c58 6 113 -19 102 -76c-8 -43 -68 -68 -134 -68c-52 0 -87 14 -114 31l29 31c18 -9 42 -13 61 -13c23 0 57 12 62 38c2 14 -9 18 -25 18c-18 0 -30 -5 -40 -9l-19 26l68 66h63z" />
    <glyph glyph-name="uni0328" unicode="&#x328;" 
d="M-185 -177c-80 0 -117 34 -106 93c8 42 47 71 82 86l108 -5c-35 -22 -70 -35 -70 -61c0 -10 9 -19 27 -19c15 0 30 4 45 8l-8 -92c-25 -6 -55 -10 -78 -10z" />
    <glyph glyph-name="uni0335" unicode="&#x335;" 
d="M1 415l-18 -90h-448l18 90h448z" />
    <glyph glyph-name="uni0336" unicode="&#x336;" 
d="M4 433l-28 -147h-540l28 147h540z" />
    <glyph glyph-name="uni0337" unicode="&#x337;" 
d="M-610 30l30 -43l594 495l-31 42z" />
    <glyph glyph-name="uni0338" unicode="&#x338;" 
d="M-610 30l30 -43l594 495l-31 42z" />
    <glyph glyph-name="acute" unicode="&#xb4;" horiz-adv-x="483" 
d="M300 720h183l-130 -140h-123z" />
    <glyph glyph-name="breve" unicode="&#x2d8;" horiz-adv-x="495" 
d="M334 574c-96 0 -155 61 -141 150l90 -8c-3 -29 12 -44 50 -44c48 0 79 23 88 52l91 -8c-21 -86 -90 -142 -178 -142z" />
    <glyph glyph-name="caron" unicode="&#x2c7;" horiz-adv-x="498" 
d="M154 720h135l32 -69h2l58 69h143l-134 -140h-156z" />
    <glyph glyph-name="cedilla" unicode="&#xb8;" horiz-adv-x="508" 
d="M238 -10l-45 -42l-8 -2c58 6 113 -19 102 -76c-8 -43 -68 -68 -134 -68c-52 0 -87 14 -114 31l29 31c18 -9 42 -13 61 -13c23 0 57 12 62 38c2 14 -9 18 -25 18c-18 0 -30 -5 -40 -9l-19 26l68 66h63z" />
    <glyph glyph-name="circumflex" unicode="&#x2c6;" horiz-adv-x="498" 
d="M121 580l134 140h156l80 -140h-135l-32 69h-2l-58 -69h-143z" />
    <glyph glyph-name="dieresis" unicode="&#xa8;" horiz-adv-x="489" 
d="M137 659c7 36 36 67 80 67c54 0 79 -39 70 -85c-7 -36 -35 -67 -79 -67c-55 0 -80 39 -71 85zM352 659c7 36 36 67 80 67c54 0 79 -39 70 -85c-7 -36 -35 -67 -79 -67c-55 0 -80 39 -71 85z" />
    <glyph glyph-name="dotaccent" unicode="&#x2d9;" horiz-adv-x="485" 
d="M243 659c7 36 36 67 80 67c54 0 79 -39 70 -85c-7 -36 -35 -67 -79 -67c-55 0 -80 39 -71 85z" />
    <glyph glyph-name="grave" unicode="`" horiz-adv-x="468" 
d="M349 720l16 -140h-117l-76 140h177z" />
    <glyph glyph-name="hungarumlaut" unicode="&#x2dd;" horiz-adv-x="550" 
d="M223 720h183l-130 -140h-123zM443 720h183l-130 -140h-123z" />
    <glyph glyph-name="macron" unicode="&#xaf;" horiz-adv-x="496" 
d="M194 700h286l-19 -100h-286z" />
    <glyph glyph-name="ogonek" unicode="&#x2db;" horiz-adv-x="503" 
d="M191 -177c-80 0 -117 34 -106 93c8 42 47 71 82 86l108 -5c-35 -22 -70 -35 -70 -61c0 -10 9 -19 27 -19c15 0 30 4 45 8l-8 -92c-25 -6 -55 -10 -78 -10z" />
    <glyph glyph-name="ring" unicode="&#x2da;" horiz-adv-x="488" 
d="M315 569c-60 0 -104 42 -91 109c11 56 60 91 110 91c61 0 105 -43 91 -109c-12 -57 -59 -91 -110 -91zM316 624c30 0 47 20 51 44c6 34 -14 46 -34 46c-29 0 -46 -20 -50 -44c-6 -34 14 -46 33 -46z" />
    <glyph glyph-name="tilde" unicode="&#x2dc;" horiz-adv-x="504" 
d="M152 598c18 97 51 131 103 131c51 0 88 -38 121 -38c32 0 47 23 51 42l81 -8c-19 -98 -51 -131 -103 -131c-51 0 -88 37 -121 37c-32 0 -48 -23 -51 -41z" />
    <glyph glyph-name="logo" horiz-adv-x="938" 
d="M848 639c58 0 125 -47 106 -146c-14 -74 -74 -125 -139 -125c55 0 103 -59 87 -143c-17 -89 -91 -128 -139 -128c-36 0 -52 11 -68 17c2 -15 11 -34 4 -70c-9 -48 -61 -115 -150 -115c-84 0 -132 59 -121 115c-13 -64 -73 -115 -147 -115c-99 0 -132 75 -121 133
c4 22 12 38 23 49c-12 -8 -28 -14 -50 -14c-58 0 -126 47 -106 146c15 74 75 125 140 125c-55 0 -103 59 -87 143c17 89 90 128 138 128c36 0 52 -11 68 -17c-1 15 -10 34 -3 70c9 48 60 115 149 115c84 0 132 -59 122 -115c12 64 72 115 146 115c99 0 132 -75 121 -133
c-4 -23 -12 -39 -24 -50c12 9 29 15 51 15zM485 620c15 78 -9 97 -45 97c-41 0 -76 -22 -86 -70c-4 -19 -1 -34 1 -47c5 4 12 4 15 4c34 0 63 -35 55 -78c-6 -34 -39 -62 -73 -62c-43 0 -72 33 -63 80c-1 -3 -2 0 2 4c-8 8 -22 11 -41 11c-41 0 -77 -30 -85 -71
c-7 -36 5 -65 83 -65h123c52 0 80 22 90 74zM867 506c6 31 -10 53 -41 53c-29 0 -48 -9 -63 -24c-4 1 -4 -1 -6 -9c-9 -37 -38 -62 -71 -62c-44 0 -73 36 -65 80c6 33 39 60 73 60c8 0 15 4 16 8c12 9 23 24 29 53c8 38 -10 52 -41 52c-46 0 -90 -27 -105 -105l-24 -123
c-10 -52 0 -66 52 -66h123c78 0 114 37 123 83zM412 247c10 52 0 66 -52 66h-123c-78 0 -113 -37 -122 -83c-6 -31 10 -53 41 -53c29 0 48 9 64 25c3 -2 3 1 4 8c7 37 38 62 71 62c44 0 75 -36 66 -80c-7 -33 -39 -60 -73 -60c-7 0 -17 -4 -17 -8c-10 -9 -24 -24 -29 -53
c-7 -38 11 -52 42 -52c46 0 89 27 104 105zM816 248c7 36 -5 65 -83 65h-123c-52 0 -79 -22 -89 -74l-24 -123c-15 -78 9 -97 45 -97c41 0 75 22 85 70c4 19 3 34 0 47c-5 -4 -13 -4 -15 -4c-34 0 -65 35 -56 78c7 34 39 62 73 62c40 0 61 -113 64 -87c9 -6 22 -8 39 -8
c41 0 76 30 84 71zM693 192c0 1 1 1 0 -1v1zM690 187c2 2 3 3 3 4v-6c-1 1 -2 1 -3 2z" />
    </font>
</defs>
</svg>
