<?xml version="1.0" standalone="no"?>
<!DOCTYPE svg PUBLIC "-//W3C//DTD SVG 1.1//EN" "http://www.w3.org/Graphics/SVG/1.1/DTD/svg11.dtd" >
<svg xmlns="http://www.w3.org/2000/svg" xmlns:xlink="http://www.w3.org/1999/xlink" version="1.1">
<metadata>
Created by FontForge 20201107 at Mon Mar  7 17:19:31 2011
 By Unknown
Copyright (c) 2011 by Ryoichi Tsunekawa. All rights reserved.
</metadata>
<defs>
<font id="DharmaGothicE-Bold" horiz-adv-x="343" >
  <font-face 
    font-family="Dharma Gothic E Bold"
    font-weight="700"
    font-stretch="normal"
    units-per-em="1000"
    panose-1="4 5 6 3 2 11 2 2 2 2"
    ascent="800"
    descent="-200"
    x-height="552"
    cap-height="700"
    bbox="-34 -206 1000 853"
    underline-thickness="32"
    underline-position="-144"
    unicode-range="U+0020-FB02"
  />
<missing-glyph horiz-adv-x="380" 
d="M347 0h-314v700h314v-700zM61 28h259v644h-259v-644z" />
    <glyph glyph-name="fi" unicode="fi" horiz-adv-x="358" 
d="M5 467v85h35v23q0 72 24 98.5t90 26.5h39v-80h-18q-20 0 -27.5 -8t-7.5 -35v-25h53v-85h-51v-467h-102v467h-35zM329 552v-552h-102v552h102zM227 608v92h102v-92h-102z" />
    <glyph glyph-name="fl" unicode="fl" horiz-adv-x="358" 
d="M5 467v85h35v23q0 72 24 98.5t90 26.5h39v-80h-18q-20 0 -27.5 -8t-7.5 -35v-25h53v-85h-51v-467h-102v467h-35zM329 0h-102v700h102v-700z" />
    <glyph glyph-name=".notdef" horiz-adv-x="380" 
d="M347 0h-314v700h314v-700zM61 28h259v644h-259v-644z" />
    <glyph glyph-name=".null" horiz-adv-x="0" 
 />
    <glyph glyph-name="nonmarkingreturn" horiz-adv-x="333" 
 />
    <glyph glyph-name="space" unicode=" " horiz-adv-x="137" 
 />
    <glyph glyph-name="exclam" unicode="!" horiz-adv-x="171" 
d="M142 482l-19 -307h-75l-19 307v218h113v-218zM28 0v133h115v-133h-115z" />
    <glyph glyph-name="quotedbl" unicode="&#x22;" horiz-adv-x="286" 
d="M270 624l-14 -146h-78l-14 146v76h106v-76zM123 624l-14 -146h-78l-14 146v76h106v-76z" />
    <glyph glyph-name="numbersign" unicode="#" 
d="M315 700l-8 -119h32l-7 -94h-32l-17 -250h32l-6 -94h-33l-10 -143h-88l9 143h-64l-9 -143h-89l9 143h-30l6 94h31l18 250h-32l6 94h32l9 119h89l-9 -119h64l9 119h88zM148 487l-18 -250h64l17 250h-63z" />
    <glyph glyph-name="dollar" unicode="$" 
d="M214 -25h-86v45q-58 4 -78 31.5t-20 99.5v111h98v-95q0 -28 6 -37.5t28 -9.5h14q21 0 27 9.5t6 37.5v31q0 33 -12.5 54t-62.5 61q-65 52 -84.5 87t-19.5 91v58q0 71 20.5 99t77.5 31v46h86v-46q58 -2 79 -30t21 -100v-98h-98v82q0 28 -6 37.5t-28 9.5h-14q-22 0 -28 -9.5
t-6 -37.5v-32q0 -33 13 -54t63 -61q65 -52 84.5 -87t19.5 -91v-57q0 -72 -21 -100t-79 -31v-45z" />
    <glyph glyph-name="percent" unicode="%" horiz-adv-x="579" 
d="M160 0l229 700h31l-230 -700h-30zM341 93v255q0 56 18.5 76.5t70.5 20.5h39q51 0 70 -20.5t19 -76.5v-255q0 -56 -19 -77t-70 -21h-39q-52 0 -70.5 21t-18.5 77zM418 334v-227q0 -23 5 -31t22 -8h9q17 0 22 8t5 31v227q0 22 -5 30t-22 8h-9q-17 0 -22 -8t-5 -30zM21 353
v255q0 56 18.5 76.5t70.5 20.5h39q51 0 70 -20.5t19 -76.5v-255q0 -56 -19 -77t-70 -21h-39q-52 0 -70.5 21t-18.5 77zM98 594v-227q0 -23 5 -31t22 -8h9q17 0 22 8t5 31v227q0 22 -5 30t-22 8h-9q-17 0 -22 -8t-5 -30z" />
    <glyph glyph-name="ampersand" unicode="&#x26;" horiz-adv-x="372" 
d="M234 0q-9 18 -13 68q-14 -73 -90 -73h-24q-49 0 -67 24t-18 84v129q0 64 15 95t54 40q-40 10 -54.5 40.5t-14.5 95.5v55q0 83 26.5 112.5t101.5 29.5h93v-106h-72q-24 0 -30 -10t-6 -41v-72q0 -31 6 -41.5t30 -10.5h47v84h102v-84h49v-104h-49v-189q0 -81 17 -126h-103z
M135 264v-116q0 -28 5.5 -38t26.5 -10h13q38 0 38 58v157h-47q-24 0 -30 -10t-6 -41z" />
    <glyph glyph-name="quotesingle" unicode="'" horiz-adv-x="171" 
d="M139 624l-14 -146h-78l-14 146v76h106v-76z" />
    <glyph glyph-name="parenleft" unicode="(" horiz-adv-x="212" 
d="M28 57v526q0 74 23 100.5t90 26.5h54v-86h-34q-21 0 -26.5 -9.5t-5.5 -36.5v-516q0 -27 5.5 -36.5t26.5 -9.5h34v-86h-54q-67 0 -90 26.5t-23 100.5z" />
    <glyph glyph-name="parenright" unicode=")" horiz-adv-x="212" 
d="M184 583v-526q0 -74 -23 -100.5t-90 -26.5h-54v86h34q21 0 26.5 9.5t5.5 36.5v516q0 27 -5.5 36.5t-26.5 9.5h-34v86h54q67 0 90 -26.5t23 -100.5z" />
    <glyph glyph-name="asterisk" unicode="*" horiz-adv-x="330" 
d="M4 497l115 42l-115 43l44 75l93 -78l-20 121h88l-21 -121l93 78l45 -75l-116 -43l116 -42l-45 -76l-92 77l20 -120h-88l20 120l-93 -77z" />
    <glyph glyph-name="plus" unicode="+" 
d="M127 511h88v-115h102v-92h-102v-116h-88v116h-101v92h101v115z" />
    <glyph glyph-name="comma" unicode="," horiz-adv-x="171" 
d="M28 0v144h115v-144l-100 -93l-6 6l63 87h-72z" />
    <glyph glyph-name="hyphen" unicode="-" horiz-adv-x="226" 
d="M208 307v-77h-190v77h190z" />
    <glyph glyph-name="period" unicode="." horiz-adv-x="171" 
d="M28 0v144h115v-144h-115z" />
    <glyph glyph-name="slash" unicode="/" 
d="M1 -20l241 740h100l-241 -740h-100z" />
    <glyph glyph-name="zero" unicode="0" 
d="M317 574v-448q0 -77 -24 -104t-94 -27h-55q-70 0 -94 27t-24 104v448q0 77 24 104t94 27h55q70 0 94 -27t24 -104zM131 558v-416q0 -28 6 -38t28 -10h13q22 0 28 10t6 38v416q0 28 -6 38t-28 10h-13q-22 0 -28 -10t-6 -38z" />
    <glyph glyph-name="one" unicode="1" horiz-adv-x="173" 
d="M140 0h-105v647q19 0 37.5 17.5t18.5 35.5h49v-700z" />
    <glyph glyph-name="two" unicode="2" horiz-adv-x="335" 
d="M211 545v13q0 28 -6 38t-28 10h-13q-22 0 -28 -10t-6 -38v-107h-99v123q0 77 24 104t94 27h49q70 0 94 -27t24 -104v-36q0 -75 -21 -121t-87 -125q-49 -60 -66 -96t-17 -95v-3h191v-98h-295v107q0 76 21 121.5t86 124.5q50 60 66.5 96t16.5 96z" />
    <glyph glyph-name="three" unicode="3" horiz-adv-x="330" 
d="M121 558v-81h-98v97q0 77 24 104t94 27h49q69 0 93 -27t24 -104v-82q0 -57 -12.5 -85.5t-44.5 -38.5q32 -10 44.5 -38.5t12.5 -85.5v-118q0 -77 -24 -104t-93 -27h-49q-70 0 -94 27t-24 104v134h98v-118q0 -28 6.5 -38t27.5 -10h14q21 0 27.5 10t6.5 38v129q0 28 -6.5 38
t-27.5 10h-97v99h97q22 0 28 9.5t6 37.5v93q0 28 -6.5 38t-27.5 10h-14q-22 0 -28 -10t-6 -38z" />
    <glyph glyph-name="four" unicode="4" horiz-adv-x="326" 
d="M164 700h112v-493h49v-89h-49v-118h-105v118h-166v81zM94 207h77v117q0 99 9 213q-34 -150 -52 -213z" />
    <glyph glyph-name="five" unicode="5" horiz-adv-x="332" 
d="M125 375v-62h-99v387h271v-98h-172v-133q16 59 83 59h24q46 0 62.5 -23t16.5 -80v-299q0 -77 -24.5 -104t-93.5 -27h-49q-70 0 -94 27t-24 104v134h99v-118q0 -28 6 -38t28 -10h13q22 0 28 10t6 38v243q0 27 -5.5 36.5t-25.5 9.5h-13q-37 0 -37 -56z" />
    <glyph glyph-name="six" unicode="6" horiz-adv-x="340" 
d="M317 363v-237q0 -77 -24 -104t-94 -27h-55q-70 0 -94 27t-24 104v448q0 77 24 104t94 27h49q70 0 94 -27t24 -104v-73h-99v57q0 28 -6 38t-28 10h-13q-22 0 -28 -10t-6 -38v-151q18 59 83 59h24q46 0 62.5 -22.5t16.5 -80.5zM181 369h-13q-37 0 -37 -56v-171q0 -28 6 -38
t28 -10h13q22 0 28 10t6 38v181q0 27 -5.5 36.5t-25.5 9.5z" />
    <glyph glyph-name="seven" unicode="7" horiz-adv-x="301" 
d="M159 0h-115l156 602h-197v98h294v-89z" />
    <glyph glyph-name="eight" unicode="8" horiz-adv-x="336" 
d="M195 -5h-54q-70 0 -94 27t-24 104v122q0 57 12.5 85.5t44.5 38.5q-32 10 -44.5 38.5t-12.5 86.5v77q0 77 24 104t94 27h54q70 0 94.5 -27t24.5 -104v-77q0 -58 -13 -86.5t-46 -38.5q33 -10 46 -38.5t13 -85.5v-122q0 -77 -24.5 -104t-94.5 -27zM209 142v134q0 28 -6 37.5
t-28 9.5h-13q-22 0 -28 -9.5t-6 -37.5v-134q0 -28 6 -38t28 -10h13q22 0 28 10t6 38zM209 470v88q0 28 -6 38t-28 10h-13q-22 0 -28 -10t-6 -38v-88q0 -28 6 -37.5t28 -9.5h13q22 0 28 9.5t6 37.5z" />
    <glyph glyph-name="nine" unicode="9" horiz-adv-x="340" 
d="M175 94q22 0 28 10t6 38v161q-18 -59 -84 -59h-24q-45 0 -61.5 22.5t-16.5 80.5v227q0 77 24 104t94 27h55q70 0 94 -27t24 -104v-448q0 -77 -24 -104t-94 -27h-49q-70 0 -94 27t-24 104v83h99v-67q0 -28 6 -38t28 -10h13zM128 558v-171q0 -27 5.5 -36.5t25.5 -9.5h13
q37 0 37 56v161q0 28 -6 38t-28 10h-13q-22 0 -28 -10t-6 -38z" />
    <glyph glyph-name="colon" unicode=":" horiz-adv-x="171" 
d="M28 378v144h115v-144h-115zM28 0v144h115v-144h-115z" />
    <glyph glyph-name="semicolon" unicode=";" horiz-adv-x="171" 
d="M28 0v144h115v-144l-100 -93l-6 6l63 87h-72zM28 378v144h115v-144h-115z" />
    <glyph glyph-name="less" unicode="&#x3c;" 
d="M145 350l172 -154h-121l-170 154l170 153h121z" />
    <glyph glyph-name="equal" unicode="=" 
d="M317 484v-91h-291v91h291zM317 307v-91h-291v91h291z" />
    <glyph glyph-name="greater" unicode="&#x3e;" 
d="M26 196l172 154l-172 153h121l170 -153l-170 -154h-121z" />
    <glyph glyph-name="question" unicode="?" horiz-adv-x="320" 
d="M89 0v150h112v-150h-112zM197 540v18q0 28 -6 38t-28 10h-13q-22 0 -28 -10t-6 -38v-107h-99v123q0 77 24 104t94 27h49q70 0 94 -27t24 -105v-43q0 -48 -11.5 -84t-28 -57.5t-33 -41.5t-28 -48.5t-11.5 -65.5v-35h-90v31q0 48 10 83.5t24.5 57.5t28.5 43t24 53t10 74z
" />
    <glyph glyph-name="at" unicode="@" horiz-adv-x="538" 
d="M382 505l-34 -363q-2 -28 24 -28h2q79 0 79 199v84q0 111 -39 161t-133 50h-4q-95 0 -139.5 -51.5t-44.5 -183.5v-166q0 -69 16.5 -115.5t48.5 -70.5t68.5 -33t86.5 -9q68 0 103 12v-58q-37 -11 -104 -11q-286 0 -286 291v160q0 294 251 294h4q231 0 231 -270v-95
q0 -134 -39 -183.5t-104 -49.5h-6q-50 0 -64 36q-17 -36 -66 -36h-18q-63 0 -56 73l27 299q4 38 18 53.5t43 15.5h17q45 0 53 -34l13 29h52zM281 148l26 287q3 26 -23 26h-9q-19 0 -21 -22l-27 -299q-2 -22 17 -22h5q29 0 32 30z" />
    <glyph glyph-name="A" unicode="A" horiz-adv-x="353" 
d="M231 0l-13 99h-97l-12 -99h-101l91 700h155l90 -700h-113zM137 220l-2 -21h70l-2 21q-27 276 -33 392q-10 -150 -33 -392z" />
    <glyph glyph-name="B" unicode="B" horiz-adv-x="369" 
d="M31 0v700h186q75 0 101.5 -29.5t26.5 -112.5v-59q0 -60 -13 -90t-46 -41q33 -11 46 -41t13 -90v-95q0 -83 -26.5 -112.5t-101.5 -29.5h-186zM196 315h-52v-209h52q24 0 30 10t6 41v107q0 30 -6.5 40.5t-29.5 10.5zM232 472v71q0 31 -6 41t-30 10h-52v-173h52
q23 0 29.5 10.5t6.5 40.5z" />
    <glyph glyph-name="C" unicode="C" horiz-adv-x="362" 
d="M141 548v-396q0 -31 6 -41t30 -10h16q24 0 30 10t6 41v140h106v-155q0 -83 -26 -112.5t-101 -29.5h-52q-76 0 -102 29.5t-26 112.5v426q0 83 26 112.5t102 29.5h52q75 0 101 -29.5t26 -112.5v-125h-106v110q0 31 -6 41t-30 10h-16q-24 0 -30 -10t-6 -41z" />
    <glyph glyph-name="D" unicode="D" horiz-adv-x="375" 
d="M33 0v700h186q75 0 101.5 -29.5t26.5 -112.5v-416q0 -83 -26.5 -112.5t-101.5 -29.5h-186zM146 106h52q24 0 30 10t6 41v386q0 31 -6 41t-30 10h-52v-488z" />
    <glyph glyph-name="E" unicode="E" horiz-adv-x="290" 
d="M146 594v-176h103v-106h-103v-206h127v-106h-240v700h240v-106h-127z" />
    <glyph glyph-name="F" unicode="F" horiz-adv-x="272" 
d="M146 594v-186h98v-106h-98v-302h-113v700h234v-106h-121z" />
    <glyph glyph-name="G" unicode="G" horiz-adv-x="363" 
d="M185 292v106h150v-261q0 -83 -26 -112.5t-101 -29.5h-52q-76 0 -102 29.5t-26 112.5v426q0 83 26 112.5t102 29.5h52q75 0 101 -29.5t26 -112.5v-107h-106v92q0 31 -6 41t-30 10h-16q-24 0 -30 -10t-6 -41v-396q0 -31 6 -41t30 -10h16q24 0 30 10t6 41v140h-44z" />
    <glyph glyph-name="H" unicode="H" horiz-adv-x="380" 
d="M146 0h-113v700h113v-282h88v282h113v-700h-113v312h-88v-312z" />
    <glyph glyph-name="I" unicode="I" horiz-adv-x="179" 
d="M33 0v700h113v-700h-113z" />
    <glyph glyph-name="J" unicode="J" horiz-adv-x="350" 
d="M118 292v-140q0 -31 6 -41t30 -10h16q24 0 30 10t6 41v548h113v-563q0 -83 -26.5 -112.5t-101.5 -29.5h-52q-75 0 -101 29.5t-26 112.5v155h106z" />
    <glyph glyph-name="K" unicode="K" horiz-adv-x="378" 
d="M33 0v700h113v-308q6 21 17 51l98 257h110l-131 -328l136 -372h-119l-94 264q-9 25 -17 55v-319h-113z" />
    <glyph glyph-name="L" unicode="L" horiz-adv-x="260" 
d="M33 0v700h113v-594h110v-106h-223z" />
    <glyph glyph-name="M" unicode="M" horiz-adv-x="502" 
d="M345 369l-53 -369h-94l-52 369q-3 21 -9.5 72.5t-8.5 70.5q2 -90 2 -143v-369h-98v700h167l40 -334q4 -34 10 -112q4 78 8 112l40 334h173v-700h-110v369q0 51 2 141q-4 -26 -9.5 -76.5t-7.5 -64.5z" />
    <glyph glyph-name="N" unicode="N" horiz-adv-x="383" 
d="M222 0l-74 341q-9 43 -23 132q5 -113 5 -132v-341h-98v700h143l61 -306q13 -64 22 -135q0 14 -2 61.5t-2 74.5v305h97v-700h-129z" />
    <glyph glyph-name="O" unicode="O" horiz-adv-x="370" 
d="M28 137v426q0 83 26 112.5t102 29.5h58q75 0 101.5 -29.5t26.5 -112.5v-426q0 -83 -26.5 -112.5t-101.5 -29.5h-58q-76 0 -102 29.5t-26 112.5zM229 152v396q0 31 -6 41t-30 10h-16q-24 0 -30 -10t-6 -41v-396q0 -31 6 -41t30 -10h16q24 0 30 10t6 41z" />
    <glyph glyph-name="P" unicode="P" horiz-adv-x="358" 
d="M33 0v700h183q75 0 101 -29.5t26 -112.5v-164q0 -83 -26 -112.5t-101 -29.5h-70v-252h-113zM146 358h48q24 0 30.5 10.5t6.5 40.5v134q0 31 -6.5 41t-30.5 10h-48v-236z" />
    <glyph glyph-name="Q" unicode="Q" horiz-adv-x="370" 
d="M28 137v426q0 83 26 112.5t102 29.5h58q75 0 101.5 -29.5t26.5 -112.5v-426q0 -72 -19.5 -103t-71.5 -37v-20q0 -26 7.5 -36t26.5 -10h24v-58h-49q-63 0 -85.5 21.5t-22.5 95.5v5q-74 1 -99 30.5t-25 111.5zM229 152v396q0 31 -6 41t-30 10h-16q-24 0 -30 -10t-6 -41
v-396q0 -31 6 -41t30 -10h16q24 0 30 10t6 41z" />
    <glyph glyph-name="R" unicode="R" horiz-adv-x="372" 
d="M345 218v-95q0 -80 16 -123h-117q-12 25 -12 109v128q0 33 -9 47.5t-36 14.5h-43v-299h-113v700h186q75 0 101.5 -29.5t26.5 -112.5v-75q0 -61 -13 -91t-47 -41q34 -11 47 -41.5t13 -91.5zM232 456v87q0 31 -6 41t-30 10h-52v-189h52q23 0 29.5 10.5t6.5 40.5z" />
    <glyph glyph-name="S" unicode="S" horiz-adv-x="347" 
d="M212 152v38q0 42 -16 66.5t-70 70.5q-61 53 -82 91t-21 107v38q0 83 26 112.5t101 29.5h48q75 0 101 -29.5t26 -112.5v-97h-106v82q0 31 -6.5 41t-29.5 10h-12q-24 0 -30 -9.5t-6 -39.5v-24q0 -42 16 -66t70 -71q61 -54 82.5 -91.5t21.5 -106.5v-54q0 -83 -26 -112.5
t-101 -29.5h-48q-75 0 -101 29.5t-26 112.5v117h105v-102q0 -31 6 -41t30 -10h13q23 0 29 10t6 41z" />
    <glyph glyph-name="T" unicode="T" horiz-adv-x="269" 
d="M191 0h-113v595h-75v105h263v-105h-75v-595z" />
    <glyph glyph-name="U" unicode="U" horiz-adv-x="369" 
d="M144 700v-548q0 -31 6 -41t30 -10h16q24 0 30 10t6 41v548h106v-563q0 -83 -26 -112.5t-101 -29.5h-52q-75 0 -101.5 29.5t-26.5 112.5v563h113z" />
    <glyph glyph-name="V" unicode="V" horiz-adv-x="347" 
d="M122 700l33 -266q13 -104 25 -280q10 158 26 280l33 266h101l-91 -700h-149l-91 700h113z" />
    <glyph glyph-name="W" unicode="W" horiz-adv-x="538" 
d="M262 268l-26 -268h-143l-84 700h113l32 -302q16 -162 18 -217q4 91 17 217l32 302h110l32 -302q13 -133 16 -217q3 80 18 217l33 302h101l-84 -700h-137l-26 268q-7 68 -11 185q-4 -117 -11 -185z" />
    <glyph glyph-name="X" unicode="X" horiz-adv-x="352" 
d="M211 585l26 115h101l-80 -332l87 -368h-114l-32 142q-18 80 -30 160q-10 -76 -29 -160l-31 -142h-101l84 368l-81 332h114l26 -115q26 -114 30 -155q10 69 30 155z" />
    <glyph glyph-name="Y" unicode="Y" horiz-adv-x="339" 
d="M226 0h-112v221l-110 479h113l29 -139q23 -110 31 -200q7 88 30 200l28 139h101l-110 -479v-221z" />
    <glyph glyph-name="Z" unicode="Z" horiz-adv-x="294" 
d="M22 594v106h257v-97l-147 -497h147v-106h-265v97l147 497h-139z" />
    <glyph glyph-name="bracketleft" unicode="[" horiz-adv-x="218" 
d="M33 710h167v-86h-66v-608h66v-86h-167v780z" />
    <glyph glyph-name="backslash" unicode="\" 
d="M101 720l241 -740h-100l-241 740h100z" />
    <glyph glyph-name="bracketright" unicode="]" horiz-adv-x="218" 
d="M18 710h167v-780h-167v86h66v608h-66v86z" />
    <glyph glyph-name="asciicircum" unicode="^" 
d="M135 700h73l109 -279h-85l-60 160l-60 -160h-86z" />
    <glyph glyph-name="underscore" unicode="_" horiz-adv-x="500" 
d="M500 -12v-65h-500v65h500z" />
    <glyph glyph-name="grave" unicode="`" horiz-adv-x="171" 
d="M97 697l51 -117h-64l-77 117h90z" />
    <glyph glyph-name="a" unicode="a" horiz-adv-x="332" 
d="M23 183q0 56 17.5 86t70.5 50q64 25 77.5 38.5t13.5 59.5v1q0 27 -6 36.5t-26 9.5h-13q-20 0 -26 -9.5t-6 -36.5v-54h-95v67q0 74 23 100t90 26h47q67 0 90.5 -26t23.5 -100v-338q0 -60 8 -93h-97q-8 17 -9 63q-14 -68 -84 -68h-21q-45 0 -61.5 22t-16.5 77v89zM202 142
v126q-13 -7 -29 -13q-31 -12 -40 -26.5t-9 -48.5v-47q0 -26 6 -35.5t25 -9.5h12q35 0 35 54z" />
    <glyph glyph-name="b" unicode="b" horiz-adv-x="337" 
d="M209 419q0 26 -5.5 35.5t-24.5 9.5h-12q-35 0 -35 -54v-268q0 -54 35 -54h12q19 0 24.5 9.5t5.5 35.5v286zM132 700v-195q17 52 79 52h22q45 0 61.5 -22t16.5 -77v-364q0 -55 -16.5 -77t-61.5 -22h-22q-67 0 -83 62l-9 -57h-89v700h102z" />
    <glyph glyph-name="c" unicode="c" horiz-adv-x="326" 
d="M205 134v96h96v-108q0 -74 -23.5 -100.5t-89.5 -26.5h-49q-67 0 -90 26.5t-23 100.5v309q0 74 23 100t90 26h49q67 0 90 -26t23 -100v-99h-96v86q0 27 -6 36.5t-26 9.5h-13q-21 0 -27 -9.5t-6 -36.5v-284q0 -27 6 -36.5t27 -9.5h13q20 0 26 9.5t6 36.5z" />
    <glyph glyph-name="d" unicode="d" horiz-adv-x="337" 
d="M206 142v268q0 54 -36 54h-11q-20 0 -25.5 -9.5t-5.5 -35.5v-286q0 -26 5.5 -35.5t25.5 -9.5h11q36 0 36 54zM307 93q0 -56 9 -93h-97q-7 14 -10 61q-14 -66 -83 -66h-21q-45 0 -62 22t-17 77v364q0 55 17 77t62 22h21q63 0 80 -54v197h101v-607z" />
    <glyph glyph-name="e" unicode="e" horiz-adv-x="326" 
d="M205 134v56h96v-68q0 -74 -23.5 -100.5t-89.5 -26.5h-49q-67 0 -90 26.5t-23 100.5v309q0 74 23 100t90 26h49q67 0 90 -26t23 -100v-186h-174v-111q0 -27 6 -36.5t27 -9.5h13q20 0 26 9.5t6 36.5zM127 418v-88h78v88q0 27 -6 36.5t-26 9.5h-13q-21 0 -27 -9.5t-6 -36.5z
" />
    <glyph glyph-name="f" unicode="f" horiz-adv-x="197" 
d="M5 467v85h35v23q0 72 24 98.5t90 26.5h39v-80h-18q-20 0 -27.5 -8t-7.5 -35v-25h53v-85h-51v-467h-102v467h-35z" />
    <glyph glyph-name="g" unicode="g" horiz-adv-x="332" 
d="M121 428v-151q0 -27 5.5 -36.5t26.5 -9.5h13q20 0 26 9.5t6 36.5v151q0 27 -6 36.5t-26 9.5h-13q-21 0 -26.5 -9.5t-5.5 -36.5zM245 -35v6q0 18 -9 23.5t-32 5.5h-71q-20 0 -28.5 -7t-8.5 -24v-5q0 -20 8.5 -26t29.5 -6h70q23 0 32 6t9 27zM102 119v-1q0 -26 34 -26h69
q64 0 93.5 -19.5t29.5 -80.5v-15q0 -62 -27 -85.5t-95 -23.5h-97q-86 0 -86 78v18q0 43 33 58q-23 20 -23 66v8q0 48 31 65q-23 12 -32 38t-9 76v156q0 74 23 100t91 26h38q76 0 98 -38q5 38 40 38h16v-91h-17q-16 0 -16 -25v-166q0 -74 -23.5 -100.5t-90.5 -26.5h-51
q-16 0 -22.5 -6.5t-6.5 -22.5z" />
    <glyph glyph-name="h" unicode="h" horiz-adv-x="340" 
d="M179 464h-12q-35 0 -35 -54v-410h-102v700h102v-195q17 52 79 52h22q45 0 61.5 -22t16.5 -77v-458h-102v419q0 26 -5.5 35.5t-24.5 9.5z" />
    <glyph glyph-name="i" unicode="i" horiz-adv-x="162" 
d="M132 552v-552h-102v552h102zM30 608v92h102v-92h-102z" />
    <glyph glyph-name="j" unicode="j" horiz-adv-x="162" 
d="M30 552h102v-552q0 -74 -23 -100.5t-90 -26.5h-29v77h5q21 0 28 7.5t7 35.5v559zM30 608v92h102v-92h-102z" />
    <glyph glyph-name="k" unicode="k" horiz-adv-x="333" 
d="M132 251v-251h-102v700h102v-388q8 26 26 70l68 170h97l-111 -260l117 -292h-106l-70 186q-17 48 -21 65z" />
    <glyph glyph-name="l" unicode="l" horiz-adv-x="162" 
d="M132 0h-102v700h102v-700z" />
    <glyph glyph-name="m" unicode="m" horiz-adv-x="512" 
d="M132 0h-102v552h96v-69q13 74 85 74h18q36 0 53 -13.5t22 -45.5q18 59 82 59h19q45 0 61.5 -22t16.5 -77v-458h-102v419q0 26 -5.5 35.5t-24.5 9.5h-8q-36 0 -36 -54v-410h-101v419q0 26 -6 35.5t-25 9.5h-8q-35 0 -35 -54v-410z" />
    <glyph glyph-name="n" unicode="n" horiz-adv-x="340" 
d="M311 0h-102v419q0 26 -5.5 35.5t-24.5 9.5h-12q-35 0 -35 -54v-410h-102v552h96v-69q13 74 85 74h22q45 0 61.5 -22t16.5 -77v-458z" />
    <glyph glyph-name="o" unicode="o" horiz-adv-x="333" 
d="M307 431v-309q0 -74 -23.5 -100.5t-90.5 -26.5h-54q-67 0 -90 26.5t-23 100.5v309q0 74 23 100t90 26h54q67 0 90.5 -26t23.5 -100zM127 418v-284q0 -27 6 -36.5t27 -9.5h13q20 0 26 9.5t6 36.5v284q0 27 -6 36.5t-26 9.5h-13q-21 0 -27 -9.5t-6 -36.5z" />
    <glyph glyph-name="p" unicode="p" horiz-adv-x="337" 
d="M209 419q0 26 -5.5 35.5t-24.5 9.5h-12q-35 0 -35 -54v-268q0 -54 35 -54h12q19 0 24.5 9.5t5.5 35.5v286zM132 -127h-102v679h96v-69q13 74 85 74h22q45 0 61.5 -22t16.5 -77v-364q0 -55 -16.5 -77t-61.5 -22h-22q-61 0 -79 51v-173z" />
    <glyph glyph-name="q" unicode="q" horiz-adv-x="337" 
d="M206 142v268q0 54 -36 54h-11q-20 0 -25.5 -9.5t-5.5 -35.5v-286q0 -26 5.5 -35.5t25.5 -9.5h11q36 0 36 54zM307 552v-679h-101v176q-17 -54 -80 -54h-21q-45 0 -62 22t-17 77v364q0 55 17 77t62 22h21q67 0 83 -65l10 60h88z" />
    <glyph glyph-name="r" unicode="r" horiz-adv-x="210" 
d="M132 0h-102v552h96v-78q13 83 73 83h7v-109h-8q-36 0 -51 -22.5t-15 -75.5v-350z" />
    <glyph glyph-name="s" unicode="s" horiz-adv-x="320" 
d="M196 134v22q0 29 -14.5 45t-64.5 48q-55 34 -75 65.5t-20 85.5v31q0 74 23.5 100t90.5 26h48q67 0 90.5 -26t23.5 -100v-67h-96v54q0 27 -6 36.5t-26 9.5h-14q-20 0 -26 -9.5t-6 -36.5v-12q0 -29 14.5 -45t64.5 -48q55 -34 75 -65.5t20 -85.5v-40q0 -74 -23.5 -100.5
t-90.5 -26.5h-48q-67 0 -90.5 26.5t-23.5 100.5v76h96v-64q0 -27 5.5 -36.5t26.5 -9.5h14q20 0 26 9.5t6 36.5z" />
    <glyph glyph-name="t" unicode="t" horiz-adv-x="194" 
d="M5 467v85h35v120h102v-120h49v-85h-49v-341q0 -78 18 -126h-107q-13 27 -13 112v355h-35z" />
    <glyph glyph-name="u" unicode="u" horiz-adv-x="340" 
d="M310 93q0 -60 8 -93h-97q-7 14 -10 61q-14 -66 -83 -66h-21q-45 0 -62 22t-17 77v458h102v-419q0 -26 6 -35.5t25 -9.5h11q36 0 36 54v410h102v-459z" />
    <glyph glyph-name="v" unicode="v" horiz-adv-x="312" 
d="M108 552l26 -175q21 -142 28 -264q7 122 28 264l26 175h92l-86 -552h-132l-86 552h104z" />
    <glyph glyph-name="w" unicode="w" horiz-adv-x="493" 
d="M232 146l-17 -146h-138l-72 552h104l20 -160q14 -110 23 -272q10 153 27 271l22 161h103l22 -161q17 -118 27 -271q10 176 22 272l21 160h92l-73 -552h-132l-17 146q-15 123 -18 186q-5 -93 -16 -186z" />
    <glyph glyph-name="x" unicode="x" horiz-adv-x="308" 
d="M200 524l7 28h93l-69 -263l72 -289h-105l-10 46q-4 17 -14 60.5t-17 78t-10 59.5q-5 -42 -38 -198l-10 -46h-94l72 289l-69 263h105l7 -28q32 -129 40 -190q11 74 40 190z" />
    <glyph glyph-name="y" unicode="y" horiz-adv-x="312" 
d="M213 -40q-13 -87 -104 -87h-90v77h45q28 0 28 26v27l-88 549h104l26 -175q20 -128 28 -264q8 145 27 264l27 175h92z" />
    <glyph glyph-name="z" unicode="z" horiz-adv-x="277" 
d="M26 467v85h237v-77l-139 -390h139v-85h-248v76l139 391h-128z" />
    <glyph glyph-name="braceleft" unicode="{" horiz-adv-x="235" 
d="M21 276h-17v86h17q19 0 25 8.5t6 34.5v178q0 74 23 100.5t90 26.5h53v-86h-34q-20 0 -26 -9.5t-6 -36.5v-138q0 -57 -13 -84.5t-46 -36.5q33 -9 46 -36t13 -84v-137q0 -27 6 -36.5t26 -9.5h34v-86h-53q-67 0 -90 26.5t-23 100.5v176q0 26 -6 34.5t-25 8.5z" />
    <glyph glyph-name="bar" unicode="|" 
d="M219 700v-827h-96v827h96z" />
    <glyph glyph-name="braceright" unicode="}" horiz-adv-x="235" 
d="M231 276h-17q-19 0 -25 -8.5t-6 -34.5v-176q0 -74 -23 -100.5t-90 -26.5h-53v86h34q20 0 26 9.5t6 36.5v137q0 57 13 84t46 36q-33 9 -46 36.5t-13 84.5v138q0 27 -6 36.5t-26 9.5h-34v86h53q67 0 90 -26.5t23 -100.5v-178q0 -26 6 -34.5t25 -8.5h17v-86z" />
    <glyph glyph-name="asciitilde" unicode="~" 
d="M317 421v-95q-33 -46 -77 -46q-25 0 -74 21.5t-72 21.5q-39 0 -68 -44v94q33 46 76 46q25 0 74 -21.5t72 -21.5q40 0 69 45z" />
    <glyph glyph-name="uni00A0" unicode="&#xa0;" horiz-adv-x="137" 
 />
    <glyph glyph-name="exclamdown" unicode="&#xa1;" horiz-adv-x="171" 
d="M29 91l19 307h75l19 -307v-218h-113v218zM143 573v-133h-115v133h115z" />
    <glyph glyph-name="cent" unicode="&#xa2;" 
d="M213 208v96h96v-108q0 -71 -20.5 -98t-77.5 -29v-69h-81v69q-56 3 -76 30t-20 97v309q0 69 20 96t76 29v70h81v-69q57 -2 77.5 -29t20.5 -97v-99h-96v86q0 27 -6 36.5t-26 9.5h-13q-21 0 -26.5 -9.5t-5.5 -36.5v-284q0 -27 5.5 -36.5t26.5 -9.5h13q20 0 26 9.5t6 36.5z
" />
    <glyph glyph-name="sterling" unicode="&#xa3;" 
d="M299 215h-105q-8 -72 -60 -117h175v-98h-288v89q40 30 57 57.5t21 68.5h-68v73h63q-4 16 -22.5 57t-29.5 85.5t-11 98.5v45q0 77 24 104t93 27h50q70 0 93.5 -27t23.5 -104v-166h-98v150q0 28 -6 38t-28 10h-14q-21 0 -27.5 -10t-6.5 -38v-30q0 -54 10 -98t26 -83.5
t20 -58.5h108v-73z" />
    <glyph glyph-name="currency" unicode="&#xa4;" 
d="M50 349q0 39 20 68l-51 46l39 40l46 -53q31 21 67 21q38 0 68 -22l47 54l39 -40l-53 -46q22 -30 22 -68q0 -36 -21 -67l52 -46l-39 -39l-46 51q-31 -20 -69 -20q-37 0 -68 20l-45 -51l-39 39l51 46q-20 29 -20 67zM100 349q0 -29 21 -50.5t50 -21.5q30 0 51 21.5t21 50.5
q0 30 -21 51.5t-51 21.5q-29 0 -50 -21.5t-21 -51.5z" />
    <glyph glyph-name="yen" unicode="&#xa5;" 
d="M206 561l26 139h94l-95 -443h89v-34h-96v-63h96v-34h-96v-126h-105v126h-96v34h96v63h-96v34h88l-94 443h105l27 -139q22 -106 28 -200q8 87 29 200z" />
    <glyph glyph-name="brokenbar" unicode="&#xa6;" 
d="M219 700v-382h-96v382h96zM219 255v-382h-96v382h96z" />
    <glyph glyph-name="section" unicode="&#xa7;" horiz-adv-x="329" 
d="M122 32q0 -27 5.5 -37t26.5 -10h14q21 0 26.5 10t5.5 37v10q0 28 -13 44t-58 38q-62 30 -84.5 60t-22.5 79v84q0 72 49 90q-29 24 -38.5 50t-9.5 66v22q0 76 24 103t94 27h49q69 0 93 -27t24 -103v-50h-99v46q0 27 -6 37t-27 10h-14q-21 0 -26.5 -10t-5.5 -37v-10
q0 -28 13 -44t58 -38q62 -30 84.5 -60t22.5 -79v-84q0 -71 -50 -91q30 -23 39.5 -49.5t9.5 -65.5v-22q0 -76 -24 -103t-93 -27h-50q-69 0 -93 27t-24 103v50h100v-46zM204 314q0 26 -8.5 40.5t-38.5 33.5q-20 0 -26 -8t-6 -29v-62q0 -27 8.5 -41.5t38.5 -32.5q20 0 26 8
t6 29v62z" />
    <glyph glyph-name="dieresis" unicode="&#xa8;" horiz-adv-x="171" 
d="M193 593h-88v90h88v-90zM66 593h-89v90h89v-90z" />
    <glyph glyph-name="copyright" unicode="&#xa9;" horiz-adv-x="553" 
d="M520 460v-220q0 -130 -48 -187.5t-178 -57.5h-36q-129 0 -177 57.5t-48 187.5v220q0 130 48 187.5t177 57.5h36q130 0 178 -57.5t48 -187.5zM96 460v-220q0 -106 35 -146.5t128 -40.5h35q93 0 127.5 40.5t34.5 146.5v220q0 106 -34.5 146.5t-127.5 40.5h-35
q-93 0 -128 -40.5t-35 -146.5zM246 476v-252q0 -22 5 -29t22 -7h8q16 0 21.5 7.5t5.5 28.5v88h65v-99q0 -52 -17.5 -70.5t-65.5 -18.5h-32q-47 0 -64 18.5t-17 70.5v275q0 52 17 70t64 18h32q48 0 65.5 -18t17.5 -70v-81h-65v69q0 21 -5.5 28.5t-21.5 7.5h-8q-17 0 -22 -7
t-5 -29z" />
    <glyph glyph-name="ordfeminine" unicode="&#xaa;" horiz-adv-x="256" 
d="M96 599v-30h-71v41q0 56 17.5 75.5t67.5 19.5h35q51 0 68 -19.5t17 -75.5v-229q0 -45 8 -68h-70q-8 11 -8 58q-8 -63 -65 -63h-15q-33 0 -46.5 17.5t-13.5 58.5v54q0 39 13.5 60.5t53.5 36.5q48 18 58 28t10 40q-1 19 -5.5 25.5t-19.5 6.5h-9q-16 0 -20.5 -7.5
t-4.5 -28.5zM21 199v72h214v-72h-214zM155 418v74q-11 -8 -25 -13q-22 -8 -28 -18.5t-6 -31.5v-17q0 -20 4.5 -27.5t18.5 -7.5h9q27 0 27 41z" />
    <glyph glyph-name="guillemotleft" unicode="&#xab;" 
d="M102 76l-98 200l98 200h95l-94 -200l94 -200h-95zM245 76l-93 200l93 200h94l-89 -200l89 -200h-94z" />
    <glyph glyph-name="logicalnot" unicode="&#xac;" 
d="M230 304h-204v92h291v-208h-87v116z" />
    <glyph glyph-name="uni00AD" unicode="&#xad;" horiz-adv-x="226" 
d="M208 307v-77h-190v77h190z" />
    <glyph glyph-name="registered" unicode="&#xae;" horiz-adv-x="553" 
d="M520 460v-220q0 -130 -48 -187.5t-178 -57.5h-36q-129 0 -177 57.5t-48 187.5v220q0 130 48 187.5t177 57.5h36q130 0 178 -57.5t48 -187.5zM96 460v-220q0 -106 35 -146.5t128 -40.5h35q93 0 127.5 40.5t34.5 146.5v220q0 106 -34.5 146.5t-127.5 40.5h-35
q-93 0 -128 -40.5t-35 -146.5zM379 482v-56q0 -72 -39 -85q39 -13 39 -84v-43q0 -51 11 -85h-73q-7 15 -7 75v69q0 36 -31 36h-30v-180h-69v442h117q48 0 65 -18.5t17 -70.5zM283 507h-34v-133h34q16 0 21.5 7.5t5.5 28.5v61q0 21 -5.5 28.5t-21.5 7.5z" />
    <glyph glyph-name="macron" unicode="&#xaf;" horiz-adv-x="171" 
d="M188 596h-204v63h204v-63z" />
    <glyph glyph-name="degree" unicode="&#xb0;" horiz-adv-x="254" 
d="M127 689q52 0 82 -31t30 -83t-30.5 -83.5t-81.5 -31.5t-81.5 31.5t-30.5 83.5t30 83t82 31zM127 624q-21 0 -33.5 -13.5t-12.5 -35.5q0 -23 12 -36t34 -13t34 13t12 36q0 22 -12.5 35.5t-33.5 13.5z" />
    <glyph glyph-name="plusminus" unicode="&#xb1;" 
d="M317 226v-91h-291v91h291zM127 565h88v-110h102v-91h-102v-110h-88v110h-101v91h101v110z" />
    <glyph glyph-name="twosuperior" unicode="&#xb2;" horiz-adv-x="259" 
d="M99 594v-55h-72v69q0 56 18.5 76.5t69.5 20.5h35q52 0 70.5 -20.5t18.5 -76.5v-26q0 -22 -4.5 -41.5t-9 -31t-17 -26t-17 -18.5t-22 -18t-19.5 -16q-30 -24 -42 -41.5t-12 -48.5v-8h140v-73h-217v82q0 49 19.5 79.5t56.5 58.5q37 27 52 49t15 58v7q0 22 -5 30t-22 8h-9
q-17 0 -22 -8t-5 -30z" />
    <glyph glyph-name="threesuperior" unicode="&#xb3;" horiz-adv-x="259" 
d="M159 367v43q0 22 -5 30t-22 8h-65v73h65q17 0 22 8t5 30v35q0 22 -5 30t-22 8h-10q-17 0 -21.5 -7.5t-4.5 -30.5v-22h-73v36q0 56 19 76.5t70 20.5h35q51 0 70 -20.5t19 -76.5v-31q0 -44 -11 -65t-38 -28q27 -7 38 -28.5t11 -64.5v-38q0 -56 -19.5 -77t-69.5 -21h-35
q-51 0 -70 21t-19 77v38h73v-24q0 -23 4.5 -31t22.5 -8h9q17 0 22 8t5 31z" />
    <glyph glyph-name="acute" unicode="&#xb4;" horiz-adv-x="171" 
d="M24 580l51 117h89l-77 -117h-63z" />
    <glyph glyph-name="uni00B5" unicode="&#xb5;" horiz-adv-x="340" 
d="M130 -127h-102v679h102v-419q0 -26 6 -35.5t25 -9.5h11q36 0 36 54v410h102v-459q0 -60 8 -93h-97q-7 14 -10 61q-14 -65 -81 -66v-122z" />
    <glyph glyph-name="paragraph" unicode="&#xb6;" horiz-adv-x="431" 
d="M259 620v-717h-79v299h-38q-75 0 -101.5 29.5t-26.5 112.5v214q0 83 26.5 112.5t101.5 29.5h256v-797h-80v717h-59z" />
    <glyph glyph-name="periodcentered" unicode="&#xb7;" horiz-adv-x="171" 
d="M28 278v144h115v-144h-115z" />
    <glyph glyph-name="cedilla" unicode="&#xb8;" horiz-adv-x="171" 
d="M105 -81q0 16 -10 23t-37 6v56h35v-36q42 0 59.5 -10.5t17.5 -36.5q0 -13 -2.5 -20.5t-10.5 -16t-26.5 -12.5t-47.5 -4q-52 0 -66.5 12t-14.5 44h56q-1 -17 3 -23t19 -6q16 0 20.5 5t4.5 19z" />
    <glyph glyph-name="onesuperior" unicode="&#xb9;" horiz-adv-x="145" 
d="M112 260h-77v401q13 0 27 13t14 26h36v-440z" />
    <glyph glyph-name="ordmasculine" unicode="&#xba;" horiz-adv-x="254" 
d="M22 199v72h210v-72h-210zM22 404v206q0 56 17.5 75.5t66.5 19.5h42q50 0 67 -19.5t17 -75.5v-206q0 -56 -17 -76t-67 -20h-42q-49 0 -66.5 20t-17.5 76zM157 414v185q0 21 -4.5 28.5t-20.5 7.5h-9q-16 0 -20.5 -7.5t-4.5 -28.5v-185q0 -21 4.5 -28t20.5 -7h9q16 0 20.5 7
t4.5 28z" />
    <glyph glyph-name="guillemotright" unicode="&#xbb;" 
d="M339 276l-98 -200h-95l94 200l-94 200h95zM191 276l-93 -200h-94l89 200l-89 200h94z" />
    <glyph glyph-name="onequarter" unicode="&#xbc;" horiz-adv-x="449" 
d="M64 0l229 700h31l-230 -700h-30zM112 260h-77v401q13 0 27 13t14 26h36v-440zM326 440h80v-295h28v-66h-28v-79h-77v79h-125v61zM274 145h55v38q0 57 5 144q-26 -91 -46 -144z" />
    <glyph glyph-name="onehalf" unicode="&#xbd;" horiz-adv-x="483" 
d="M64 0l229 700h31l-230 -700h-30zM112 260h-77v401q13 0 27 13t14 26h36v-440zM323 334v-55h-72v69q0 56 18.5 76.5t69.5 20.5h35q52 0 70.5 -20.5t18.5 -76.5v-26q0 -22 -4.5 -41.5t-9 -31t-17 -26t-17 -18.5t-22 -18t-19.5 -16q-30 -24 -42 -41.5t-12 -48.5v-8h140v-73
h-217v82q0 49 19.5 79.5t56.5 58.5q37 27 52 49t15 58v7q0 22 -5 30t-22 8h-9q-17 0 -22 -8t-5 -30z" />
    <glyph glyph-name="threequarters" unicode="&#xbe;" horiz-adv-x="545" 
d="M160 0l229 700h31l-230 -700h-30zM422 440h80v-295h28v-66h-28v-79h-77v79h-125v61zM370 145h55v38q0 57 5 144q-26 -91 -46 -144zM159 367v43q0 22 -5 30t-22 8h-65v73h65q17 0 22 8t5 30v35q0 22 -5 30t-22 8h-10q-17 0 -21.5 -7.5t-4.5 -30.5v-22h-73v36q0 56 19 76.5
t70 20.5h35q51 0 70 -20.5t19 -76.5v-31q0 -44 -11 -65t-38 -28q27 -7 38 -28.5t11 -64.5v-38q0 -56 -19.5 -77t-69.5 -21h-35q-51 0 -70 21t-19 77v38h73v-24q0 -23 4.5 -31t22.5 -8h9q17 0 22 8t5 31z" />
    <glyph glyph-name="questiondown" unicode="&#xbf;" horiz-adv-x="320" 
d="M231 573v-150h-112v150h112zM123 33v-18q0 -28 6 -38t28 -10h13q22 0 28 10t6 38v107h99v-123q0 -77 -24 -104t-94 -27h-49q-70 0 -94 27t-24 105v43q0 48 11.5 84t28 57.5t33 41.5t28 48.5t11.5 65.5v35h90v-31q0 -48 -10 -83.5t-24.5 -57.5t-28.5 -43t-24 -53t-10 -74z
" />
    <glyph glyph-name="Agrave" unicode="&#xc0;" horiz-adv-x="353" 
d="M231 0l-13 99h-97l-12 -99h-101l91 700h155l90 -700h-113zM137 220l-2 -21h70l-2 21q-27 276 -33 392q-10 -150 -33 -392zM172 838l51 -117h-64l-77 117h90z" />
    <glyph glyph-name="Aacute" unicode="&#xc1;" horiz-adv-x="353" 
d="M231 0l-13 99h-97l-12 -99h-101l91 700h155l90 -700h-113zM137 220l-2 -21h70l-2 21q-27 276 -33 392q-10 -150 -33 -392zM131 721l51 117h89l-77 -117h-63z" />
    <glyph glyph-name="Acircumflex" unicode="&#xc2;" horiz-adv-x="353" 
d="M231 0l-13 99h-97l-12 -99h-101l91 700h155l90 -700h-113zM137 220l-2 -21h70l-2 21q-27 276 -33 392q-10 -150 -33 -392zM212 838l67 -117h-64l-39 59l-39 -59h-64l67 117h72z" />
    <glyph glyph-name="Atilde" unicode="&#xc3;" horiz-adv-x="353" 
d="M231 0l-13 99h-97l-12 -99h-101l91 700h155l90 -700h-113zM137 220l-2 -21h70l-2 21q-27 276 -33 392q-10 -150 -33 -392zM234 820h47q0 -49 -15 -68t-49 -19q-23 0 -47 12.5t-33 12.5q-11 0 -14.5 -5.5t-3.5 -19.5h-48q0 49 15 68t50 19q23 0 47 -13t33 -13q18 0 18 26z
" />
    <glyph glyph-name="Adieresis" unicode="&#xc4;" horiz-adv-x="353" 
d="M231 0l-13 99h-97l-12 -99h-101l91 700h155l90 -700h-113zM137 220l-2 -21h70l-2 21q-27 276 -33 392q-10 -150 -33 -392zM283 734h-88v90h88v-90zM156 734h-89v90h89v-90z" />
    <glyph glyph-name="Aring" unicode="&#xc5;" horiz-adv-x="353" 
d="M231 0l-13 99h-97l-12 -99h-101l91 700h155l90 -700h-113zM137 220l-2 -21h70l-2 21q-27 276 -33 392q-10 -150 -33 -392zM202 787q0 11 -7 18.5t-18 7.5t-18 -7.5t-7 -18.5t7 -18t18 -7t18 7t7 18zM109 787q0 29 19.5 47.5t48.5 18.5q28 0 47.5 -18.5t19.5 -47.5
t-19.5 -47t-47.5 -18q-29 0 -48.5 18t-19.5 47z" />
    <glyph glyph-name="AE" unicode="&#xc6;" horiz-adv-x="470" 
d="M5 0l159 700h289v-106h-127v-176h103v-106h-103v-206h127v-106h-240v99h-86l-21 -99h-101zM159 253l-11 -54h65v359q-20 -136 -54 -305z" />
    <glyph glyph-name="Ccedilla" unicode="&#xc7;" horiz-adv-x="362" 
d="M200 -81q0 16 -10 23t-37 6v47q-74 1 -99.5 30t-25.5 112v426q0 83 26 112.5t102 29.5h52q75 0 101 -29.5t26 -112.5v-125h-106v110q0 31 -6 41t-30 10h-16q-24 0 -30 -10t-6 -41v-396q0 -31 6 -41t30 -10h16q24 0 30 10t6 41v140h106v-155q0 -83 -26 -112.5t-101 -29.5
h-20v-27q42 0 59.5 -10.5t17.5 -36.5q0 -13 -2.5 -20.5t-10.5 -16t-26.5 -12.5t-47.5 -4q-52 0 -66.5 12t-14.5 44h56q-1 -17 3 -23t19 -6q16 0 20.5 5t4.5 19z" />
    <glyph glyph-name="Egrave" unicode="&#xc8;" horiz-adv-x="290" 
d="M146 594v-176h103v-106h-103v-206h127v-106h-240v700h240v-106h-127zM150 838l51 -117h-64l-77 117h90z" />
    <glyph glyph-name="Eacute" unicode="&#xc9;" horiz-adv-x="290" 
d="M146 594v-176h103v-106h-103v-206h127v-106h-240v700h240v-106h-127zM108 721l51 117h89l-77 -117h-63z" />
    <glyph glyph-name="Ecircumflex" unicode="&#xca;" horiz-adv-x="290" 
d="M146 594v-176h103v-106h-103v-206h127v-106h-240v700h240v-106h-127zM190 838l67 -117h-64l-39 59l-39 -59h-64l67 117h72z" />
    <glyph glyph-name="Edieresis" unicode="&#xcb;" horiz-adv-x="290" 
d="M146 594v-176h103v-106h-103v-206h127v-106h-240v700h240v-106h-127zM261 734h-88v90h88v-90zM134 734h-89v90h89v-90z" />
    <glyph glyph-name="Igrave" unicode="&#xcc;" horiz-adv-x="179" 
d="M33 0v700h113v-700h-113zM85 838l51 -117h-64l-77 117h90z" />
    <glyph glyph-name="Iacute" unicode="&#xcd;" horiz-adv-x="179" 
d="M33 0v700h113v-700h-113zM44 721l51 117h89l-77 -117h-63z" />
    <glyph glyph-name="Icircumflex" unicode="&#xce;" horiz-adv-x="179" 
d="M33 0v700h113v-700h-113zM126 838l67 -117h-64l-39 59l-39 -59h-64l67 117h72z" />
    <glyph glyph-name="Idieresis" unicode="&#xcf;" horiz-adv-x="179" 
d="M33 0v700h113v-700h-113zM197 734h-88v90h88v-90zM70 734h-89v90h89v-90z" />
    <glyph glyph-name="Eth" unicode="&#xd0;" horiz-adv-x="375" 
d="M33 0v326h-24v84h24v290h186q75 0 101.5 -29.5t26.5 -112.5v-416q0 -83 -26.5 -112.5t-101.5 -29.5h-186zM146 106h52q24 0 30 10t6 41v386q0 31 -6 41t-30 10h-52v-184h46v-84h-46v-220z" />
    <glyph glyph-name="Ntilde" unicode="&#xd1;" horiz-adv-x="383" 
d="M222 0l-74 341q-9 43 -23 132q5 -113 5 -132v-341h-98v700h143l61 -306q13 -64 22 -135q0 14 -2 61.5t-2 74.5v305h97v-700h-129zM250 820h47q0 -49 -15 -68t-49 -19q-23 0 -47 12.5t-33 12.5q-11 0 -14.5 -5.5t-3.5 -19.5h-48q0 49 15 68t50 19q23 0 47 -13t33 -13
q18 0 18 26z" />
    <glyph glyph-name="Ograve" unicode="&#xd2;" horiz-adv-x="370" 
d="M28 137v426q0 83 26 112.5t102 29.5h58q75 0 101.5 -29.5t26.5 -112.5v-426q0 -83 -26.5 -112.5t-101.5 -29.5h-58q-76 0 -102 29.5t-26 112.5zM229 152v396q0 31 -6 41t-30 10h-16q-24 0 -30 -10t-6 -41v-396q0 -31 6 -41t30 -10h16q24 0 30 10t6 41zM180 838l51 -117
h-64l-77 117h90z" />
    <glyph glyph-name="Oacute" unicode="&#xd3;" horiz-adv-x="370" 
d="M28 137v426q0 83 26 112.5t102 29.5h58q75 0 101.5 -29.5t26.5 -112.5v-426q0 -83 -26.5 -112.5t-101.5 -29.5h-58q-76 0 -102 29.5t-26 112.5zM229 152v396q0 31 -6 41t-30 10h-16q-24 0 -30 -10t-6 -41v-396q0 -31 6 -41t30 -10h16q24 0 30 10t6 41zM139 721l51 117h89
l-77 -117h-63z" />
    <glyph glyph-name="Ocircumflex" unicode="&#xd4;" horiz-adv-x="370" 
d="M28 137v426q0 83 26 112.5t102 29.5h58q75 0 101.5 -29.5t26.5 -112.5v-426q0 -83 -26.5 -112.5t-101.5 -29.5h-58q-76 0 -102 29.5t-26 112.5zM229 152v396q0 31 -6 41t-30 10h-16q-24 0 -30 -10t-6 -41v-396q0 -31 6 -41t30 -10h16q24 0 30 10t6 41zM221 838l67 -117
h-64l-39 59l-39 -59h-64l67 117h72z" />
    <glyph glyph-name="Otilde" unicode="&#xd5;" horiz-adv-x="370" 
d="M28 137v426q0 83 26 112.5t102 29.5h58q75 0 101.5 -29.5t26.5 -112.5v-426q0 -83 -26.5 -112.5t-101.5 -29.5h-58q-76 0 -102 29.5t-26 112.5zM229 152v396q0 31 -6 41t-30 10h-16q-24 0 -30 -10t-6 -41v-396q0 -31 6 -41t30 -10h16q24 0 30 10t6 41zM243 820h47
q0 -49 -15 -68t-49 -19q-23 0 -47 12.5t-33 12.5q-11 0 -14.5 -5.5t-3.5 -19.5h-48q0 49 15 68t50 19q23 0 47 -13t33 -13q18 0 18 26z" />
    <glyph glyph-name="Odieresis" unicode="&#xd6;" horiz-adv-x="370" 
d="M28 137v426q0 83 26 112.5t102 29.5h58q75 0 101.5 -29.5t26.5 -112.5v-426q0 -83 -26.5 -112.5t-101.5 -29.5h-58q-76 0 -102 29.5t-26 112.5zM229 152v396q0 31 -6 41t-30 10h-16q-24 0 -30 -10t-6 -41v-396q0 -31 6 -41t30 -10h16q24 0 30 10t6 41zM292 734h-88v90h88
v-90zM165 734h-89v90h89v-90z" />
    <glyph glyph-name="multiply" unicode="&#xd7;" 
d="M114 350l-87 92l58 60l86 -92l88 92l57 -60l-89 -92l89 -92l-57 -59l-88 91l-86 -91l-58 60z" />
    <glyph glyph-name="Oslash" unicode="&#xd8;" horiz-adv-x="370" 
d="M28 137v426q0 83 26 112.5t102 29.5h58q5 0 14.5 -0.5t13.5 -0.5l8 26h91l-19 -63q20 -29 20 -104v-426q0 -83 -26.5 -112.5t-101.5 -29.5h-58q-5 0 -15 0.5t-14 0.5l-7 -26h-92l18 64q-18 30 -18 103zM229 152v244l-75 -292q7 -3 23 -3h16q24 0 30 10t6 41zM141 548
v-240l73 288q-8 3 -21 3h-16q-24 0 -30 -10t-6 -41z" />
    <glyph glyph-name="Ugrave" unicode="&#xd9;" horiz-adv-x="369" 
d="M144 700v-548q0 -31 6 -41t30 -10h16q24 0 30 10t6 41v548h106v-563q0 -83 -26 -112.5t-101 -29.5h-52q-75 0 -101.5 29.5t-26.5 112.5v563h113zM180 838l51 -117h-64l-77 117h90z" />
    <glyph glyph-name="Uacute" unicode="&#xda;" horiz-adv-x="369" 
d="M144 700v-548q0 -31 6 -41t30 -10h16q24 0 30 10t6 41v548h106v-563q0 -83 -26 -112.5t-101 -29.5h-52q-75 0 -101.5 29.5t-26.5 112.5v563h113zM138 721l51 117h89l-77 -117h-63z" />
    <glyph glyph-name="Ucircumflex" unicode="&#xdb;" horiz-adv-x="369" 
d="M144 700v-548q0 -31 6 -41t30 -10h16q24 0 30 10t6 41v548h106v-563q0 -83 -26 -112.5t-101 -29.5h-52q-75 0 -101.5 29.5t-26.5 112.5v563h113zM220 838l67 -117h-64l-39 59l-39 -59h-64l67 117h72z" />
    <glyph glyph-name="Udieresis" unicode="&#xdc;" horiz-adv-x="369" 
d="M144 700v-548q0 -31 6 -41t30 -10h16q24 0 30 10t6 41v548h106v-563q0 -83 -26 -112.5t-101 -29.5h-52q-75 0 -101.5 29.5t-26.5 112.5v563h113zM291 734h-88v90h88v-90zM164 734h-89v90h89v-90z" />
    <glyph glyph-name="Yacute" unicode="&#xdd;" horiz-adv-x="339" 
d="M226 0h-112v221l-110 479h113l29 -139q23 -110 31 -200q7 88 30 200l28 139h101l-110 -479v-221zM128 721l51 117h89l-77 -117h-63z" />
    <glyph glyph-name="Thorn" unicode="&#xde;" horiz-adv-x="357" 
d="M33 0v700h113v-60h70q75 0 101 -29t26 -112v-150q0 -83 -26 -112.5t-101 -29.5h-70v-207h-113zM146 313h48q24 0 30.5 10.5t6.5 40.5v119q0 31 -6.5 41.5t-30.5 10.5h-48v-222z" />
    <glyph glyph-name="germandbls" unicode="&#xdf;" horiz-adv-x="336" 
d="M209 518v61q0 27 -6 36.5t-26 9.5h-14q-19 0 -25 -8t-6 -35v-582h-102v578q0 74 23.5 100.5t90.5 26.5h53q68 0 91 -26.5t23 -99.5v-35q0 -56 -12.5 -83t-44.5 -36q32 -10 44.5 -37t12.5 -82v-179q0 -74 -23 -100.5t-91 -26.5h-37v85h18q19 0 25 8.5t6 36.5v201
q0 27 -6 36.5t-26 9.5h-17v95h17q20 0 26 9.5t6 36.5z" />
    <glyph glyph-name="agrave" unicode="&#xe0;" horiz-adv-x="332" 
d="M23 183q0 56 17.5 86t70.5 50q64 25 77.5 38.5t13.5 59.5v1q0 27 -6 36.5t-26 9.5h-13q-20 0 -26 -9.5t-6 -36.5v-54h-95v67q0 74 23 100t90 26h47q67 0 90.5 -26t23.5 -100v-338q0 -60 8 -93h-97q-8 17 -9 63q-14 -68 -84 -68h-21q-45 0 -61.5 22t-16.5 77v89zM202 142
v126q-13 -7 -29 -13q-31 -12 -40 -26.5t-9 -48.5v-47q0 -26 6 -35.5t25 -9.5h12q35 0 35 54zM162 697l51 -117h-64l-77 117h90z" />
    <glyph glyph-name="aacute" unicode="&#xe1;" horiz-adv-x="332" 
d="M23 183q0 56 17.5 86t70.5 50q64 25 77.5 38.5t13.5 59.5v1q0 27 -6 36.5t-26 9.5h-13q-20 0 -26 -9.5t-6 -36.5v-54h-95v67q0 74 23 100t90 26h47q67 0 90.5 -26t23.5 -100v-338q0 -60 8 -93h-97q-8 17 -9 63q-14 -68 -84 -68h-21q-45 0 -61.5 22t-16.5 77v89zM202 142
v126q-13 -7 -29 -13q-31 -12 -40 -26.5t-9 -48.5v-47q0 -26 6 -35.5t25 -9.5h12q35 0 35 54zM121 580l51 117h89l-77 -117h-63z" />
    <glyph glyph-name="acircumflex" unicode="&#xe2;" horiz-adv-x="332" 
d="M23 183q0 56 17.5 86t70.5 50q64 25 77.5 38.5t13.5 59.5v1q0 27 -6 36.5t-26 9.5h-13q-20 0 -26 -9.5t-6 -36.5v-54h-95v67q0 74 23 100t90 26h47q67 0 90.5 -26t23.5 -100v-338q0 -60 8 -93h-97q-8 17 -9 63q-14 -68 -84 -68h-21q-45 0 -61.5 22t-16.5 77v89zM202 142
v126q-13 -7 -29 -13q-31 -12 -40 -26.5t-9 -48.5v-47q0 -26 6 -35.5t25 -9.5h12q35 0 35 54zM202 697l67 -117h-64l-39 59l-39 -59h-64l67 117h72z" />
    <glyph glyph-name="atilde" unicode="&#xe3;" horiz-adv-x="332" 
d="M23 183q0 56 17.5 86t70.5 50q64 25 77.5 38.5t13.5 59.5v1q0 27 -6 36.5t-26 9.5h-13q-20 0 -26 -9.5t-6 -36.5v-54h-95v67q0 74 23 100t90 26h47q67 0 90.5 -26t23.5 -100v-338q0 -60 8 -93h-97q-8 17 -9 63q-14 -68 -84 -68h-21q-45 0 -61.5 22t-16.5 77v89zM202 142
v126q-13 -7 -29 -13q-31 -12 -40 -26.5t-9 -48.5v-47q0 -26 6 -35.5t25 -9.5h12q35 0 35 54zM224 679h47q0 -49 -15 -68t-49 -19q-23 0 -47 12.5t-33 12.5q-11 0 -14.5 -5.5t-3.5 -19.5h-48q0 49 15 68t50 19q23 0 47 -13t33 -13q18 0 18 26z" />
    <glyph glyph-name="adieresis" unicode="&#xe4;" horiz-adv-x="332" 
d="M23 183q0 56 17.5 86t70.5 50q64 25 77.5 38.5t13.5 59.5v1q0 27 -6 36.5t-26 9.5h-13q-20 0 -26 -9.5t-6 -36.5v-54h-95v67q0 74 23 100t90 26h47q67 0 90.5 -26t23.5 -100v-338q0 -60 8 -93h-97q-8 17 -9 63q-14 -68 -84 -68h-21q-45 0 -61.5 22t-16.5 77v89zM202 142
v126q-13 -7 -29 -13q-31 -12 -40 -26.5t-9 -48.5v-47q0 -26 6 -35.5t25 -9.5h12q35 0 35 54zM273 593h-88v90h88v-90zM146 593h-89v90h89v-90z" />
    <glyph glyph-name="aring" unicode="&#xe5;" horiz-adv-x="332" 
d="M23 183q0 56 17.5 86t70.5 50q64 25 77.5 38.5t13.5 59.5v1q0 27 -6 36.5t-26 9.5h-13q-20 0 -26 -9.5t-6 -36.5v-54h-95v67q0 74 23 100t90 26h47q67 0 90.5 -26t23.5 -100v-338q0 -60 8 -93h-97q-8 17 -9 63q-14 -68 -84 -68h-21q-45 0 -61.5 22t-16.5 77v89zM202 142
v126q-13 -7 -29 -13q-31 -12 -40 -26.5t-9 -48.5v-47q0 -26 6 -35.5t25 -9.5h12q35 0 35 54zM192 646q0 11 -7 18.5t-18 7.5t-18 -7.5t-7 -18.5t7 -18t18 -7t18 7.5t7 17.5zM99 646q0 29 19.5 47.5t48.5 18.5q28 0 47.5 -18.5t19.5 -47.5t-19.5 -47t-47.5 -18
q-29 0 -48.5 18t-19.5 47z" />
    <glyph glyph-name="ae" unicode="&#xe6;" horiz-adv-x="502" 
d="M167 88q35 0 35 54v126q-13 -7 -29 -13q-31 -12 -40 -26.5t-9 -48.5v-47q0 -26 6 -35.5t25 -9.5h12zM23 183q0 56 17.5 86t70.5 50q64 23 77.5 37t13.5 61v1q0 27 -6 36.5t-26 9.5h-13q-20 0 -26 -9.5t-6 -36.5v-54h-95v67q0 74 23 100t90 26h13q44 0 66 -10.5t31 -36.5
q8 26 30 36.5t67 10.5h14q67 0 90 -26t23 -100v-186h-173v-111q0 -27 6 -36.5t26 -9.5h13q21 0 27 9.5t6 36.5v56h95v-68q0 -74 -23 -100.5t-90 -26.5h-48q-52 0 -77 15t-33 54q-13 -69 -84 -69h-21q-45 0 -61.5 22t-16.5 77v89zM382 330v88q0 27 -6 36.5t-27 9.5h-13
q-20 0 -26 -9.5t-6 -36.5v-88h78z" />
    <glyph glyph-name="ccedilla" unicode="&#xe7;" horiz-adv-x="326" 
d="M181 -81q0 16 -10 23t-37 6v47q-64 1 -86 27.5t-22 99.5v309q0 74 23 100t90 26h49q67 0 90 -26t23 -100v-99h-96v86q0 27 -6 36.5t-26 9.5h-13q-21 0 -27 -9.5t-6 -36.5v-284q0 -27 6 -36.5t27 -9.5h13q20 0 26 9.5t6 36.5v96h96v-108q0 -74 -23.5 -100.5t-89.5 -26.5
h-19v-27q42 0 59.5 -10.5t17.5 -36.5q0 -13 -2.5 -20.5t-10.5 -16t-26.5 -12.5t-47.5 -4q-52 0 -66.5 12t-14.5 44h56q-1 -17 3 -23t19 -6q16 0 20.5 5t4.5 19z" />
    <glyph glyph-name="egrave" unicode="&#xe8;" horiz-adv-x="326" 
d="M205 134v56h96v-68q0 -74 -23.5 -100.5t-89.5 -26.5h-49q-67 0 -90 26.5t-23 100.5v309q0 74 23 100t90 26h49q67 0 90 -26t23 -100v-186h-174v-111q0 -27 6 -36.5t27 -9.5h13q20 0 26 9.5t6 36.5zM127 418v-88h78v88q0 27 -6 36.5t-26 9.5h-13q-21 0 -27 -9.5t-6 -36.5z
M162 697l51 -117h-64l-77 117h90z" />
    <glyph glyph-name="eacute" unicode="&#xe9;" horiz-adv-x="326" 
d="M205 134v56h96v-68q0 -74 -23.5 -100.5t-89.5 -26.5h-49q-67 0 -90 26.5t-23 100.5v309q0 74 23 100t90 26h49q67 0 90 -26t23 -100v-186h-174v-111q0 -27 6 -36.5t27 -9.5h13q20 0 26 9.5t6 36.5zM127 418v-88h78v88q0 27 -6 36.5t-26 9.5h-13q-21 0 -27 -9.5t-6 -36.5z
M121 580l51 117h89l-77 -117h-63z" />
    <glyph glyph-name="ecircumflex" unicode="&#xea;" horiz-adv-x="326" 
d="M205 134v56h96v-68q0 -74 -23.5 -100.5t-89.5 -26.5h-49q-67 0 -90 26.5t-23 100.5v309q0 74 23 100t90 26h49q67 0 90 -26t23 -100v-186h-174v-111q0 -27 6 -36.5t27 -9.5h13q20 0 26 9.5t6 36.5zM127 418v-88h78v88q0 27 -6 36.5t-26 9.5h-13q-21 0 -27 -9.5t-6 -36.5z
M202 697l67 -117h-64l-39 59l-39 -59h-64l67 117h72z" />
    <glyph glyph-name="edieresis" unicode="&#xeb;" horiz-adv-x="326" 
d="M205 134v56h96v-68q0 -74 -23.5 -100.5t-89.5 -26.5h-49q-67 0 -90 26.5t-23 100.5v309q0 74 23 100t90 26h49q67 0 90 -26t23 -100v-186h-174v-111q0 -27 6 -36.5t27 -9.5h13q20 0 26 9.5t6 36.5zM127 418v-88h78v88q0 27 -6 36.5t-26 9.5h-13q-21 0 -27 -9.5t-6 -36.5z
M273 593h-88v90h88v-90zM146 593h-89v90h89v-90z" />
    <glyph glyph-name="igrave" unicode="&#xec;" horiz-adv-x="162" 
d="M76 697l51 -117h-64l-77 117h90zM132 552v-552h-102v552h102z" />
    <glyph glyph-name="iacute" unicode="&#xed;" horiz-adv-x="162" 
d="M35 580l51 117h89l-77 -117h-63zM132 552v-552h-102v552h102z" />
    <glyph glyph-name="icircumflex" unicode="&#xee;" horiz-adv-x="162" 
d="M132 552v-552h-102v552h102zM117 697l67 -117h-64l-39 59l-39 -59h-64l67 117h72z" />
    <glyph glyph-name="idieresis" unicode="&#xef;" horiz-adv-x="162" 
d="M188 593h-88v90h88v-90zM61 593h-89v90h89v-90zM132 552v-552h-102v552h102z" />
    <glyph glyph-name="eth" unicode="&#xf0;" horiz-adv-x="340" 
d="M307 572v-450q0 -74 -23.5 -100.5t-90.5 -26.5h-54q-67 0 -90 26.5t-23 100.5v336q0 55 16.5 77t61.5 22h21q66 0 82 -60v72q0 22 -4 33l-34 -31l-13 15l35 30q-7 4 -20 4h-28v80h49q49 0 76 -15l17 15h27l-30 -27q25 -28 25 -101zM127 134q0 -27 6 -36.5t27 -9.5h13
q20 0 26 9.5t6 36.5v276q0 54 -35 54h-12q-19 0 -25 -9.5t-6 -35.5v-285z" />
    <glyph glyph-name="ntilde" unicode="&#xf1;" horiz-adv-x="340" 
d="M311 0h-102v419q0 26 -5.5 35.5t-24.5 9.5h-12q-35 0 -35 -54v-410h-102v552h96v-69q13 74 85 74h22q45 0 61.5 -22t16.5 -77v-458zM228 679h47q0 -49 -15 -68t-49 -19q-23 0 -47 12.5t-33 12.5q-11 0 -14.5 -5.5t-3.5 -19.5h-48q0 49 15 68t50 19q23 0 47 -13t33 -13
q18 0 18 26z" />
    <glyph glyph-name="ograve" unicode="&#xf2;" horiz-adv-x="333" 
d="M307 431v-309q0 -74 -23.5 -100.5t-90.5 -26.5h-54q-67 0 -90 26.5t-23 100.5v309q0 74 23 100t90 26h54q67 0 90.5 -26t23.5 -100zM127 418v-284q0 -27 6 -36.5t27 -9.5h13q20 0 26 9.5t6 36.5v284q0 27 -6 36.5t-26 9.5h-13q-21 0 -27 -9.5t-6 -36.5zM162 697l51 -117
h-64l-77 117h90z" />
    <glyph glyph-name="oacute" unicode="&#xf3;" horiz-adv-x="333" 
d="M307 431v-309q0 -74 -23.5 -100.5t-90.5 -26.5h-54q-67 0 -90 26.5t-23 100.5v309q0 74 23 100t90 26h54q67 0 90.5 -26t23.5 -100zM127 418v-284q0 -27 6 -36.5t27 -9.5h13q20 0 26 9.5t6 36.5v284q0 27 -6 36.5t-26 9.5h-13q-21 0 -27 -9.5t-6 -36.5zM120 580l51 117
h89l-77 -117h-63z" />
    <glyph glyph-name="ocircumflex" unicode="&#xf4;" horiz-adv-x="333" 
d="M307 431v-309q0 -74 -23.5 -100.5t-90.5 -26.5h-54q-67 0 -90 26.5t-23 100.5v309q0 74 23 100t90 26h54q67 0 90.5 -26t23.5 -100zM127 418v-284q0 -27 6 -36.5t27 -9.5h13q20 0 26 9.5t6 36.5v284q0 27 -6 36.5t-26 9.5h-13q-21 0 -27 -9.5t-6 -36.5zM202 697l67 -117
h-64l-39 59l-39 -59h-64l67 117h72z" />
    <glyph glyph-name="otilde" unicode="&#xf5;" horiz-adv-x="333" 
d="M307 431v-309q0 -74 -23.5 -100.5t-90.5 -26.5h-54q-67 0 -90 26.5t-23 100.5v309q0 74 23 100t90 26h54q67 0 90.5 -26t23.5 -100zM127 418v-284q0 -27 6 -36.5t27 -9.5h13q20 0 26 9.5t6 36.5v284q0 27 -6 36.5t-26 9.5h-13q-21 0 -27 -9.5t-6 -36.5zM224 679h47
q0 -49 -15 -68t-49 -19q-23 0 -47 12.5t-33 12.5q-11 0 -14.5 -5.5t-3.5 -19.5h-48q0 49 15 68t50 19q23 0 47 -13t33 -13q18 0 18 26z" />
    <glyph glyph-name="odieresis" unicode="&#xf6;" horiz-adv-x="333" 
d="M307 431v-309q0 -74 -23.5 -100.5t-90.5 -26.5h-54q-67 0 -90 26.5t-23 100.5v309q0 74 23 100t90 26h54q67 0 90.5 -26t23.5 -100zM127 418v-284q0 -27 6 -36.5t27 -9.5h13q20 0 26 9.5t6 36.5v284q0 27 -6 36.5t-26 9.5h-13q-21 0 -27 -9.5t-6 -36.5zM273 593h-88v90
h88v-90zM146 593h-89v90h89v-90z" />
    <glyph glyph-name="divide" unicode="&#xf7;" 
d="M317 396v-92h-291v92h291zM123 170v94h98v-94h-98zM123 436v95h98v-95h-98z" />
    <glyph glyph-name="oslash" unicode="&#xf8;" horiz-adv-x="333" 
d="M307 431v-309q0 -74 -23.5 -100.5t-90.5 -26.5h-54q-4 0 -12 0.5t-11 0.5l-8 -26h-82l19 56q-19 27 -19 96v309q0 74 23 100t90 26h54q14 0 21 -1l10 31h83l-20 -60q20 -27 20 -96zM173 88q20 0 26 9.5t6 36.5v184l-62 -228q8 -2 17 -2h13zM127 418v-182l62 226
q-8 2 -16 2h-13q-21 0 -27 -9.5t-6 -36.5z" />
    <glyph glyph-name="ugrave" unicode="&#xf9;" horiz-adv-x="340" 
d="M310 93q0 -60 8 -93h-97q-7 14 -10 61q-14 -66 -83 -66h-21q-45 0 -62 22t-17 77v458h102v-419q0 -26 6 -35.5t25 -9.5h11q36 0 36 54v410h102v-459zM165 697l51 -117h-64l-77 117h90z" />
    <glyph glyph-name="uacute" unicode="&#xfa;" horiz-adv-x="340" 
d="M310 93q0 -60 8 -93h-97q-7 14 -10 61q-14 -66 -83 -66h-21q-45 0 -62 22t-17 77v458h102v-419q0 -26 6 -35.5t25 -9.5h11q36 0 36 54v410h102v-459zM124 580l51 117h89l-77 -117h-63z" />
    <glyph glyph-name="ucircumflex" unicode="&#xfb;" horiz-adv-x="340" 
d="M310 93q0 -60 8 -93h-97q-7 14 -10 61q-14 -66 -83 -66h-21q-45 0 -62 22t-17 77v458h102v-419q0 -26 6 -35.5t25 -9.5h11q36 0 36 54v410h102v-459zM206 697l67 -117h-64l-39 59l-39 -59h-64l67 117h72z" />
    <glyph glyph-name="udieresis" unicode="&#xfc;" horiz-adv-x="340" 
d="M310 93q0 -60 8 -93h-97q-7 14 -10 61q-14 -66 -83 -66h-21q-45 0 -62 22t-17 77v458h102v-419q0 -26 6 -35.5t25 -9.5h11q36 0 36 54v410h102v-459zM277 593h-88v90h88v-90zM150 593h-89v90h89v-90z" />
    <glyph glyph-name="yacute" unicode="&#xfd;" horiz-adv-x="312" 
d="M213 -40q-13 -87 -104 -87h-90v77h45q28 0 28 26v27l-88 549h104l26 -175q20 -128 28 -264q8 145 27 264l27 175h92zM114 580l51 117h89l-77 -117h-63z" />
    <glyph glyph-name="thorn" unicode="&#xfe;" horiz-adv-x="337" 
d="M209 419q0 26 -5.5 35.5t-24.5 9.5h-12q-35 0 -35 -54v-268q0 -54 35 -54h12q19 0 24.5 9.5t5.5 35.5v286zM132 -127h-102v827h102v-195q17 52 79 52h22q45 0 61.5 -22t16.5 -77v-364q0 -55 -16.5 -77t-61.5 -22h-22q-61 0 -79 51v-173z" />
    <glyph glyph-name="ydieresis" unicode="&#xff;" horiz-adv-x="312" 
d="M213 -40q-13 -87 -104 -87h-90v77h45q28 0 28 26v27l-88 549h104l26 -175q20 -128 28 -264q8 145 27 264l27 175h92zM267 593h-88v90h88v-90zM140 593h-89v90h89v-90z" />
    <glyph glyph-name="Amacron" unicode="&#x100;" horiz-adv-x="353" 
d="M231 0l-13 99h-97l-12 -99h-101l91 700h155l90 -700h-113zM137 220l-2 -21h70l-2 21q-27 276 -33 392q-10 -150 -33 -392zM279 737h-204v63h204v-63z" />
    <glyph glyph-name="amacron" unicode="&#x101;" horiz-adv-x="332" 
d="M23 183q0 56 17.5 86t70.5 50q64 25 77.5 38.5t13.5 59.5v1q0 27 -6 36.5t-26 9.5h-13q-20 0 -26 -9.5t-6 -36.5v-54h-95v67q0 74 23 100t90 26h47q67 0 90.5 -26t23.5 -100v-338q0 -60 8 -93h-97q-8 17 -9 63q-14 -68 -84 -68h-21q-45 0 -61.5 22t-16.5 77v89zM202 142
v126q-13 -7 -29 -13q-31 -12 -40 -26.5t-9 -48.5v-47q0 -26 6 -35.5t25 -9.5h12q35 0 35 54zM269 596h-204v63h204v-63z" />
    <glyph glyph-name="Abreve" unicode="&#x102;" horiz-adv-x="353" 
d="M231 0l-13 99h-97l-12 -99h-101l91 700h155l90 -700h-113zM137 220l-2 -21h70l-2 21q-27 276 -33 392q-10 -150 -33 -392zM176 782q27 0 37 11t10 39h54q0 -55 -20 -82t-81 -27t-80.5 27t-19.5 82h54q0 -28 10 -39t36 -11z" />
    <glyph glyph-name="abreve" unicode="&#x103;" horiz-adv-x="332" 
d="M23 183q0 56 17.5 86t70.5 50q64 25 77.5 38.5t13.5 59.5v1q0 27 -6 36.5t-26 9.5h-13q-20 0 -26 -9.5t-6 -36.5v-54h-95v67q0 74 23 100t90 26h47q67 0 90.5 -26t23.5 -100v-338q0 -60 8 -93h-97q-8 17 -9 63q-14 -68 -84 -68h-21q-45 0 -61.5 22t-16.5 77v89zM202 142
v126q-13 -7 -29 -13q-31 -12 -40 -26.5t-9 -48.5v-47q0 -26 6 -35.5t25 -9.5h12q35 0 35 54zM166 641q27 0 37 11t10 39h54q0 -55 -20 -82t-81 -27t-80.5 27t-19.5 82h54q0 -28 10 -39t36 -11z" />
    <glyph glyph-name="Aogonek" unicode="&#x104;" horiz-adv-x="353" 
d="M231 0l-13 99h-97l-12 -99h-101l91 700h155l90 -700h-37q-39 -32 -39 -59t41 -27q20 0 35 5v-43q-34 -8 -59 -8q-49 0 -67.5 11.5t-18.5 39.5q0 20 12.5 36.5t23 23t36.5 21.5h-40zM137 220l-2 -21h70l-2 21q-27 276 -33 392q-10 -150 -33 -392z" />
    <glyph glyph-name="aogonek" unicode="&#x105;" horiz-adv-x="332" 
d="M312 -81v-43q-34 -8 -59 -8q-49 0 -67.5 11.5t-18.5 39.5q0 20 12.5 36.5t23 23t36.5 21.5h-24q-8 17 -9 63q-14 -68 -84 -68h-21q-45 0 -61.5 22t-16.5 77v89q0 56 17.5 86t70.5 50q64 25 77.5 38.5t13.5 59.5v1q0 27 -6 36.5t-26 9.5h-13q-20 0 -26 -9.5t-6 -36.5v-54
h-95v67q0 74 23 100t90 26h47q67 0 90.5 -26t23.5 -100v-338q0 -60 8 -93h-37q-39 -32 -39 -59t41 -27q20 0 35 5zM202 142v126q-13 -7 -29 -13q-31 -12 -40 -26.5t-9 -48.5v-47q0 -26 6 -35.5t25 -9.5h12q35 0 35 54z" />
    <glyph glyph-name="Cacute" unicode="&#x106;" horiz-adv-x="362" 
d="M141 548v-396q0 -31 6 -41t30 -10h16q24 0 30 10t6 41v140h106v-155q0 -83 -26 -112.5t-101 -29.5h-52q-76 0 -102 29.5t-26 112.5v426q0 83 26 112.5t102 29.5h52q75 0 101 -29.5t26 -112.5v-125h-106v110q0 31 -6 41t-30 10h-16q-24 0 -30 -10t-6 -41zM139 721l51 117
h89l-77 -117h-63z" />
    <glyph glyph-name="cacute" unicode="&#x107;" horiz-adv-x="326" 
d="M205 134v96h96v-108q0 -74 -23.5 -100.5t-89.5 -26.5h-49q-67 0 -90 26.5t-23 100.5v309q0 74 23 100t90 26h49q67 0 90 -26t23 -100v-99h-96v86q0 27 -6 36.5t-26 9.5h-13q-21 0 -27 -9.5t-6 -36.5v-284q0 -27 6 -36.5t27 -9.5h13q20 0 26 9.5t6 36.5zM120 580l51 117
h89l-77 -117h-63z" />
    <glyph glyph-name="Ccircumflex" unicode="&#x108;" horiz-adv-x="362" 
d="M141 548v-396q0 -31 6 -41t30 -10h16q24 0 30 10t6 41v140h106v-155q0 -83 -26 -112.5t-101 -29.5h-52q-76 0 -102 29.5t-26 112.5v426q0 83 26 112.5t102 29.5h52q75 0 101 -29.5t26 -112.5v-125h-106v110q0 31 -6 41t-30 10h-16q-24 0 -30 -10t-6 -41zM219 838l67 -117
h-64l-39 59l-39 -59h-64l67 117h72z" />
    <glyph glyph-name="ccircumflex" unicode="&#x109;" horiz-adv-x="326" 
d="M205 134v96h96v-108q0 -74 -23.5 -100.5t-89.5 -26.5h-49q-67 0 -90 26.5t-23 100.5v309q0 74 23 100t90 26h49q67 0 90 -26t23 -100v-99h-96v86q0 27 -6 36.5t-26 9.5h-13q-21 0 -27 -9.5t-6 -36.5v-284q0 -27 6 -36.5t27 -9.5h13q20 0 26 9.5t6 36.5zM202 697l67 -117
h-64l-39 59l-39 -59h-64l67 117h72z" />
    <glyph glyph-name="Cdotaccent" unicode="&#x10a;" horiz-adv-x="362" 
d="M141 548v-396q0 -31 6 -41t30 -10h16q24 0 30 10t6 41v140h106v-155q0 -83 -26 -112.5t-101 -29.5h-52q-76 0 -102 29.5t-26 112.5v426q0 83 26 112.5t102 29.5h52q75 0 101 -29.5t26 -112.5v-125h-106v110q0 31 -6 41t-30 10h-16q-24 0 -30 -10t-6 -41zM229 734h-89v90
h89v-90z" />
    <glyph glyph-name="cdotaccent" unicode="&#x10b;" horiz-adv-x="326" 
d="M205 134v96h96v-108q0 -74 -23.5 -100.5t-89.5 -26.5h-49q-67 0 -90 26.5t-23 100.5v309q0 74 23 100t90 26h49q67 0 90 -26t23 -100v-99h-96v86q0 27 -6 36.5t-26 9.5h-13q-21 0 -27 -9.5t-6 -36.5v-284q0 -27 6 -36.5t27 -9.5h13q20 0 26 9.5t6 36.5zM211 593h-89v90
h89v-90z" />
    <glyph glyph-name="Ccaron" unicode="&#x10c;" horiz-adv-x="362" 
d="M141 548v-396q0 -31 6 -41t30 -10h16q24 0 30 10t6 41v140h106v-155q0 -83 -26 -112.5t-101 -29.5h-52q-76 0 -102 29.5t-26 112.5v426q0 83 26 112.5t102 29.5h52q75 0 101 -29.5t26 -112.5v-125h-106v110q0 31 -6 41t-30 10h-16q-24 0 -30 -10t-6 -41zM287 838
l-67 -117h-72l-67 117h64l39 -59l39 59h64z" />
    <glyph glyph-name="ccaron" unicode="&#x10d;" horiz-adv-x="326" 
d="M205 134v96h96v-108q0 -74 -23.5 -100.5t-89.5 -26.5h-49q-67 0 -90 26.5t-23 100.5v309q0 74 23 100t90 26h49q67 0 90 -26t23 -100v-99h-96v86q0 27 -6 36.5t-26 9.5h-13q-21 0 -27 -9.5t-6 -36.5v-284q0 -27 6 -36.5t27 -9.5h13q20 0 26 9.5t6 36.5zM269 697l-67 -117
h-72l-67 117h64l39 -59l39 59h64z" />
    <glyph glyph-name="Dcaron" unicode="&#x10e;" horiz-adv-x="375" 
d="M33 0v700h186q75 0 101.5 -29.5t26.5 -112.5v-416q0 -83 -26.5 -112.5t-101.5 -29.5h-186zM146 106h52q24 0 30 10t6 41v386q0 31 -6 41t-30 10h-52v-488zM286 838l-67 -117h-72l-67 117h64l39 -59l39 59h64z" />
    <glyph glyph-name="dcaron" unicode="&#x10f;" horiz-adv-x="448" 
d="M347 579v121h96v-121l-82 -80l-6 5l53 75h-61zM206 142v268q0 54 -36 54h-11q-20 0 -25.5 -9.5t-5.5 -35.5v-286q0 -26 5.5 -35.5t25.5 -9.5h11q36 0 36 54zM307 93q0 -56 9 -93h-97q-7 14 -10 61q-14 -66 -83 -66h-21q-45 0 -62 22t-17 77v364q0 55 17 77t62 22h21
q63 0 80 -54v197h101v-607z" />
    <glyph glyph-name="Dcroat" unicode="&#x110;" horiz-adv-x="375" 
d="M33 0v326h-24v84h24v290h186q75 0 101.5 -29.5t26.5 -112.5v-416q0 -83 -26.5 -112.5t-101.5 -29.5h-186zM146 106h52q24 0 30 10t6 41v386q0 31 -6 41t-30 10h-52v-184h46v-84h-46v-220z" />
    <glyph glyph-name="dcroat" unicode="&#x111;" horiz-adv-x="337" 
d="M307 93q0 -56 9 -93h-97q-7 14 -10 61q-14 -66 -83 -66h-21q-45 0 -62 22t-17 77v364q0 55 17 77t62 22h21q63 0 80 -54v80h-79v69h79v48h101v-48h21v-69h-21v-490zM206 142v268q0 54 -36 54h-11q-20 0 -25.5 -9.5t-5.5 -35.5v-286q0 -26 5.5 -35.5t25.5 -9.5h11
q36 0 36 54z" />
    <glyph glyph-name="Emacron" unicode="&#x112;" horiz-adv-x="290" 
d="M146 594v-176h103v-106h-103v-206h127v-106h-240v700h240v-106h-127zM256 737h-204v63h204v-63z" />
    <glyph glyph-name="emacron" unicode="&#x113;" horiz-adv-x="326" 
d="M205 134v56h96v-68q0 -74 -23.5 -100.5t-89.5 -26.5h-49q-67 0 -90 26.5t-23 100.5v309q0 74 23 100t90 26h49q67 0 90 -26t23 -100v-186h-174v-111q0 -27 6 -36.5t27 -9.5h13q20 0 26 9.5t6 36.5zM127 418v-88h78v88q0 27 -6 36.5t-26 9.5h-13q-21 0 -27 -9.5t-6 -36.5z
M268 596h-204v63h204v-63z" />
    <glyph glyph-name="Ebreve" unicode="&#x114;" horiz-adv-x="290" 
d="M146 594v-176h103v-106h-103v-206h127v-106h-240v700h240v-106h-127zM154 782q27 0 37 11t10 39h54q0 -55 -20 -82t-81 -27t-80.5 27t-19.5 82h54q0 -28 10 -39t36 -11z" />
    <glyph glyph-name="ebreve" unicode="&#x115;" horiz-adv-x="326" 
d="M205 134v56h96v-68q0 -74 -23.5 -100.5t-89.5 -26.5h-49q-67 0 -90 26.5t-23 100.5v309q0 74 23 100t90 26h49q67 0 90 -26t23 -100v-186h-174v-111q0 -27 6 -36.5t27 -9.5h13q20 0 26 9.5t6 36.5zM127 418v-88h78v88q0 27 -6 36.5t-26 9.5h-13q-21 0 -27 -9.5t-6 -36.5z
M166 641q27 0 37 11t10 39h54q0 -55 -20 -82t-81 -27t-80.5 27t-19.5 82h54q0 -28 10 -39t36 -11z" />
    <glyph glyph-name="Edotaccent" unicode="&#x116;" horiz-adv-x="290" 
d="M146 594v-176h103v-106h-103v-206h127v-106h-240v700h240v-106h-127zM199 734h-89v90h89v-90z" />
    <glyph glyph-name="edotaccent" unicode="&#x117;" horiz-adv-x="326" 
d="M205 134v56h96v-68q0 -74 -23.5 -100.5t-89.5 -26.5h-49q-67 0 -90 26.5t-23 100.5v309q0 74 23 100t90 26h49q67 0 90 -26t23 -100v-186h-174v-111q0 -27 6 -36.5t27 -9.5h13q20 0 26 9.5t6 36.5zM127 418v-88h78v88q0 27 -6 36.5t-26 9.5h-13q-21 0 -27 -9.5t-6 -36.5z
M211 593h-89v90h89v-90z" />
    <glyph glyph-name="Eogonek" unicode="&#x118;" horiz-adv-x="290" 
d="M273 -81v-43q-34 -8 -59 -8q-49 0 -67.5 11.5t-18.5 39.5q0 20 14.5 35.5t30.5 23.5t49 22h-189v700h240v-106h-127v-176h103v-106h-103v-206h127v-106h-17q-33 -17 -46 -30.5t-13 -29.5q0 -26 41 -26q20 0 35 5z" />
    <glyph glyph-name="eogonek" unicode="&#x119;" horiz-adv-x="326" 
d="M301 -81v-43q-34 -8 -59 -8q-49 0 -67.5 11.5t-18.5 39.5q0 46 53 77q-6 -1 -21 -1h-49q-67 0 -90 26.5t-23 100.5v309q0 74 23 100t90 26h49q67 0 90 -26t23 -100v-186h-174v-111q0 -27 6 -36.5t27 -9.5h13q20 0 26 9.5t6 36.5v56h96v-68q0 -52 -11 -79.5t-38 -38.5
q-27 -29 -27 -64q0 -26 41 -26q20 0 35 5zM127 418v-88h78v88q0 27 -6 36.5t-26 9.5h-13q-21 0 -27 -9.5t-6 -36.5z" />
    <glyph glyph-name="Ecaron" unicode="&#x11a;" horiz-adv-x="290" 
d="M146 594v-176h103v-106h-103v-206h127v-106h-240v700h240v-106h-127zM257 838l-67 -117h-72l-67 117h64l39 -59l39 59h64z" />
    <glyph glyph-name="ecaron" unicode="&#x11b;" horiz-adv-x="326" 
d="M205 134v56h96v-68q0 -74 -23.5 -100.5t-89.5 -26.5h-49q-67 0 -90 26.5t-23 100.5v309q0 74 23 100t90 26h49q67 0 90 -26t23 -100v-186h-174v-111q0 -27 6 -36.5t27 -9.5h13q20 0 26 9.5t6 36.5zM127 418v-88h78v88q0 27 -6 36.5t-26 9.5h-13q-21 0 -27 -9.5t-6 -36.5z
M269 697l-67 -117h-72l-67 117h64l39 -59l39 59h64z" />
    <glyph glyph-name="Gcircumflex" unicode="&#x11c;" horiz-adv-x="363" 
d="M185 292v106h150v-261q0 -83 -26 -112.5t-101 -29.5h-52q-76 0 -102 29.5t-26 112.5v426q0 83 26 112.5t102 29.5h52q75 0 101 -29.5t26 -112.5v-107h-106v92q0 31 -6 41t-30 10h-16q-24 0 -30 -10t-6 -41v-396q0 -31 6 -41t30 -10h16q24 0 30 10t6 41v140h-44zM219 838
l67 -117h-64l-39 59l-39 -59h-64l67 117h72z" />
    <glyph glyph-name="gcircumflex" unicode="&#x11d;" horiz-adv-x="332" 
d="M121 428v-151q0 -27 5.5 -36.5t26.5 -9.5h13q20 0 26 9.5t6 36.5v151q0 27 -6 36.5t-26 9.5h-13q-21 0 -26.5 -9.5t-5.5 -36.5zM245 -35v6q0 18 -9 23.5t-32 5.5h-71q-20 0 -28.5 -7t-8.5 -24v-5q0 -20 8.5 -26t29.5 -6h70q23 0 32 6t9 27zM102 119v-1q0 -26 34 -26h69
q64 0 93.5 -19.5t29.5 -80.5v-15q0 -62 -27 -85.5t-95 -23.5h-97q-86 0 -86 78v18q0 43 33 58q-23 20 -23 66v8q0 48 31 65q-23 12 -32 38t-9 76v156q0 74 23 100t91 26h38q76 0 98 -38q5 38 40 38h16v-91h-17q-16 0 -16 -25v-166q0 -74 -23.5 -100.5t-90.5 -26.5h-51
q-16 0 -22.5 -6.5t-6.5 -22.5zM197 697l67 -117h-64l-39 59l-39 -59h-64l67 117h72z" />
    <glyph glyph-name="Gbreve" unicode="&#x11e;" horiz-adv-x="363" 
d="M185 292v106h150v-261q0 -83 -26 -112.5t-101 -29.5h-52q-76 0 -102 29.5t-26 112.5v426q0 83 26 112.5t102 29.5h52q75 0 101 -29.5t26 -112.5v-107h-106v92q0 31 -6 41t-30 10h-16q-24 0 -30 -10t-6 -41v-396q0 -31 6 -41t30 -10h16q24 0 30 10t6 41v140h-44zM183 782
q27 0 37 11t10 39h54q0 -55 -20 -82t-81 -27t-80.5 27t-19.5 82h54q0 -28 10 -39t36 -11z" />
    <glyph glyph-name="gbreve" unicode="&#x11f;" horiz-adv-x="332" 
d="M121 428v-151q0 -27 5.5 -36.5t26.5 -9.5h13q20 0 26 9.5t6 36.5v151q0 27 -6 36.5t-26 9.5h-13q-21 0 -26.5 -9.5t-5.5 -36.5zM245 -35v6q0 18 -9 23.5t-32 5.5h-71q-20 0 -28.5 -7t-8.5 -24v-5q0 -20 8.5 -26t29.5 -6h70q23 0 32 6t9 27zM102 119v-1q0 -26 34 -26h69
q64 0 93.5 -19.5t29.5 -80.5v-15q0 -62 -27 -85.5t-95 -23.5h-97q-86 0 -86 78v18q0 43 33 58q-23 20 -23 66v8q0 48 31 65q-23 12 -32 38t-9 76v156q0 74 23 100t91 26h38q76 0 98 -38q5 38 40 38h16v-91h-17q-16 0 -16 -25v-166q0 -74 -23.5 -100.5t-90.5 -26.5h-51
q-16 0 -22.5 -6.5t-6.5 -22.5zM161 641q27 0 37 11t10 39h54q0 -55 -20 -82t-81 -27t-80.5 27t-19.5 82h54q0 -28 10 -39t36 -11z" />
    <glyph glyph-name="Gdotaccent" unicode="&#x120;" horiz-adv-x="363" 
d="M185 292v106h150v-261q0 -83 -26 -112.5t-101 -29.5h-52q-76 0 -102 29.5t-26 112.5v426q0 83 26 112.5t102 29.5h52q75 0 101 -29.5t26 -112.5v-107h-106v92q0 31 -6 41t-30 10h-16q-24 0 -30 -10t-6 -41v-396q0 -31 6 -41t30 -10h16q24 0 30 10t6 41v140h-44zM228 734
h-89v90h89v-90z" />
    <glyph glyph-name="gdotaccent" unicode="&#x121;" horiz-adv-x="332" 
d="M121 428v-151q0 -27 5.5 -36.5t26.5 -9.5h13q20 0 26 9.5t6 36.5v151q0 27 -6 36.5t-26 9.5h-13q-21 0 -26.5 -9.5t-5.5 -36.5zM245 -35v6q0 18 -9 23.5t-32 5.5h-71q-20 0 -28.5 -7t-8.5 -24v-5q0 -20 8.5 -26t29.5 -6h70q23 0 32 6t9 27zM102 119v-1q0 -26 34 -26h69
q64 0 93.5 -19.5t29.5 -80.5v-15q0 -62 -27 -85.5t-95 -23.5h-97q-86 0 -86 78v18q0 43 33 58q-23 20 -23 66v8q0 48 31 65q-23 12 -32 38t-9 76v156q0 74 23 100t91 26h38q76 0 98 -38q5 38 40 38h16v-91h-17q-16 0 -16 -25v-166q0 -74 -23.5 -100.5t-90.5 -26.5h-51
q-16 0 -22.5 -6.5t-6.5 -22.5zM206 593h-89v90h89v-90z" />
    <glyph glyph-name="uni0122" unicode="&#x122;" horiz-adv-x="363" 
d="M185 292v106h150v-261q0 -83 -26 -112.5t-101 -29.5h-52q-76 0 -102 29.5t-26 112.5v426q0 83 26 112.5t102 29.5h52q75 0 101 -29.5t26 -112.5v-107h-106v92q0 31 -6 41t-30 10h-16q-24 0 -30 -10t-6 -41v-396q0 -31 6 -41t30 -10h16q24 0 30 10t6 41v140h-44zM140 -134
v89h88v-89l-76 -72l-6 5l49 67h-55z" />
    <glyph glyph-name="uni0123" unicode="&#x123;" horiz-adv-x="332" 
d="M206 683v-89h-88v89l76 72l6 -5l-49 -67h55zM121 428v-151q0 -27 5.5 -36.5t26.5 -9.5h13q20 0 26 9.5t6 36.5v151q0 27 -6 36.5t-26 9.5h-13q-21 0 -26.5 -9.5t-5.5 -36.5zM245 -35v6q0 18 -9 23.5t-32 5.5h-71q-20 0 -28.5 -7t-8.5 -24v-5q0 -20 8.5 -26t29.5 -6h70
q23 0 32 6t9 27zM102 119v-1q0 -26 34 -26h69q64 0 93.5 -19.5t29.5 -80.5v-15q0 -62 -27 -85.5t-95 -23.5h-97q-86 0 -86 78v18q0 43 33 58q-23 20 -23 66v8q0 48 31 65q-23 12 -32 38t-9 76v156q0 74 23 100t91 26h38q76 0 98 -38q5 38 40 38h16v-91h-17q-16 0 -16 -25
v-166q0 -74 -23.5 -100.5t-90.5 -26.5h-51q-16 0 -22.5 -6.5t-6.5 -22.5z" />
    <glyph glyph-name="Hcircumflex" unicode="&#x124;" horiz-adv-x="380" 
d="M146 0h-113v700h113v-282h88v282h113v-700h-113v312h-88v-312zM226 838l67 -117h-64l-39 59l-39 -59h-64l67 117h72z" />
    <glyph glyph-name="hcircumflex" unicode="&#x125;" horiz-adv-x="340" 
d="M179 464h-12q-35 0 -35 -54v-410h-102v700h102v-195q17 52 79 52h22q45 0 61.5 -22t16.5 -77v-458h-102v419q0 26 -5.5 35.5t-24.5 9.5zM117 838l67 -117h-64l-39 59l-39 -59h-64l67 117h72z" />
    <glyph glyph-name="Hbar" unicode="&#x126;" horiz-adv-x="380" 
d="M146 0h-113v515h-24v84h24v101h113v-101h88v101h113v-101h24v-84h-24v-515h-113v312h-88v-312zM146 418h88v97h-88v-97z" />
    <glyph glyph-name="hbar" unicode="&#x127;" horiz-adv-x="340" 
d="M179 464h-12q-35 0 -35 -54v-410h-102v583h-21v69h21v48h102v-48h78v-69h-78v-78q17 52 79 52h22q45 0 61.5 -22t16.5 -77v-458h-102v419q0 26 -5.5 35.5t-24.5 9.5z" />
    <glyph glyph-name="Itilde" unicode="&#x128;" horiz-adv-x="179" 
d="M33 0v700h113v-700h-113zM148 820h47q0 -49 -15 -68t-49 -19q-23 0 -47 12.5t-33 12.5q-11 0 -14.5 -5.5t-3.5 -19.5h-48q0 49 15 68t50 19q23 0 47 -13t33 -13q18 0 18 26z" />
    <glyph glyph-name="itilde" unicode="&#x129;" horiz-adv-x="162" 
d="M139 679h47q0 -49 -15 -68t-49 -19q-23 0 -47 12.5t-33 12.5q-11 0 -14.5 -5.5t-3.5 -19.5h-48q0 49 15 68t50 19q23 0 47 -13t33 -13q18 0 18 26zM132 552v-552h-102v552h102z" />
    <glyph glyph-name="Imacron" unicode="&#x12a;" horiz-adv-x="179" 
d="M33 0v700h113v-700h-113zM192 737h-204v63h204v-63z" />
    <glyph glyph-name="imacron" unicode="&#x12b;" horiz-adv-x="162" 
d="M183 596h-204v63h204v-63zM132 552v-552h-102v552h102z" />
    <glyph glyph-name="Ibreve" unicode="&#x12c;" horiz-adv-x="179" 
d="M33 0v700h113v-700h-113zM90 782q27 0 37 11t10 39h54q0 -55 -20 -82t-81 -27t-80.5 27t-19.5 82h54q0 -28 10 -39t36 -11z" />
    <glyph glyph-name="ibreve" unicode="&#x12d;" horiz-adv-x="162" 
d="M81 641q27 0 37 11t10 39h54q0 -55 -20 -82t-81 -27t-80.5 27t-19.5 82h54q0 -28 10 -39t36 -11zM132 552v-552h-102v552h102z" />
    <glyph glyph-name="Iogonek" unicode="&#x12e;" horiz-adv-x="179" 
d="M33 0v700h113v-700h-38q-29 -29 -29 -59q0 -27 41 -27q20 0 35 5v-43q-34 -8 -59 -8q-49 0 -67.5 11.5t-18.5 39.5q0 19 10.5 35.5t21 24.5t30.5 21h-39z" />
    <glyph glyph-name="iogonek" unicode="&#x12f;" horiz-adv-x="162" 
d="M149 -81v-43q-34 -8 -59 -8q-49 0 -67.5 11.5t-18.5 39.5q0 19 10.5 35.5t21 24.5t30.5 21h-36v552h102v-552h-30q-29 -29 -29 -59q0 -27 41 -27q20 0 35 5zM30 608v92h102v-92h-102z" />
    <glyph glyph-name="Idotaccent" unicode="&#x130;" horiz-adv-x="179" 
d="M33 0v700h113v-700h-113zM134 734h-89v90h89v-90z" />
    <glyph glyph-name="dotlessi" unicode="&#x131;" horiz-adv-x="162" 
d="M132 552v-552h-102v552h102z" />
    <glyph glyph-name="IJ" unicode="&#x132;" horiz-adv-x="529" 
d="M33 0v700h113v-700h-113zM297 292v-140q0 -31 6 -41t30 -10h16q24 0 30 10t6 41v548h113v-563q0 -83 -26.5 -112.5t-101.5 -29.5h-52q-75 0 -101 29.5t-26 112.5v155h106z" />
    <glyph glyph-name="ij" unicode="&#x133;" horiz-adv-x="323" 
d="M132 552v-552h-102v552h102zM30 608v92h102v-92h-102zM192 552h102v-552q0 -74 -23 -100.5t-90 -26.5h-29v77h5q21 0 28 7.5t7 35.5v559zM192 608v92h102v-92h-102z" />
    <glyph glyph-name="Jcircumflex" unicode="&#x134;" horiz-adv-x="350" 
d="M118 292v-140q0 -31 6 -41t30 -10h16q24 0 30 10t6 41v548h113v-563q0 -83 -26.5 -112.5t-101.5 -29.5h-52q-75 0 -101 29.5t-26 112.5v155h106zM298 838l67 -117h-64l-39 59l-39 -59h-64l67 117h72z" />
    <glyph glyph-name="jcircumflex" unicode="&#x135;" horiz-adv-x="162" 
d="M30 552h102v-552q0 -74 -23 -100.5t-90 -26.5h-29v77h5q21 0 28 7.5t7 35.5v559zM117 697l67 -117h-64l-39 59l-39 -59h-64l67 117h72z" />
    <glyph glyph-name="uni0136" unicode="&#x136;" horiz-adv-x="378" 
d="M33 0v700h113v-308q6 21 17 51l98 257h110l-131 -328l136 -372h-119l-94 264q-9 25 -17 55v-319h-113zM152 -134v89h88v-89l-76 -72l-6 5l49 67h-55z" />
    <glyph glyph-name="uni0137" unicode="&#x137;" horiz-adv-x="333" 
d="M132 251v-251h-102v700h102v-388q8 26 26 70l68 170h97l-111 -260l117 -292h-106l-70 186q-17 48 -21 65zM129 -134v89h88v-89l-76 -72l-6 5l49 67h-55z" />
    <glyph glyph-name="kgreenlandic" unicode="&#x138;" horiz-adv-x="333" 
d="M132 251v-251h-102v552h102v-240q8 26 26 70l68 170h97l-111 -260l117 -292h-106l-70 186q-17 48 -21 65z" />
    <glyph glyph-name="Lacute" unicode="&#x139;" horiz-adv-x="260" 
d="M33 0v700h113v-594h110v-106h-223zM67 721l51 117h89l-77 -117h-63z" />
    <glyph glyph-name="lacute" unicode="&#x13a;" horiz-adv-x="162" 
d="M132 0h-102v700h102v-700zM35 721l51 117h89l-77 -117h-63z" />
    <glyph glyph-name="uni013B" unicode="&#x13b;" horiz-adv-x="260" 
d="M33 0v700h113v-594h110v-106h-223zM99 -134v89h88v-89l-76 -72l-6 5l49 67h-55z" />
    <glyph glyph-name="uni013C" unicode="&#x13c;" horiz-adv-x="162" 
d="M132 0h-102v700h102v-700zM37 -134v89h88v-89l-76 -72l-6 5l49 67h-55z" />
    <glyph glyph-name="Lcaron" unicode="&#x13d;" horiz-adv-x="311" 
d="M191 567v133h106v-133l-91 -86l-6 5l57 81h-66zM33 0v700h113v-594h110v-106h-223z" />
    <glyph glyph-name="lcaron" unicode="&#x13e;" horiz-adv-x="272" 
d="M172 579v121h95v-121l-82 -80l-6 5l53 75h-60zM132 0h-102v700h102v-700z" />
    <glyph glyph-name="Ldot" unicode="&#x13f;" horiz-adv-x="311" 
d="M191 298v133h106v-133h-106zM33 0v700h113v-594h110v-106h-223z" />
    <glyph glyph-name="ldot" unicode="&#x140;" horiz-adv-x="272" 
d="M172 289v121h95v-121h-95zM132 0h-102v700h102v-700z" />
    <glyph glyph-name="Lslash" unicode="&#x141;" horiz-adv-x="260" 
d="M33 0v204l-24 -24v108l24 24v388h113v-275l54 54v-108l-54 -54v-211h110v-106h-223z" />
    <glyph glyph-name="lslash" unicode="&#x142;" horiz-adv-x="173" 
d="M138 0h-102v225l-39 -39v108l39 39v367h102v-265l38 38v-108l-38 -38v-327z" />
    <glyph glyph-name="Nacute" unicode="&#x143;" horiz-adv-x="383" 
d="M222 0l-74 341q-9 43 -23 132q5 -113 5 -132v-341h-98v700h143l61 -306q13 -64 22 -135q0 14 -2 61.5t-2 74.5v305h97v-700h-129zM147 721l51 117h89l-77 -117h-63z" />
    <glyph glyph-name="nacute" unicode="&#x144;" horiz-adv-x="340" 
d="M311 0h-102v419q0 26 -5.5 35.5t-24.5 9.5h-12q-35 0 -35 -54v-410h-102v552h96v-69q13 74 85 74h22q45 0 61.5 -22t16.5 -77v-458zM124 580l51 117h89l-77 -117h-63z" />
    <glyph glyph-name="uni0145" unicode="&#x145;" horiz-adv-x="383" 
d="M222 0l-74 341q-9 43 -23 132q5 -113 5 -132v-341h-98v700h143l61 -306q13 -64 22 -135q0 14 -2 61.5t-2 74.5v305h97v-700h-129zM149 -134v89h88v-89l-76 -72l-6 5l49 67h-55z" />
    <glyph glyph-name="uni0146" unicode="&#x146;" horiz-adv-x="340" 
d="M311 0h-102v419q0 26 -5.5 35.5t-24.5 9.5h-12q-35 0 -35 -54v-410h-102v552h96v-69q13 74 85 74h22q45 0 61.5 -22t16.5 -77v-458zM127 -134v89h88v-89l-76 -72l-6 5l49 67h-55z" />
    <glyph glyph-name="Ncaron" unicode="&#x147;" horiz-adv-x="383" 
d="M222 0l-74 341q-9 43 -23 132q5 -113 5 -132v-341h-98v700h143l61 -306q13 -64 22 -135q0 14 -2 61.5t-2 74.5v305h97v-700h-129zM295 838l-67 -117h-72l-67 117h64l39 -59l39 59h64z" />
    <glyph glyph-name="ncaron" unicode="&#x148;" horiz-adv-x="340" 
d="M311 0h-102v419q0 26 -5.5 35.5t-24.5 9.5h-12q-35 0 -35 -54v-410h-102v552h96v-69q13 74 85 74h22q45 0 61.5 -22t16.5 -77v-458zM273 697l-67 -117h-72l-67 117h64l39 -59l39 59h64z" />
    <glyph glyph-name="napostrophe" unicode="&#x149;" horiz-adv-x="398" 
d="M30 611v89h89v-89l-77 -72l-5 5l48 67h-55zM370 0h-102v419q0 26 -5.5 35.5t-24.5 9.5h-12q-35 0 -35 -54v-410h-102v552h96v-69q13 74 85 74h22q45 0 61.5 -22t16.5 -77v-458z" />
    <glyph glyph-name="Omacron" unicode="&#x14c;" horiz-adv-x="370" 
d="M28 137v426q0 83 26 112.5t102 29.5h58q75 0 101.5 -29.5t26.5 -112.5v-426q0 -83 -26.5 -112.5t-101.5 -29.5h-58q-76 0 -102 29.5t-26 112.5zM229 152v396q0 31 -6 41t-30 10h-16q-24 0 -30 -10t-6 -41v-396q0 -31 6 -41t30 -10h16q24 0 30 10t6 41zM287 737h-204v63
h204v-63z" />
    <glyph glyph-name="omacron" unicode="&#x14d;" horiz-adv-x="333" 
d="M307 431v-309q0 -74 -23.5 -100.5t-90.5 -26.5h-54q-67 0 -90 26.5t-23 100.5v309q0 74 23 100t90 26h54q67 0 90.5 -26t23.5 -100zM127 418v-284q0 -27 6 -36.5t27 -9.5h13q20 0 26 9.5t6 36.5v284q0 27 -6 36.5t-26 9.5h-13q-21 0 -27 -9.5t-6 -36.5zM268 596h-204v63
h204v-63z" />
    <glyph glyph-name="Obreve" unicode="&#x14e;" horiz-adv-x="370" 
d="M28 137v426q0 83 26 112.5t102 29.5h58q75 0 101.5 -29.5t26.5 -112.5v-426q0 -83 -26.5 -112.5t-101.5 -29.5h-58q-76 0 -102 29.5t-26 112.5zM229 152v396q0 31 -6 41t-30 10h-16q-24 0 -30 -10t-6 -41v-396q0 -31 6 -41t30 -10h16q24 0 30 10t6 41zM185 782
q27 0 37 11t10 39h54q0 -55 -20 -82t-81 -27t-80.5 27t-19.5 82h54q0 -28 10 -39t36 -11z" />
    <glyph glyph-name="obreve" unicode="&#x14f;" horiz-adv-x="333" 
d="M307 431v-309q0 -74 -23.5 -100.5t-90.5 -26.5h-54q-67 0 -90 26.5t-23 100.5v309q0 74 23 100t90 26h54q67 0 90.5 -26t23.5 -100zM127 418v-284q0 -27 6 -36.5t27 -9.5h13q20 0 26 9.5t6 36.5v284q0 27 -6 36.5t-26 9.5h-13q-21 0 -27 -9.5t-6 -36.5zM166 641
q27 0 37 11t10 39h54q0 -55 -20 -82t-81 -27t-80.5 27t-19.5 82h54q0 -28 10 -39t36 -11z" />
    <glyph glyph-name="Ohungarumlaut" unicode="&#x150;" horiz-adv-x="370" 
d="M28 137v426q0 83 26 112.5t102 29.5h58q75 0 101.5 -29.5t26.5 -112.5v-426q0 -83 -26.5 -112.5t-101.5 -29.5h-58q-76 0 -102 29.5t-26 112.5zM229 152v396q0 31 -6 41t-30 10h-16q-24 0 -30 -10t-6 -41v-396q0 -31 6 -41t30 -10h16q24 0 30 10t6 41zM81 721l51 117h89
l-77 -117h-63zM197 721l51 117h89l-77 -117h-63z" />
    <glyph glyph-name="ohungarumlaut" unicode="&#x151;" horiz-adv-x="333" 
d="M307 431v-309q0 -74 -23.5 -100.5t-90.5 -26.5h-54q-67 0 -90 26.5t-23 100.5v309q0 74 23 100t90 26h54q67 0 90.5 -26t23.5 -100zM127 418v-284q0 -27 6 -36.5t27 -9.5h13q20 0 26 9.5t6 36.5v284q0 27 -6 36.5t-26 9.5h-13q-21 0 -27 -9.5t-6 -36.5zM62 580l51 117h89
l-77 -117h-63zM178 580l51 117h89l-77 -117h-63z" />
    <glyph glyph-name="OE" unicode="&#x152;" horiz-adv-x="478" 
d="M333 594v-176h104v-106h-104v-206h127v-106h-304q-76 0 -102 29.5t-26 112.5v416q0 83 26 112.5t102 29.5h304v-106h-127zM177 106h44v488h-44q-23 0 -29.5 -10t-6.5 -41v-386q0 -31 6.5 -41t29.5 -10z" />
    <glyph glyph-name="oe" unicode="&#x153;" horiz-adv-x="505" 
d="M385 134v56h95v-68q0 -74 -23 -100.5t-90 -26.5h-13q-46 0 -68 11t-31 39q-8 -28 -29.5 -39t-66.5 -11h-20q-67 0 -90 26.5t-23 100.5v309q0 74 23 100t90 26h20q45 0 67 -11t29 -39q9 28 31 39t68 11h13q67 0 90 -26t23 -100v-186h-173v-111q0 -27 6 -36.5t26 -9.5h13
q21 0 27 9.5t6 36.5zM127 418v-284q0 -27 6 -36.5t27 -9.5h13q20 0 26 9.5t6 36.5v284q0 27 -6 36.5t-26 9.5h-13q-21 0 -27 -9.5t-6 -36.5zM307 418v-88h78v88q0 26 -6 36t-27 10h-13q-20 0 -26 -9.5t-6 -36.5z" />
    <glyph glyph-name="Racute" unicode="&#x154;" horiz-adv-x="372" 
d="M345 218v-95q0 -80 16 -123h-117q-12 25 -12 109v128q0 33 -9 47.5t-36 14.5h-43v-299h-113v700h186q75 0 101.5 -29.5t26.5 -112.5v-75q0 -61 -13 -91t-47 -41q34 -11 47 -41.5t13 -91.5zM232 456v87q0 31 -6 41t-30 10h-52v-189h52q23 0 29.5 10.5t6.5 40.5zM138 721
l51 117h89l-77 -117h-63z" />
    <glyph glyph-name="racute" unicode="&#x155;" horiz-adv-x="210" 
d="M132 0h-102v552h96v-78q13 83 73 83h7v-109h-8q-36 0 -51 -22.5t-15 -75.5v-350zM61 580l51 117h89l-77 -117h-63z" />
    <glyph glyph-name="uni0156" unicode="&#x156;" horiz-adv-x="372" 
d="M345 218v-95q0 -80 16 -123h-117q-12 25 -12 109v128q0 33 -9 47.5t-36 14.5h-43v-299h-113v700h186q75 0 101.5 -29.5t26.5 -112.5v-75q0 -61 -13 -91t-47 -41q34 -11 47 -41.5t13 -91.5zM232 456v87q0 31 -6 41t-30 10h-52v-189h52q23 0 29.5 10.5t6.5 40.5zM144 -134
v89h88v-89l-76 -72l-6 5l49 67h-55z" />
    <glyph glyph-name="uni0157" unicode="&#x157;" horiz-adv-x="210" 
d="M132 0h-102v552h96v-78q13 83 73 83h7v-109h-8q-36 0 -51 -22.5t-15 -75.5v-350zM37 -134v89h88v-89l-76 -72l-6 5l49 67h-55z" />
    <glyph glyph-name="Rcaron" unicode="&#x158;" horiz-adv-x="372" 
d="M345 218v-95q0 -80 16 -123h-117q-12 25 -12 109v128q0 33 -9 47.5t-36 14.5h-43v-299h-113v700h186q75 0 101.5 -29.5t26.5 -112.5v-75q0 -61 -13 -91t-47 -41q34 -11 47 -41.5t13 -91.5zM232 456v87q0 31 -6 41t-30 10h-52v-189h52q23 0 29.5 10.5t6.5 40.5zM286 838
l-67 -117h-72l-67 117h64l39 -59l39 59h64z" />
    <glyph glyph-name="rcaron" unicode="&#x159;" horiz-adv-x="210" 
d="M132 0h-102v552h96v-78q13 83 73 83h7v-109h-8q-36 0 -51 -22.5t-15 -75.5v-350zM210 697l-67 -117h-72l-67 117h64l39 -59l39 59h64z" />
    <glyph glyph-name="Sacute" unicode="&#x15a;" horiz-adv-x="347" 
d="M212 152v38q0 42 -16 66.5t-70 70.5q-61 53 -82 91t-21 107v38q0 83 26 112.5t101 29.5h48q75 0 101 -29.5t26 -112.5v-97h-106v82q0 31 -6.5 41t-29.5 10h-12q-24 0 -30 -9.5t-6 -39.5v-24q0 -42 16 -66t70 -71q61 -54 82.5 -91.5t21.5 -106.5v-54q0 -83 -26 -112.5
t-101 -29.5h-48q-75 0 -101 29.5t-26 112.5v117h105v-102q0 -31 6 -41t30 -10h13q23 0 29 10t6 41zM128 721l51 117h89l-77 -117h-63z" />
    <glyph glyph-name="sacute" unicode="&#x15b;" horiz-adv-x="320" 
d="M196 134v22q0 29 -14.5 45t-64.5 48q-55 34 -75 65.5t-20 85.5v31q0 74 23.5 100t90.5 26h48q67 0 90.5 -26t23.5 -100v-67h-96v54q0 27 -6 36.5t-26 9.5h-14q-20 0 -26 -9.5t-6 -36.5v-12q0 -29 14.5 -45t64.5 -48q55 -34 75 -65.5t20 -85.5v-40q0 -74 -23.5 -100.5
t-90.5 -26.5h-48q-67 0 -90.5 26.5t-23.5 100.5v76h96v-64q0 -27 5.5 -36.5t26.5 -9.5h14q20 0 26 9.5t6 36.5zM114 580l51 117h89l-77 -117h-63z" />
    <glyph glyph-name="Scircumflex" unicode="&#x15c;" horiz-adv-x="347" 
d="M212 152v38q0 42 -16 66.5t-70 70.5q-61 53 -82 91t-21 107v38q0 83 26 112.5t101 29.5h48q75 0 101 -29.5t26 -112.5v-97h-106v82q0 31 -6.5 41t-29.5 10h-12q-24 0 -30 -9.5t-6 -39.5v-24q0 -42 16 -66t70 -71q61 -54 82.5 -91.5t21.5 -106.5v-54q0 -83 -26 -112.5
t-101 -29.5h-48q-75 0 -101 29.5t-26 112.5v117h105v-102q0 -31 6 -41t30 -10h13q23 0 29 10t6 41zM209 838l67 -117h-64l-39 59l-39 -59h-64l67 117h72z" />
    <glyph glyph-name="scircumflex" unicode="&#x15d;" horiz-adv-x="320" 
d="M196 134v22q0 29 -14.5 45t-64.5 48q-55 34 -75 65.5t-20 85.5v31q0 74 23.5 100t90.5 26h48q67 0 90.5 -26t23.5 -100v-67h-96v54q0 27 -6 36.5t-26 9.5h-14q-20 0 -26 -9.5t-6 -36.5v-12q0 -29 14.5 -45t64.5 -48q55 -34 75 -65.5t20 -85.5v-40q0 -74 -23.5 -100.5
t-90.5 -26.5h-48q-67 0 -90.5 26.5t-23.5 100.5v76h96v-64q0 -27 5.5 -36.5t26.5 -9.5h14q20 0 26 9.5t6 36.5zM196 697l67 -117h-64l-39 59l-39 -59h-64l67 117h72z" />
    <glyph glyph-name="Scedilla" unicode="&#x15e;" horiz-adv-x="347" 
d="M192 -81q0 16 -10 23t-37 6v47q-72 1 -97 30.5t-25 111.5v117h105v-102q0 -31 6 -41t30 -10h13q23 0 29 10t6 41v38q0 42 -16 66.5t-70 70.5q-61 53 -82 91t-21 107v38q0 83 26 112.5t101 29.5h48q75 0 101 -29.5t26 -112.5v-97h-106v82q0 31 -6.5 41t-29.5 10h-12
q-24 0 -30 -9.5t-6 -39.5v-24q0 -42 16 -66t70 -71q61 -54 82.5 -91.5t21.5 -106.5v-54q0 -83 -26 -112.5t-101 -29.5h-18v-27q42 0 59.5 -10.5t17.5 -36.5q0 -13 -2.5 -20.5t-10.5 -16t-26.5 -12.5t-47.5 -4q-52 0 -66.5 12t-14.5 44h56q-1 -17 3 -23t19 -6q16 0 20.5 5
t4.5 19z" />
    <glyph glyph-name="scedilla" unicode="&#x15f;" horiz-adv-x="320" 
d="M179 -81q0 16 -10 23t-37 6v47q-65 1 -87.5 27.5t-22.5 99.5v76h96v-64q0 -27 5.5 -36.5t26.5 -9.5h14q20 0 26 9.5t6 36.5v22q0 29 -15 46t-64 47q-56 35 -75.5 66t-19.5 85v31q0 74 23.5 100t90.5 26h48q67 0 90.5 -26t23.5 -100v-67h-96v54q0 27 -6 36.5t-26 9.5h-14
q-20 0 -26 -9.5t-6 -36.5v-12q0 -29 15 -46t64 -47q56 -35 75.5 -66t19.5 -85v-40q0 -74 -23.5 -100.5t-90.5 -26.5h-17v-27q42 0 59.5 -10.5t17.5 -36.5q0 -13 -2.5 -20.5t-10.5 -16t-26.5 -12.5t-47.5 -4q-52 0 -66.5 12t-14.5 44h56q-1 -17 3 -23t19 -6q16 0 20.5 5
t4.5 19z" />
    <glyph glyph-name="Scaron" unicode="&#x160;" horiz-adv-x="347" 
d="M212 152v38q0 42 -16 66.5t-70 70.5q-61 53 -82 91t-21 107v38q0 83 26 112.5t101 29.5h48q75 0 101 -29.5t26 -112.5v-97h-106v82q0 31 -6.5 41t-29.5 10h-12q-24 0 -30 -9.5t-6 -39.5v-24q0 -42 16 -66t70 -71q61 -54 82.5 -91.5t21.5 -106.5v-54q0 -83 -26 -112.5
t-101 -29.5h-48q-75 0 -101 29.5t-26 112.5v117h105v-102q0 -31 6 -41t30 -10h13q23 0 29 10t6 41zM276 838l-67 -117h-72l-67 117h64l39 -59l39 59h64z" />
    <glyph glyph-name="scaron" unicode="&#x161;" horiz-adv-x="320" 
d="M196 134v22q0 29 -14.5 45t-64.5 48q-55 34 -75 65.5t-20 85.5v31q0 74 23.5 100t90.5 26h48q67 0 90.5 -26t23.5 -100v-67h-96v54q0 27 -6 36.5t-26 9.5h-14q-20 0 -26 -9.5t-6 -36.5v-12q0 -29 14.5 -45t64.5 -48q55 -34 75 -65.5t20 -85.5v-40q0 -74 -23.5 -100.5
t-90.5 -26.5h-48q-67 0 -90.5 26.5t-23.5 100.5v76h96v-64q0 -27 5.5 -36.5t26.5 -9.5h14q20 0 26 9.5t6 36.5zM263 697l-67 -117h-72l-67 117h64l39 -59l39 59h64z" />
    <glyph glyph-name="uni0162" unicode="&#x162;" horiz-adv-x="269" 
d="M154 -81q0 16 -10 23t-37 6v52h-29v595h-75v105h263v-105h-75v-595h-49v-32q42 0 59.5 -10.5t17.5 -36.5q0 -13 -2.5 -20.5t-10.5 -16t-26.5 -12.5t-47.5 -4q-52 0 -66.5 12t-14.5 44h56q-1 -17 3 -23t19 -6q16 0 20.5 5t4.5 19z" />
    <glyph glyph-name="uni0163" unicode="&#x163;" horiz-adv-x="194" 
d="M117 -81q0 16 -10 23t-37 6v52h-17q-13 27 -13 112v355h-35v85h35v120h102v-120h49v-85h-49v-341q0 -78 18 -126h-55v-32q42 0 59.5 -10.5t17.5 -36.5q0 -13 -2.5 -20.5t-10.5 -16t-26.5 -12.5t-47.5 -4q-52 0 -66.5 12t-14.5 44h56q-1 -17 3 -23t19 -6q16 0 20.5 5
t4.5 19z" />
    <glyph glyph-name="Tcaron" unicode="&#x164;" horiz-adv-x="269" 
d="M191 0h-113v595h-75v105h263v-105h-75v-595zM237 838l-67 -117h-72l-67 117h64l39 -59l39 59h64z" />
    <glyph glyph-name="tcaron" unicode="&#x165;" horiz-adv-x="298" 
d="M197 579v121h95v-121l-82 -80l-5 5l52 75h-60zM5 467v85h35v120h102v-120h49v-85h-49v-341q0 -78 18 -126h-107q-13 27 -13 112v355h-35z" />
    <glyph glyph-name="Tbar" unicode="&#x166;" horiz-adv-x="269" 
d="M191 0h-113v444h-45v84h45v67h-75v105h263v-105h-75v-67h45v-84h-45v-444z" />
    <glyph glyph-name="tbar" unicode="&#x167;" horiz-adv-x="194" 
d="M5 467v85h35v120h102v-120h49v-85h-49v-68h49v-69h-49v-204q0 -78 18 -126h-107q-13 27 -13 112v218h-35v69h35v68h-35z" />
    <glyph glyph-name="Utilde" unicode="&#x168;" horiz-adv-x="369" 
d="M144 700v-548q0 -31 6 -41t30 -10h16q24 0 30 10t6 41v548h106v-563q0 -83 -26 -112.5t-101 -29.5h-52q-75 0 -101.5 29.5t-26.5 112.5v563h113zM242 820h47q0 -49 -15 -68t-49 -19q-23 0 -47 12.5t-33 12.5q-11 0 -14.5 -5.5t-3.5 -19.5h-48q0 49 15 68t50 19
q23 0 47 -13t33 -13q18 0 18 26z" />
    <glyph glyph-name="utilde" unicode="&#x169;" horiz-adv-x="340" 
d="M310 93q0 -60 8 -93h-97q-7 14 -10 61q-14 -66 -83 -66h-21q-45 0 -62 22t-17 77v458h102v-419q0 -26 6 -35.5t25 -9.5h11q36 0 36 54v410h102v-459zM228 679h47q0 -49 -15 -68t-49 -19q-23 0 -47 12.5t-33 12.5q-11 0 -14.5 -5.5t-3.5 -19.5h-48q0 49 15 68t50 19
q23 0 47 -13t33 -13q18 0 18 26z" />
    <glyph glyph-name="Umacron" unicode="&#x16a;" horiz-adv-x="369" 
d="M144 700v-548q0 -31 6 -41t30 -10h16q24 0 30 10t6 41v548h106v-563q0 -83 -26 -112.5t-101 -29.5h-52q-75 0 -101.5 29.5t-26.5 112.5v563h113zM286 737h-204v63h204v-63z" />
    <glyph glyph-name="umacron" unicode="&#x16b;" horiz-adv-x="340" 
d="M310 93q0 -60 8 -93h-97q-7 14 -10 61q-14 -66 -83 -66h-21q-45 0 -62 22t-17 77v458h102v-419q0 -26 6 -35.5t25 -9.5h11q36 0 36 54v410h102v-459zM272 596h-204v63h204v-63z" />
    <glyph glyph-name="Ubreve" unicode="&#x16c;" horiz-adv-x="369" 
d="M144 700v-548q0 -31 6 -41t30 -10h16q24 0 30 10t6 41v548h106v-563q0 -83 -26 -112.5t-101 -29.5h-52q-75 0 -101.5 29.5t-26.5 112.5v563h113zM184 782q27 0 37 11t10 39h54q0 -55 -20 -82t-81 -27t-80.5 27t-19.5 82h54q0 -28 10 -39t36 -11z" />
    <glyph glyph-name="ubreve" unicode="&#x16d;" horiz-adv-x="340" 
d="M310 93q0 -60 8 -93h-97q-7 14 -10 61q-14 -66 -83 -66h-21q-45 0 -62 22t-17 77v458h102v-419q0 -26 6 -35.5t25 -9.5h11q36 0 36 54v410h102v-459zM170 641q27 0 37 11t10 39h54q0 -55 -20 -82t-81 -27t-80.5 27t-19.5 82h54q0 -28 10 -39t36 -11z" />
    <glyph glyph-name="Uring" unicode="&#x16e;" horiz-adv-x="369" 
d="M144 700v-548q0 -31 6 -41t30 -10h16q24 0 30 10t6 41v548h106v-563q0 -83 -26 -112.5t-101 -29.5h-52q-75 0 -101.5 29.5t-26.5 112.5v563h113zM209 787q0 11 -7 18.5t-18 7.5t-18 -7.5t-7 -18.5t7 -18t18 -7q10 0 17.5 7t7.5 18zM116 787q0 29 19.5 47.5t48.5 18.5
q28 0 47.5 -18.5t19.5 -47.5t-19.5 -47t-47.5 -18q-29 0 -48.5 18t-19.5 47z" />
    <glyph glyph-name="uring" unicode="&#x16f;" horiz-adv-x="340" 
d="M310 93q0 -60 8 -93h-97q-7 14 -10 61q-14 -66 -83 -66h-21q-45 0 -62 22t-17 77v458h102v-419q0 -26 6 -35.5t25 -9.5h11q36 0 36 54v410h102v-459zM195 646q0 11 -7 18.5t-18 7.5t-18 -7.5t-7 -18.5t7 -18t18 -7q10 0 17.5 7.5t7.5 17.5zM102 646q0 29 19.5 47.5
t48.5 18.5q28 0 47.5 -18.5t19.5 -47.5t-19.5 -47t-47.5 -18q-29 0 -48.5 18t-19.5 47z" />
    <glyph glyph-name="Uhungarumlaut" unicode="&#x170;" horiz-adv-x="369" 
d="M144 700v-548q0 -31 6 -41t30 -10h16q24 0 30 10t6 41v548h106v-563q0 -83 -26 -112.5t-101 -29.5h-52q-75 0 -101.5 29.5t-26.5 112.5v563h113zM80 721l51 117h89l-77 -117h-63zM196 721l51 117h89l-77 -117h-63z" />
    <glyph glyph-name="uhungarumlaut" unicode="&#x171;" horiz-adv-x="340" 
d="M310 93q0 -60 8 -93h-97q-7 14 -10 61q-14 -66 -83 -66h-21q-45 0 -62 22t-17 77v458h102v-419q0 -26 6 -35.5t25 -9.5h11q36 0 36 54v410h102v-459zM66 580l51 117h89l-77 -117h-63zM182 580l51 117h89l-77 -117h-63z" />
    <glyph glyph-name="Uogonek" unicode="&#x172;" horiz-adv-x="369" 
d="M338 -81v-43q-34 -8 -59 -8q-49 0 -67.5 11.5t-18.5 39.5q0 48 56 78q-24 -2 -38 -2h-52q-75 0 -101.5 29.5t-26.5 112.5v563h113v-548q0 -31 6 -41t30 -10h16q24 0 30 10t6 41v548h106v-563q0 -100 -41 -125q-35 -34 -35 -72q0 -26 41 -26q20 0 35 5z" />
    <glyph glyph-name="uogonek" unicode="&#x173;" horiz-adv-x="340" 
d="M318 -81v-43q-34 -8 -59 -8q-49 0 -67.5 11.5t-18.5 39.5q0 20 12.5 36.5t23 23t36.5 21.5h-24q-7 14 -10 61q-14 -66 -83 -66h-21q-45 0 -62 22t-17 77v458h102v-419q0 -26 6 -35.5t25 -9.5h11q36 0 36 54v410h102v-459q0 -60 8 -93h-37q-39 -32 -39 -59t41 -27
q20 0 35 5z" />
    <glyph glyph-name="Wcircumflex" unicode="&#x174;" horiz-adv-x="538" 
d="M262 268l-26 -268h-143l-84 700h113l32 -302q16 -162 18 -217q4 91 17 217l32 302h110l32 -302q13 -133 16 -217q3 80 18 217l33 302h101l-84 -700h-137l-26 268q-7 68 -11 185q-4 -117 -11 -185zM305 838l67 -117h-64l-39 59l-39 -59h-64l67 117h72z" />
    <glyph glyph-name="wcircumflex" unicode="&#x175;" horiz-adv-x="493" 
d="M232 146l-17 -146h-138l-72 552h104l20 -160q14 -110 23 -272q10 153 27 271l22 161h103l22 -161q17 -118 27 -271q10 176 22 272l21 160h92l-73 -552h-132l-17 146q-15 123 -18 186q-5 -93 -16 -186zM282 697l67 -117h-64l-39 59l-39 -59h-64l67 117h72z" />
    <glyph glyph-name="Ycircumflex" unicode="&#x176;" horiz-adv-x="339" 
d="M226 0h-112v221l-110 479h113l29 -139q23 -110 31 -200q7 88 30 200l28 139h101l-110 -479v-221zM209 838l67 -117h-64l-39 59l-39 -59h-64l67 117h72z" />
    <glyph glyph-name="ycircumflex" unicode="&#x177;" horiz-adv-x="312" 
d="M213 -40q-13 -87 -104 -87h-90v77h45q28 0 28 26v27l-88 549h104l26 -175q20 -128 28 -264q8 145 27 264l27 175h92zM196 697l67 -117h-64l-39 59l-39 -59h-64l67 117h72z" />
    <glyph glyph-name="Ydieresis" unicode="&#x178;" horiz-adv-x="339" 
d="M226 0h-112v221l-110 479h113l29 -139q23 -110 31 -200q7 88 30 200l28 139h101l-110 -479v-221zM280 734h-88v90h88v-90zM153 734h-89v90h89v-90z" />
    <glyph glyph-name="Zacute" unicode="&#x179;" horiz-adv-x="294" 
d="M22 594v106h257v-97l-147 -497h147v-106h-265v97l147 497h-139zM104 721l51 117h89l-77 -117h-63z" />
    <glyph glyph-name="zacute" unicode="&#x17a;" horiz-adv-x="277" 
d="M26 467v85h237v-77l-139 -390h139v-85h-248v76l139 391h-128zM96 580l51 117h89l-77 -117h-63z" />
    <glyph glyph-name="Zdotaccent" unicode="&#x17b;" horiz-adv-x="294" 
d="M22 594v106h257v-97l-147 -497h147v-106h-265v97l147 497h-139zM195 734h-89v90h89v-90z" />
    <glyph glyph-name="zdotaccent" unicode="&#x17c;" horiz-adv-x="277" 
d="M26 467v85h237v-77l-139 -390h139v-85h-248v76l139 391h-128zM187 593h-89v90h89v-90z" />
    <glyph glyph-name="Zcaron" unicode="&#x17d;" horiz-adv-x="294" 
d="M22 594v106h257v-97l-147 -497h147v-106h-265v97l147 497h-139zM253 838l-67 -117h-72l-67 117h64l39 -59l39 59h64z" />
    <glyph glyph-name="zcaron" unicode="&#x17e;" horiz-adv-x="277" 
d="M26 467v85h237v-77l-139 -390h139v-85h-248v76l139 391h-128zM245 697l-67 -117h-72l-67 117h64l39 -59l39 59h64z" />
    <glyph glyph-name="florin" unicode="&#x192;" 
d="M80 452l7 85h35l4 36q6 75 31.5 101t92.5 26h48l-7 -81h-26q-21 0 -29 -9t-11 -37l-3 -36h62l-7 -85h-61l-49 -579h-102l50 579h-35z" />
    <glyph glyph-name="AEacute" unicode="&#x1fc;" horiz-adv-x="470" 
d="M5 0l159 700h289v-106h-127v-176h103v-106h-103v-206h127v-106h-240v99h-86l-21 -99h-101zM159 253l-11 -54h65v359q-20 -136 -54 -305zM189 721l51 117h89l-77 -117h-63z" />
    <glyph glyph-name="aeacute" unicode="&#x1fd;" horiz-adv-x="502" 
d="M167 88q35 0 35 54v126q-13 -7 -29 -13q-31 -12 -40 -26.5t-9 -48.5v-47q0 -26 6 -35.5t25 -9.5h12zM23 183q0 56 17.5 86t70.5 50q64 23 77.5 37t13.5 61v1q0 27 -6 36.5t-26 9.5h-13q-20 0 -26 -9.5t-6 -36.5v-54h-95v67q0 74 23 100t90 26h13q44 0 66 -10.5t31 -36.5
q8 26 30 36.5t67 10.5h14q67 0 90 -26t23 -100v-186h-173v-111q0 -27 6 -36.5t26 -9.5h13q21 0 27 9.5t6 36.5v56h95v-68q0 -74 -23 -100.5t-90 -26.5h-48q-52 0 -77 15t-33 54q-13 -69 -84 -69h-21q-45 0 -61.5 22t-16.5 77v89zM382 330v88q0 27 -6 36.5t-27 9.5h-13
q-20 0 -26 -9.5t-6 -36.5v-88h78zM205 580l51 117h89l-77 -117h-63z" />
    <glyph glyph-name="Oslashacute" unicode="&#x1fe;" horiz-adv-x="370" 
d="M139 721l51 117h89l-77 -117h-63zM28 137v426q0 83 26 112.5t102 29.5h58q5 0 14.5 -0.5t13.5 -0.5l8 26h91l-19 -63q20 -29 20 -104v-426q0 -83 -26.5 -112.5t-101.5 -29.5h-58q-5 0 -15 0.5t-14 0.5l-7 -26h-92l18 64q-18 30 -18 103zM229 152v244l-75 -292q7 -3 23 -3
h16q24 0 30 10t6 41zM141 548v-240l73 288q-8 3 -21 3h-16q-24 0 -30 -10t-6 -41z" />
    <glyph glyph-name="oslashacute" unicode="&#x1ff;" horiz-adv-x="333" 
d="M120 580l51 117h89l-77 -117h-63zM307 431v-309q0 -74 -23.5 -100.5t-90.5 -26.5h-54q-4 0 -12 0.5t-11 0.5l-8 -26h-82l19 56q-19 27 -19 96v309q0 74 23 100t90 26h54q14 0 21 -1l10 31h83l-20 -60q20 -27 20 -96zM173 88q20 0 26 9.5t6 36.5v184l-62 -228q8 -2 17 -2
h13zM127 418v-182l62 226q-8 2 -16 2h-13q-21 0 -27 -9.5t-6 -36.5z" />
    <glyph glyph-name="uni0218" unicode="&#x218;" horiz-adv-x="347" 
d="M212 152v38q0 42 -16 66.5t-70 70.5q-61 53 -82 91t-21 107v38q0 83 26 112.5t101 29.5h48q75 0 101 -29.5t26 -112.5v-97h-106v82q0 31 -6.5 41t-29.5 10h-12q-24 0 -30 -9.5t-6 -39.5v-24q0 -42 16 -66t70 -71q61 -54 82.5 -91.5t21.5 -106.5v-54q0 -83 -26 -112.5
t-101 -29.5h-48q-75 0 -101 29.5t-26 112.5v117h105v-102q0 -31 6 -41t30 -10h13q23 0 29 10t6 41zM129 -134v89h88v-89l-76 -72l-6 5l49 67h-55z" />
    <glyph glyph-name="uni0219" unicode="&#x219;" horiz-adv-x="320" 
d="M196 134v22q0 29 -14.5 45t-64.5 48q-55 34 -75 65.5t-20 85.5v31q0 74 23.5 100t90.5 26h48q67 0 90.5 -26t23.5 -100v-67h-96v54q0 27 -6 36.5t-26 9.5h-14q-20 0 -26 -9.5t-6 -36.5v-12q0 -29 14.5 -45t64.5 -48q55 -34 75 -65.5t20 -85.5v-40q0 -74 -23.5 -100.5
t-90.5 -26.5h-48q-67 0 -90.5 26.5t-23.5 100.5v76h96v-64q0 -27 5.5 -36.5t26.5 -9.5h14q20 0 26 9.5t6 36.5zM116 -134v89h88v-89l-76 -72l-6 5l49 67h-55z" />
    <glyph glyph-name="uni021A" unicode="&#x21a;" horiz-adv-x="269" 
d="M191 0h-113v595h-75v105h263v-105h-75v-595zM91 -134v89h88v-89l-76 -72l-6 5l49 67h-55z" />
    <glyph glyph-name="uni021B" unicode="&#x21b;" horiz-adv-x="194" 
d="M5 467v85h35v120h102v-120h49v-85h-49v-341q0 -78 18 -126h-107q-13 27 -13 112v355h-35zM51 -134v89h88v-89l-76 -72l-6 5l49 67h-55z" />
    <glyph glyph-name="uni0237" unicode="&#x237;" horiz-adv-x="162" 
d="M30 552h102v-552q0 -74 -23 -100.5t-90 -26.5h-29v77h5q21 0 28 7.5t7 35.5v559z" />
    <glyph glyph-name="circumflex" unicode="&#x2c6;" horiz-adv-x="171" 
d="M122 697l67 -117h-64l-39 59l-39 -59h-64l67 117h72z" />
    <glyph glyph-name="caron" unicode="&#x2c7;" horiz-adv-x="171" 
d="M189 697l-67 -117h-72l-67 117h64l39 -59l39 59h64z" />
    <glyph glyph-name="breve" unicode="&#x2d8;" horiz-adv-x="171" 
d="M86 641q27 0 37 11t10 39h54q0 -55 -20 -82t-81 -27t-80.5 27t-19.5 82h54q0 -28 10 -39t36 -11z" />
    <glyph glyph-name="dotaccent" unicode="&#x2d9;" horiz-adv-x="171" 
d="M130 593h-89v90h89v-90z" />
    <glyph glyph-name="ring" unicode="&#x2da;" horiz-adv-x="171" 
d="M111 646q0 11 -7 18.5t-18 7.5t-18 -7.5t-7 -18.5t7 -18t18 -7q10 0 17.5 7.5t7.5 17.5zM18 646q0 29 19.5 47.5t48.5 18.5q28 0 47.5 -18.5t19.5 -47.5t-19.5 -47t-47.5 -18q-29 0 -48.5 18t-19.5 47z" />
    <glyph glyph-name="ogonek" unicode="&#x2db;" horiz-adv-x="171" 
d="M158 -81v-43q-34 -8 -59 -8q-49 0 -67.5 11.5t-18.5 39.5q0 21 17.5 38t32 23.5t53.5 23.5h33q-38 -20 -52.5 -33.5t-14.5 -30.5q0 -26 41 -26q20 0 35 5z" />
    <glyph glyph-name="tilde" unicode="&#x2dc;" horiz-adv-x="171" 
d="M144 679h47q0 -49 -15 -68t-49 -19q-23 0 -47 12.5t-33 12.5q-11 0 -14.5 -5.5t-3.5 -19.5h-48q0 49 15 68t50 19q23 0 47 -13t33 -13q18 0 18 26z" />
    <glyph glyph-name="hungarumlaut" unicode="&#x2dd;" horiz-adv-x="171" 
d="M-34 580l51 117h89l-77 -117h-63zM82 580l51 117h89l-77 -117h-63z" />
    <glyph glyph-name="pi" unicode="&#x3c0;" horiz-adv-x="341" 
d="M132 467v-467h-102v552h281v-552h-102v467h-77z" />
    <glyph glyph-name="uni1E02" unicode="&#x1e02;" horiz-adv-x="369" 
d="M31 0v700h186q75 0 101.5 -29.5t26.5 -112.5v-59q0 -60 -13 -90t-46 -41q33 -11 46 -41t13 -90v-95q0 -83 -26.5 -112.5t-101.5 -29.5h-186zM196 315h-52v-209h52q24 0 30 10t6 41v107q0 30 -6.5 40.5t-29.5 10.5zM232 472v71q0 31 -6 41t-30 10h-52v-173h52
q23 0 29.5 10.5t6.5 40.5zM228 734h-89v90h89v-90z" />
    <glyph glyph-name="uni1E03" unicode="&#x1e03;" horiz-adv-x="337" 
d="M209 419q0 26 -5.5 35.5t-24.5 9.5h-12q-35 0 -35 -54v-268q0 -54 35 -54h12q19 0 24.5 9.5t5.5 35.5v286zM132 700v-195q17 52 79 52h22q45 0 61.5 -22t16.5 -77v-364q0 -55 -16.5 -77t-61.5 -22h-22q-67 0 -83 62l-9 -57h-89v700h102zM126 734h-89v90h89v-90z" />
    <glyph glyph-name="uni1E0A" unicode="&#x1e0a;" horiz-adv-x="375" 
d="M33 0v700h186q75 0 101.5 -29.5t26.5 -112.5v-416q0 -83 -26.5 -112.5t-101.5 -29.5h-186zM146 106h52q24 0 30 10t6 41v386q0 31 -6 41t-30 10h-52v-488zM228 734h-89v90h89v-90z" />
    <glyph glyph-name="uni1E0B" unicode="&#x1e0b;" horiz-adv-x="337" 
d="M206 142v268q0 54 -36 54h-11q-20 0 -25.5 -9.5t-5.5 -35.5v-286q0 -26 5.5 -35.5t25.5 -9.5h11q36 0 36 54zM307 93q0 -56 9 -93h-97q-7 14 -10 61q-14 -66 -83 -66h-21q-45 0 -62 22t-17 77v364q0 55 17 77t62 22h21q63 0 80 -54v197h101v-607zM301 734h-89v90h89v-90z
" />
    <glyph glyph-name="uni1E1E" unicode="&#x1e1e;" horiz-adv-x="272" 
d="M146 594v-186h98v-106h-98v-302h-113v700h234v-106h-121zM199 734h-89v90h89v-90z" />
    <glyph glyph-name="uni1E1F" unicode="&#x1e1f;" horiz-adv-x="197" 
d="M5 467v85h35v23q0 72 24 98.5t90 26.5h39v-80h-18q-20 0 -27.5 -8t-7.5 -35v-25h53v-85h-51v-467h-102v467h-35zM161 734h-89v90h89v-90z" />
    <glyph glyph-name="uni1E40" unicode="&#x1e40;" horiz-adv-x="502" 
d="M345 369l-53 -369h-94l-52 369q-3 21 -9.5 72.5t-8.5 70.5q2 -90 2 -143v-369h-98v700h167l40 -334q4 -34 10 -112q4 78 8 112l40 334h173v-700h-110v369q0 51 2 141q-4 -26 -9.5 -76.5t-7.5 -64.5zM296 734h-89v90h89v-90z" />
    <glyph glyph-name="uni1E41" unicode="&#x1e41;" horiz-adv-x="512" 
d="M132 0h-102v552h96v-69q13 74 85 74h18q36 0 53 -13.5t22 -45.5q18 59 82 59h19q45 0 61.5 -22t16.5 -77v-458h-102v419q0 26 -5.5 35.5t-24.5 9.5h-8q-36 0 -36 -54v-410h-101v419q0 26 -6 35.5t-25 9.5h-8q-35 0 -35 -54v-410zM300 593h-89v90h89v-90z" />
    <glyph glyph-name="uni1E56" unicode="&#x1e56;" horiz-adv-x="358" 
d="M33 0v700h183q75 0 101 -29.5t26 -112.5v-164q0 -83 -26 -112.5t-101 -29.5h-70v-252h-113zM146 358h48q24 0 30.5 10.5t6.5 40.5v134q0 31 -6.5 41t-30.5 10h-48v-236zM226 734h-89v90h89v-90z" />
    <glyph glyph-name="uni1E57" unicode="&#x1e57;" horiz-adv-x="337" 
d="M209 419q0 26 -5.5 35.5t-24.5 9.5h-12q-35 0 -35 -54v-268q0 -54 35 -54h12q19 0 24.5 9.5t5.5 35.5v286zM132 -127h-102v679h96v-69q13 74 85 74h22q45 0 61.5 -22t16.5 -77v-364q0 -55 -16.5 -77t-61.5 -22h-22q-61 0 -79 51v-173zM215 593h-89v90h89v-90z" />
    <glyph glyph-name="uni1E60" unicode="&#x1e60;" horiz-adv-x="347" 
d="M212 152v38q0 42 -16 66.5t-70 70.5q-61 53 -82 91t-21 107v38q0 83 26 112.5t101 29.5h48q75 0 101 -29.5t26 -112.5v-97h-106v82q0 31 -6.5 41t-29.5 10h-12q-24 0 -30 -9.5t-6 -39.5v-24q0 -42 16 -66t70 -71q61 -54 82.5 -91.5t21.5 -106.5v-54q0 -83 -26 -112.5
t-101 -29.5h-48q-75 0 -101 29.5t-26 112.5v117h105v-102q0 -31 6 -41t30 -10h13q23 0 29 10t6 41zM218 734h-89v90h89v-90z" />
    <glyph glyph-name="uni1E61" unicode="&#x1e61;" horiz-adv-x="320" 
d="M196 134v22q0 29 -14.5 45t-64.5 48q-55 34 -75 65.5t-20 85.5v31q0 74 23.5 100t90.5 26h48q67 0 90.5 -26t23.5 -100v-67h-96v54q0 27 -6 36.5t-26 9.5h-14q-20 0 -26 -9.5t-6 -36.5v-12q0 -29 14.5 -45t64.5 -48q55 -34 75 -65.5t20 -85.5v-40q0 -74 -23.5 -100.5
t-90.5 -26.5h-48q-67 0 -90.5 26.5t-23.5 100.5v76h96v-64q0 -27 5.5 -36.5t26.5 -9.5h14q20 0 26 9.5t6 36.5zM204 593h-89v90h89v-90z" />
    <glyph glyph-name="uni1E6A" unicode="&#x1e6a;" horiz-adv-x="269" 
d="M191 0h-113v595h-75v105h263v-105h-75v-595zM179 734h-89v90h89v-90z" />
    <glyph glyph-name="uni1E6B" unicode="&#x1e6b;" horiz-adv-x="194" 
d="M5 467v85h35v120h102v-120h49v-85h-49v-341q0 -78 18 -126h-107q-13 27 -13 112v355h-35zM135 713h-89v90h89v-90z" />
    <glyph glyph-name="Wgrave" unicode="&#x1e80;" horiz-adv-x="538" 
d="M262 268l-26 -268h-143l-84 700h113l32 -302q16 -162 18 -217q4 91 17 217l32 302h110l32 -302q13 -133 16 -217q3 80 18 217l33 302h101l-84 -700h-137l-26 268q-7 68 -11 185q-4 -117 -11 -185zM264 838l51 -117h-64l-77 117h90z" />
    <glyph glyph-name="wgrave" unicode="&#x1e81;" horiz-adv-x="493" 
d="M232 146l-17 -146h-138l-72 552h104l20 -160q14 -110 23 -272q10 153 27 271l22 161h103l22 -161q17 -118 27 -271q10 176 22 272l21 160h92l-73 -552h-132l-17 146q-15 123 -18 186q-5 -93 -16 -186zM242 697l51 -117h-64l-77 117h90z" />
    <glyph glyph-name="Wacute" unicode="&#x1e82;" horiz-adv-x="538" 
d="M262 268l-26 -268h-143l-84 700h113l32 -302q16 -162 18 -217q4 91 17 217l32 302h110l32 -302q13 -133 16 -217q3 80 18 217l33 302h101l-84 -700h-137l-26 268q-7 68 -11 185q-4 -117 -11 -185zM223 721l51 117h89l-77 -117h-63z" />
    <glyph glyph-name="wacute" unicode="&#x1e83;" horiz-adv-x="493" 
d="M232 146l-17 -146h-138l-72 552h104l20 -160q14 -110 23 -272q10 153 27 271l22 161h103l22 -161q17 -118 27 -271q10 176 22 272l21 160h92l-73 -552h-132l-17 146q-15 123 -18 186q-5 -93 -16 -186zM201 580l51 117h89l-77 -117h-63z" />
    <glyph glyph-name="Wdieresis" unicode="&#x1e84;" horiz-adv-x="538" 
d="M262 268l-26 -268h-143l-84 700h113l32 -302q16 -162 18 -217q4 91 17 217l32 302h110l32 -302q13 -133 16 -217q3 80 18 217l33 302h101l-84 -700h-137l-26 268q-7 68 -11 185q-4 -117 -11 -185zM376 734h-88v90h88v-90zM249 734h-89v90h89v-90z" />
    <glyph glyph-name="wdieresis" unicode="&#x1e85;" horiz-adv-x="493" 
d="M232 146l-17 -146h-138l-72 552h104l20 -160q14 -110 23 -272q10 153 27 271l22 161h103l22 -161q17 -118 27 -271q10 176 22 272l21 160h92l-73 -552h-132l-17 146q-15 123 -18 186q-5 -93 -16 -186zM353 593h-88v90h88v-90zM226 593h-89v90h89v-90z" />
    <glyph glyph-name="Ygrave" unicode="&#x1ef2;" horiz-adv-x="339" 
d="M226 0h-112v221l-110 479h113l29 -139q23 -110 31 -200q7 88 30 200l28 139h101l-110 -479v-221zM169 838l51 -117h-64l-77 117h90z" />
    <glyph glyph-name="ygrave" unicode="&#x1ef3;" horiz-adv-x="312" 
d="M213 -40q-13 -87 -104 -87h-90v77h45q28 0 28 26v27l-88 549h104l26 -175q20 -128 28 -264q8 145 27 264l27 175h92zM155 697l51 -117h-64l-77 117h90z" />
    <glyph glyph-name="figuredash" unicode="&#x2012;" 
d="M343 307v-77h-343v77h343z" />
    <glyph glyph-name="endash" unicode="&#x2013;" horiz-adv-x="500" 
d="M500 307v-77h-500v77h500z" />
    <glyph glyph-name="emdash" unicode="&#x2014;" horiz-adv-x="1000" 
d="M1000 307v-77h-1000v77h1000z" />
    <glyph glyph-name="quoteleft" unicode="&#x2018;" horiz-adv-x="171" 
d="M143 607v-144h-115v144l100 93l6 -6l-63 -87h72z" />
    <glyph glyph-name="quoteright" unicode="&#x2019;" horiz-adv-x="171" 
d="M28 556v144h115v-144l-100 -93l-6 6l63 87h-72z" />
    <glyph glyph-name="quotesinglbase" unicode="&#x201a;" horiz-adv-x="171" 
d="M28 0v144h115v-144l-100 -93l-6 6l63 87h-72z" />
    <glyph glyph-name="quotedblleft" unicode="&#x201c;" horiz-adv-x="306" 
d="M284 607v-144h-115v144l100 93l6 -6l-63 -87h72zM136 607v-144h-115v144l100 93l6 -6l-63 -87h72z" />
    <glyph glyph-name="quotedblright" unicode="&#x201d;" horiz-adv-x="306" 
d="M169 556v144h115v-144l-100 -93l-6 6l63 87h-72zM21 556v144h115v-144l-100 -93l-6 6l63 87h-72z" />
    <glyph glyph-name="quotedblbase" unicode="&#x201e;" horiz-adv-x="306" 
d="M169 0v144h115v-144l-100 -93l-6 6l63 87h-72zM21 0v144h115v-144l-100 -93l-6 6l63 87h-72z" />
    <glyph glyph-name="dagger" unicode="&#x2020;" horiz-adv-x="338" 
d="M220 435v-532h-102v532h-114v92h114v173h102v-173h115v-92h-115z" />
    <glyph glyph-name="daggerdbl" unicode="&#x2021;" horiz-adv-x="338" 
d="M220 112v-209h-102v209h-114v92h114v231h-114v92h114v173h102v-173h115v-92h-115v-231h115v-92h-115z" />
    <glyph glyph-name="bullet" unicode="&#x2022;" horiz-adv-x="292" 
d="M29 350q0 54 31.5 88.5t84.5 34.5t85.5 -34.5t32.5 -88.5q0 -53 -32.5 -87.5t-85.5 -34.5q-52 0 -84 34.5t-32 87.5z" />
    <glyph glyph-name="ellipsis" unicode="&#x2026;" horiz-adv-x="454" 
d="M21 0v144h115v-144h-115zM169 0v144h115v-144h-115zM317 0v144h115v-144h-115z" />
    <glyph glyph-name="perthousand" unicode="&#x2030;" horiz-adv-x="830" 
d="M160 0l229 700h31l-230 -700h-30zM21 353v255q0 56 18.5 76.5t70.5 20.5h39q51 0 70 -20.5t19 -76.5v-255q0 -56 -19 -77t-70 -21h-39q-52 0 -70.5 21t-18.5 77zM98 594v-227q0 -23 5 -31t22 -8h9q17 0 22 8t5 31v227q0 22 -5 30t-22 8h-9q-17 0 -22 -8t-5 -30zM341 93
v255q0 56 18.5 76.5t70.5 20.5h39q51 0 70 -20.5t19 -76.5v-255q0 -56 -19 -77t-70 -21h-39q-52 0 -70.5 21t-18.5 77zM418 334v-227q0 -23 5 -31t22 -8h9q17 0 22 8t5 31v227q0 22 -5 30t-22 8h-9q-17 0 -22 -8t-5 -30zM592 93v255q0 56 18.5 76.5t70.5 20.5h39
q51 0 70 -20.5t19 -76.5v-255q0 -56 -19 -77t-70 -21h-39q-52 0 -70.5 21t-18.5 77zM669 334v-227q0 -23 5 -31t22 -8h9q17 0 22 8t5 31v227q0 22 -5 30t-22 8h-9q-17 0 -22 -8t-5 -30z" />
    <glyph glyph-name="guilsinglleft" unicode="&#x2039;" horiz-adv-x="199" 
d="M102 76l-98 200l98 200h93l-89 -200l89 -200h-93z" />
    <glyph glyph-name="guilsinglright" unicode="&#x203a;" horiz-adv-x="199" 
d="M195 276l-98 -200h-93l89 200l-89 200h93z" />
    <glyph glyph-name="fraction" unicode="&#x2044;" 
d="M42 0l229 700h31l-230 -700h-30z" />
    <glyph glyph-name="zerosuperior" unicode="&#x2070;" horiz-adv-x="259" 
d="M21 353v255q0 56 18.5 76.5t70.5 20.5h39q51 0 70 -20.5t19 -76.5v-255q0 -56 -19 -77t-70 -21h-39q-52 0 -70.5 21t-18.5 77zM98 594v-227q0 -23 5 -31t22 -8h9q17 0 22 8t5 31v227q0 22 -5 30t-22 8h-9q-17 0 -22 -8t-5 -30z" />
    <glyph glyph-name="foursuperior" unicode="&#x2074;" horiz-adv-x="259" 
d="M136 700h80v-295h28v-66h-28v-79h-77v79h-125v61zM84 405h55v38q0 57 5 144q-26 -91 -46 -144z" />
    <glyph glyph-name="zeroinferior" unicode="&#x2080;" horiz-adv-x="259" 
d="M21 93v255q0 56 18.5 76.5t70.5 20.5h39q51 0 70 -20.5t19 -76.5v-255q0 -56 -19 -77t-70 -21h-39q-52 0 -70.5 21t-18.5 77zM98 334v-227q0 -23 5 -31t22 -8h9q17 0 22 8t5 31v227q0 22 -5 30t-22 8h-9q-17 0 -22 -8t-5 -30z" />
    <glyph glyph-name="oneinferior" unicode="&#x2081;" horiz-adv-x="145" 
d="M112 0h-77v401q13 0 27 13t14 26h36v-440z" />
    <glyph glyph-name="twoinferior" unicode="&#x2082;" horiz-adv-x="259" 
d="M99 334v-55h-72v69q0 56 18.5 76.5t69.5 20.5h35q52 0 70.5 -20.5t18.5 -76.5v-26q0 -22 -4.5 -41.5t-9 -31t-17 -26t-17 -18.5t-22 -18t-19.5 -16q-30 -24 -42 -41.5t-12 -48.5v-8h140v-73h-217v82q0 49 19.5 79.5t56.5 58.5q37 27 52 49t15 58v7q0 22 -5 30t-22 8h-9
q-17 0 -22 -8t-5 -30z" />
    <glyph glyph-name="threeinferior" unicode="&#x2083;" horiz-adv-x="259" 
d="M159 107v43q0 22 -5 30t-22 8h-65v73h65q17 0 22 8t5 30v35q0 22 -5 30t-22 8h-10q-17 0 -21.5 -7.5t-4.5 -30.5v-22h-73v36q0 56 19 76.5t70 20.5h35q51 0 70 -20.5t19 -76.5v-31q0 -44 -11 -65t-38 -28q27 -7 38 -28.5t11 -64.5v-38q0 -56 -19.5 -77t-69.5 -21h-35
q-51 0 -70 21t-19 77v38h73v-24q0 -23 4.5 -31t22.5 -8h9q17 0 22 8t5 31z" />
    <glyph glyph-name="fourinferior" unicode="&#x2084;" horiz-adv-x="259" 
d="M136 440h80v-295h28v-66h-28v-79h-77v79h-125v61zM84 145h55v38q0 57 5 144q-26 -91 -46 -144z" />
    <glyph glyph-name="Euro" unicode="&#x20ac;" 
d="M317 399h-180v-61h180v-34h-180v-162q0 -28 6 -38t28 -10h13q22 0 28 10t6 38v99h99v-115q0 -77 -24 -104t-94 -27h-49q-70 0 -94 27t-24 104v178h-27v34h27v61h-27v34h27v141q0 77 24 104t94 27h49q70 0 94 -27t24 -104v-79h-99v63q0 28 -6 38t-28 10h-13q-22 0 -28 -10
t-6 -38v-125h180v-34z" />
    <glyph glyph-name="numero" unicode="&#x2116;" horiz-adv-x="629" 
d="M222 0l-74 341q-9 43 -23 132q5 -113 5 -132v-341h-98v700h143l61 -306q13 -64 22 -135q0 14 -2 61.5t-2 74.5v305h97v-700h-129zM397 199v72h210v-72h-210zM397 404v206q0 56 17.5 75.5t66.5 19.5h42q50 0 67 -19.5t17 -75.5v-206q0 -56 -17 -76t-67 -20h-42
q-49 0 -66.5 20t-17.5 76zM532 414v185q0 21 -4.5 28.5t-20.5 7.5h-9q-16 0 -20.5 -7.5t-4.5 -28.5v-185q0 -21 4.5 -28t20.5 -7h9q16 0 20.5 7t4.5 28z" />
    <glyph glyph-name="uni2117" unicode="&#x2117;" horiz-adv-x="553" 
d="M520 460v-220q0 -130 -48 -187.5t-178 -57.5h-36q-129 0 -177 57.5t-48 187.5v220q0 130 48 187.5t177 57.5h36q130 0 178 -57.5t48 -187.5zM96 460v-220q0 -106 35 -146.5t128 -40.5h35q93 0 127.5 40.5t34.5 146.5v220q0 106 -34.5 146.5t-127.5 40.5h-35
q-93 0 -128 -40.5t-35 -146.5zM385 475v-93q0 -52 -17 -70.5t-65 -18.5h-48v-171h-69v442h117q48 0 65 -18.5t17 -70.5zM289 501h-34v-144h34q16 0 21.5 7.5t5.5 28.5v72q0 21 -5.5 28.5t-21.5 7.5z" />
    <glyph glyph-name="trademark" unicode="&#x2122;" horiz-adv-x="522" 
d="M359 494l34 206h107v-414h-74v198q0 46 4 116q-3 -20 -10 -61t-9 -55l-34 -198h-60l-35 198q-5 25 -20 120q4 -74 4 -120v-198h-62v414h103l34 -206q5 -35 9 -94q4 67 9 94zM3 639v61h176v-61h-51v-353h-74v353h-51z" />
    <glyph glyph-name="uni2126" unicode="&#x2126;" horiz-adv-x="365" 
d="M26 0v105h64v57q-37 7 -50.5 35t-13.5 92v274q0 83 26 112.5t101 29.5h59q75 0 101 -29.5t26 -112.5v-274q0 -64 -13.5 -92t-50.5 -35v-57h64v-105h-136v241q15 0 19.5 7.5t4.5 28.5v271q0 31 -6 41t-30 10h-17q-24 0 -30 -10t-6 -41v-271q0 -22 4 -29t19 -7v-241h-135z
" />
    <glyph glyph-name="onethird" unicode="&#x2153;" horiz-adv-x="483" 
d="M64 0l229 700h31l-230 -700h-30zM112 260h-77v401q13 0 27 13t14 26h36v-440zM383 107v43q0 22 -5 30t-22 8h-65v73h65q17 0 22 8t5 30v35q0 22 -5 30t-22 8h-10q-17 0 -21.5 -7.5t-4.5 -30.5v-22h-73v36q0 56 19 76.5t70 20.5h35q51 0 70 -20.5t19 -76.5v-31
q0 -44 -11 -65t-38 -28q27 -7 38 -28.5t11 -64.5v-38q0 -56 -19.5 -77t-69.5 -21h-35q-51 0 -70 21t-19 77v38h73v-24q0 -23 4.5 -31t22.5 -8h9q17 0 22 8t5 31z" />
    <glyph glyph-name="twothirds" unicode="&#x2154;" horiz-adv-x="579" 
d="M160 0l229 700h31l-230 -700h-30zM99 594v-55h-72v69q0 56 18.5 76.5t69.5 20.5h35q52 0 70.5 -20.5t18.5 -76.5v-26q0 -22 -4.5 -41.5t-9 -31t-17 -26t-17 -18.5t-22 -18t-19.5 -16q-30 -24 -42 -41.5t-12 -48.5v-8h140v-73h-217v82q0 49 19.5 79.5t56.5 58.5
q37 27 52 49t15 58v7q0 22 -5 30t-22 8h-9q-17 0 -22 -8t-5 -30zM479 107v43q0 22 -5 30t-22 8h-65v73h65q17 0 22 8t5 30v35q0 22 -5 30t-22 8h-10q-17 0 -21.5 -7.5t-4.5 -30.5v-22h-73v36q0 56 19 76.5t70 20.5h35q51 0 70 -20.5t19 -76.5v-31q0 -44 -11 -65t-38 -28
q27 -7 38 -28.5t11 -64.5v-38q0 -56 -19.5 -77t-69.5 -21h-35q-51 0 -70 21t-19 77v38h73v-24q0 -23 4.5 -31t22.5 -8h9q17 0 22 8t5 31z" />
    <glyph glyph-name="partialdiff" unicode="&#x2202;" 
d="M312 572v-450q0 -74 -23.5 -100.5t-89.5 -26.5h-54q-68 0 -91 26.5t-23 100.5v336q0 55 17 77t62 22h21q64 0 81 -57v69q0 29 -6.5 40t-28.5 11h-29v80h49q67 0 91 -27.5t24 -100.5zM133 134q0 -27 6 -36.5t26 -9.5h13q21 0 26.5 9.5t5.5 36.5v276q0 54 -35 54h-12
q-19 0 -24.5 -9.5t-5.5 -35.5v-285z" />
    <glyph glyph-name="uni2206" unicode="&#x2206;" 
d="M335 0h-326l134 699h60zM155 505q-8 -68 -33 -224l-36 -217h138l-36 217q-28 173 -33 224z" />
    <glyph glyph-name="product" unicode="&#x220f;" horiz-adv-x="380" 
d="M146 -70h-113v770h314v-770h-113v664h-88v-664z" />
    <glyph glyph-name="summation" unicode="&#x2211;" horiz-adv-x="321" 
d="M267 314l-133 -278h173v-106h-293v97l137 287l-137 289v97h293v-106h-174z" />
    <glyph glyph-name="minus" unicode="&#x2212;" 
d="M317 396v-92h-291v92h291z" />
    <glyph glyph-name="radical" unicode="&#x221a;" 
d="M207 488l25 212h95l-92 -700h-139l-37 267h-32v91h106l35 -287q27 313 39 417z" />
    <glyph glyph-name="infinity" unicode="&#x221e;" horiz-adv-x="733" 
d="M345 317q-12 0 -23.5 12.5t-14.5 12.5t-11 -2t-14 -2q-8 0 -14.5 8t-6.5 17q0 22 8 35q-7 -7 -16 -37t-26 -41q-18 -12 -18 -40q0 -11 11 -21.5t11 -12.5q0 -4 -3 -4q-7 0 -12 5q13 -68 48 -104h-55q-35 114 -35 226q0 105 40.5 171.5t135.5 66.5q190 0 190 -254
q0 -75 -25 -210h-73q53 47 62 117q-4 -8 -13 -8q-3 0 -3 2l4 4q5 3 9.5 11.5t4.5 21.5q-4 -6 -15 -6q-1 0 -10.5 -4.5t-15.5 -4.5q-14 0 -40 3.5t-70 3.5q-22 0 -52.5 -6t-38.5 -6q-5 0 -13 2t-11 2q-28 0 -28 12q0 10 37 18.5t74 8.5q5 0 12 -0.5t12 -0.5t15.5 2t14.5 2
q112 0 127 -20q-1 16 -14 29t-30 13q-6 0 -6 7q0 57 -16 58q4 -7 4 -17q0 -18 -11 -32t-27 -14q-4 0 -10 2l-7 2q-1 0 -14.5 -14t-27.5 -14zM733 291v-148q-22 48 -69 112.5t-67 64.5q6 -85 -12 -177h-42q16 104 16 199q0 319 -213 319q-53 0 -91.5 -26.5t-59 -72.5
t-30 -97.5t-9.5 -111.5q0 -123 29 -210h-47q-19 67 -19 184q-17 -9 -39.5 -43.5t-49 -84.5t-30.5 -56v148q11 27 33 54t50 53.5t30 28.5q3 72 27 135t75.5 107.5t120.5 44.5q67 0 115.5 -22.5t76.5 -64t42.5 -87t22.5 -105.5q22 -5 68 -48t72 -96zM345 503q-3 3 -3 6
q0 2 2 2q1 0 6 -4.5t15 -8.5t22 -4q16 0 29 4t20 8l6 5q4 0 4 -2l-8 -8q24 0 52 -11q-29 80 -139 80q-55 0 -92 -33t-50 -85q37 20 41 39q-6 4 -6 7q0 4 3 4l2 -2q2 -1 6.5 -3.5t10 -5t13.5 -4t17 -1.5q24 0 49 17zM371 416q0 20 -4.5 40t-9.5 20q-10 0 -19 -39t-14 -39
q-3 0 -9.5 3t-11.5 3q-13 0 -21 -10.5t-8 -24.5t11 -14t18 6.5t9 6.5t12 -13.5t20 -13.5q14 0 25 10.5t12 10.5q3 0 10 -3.5t9 -3.5q10 0 18 11t8 24q0 10 -6 18t-16 8q-7 0 -14.5 -6.5t-11.5 -6.5q-7 0 -7 13zM510 318q0 95 -12 147l-5 3q0 -21 -18 -32t-41 -11
q-21 0 -37 12.5t-16 29.5q0 6 2 9q-12 2 -15 4q6 -9 10 -24t5.5 -24t4.5 -9q7 2 15 2q19 0 31 -14q34 0 34 -51q0 -3 8 -7t18.5 -13t15.5 -22zM383 310q-1 0 -8 -1t-15.5 -2t-13.5 -1t-13 1.5t-11 1.5q-15 0 -36 -4t-35 -9t-14 -8q0 -10 20 -10q24 0 54 6.5t44 6.5
q19 0 57.5 -3.5t52.5 -3.5q5 0 9.5 2t7.5 4t3 3q0 5 -36 11t-66 6zM267 413q-18 0 -31 10t-15 21q-4 -2 -15 -5q-4 -21 -4 -43q0 -50 3 -78q4 6 22 22t20 31q5 37 38 41q12 5 23 5q5 0 8.5 8.5t9.5 24.5t16 28l-13 -4q-1 -24 -18.5 -42.5t-43.5 -18.5zM419 465q-13 0 -16 13
q-5 0 -8.5 -5.5t-3.5 -9.5q0 -10 15 -17t31 -7q14 0 29 8.5t15 21.5q0 8 -14.5 12.5t-28.5 4.5q-5 -21 -19 -21zM267 427q14 0 30 11t16 24q0 6 -1 9q-20 0 -27 1q-5 -14 -18 -14q-10 0 -15 5q-4 -4 -18 -12q4 -24 33 -24zM266 288q-2 0 -2 3q0 12 107 12q93 0 93 -8
q0 -3 -3 -3q-1 0 -4 0.5t-10 1t-16 1.5t-24.5 1.5t-33.5 0.5q-36 0 -61 -2.5t-36 -4.5zM305 262q0 10 63 10q31 0 31 -8q0 -3 -2 -3q-4 0 -10 2t-10 2q-11 0 -26 -0.5t-20 -0.5q-4 0 -11.5 -3t-10.5 -3q-4 0 -4 4zM417 473q9 0 9 13q-1 0 -16 -6q0 -7 7 -7zM266 466
q7 0 10 9q-6 1 -11 4q0 -4 -6 -10q1 -3 7 -3zM325 34l-3 48l-10 -82h-21l15 125h25l4 -60l21 60h26l-15 -125h-22l10 82l-16 -48h-14zM21 125h35q23 0 20 -21l-10 -82q-3 -22 -22 -22h-38zM282 44q-1 -12 -10 -17l8 -27h-21l-7 23h-7l-3 -23h-22l15 125h36q21 0 18 -24z
M183 0l3 23h-14l-3 -23h-21l12 104q2 21 22 21h17q19 0 18 -21l-12 -104h-22zM594 0l15 125h35q23 0 20 -21l-8 -62q-3 -19 -22 -19h-15l-3 -23h-22zM111 0l3 23h-13l-3 -23h-22l15 125h22l-10 -83h13l10 83h22l-15 -125h-22zM539 125h22l-10 -79q0 -4 4 -4h5q5 0 5 4l9 79
h22l-10 -81q-3 -21 -19 -21l-9 -23h-23l9 23q-18 0 -15 21zM477 106l3 19h50l-3 -19h-13l-12 -106h-23l12 106h-14zM41 106l-11 -88h11q3 0 3 4l9 80q0 4 -4 4h-8zM629 106l-8 -64h8q5 0 5 4l7 56q0 4 -4 4h-8zM174 42h14l7 60q0 4 -4 4h-5q-5 0 -5 -4zM255 106l-8 -64h8
q5 0 5 4l7 56q0 4 -3 4h-9zM711 57l-3 -18h-19l-3 -21h27l-2 -18h-49l15 125h47l-3 -19h-24l-6 -49h20zM417 0l3 23h-14l-3 -23h-21l12 104q2 21 22 21h17q19 0 18 -21l-12 -104h-22zM408 42h14l7 60q0 4 -4 4h-5q-5 0 -5 -4z" />
    <glyph glyph-name="integral" unicode="&#x222b;" 
d="M121 61v512q0 74 23 100.5t91 26.5h48v-85h-25q-21 0 -28 -9t-7 -37v-512q0 -74 -23.5 -100.5t-90.5 -26.5h-48v86h25q20 0 27.5 8.5t7.5 36.5z" />
    <glyph glyph-name="approxequal" unicode="&#x2248;" 
d="M317 331v-95q-33 -46 -77 -46q-25 0 -74 21.5t-72 21.5q-39 0 -68 -44v94q33 46 76 46q25 0 74 -21.5t72 -21.5q40 0 69 45zM317 511v-95q-33 -46 -77 -46q-25 0 -74 21.5t-72 21.5q-39 0 -68 -44v94q33 46 76 46q25 0 74 -21.5t72 -21.5q40 0 69 45z" />
    <glyph glyph-name="notequal" unicode="&#x2260;" 
d="M317 307v-91h-166l-39 -97h-67l39 97h-58v91h94l35 86h-129v91h166l38 94h67l-38 -94h58v-91h-95l-35 -86h130z" />
    <glyph glyph-name="lessequal" unicode="&#x2264;" 
d="M317 222v-83h-291v83h291zM145 405l172 -148h-121l-170 148l170 147h121z" />
    <glyph glyph-name="greaterequal" unicode="&#x2265;" 
d="M26 139v83h291v-83h-291zM26 257l172 148l-172 147h121l170 -147l-170 -148h-121z" />
    <glyph glyph-name="lozenge" unicode="&#x25ca;" 
d="M207 0h-71l-128 349l127 351h72l127 -351zM95 349l21 -60q42 -121 55 -180q13 59 55 180l21 60l-21 60q-41 116 -55 180q-11 -46 -56 -180z" />
    <glyph glyph-name="commaaccent" horiz-adv-x="171" 
d="M42 -134v89h88v-89l-76 -72l-6 5l49 67h-55z" />
    <glyph glyph-name="g.alt" horiz-adv-x="337" 
d="M128 145q0 -26 5.5 -35.5t25.5 -9.5h11q36 0 36 54v256q0 54 -36 54h-11q-20 0 -25.5 -9.5t-5.5 -35.5v-274zM206 -33v94q-17 -54 -80 -54h-21q-45 0 -62 22t-17 77v352q0 55 17 77t62 22h21q67 0 83 -65l10 60h88v-557q0 -74 -23.5 -100.5t-89.5 -26.5h-50q-67 0 -90 21
t-23 82v10h97v-17q0 -25 6 -34t26 -9h14q21 0 26.5 9.5t5.5 36.5z" />
    <glyph glyph-name="i.trk" horiz-adv-x="162" 
d="M132 552v-552h-102v552h102zM30 608v92h102v-92h-102z" />
    <glyph glyph-name="r.alt" horiz-adv-x="318" 
d="M132 0h-102v552h96v-69q13 74 85 74h11q45 0 62 -22t17 -77v-206h-96v167q0 26 -5.5 35.5t-24.5 9.5h-8q-35 0 -35 -54v-410z" />
    <glyph glyph-name="y.alt" horiz-adv-x="340" 
d="M130 552v-407q0 -26 6 -35.5t25 -9.5h11q36 0 36 54v398h102v-557q0 -74 -23.5 -100.5t-90.5 -26.5h-49q-67 0 -90.5 21t-23.5 82v10h97v-17q0 -24 6 -33.5t26 -9.5h14q21 0 26.5 9.5t5.5 36.5v94q-17 -54 -80 -54h-21q-45 0 -62 22t-17 77v446h102z" />
    <glyph glyph-name="zero.alt" 
d="M317 574v-448q0 -77 -24 -104t-94 -27h-55q-70 0 -94 27t-24 104v448q0 77 24 104t94 27h55q70 0 94 -27t24 -104zM131 558v-416q0 -28 6 -38t28 -10h13q22 0 28 10t6 38v416q0 28 -6 38t-28 10h-13q-22 0 -28 -10t-6 -38z" />
    <glyph glyph-name="one.alt" 
d="M240 0h-105v647q19 0 37.5 17.5t18.5 35.5h49v-700z" />
    <glyph glyph-name="two.alt" 
d="M215 545v13q0 28 -6 38t-28 10h-13q-22 0 -28 -10t-6 -38v-107h-99v123q0 77 24 104t94 27h49q70 0 94 -27t24 -104v-36q0 -75 -21 -121t-87 -125q-49 -60 -66 -96t-17 -95v-3h191v-98h-295v107q0 76 21 121.5t86 124.5q50 60 66.5 96t16.5 96z" />
    <glyph glyph-name="three.alt" 
d="M127 558v-81h-98v97q0 77 24 104t94 27h49q69 0 93 -27t24 -104v-82q0 -57 -12.5 -85.5t-44.5 -38.5q32 -10 44.5 -38.5t12.5 -85.5v-118q0 -77 -24 -104t-93 -27h-49q-70 0 -94 27t-24 104v134h98v-118q0 -28 6.5 -38t27.5 -10h14q21 0 27.5 10t6.5 38v129q0 28 -6.5 38
t-27.5 10h-97v99h97q22 0 28 9.5t6 37.5v93q0 28 -6.5 38t-27.5 10h-14q-22 0 -28 -10t-6 -38z" />
    <glyph glyph-name="four.alt" 
d="M172 700h112v-493h49v-89h-49v-118h-105v118h-166v81zM102 207h77v117q0 99 9 213q-34 -150 -52 -213z" />
    <glyph glyph-name="five.alt" 
d="M130 375v-62h-99v387h271v-98h-172v-133q16 59 83 59h24q46 0 62.5 -23t16.5 -80v-299q0 -77 -24.5 -104t-93.5 -27h-49q-70 0 -94 27t-24 104v134h99v-118q0 -28 6 -38t28 -10h13q22 0 28 10t6 38v243q0 27 -5.5 36.5t-25.5 9.5h-13q-37 0 -37 -56z" />
    <glyph glyph-name="six.alt" 
d="M318 363v-237q0 -77 -24 -104t-94 -27h-55q-70 0 -94 27t-24 104v448q0 77 24 104t94 27h49q70 0 94 -27t24 -104v-73h-99v57q0 28 -6 38t-28 10h-13q-22 0 -28 -10t-6 -38v-151q18 59 83 59h24q46 0 62.5 -22.5t16.5 -80.5zM182 369h-13q-37 0 -37 -56v-171q0 -28 6 -38
t28 -10h13q22 0 28 10t6 38v181q0 27 -5.5 36.5t-25.5 9.5z" />
    <glyph glyph-name="seven.alt" 
d="M180 0h-115l156 602h-197v98h294v-89z" />
    <glyph glyph-name="eight.alt" 
d="M198 -5h-54q-70 0 -94 27t-24 104v122q0 57 12.5 85.5t44.5 38.5q-32 10 -44.5 38.5t-12.5 86.5v77q0 77 24 104t94 27h54q70 0 94.5 -27t24.5 -104v-77q0 -58 -13 -86.5t-46 -38.5q33 -10 46 -38.5t13 -85.5v-122q0 -77 -24.5 -104t-94.5 -27zM212 142v134q0 28 -6 37.5
t-28 9.5h-13q-22 0 -28 -9.5t-6 -37.5v-134q0 -28 6 -38t28 -10h13q22 0 28 10t6 38zM212 470v88q0 28 -6 38t-28 10h-13q-22 0 -28 -10t-6 -38v-88q0 -28 6 -37.5t28 -9.5h13q22 0 28 9.5t6 37.5z" />
    <glyph glyph-name="nine.alt" 
d="M177 94q22 0 28 10t6 38v161q-18 -59 -84 -59h-24q-45 0 -61.5 22.5t-16.5 80.5v227q0 77 24 104t94 27h55q70 0 94 -27t24 -104v-448q0 -77 -24 -104t-94 -27h-49q-70 0 -94 27t-24 104v83h99v-67q0 -28 6 -38t28 -10h13zM130 558v-171q0 -27 5.5 -36.5t25.5 -9.5h13
q37 0 37 56v161q0 28 -6 38t-28 10h-13q-22 0 -28 -10t-6 -38z" />
    <glyph glyph-name="gbreve.alt" horiz-adv-x="337" 
d="M128 145q0 -26 5.5 -35.5t25.5 -9.5h11q36 0 36 54v256q0 54 -36 54h-11q-20 0 -25.5 -9.5t-5.5 -35.5v-274zM206 -33v94q-17 -54 -80 -54h-21q-45 0 -62 22t-17 77v352q0 55 17 77t62 22h21q67 0 83 -65l10 60h88v-557q0 -74 -23.5 -100.5t-89.5 -26.5h-50q-67 0 -90 21
t-23 82v10h97v-17q0 -25 6 -34t26 -9h14q21 0 26.5 9.5t5.5 36.5zM167 641q27 0 37 11t10 39h54q0 -55 -20 -82t-81 -27t-80.5 27t-19.5 82h54q0 -28 10 -39t36 -11z" />
    <glyph glyph-name="gcircumflex.alt" horiz-adv-x="337" 
d="M128 145q0 -26 5.5 -35.5t25.5 -9.5h11q36 0 36 54v256q0 54 -36 54h-11q-20 0 -25.5 -9.5t-5.5 -35.5v-274zM206 -33v94q-17 -54 -80 -54h-21q-45 0 -62 22t-17 77v352q0 55 17 77t62 22h21q67 0 83 -65l10 60h88v-557q0 -74 -23.5 -100.5t-89.5 -26.5h-50q-67 0 -90 21
t-23 82v10h97v-17q0 -25 6 -34t26 -9h14q21 0 26.5 9.5t5.5 36.5zM203 697l67 -117h-64l-39 59l-39 -59h-64l67 117h72z" />
    <glyph glyph-name="uni0123.alt" horiz-adv-x="337" 
d="M211 683v-89h-88v89l76 72l6 -5l-49 -67h55zM128 145q0 -26 5.5 -35.5t25.5 -9.5h11q36 0 36 54v256q0 54 -36 54h-11q-20 0 -25.5 -9.5t-5.5 -35.5v-274zM206 -33v94q-17 -54 -80 -54h-21q-45 0 -62 22t-17 77v352q0 55 17 77t62 22h21q67 0 83 -65l10 60h88v-557
q0 -74 -23.5 -100.5t-89.5 -26.5h-50q-67 0 -90 21t-23 82v10h97v-17q0 -25 6 -34t26 -9h14q21 0 26.5 9.5t5.5 36.5z" />
    <glyph glyph-name="gdotaccent.alt" horiz-adv-x="337" 
d="M128 145q0 -26 5.5 -35.5t25.5 -9.5h11q36 0 36 54v256q0 54 -36 54h-11q-20 0 -25.5 -9.5t-5.5 -35.5v-274zM206 -33v94q-17 -54 -80 -54h-21q-45 0 -62 22t-17 77v352q0 55 17 77t62 22h21q67 0 83 -65l10 60h88v-557q0 -74 -23.5 -100.5t-89.5 -26.5h-50q-67 0 -90 21
t-23 82v10h97v-17q0 -25 6 -34t26 -9h14q21 0 26.5 9.5t5.5 36.5zM212 593h-89v90h89v-90z" />
    <glyph glyph-name="racute.alt" horiz-adv-x="318" 
d="M119 580l51 117h89l-77 -117h-63zM132 0h-102v552h96v-69q13 74 85 74h11q45 0 62 -22t17 -77v-206h-96v167q0 26 -5.5 35.5t-24.5 9.5h-8q-35 0 -35 -54v-410z" />
    <glyph glyph-name="rcaron.alt" horiz-adv-x="318" 
d="M132 0h-102v552h96v-69q13 74 85 74h11q45 0 62 -22t17 -77v-206h-96v167q0 26 -5.5 35.5t-24.5 9.5h-8q-35 0 -35 -54v-410zM268 697l-67 -117h-72l-67 117h64l39 -59l39 59h64z" />
    <glyph glyph-name="uni0157.alt" horiz-adv-x="318" 
d="M132 0h-102v552h96v-69q13 74 85 74h11q45 0 62 -22t17 -77v-206h-96v167q0 26 -5.5 35.5t-24.5 9.5h-8q-35 0 -35 -54v-410zM37 -134v89h88v-89l-76 -72l-6 5l49 67h-55z" />
    <glyph glyph-name="yacute.alt" horiz-adv-x="340" 
d="M124 580l51 117h89l-77 -117h-63zM130 552v-407q0 -26 6 -35.5t25 -9.5h11q36 0 36 54v398h102v-557q0 -74 -23.5 -100.5t-90.5 -26.5h-49q-67 0 -90.5 21t-23.5 82v10h97v-17q0 -24 6 -33.5t26 -9.5h14q21 0 26.5 9.5t5.5 36.5v94q-17 -54 -80 -54h-21q-45 0 -62 22
t-17 77v446h102z" />
    <glyph glyph-name="ycircumflex.alt" horiz-adv-x="340" 
d="M206 697l67 -117h-64l-39 59l-39 -59h-64l67 117h72zM130 552v-407q0 -26 6 -35.5t25 -9.5h11q36 0 36 54v398h102v-557q0 -74 -23.5 -100.5t-90.5 -26.5h-49q-67 0 -90.5 21t-23.5 82v10h97v-17q0 -24 6 -33.5t26 -9.5h14q21 0 26.5 9.5t5.5 36.5v94q-17 -54 -80 -54
h-21q-45 0 -62 22t-17 77v446h102z" />
    <glyph glyph-name="ydieresis.alt" horiz-adv-x="340" 
d="M277 593h-88v90h88v-90zM150 593h-89v90h89v-90zM130 552v-407q0 -26 6 -35.5t25 -9.5h11q36 0 36 54v398h102v-557q0 -74 -23.5 -100.5t-90.5 -26.5h-49q-67 0 -90.5 21t-23.5 82v10h97v-17q0 -24 6 -33.5t26 -9.5h14q21 0 26.5 9.5t5.5 36.5v94q-17 -54 -80 -54h-21
q-45 0 -62 22t-17 77v446h102z" />
    <glyph glyph-name="ygrave.alt" horiz-adv-x="340" 
d="M165 697l51 -117h-64l-77 117h90zM130 552v-407q0 -26 6 -35.5t25 -9.5h11q36 0 36 54v398h102v-557q0 -74 -23.5 -100.5t-90.5 -26.5h-49q-67 0 -90.5 21t-23.5 82v10h97v-17q0 -24 6 -33.5t26 -9.5h14q21 0 26.5 9.5t5.5 36.5v94q-17 -54 -80 -54h-21q-45 0 -62 22
t-17 77v446h102z" />
    </font>
</defs>
</svg>
